<svg width="63" height="64" viewBox="0 0 63 64" fill="none" xmlns="http://www.w3.org/2000/svg">
<path d="M34 44.2202V47.7502C34 47.8802 33.87 47.9802 33.7 47.9802H30.3C30.13 47.9802 30 47.8702 30 47.7502V44.2202C30 44.0902 30.13 43.9902 30.3 43.9902H33.7C33.87 43.9902 34 44.1002 34 44.2202Z" fill="#053575"/>
<path d="M32 15.9805V39.9805" stroke="#053575" stroke-width="4" stroke-miterlimit="10"/>
<path d="M58 32C58 46.36 46.36 58 32 58C17.64 58 6 46.36 6 32" stroke="#FF8CC5" stroke-width="4" stroke-linejoin="round"/>
<path d="M6 32C6 17.64 17.64 6 32 6C46.36 6 58 17.64 58 32" stroke="#053575" stroke-width="4" stroke-miterlimit="10"/>
</svg>
