<svg width="assetWidth" height="assetHeight" viewBox="0 0 64 64" fill="none" xmlns="http://www.w3.org/2000/svg">
<path d="M20 9.47V16.53C20 16.79 19.8 17 19.55 17H14.45C14.2 17 14 16.79 14 16.53V9.47C14 9.21 14.2 9 14.45 9H19.55C19.8 9 20 9.21 20 9.47Z" fill="colorSecondary"/>
<path d="M50 9.47V16.53C50 16.79 49.8 17 49.55 17H44.45C44.2 17 44 16.79 44 16.53V9.47C44 9.21 44.2 9 44.45 9H49.55C49.8 9 50 9.21 50 9.47Z" fill="colorSecondary"/>
<path d="M55 15.1904H9C7.89543 15.1904 7 16.0859 7 17.1904V53.1904C7 54.295 7.89543 55.1904 9 55.1904H55C56.1046 55.1904 57 54.295 57 53.1904V17.1904C57 16.0859 56.1046 15.1904 55 15.1904Z" stroke="colorPrimary" stroke-width="4" stroke-linecap="round" stroke-linejoin="round"/>
<path d="M43.9902 30.9504V27.4204C43.9902 27.2904 44.1202 27.1904 44.2902 27.1904H47.6902C47.8602 27.1904 47.9902 27.3004 47.9902 27.4204V30.9504C47.9902 31.0804 47.8602 31.1804 47.6902 31.1804H44.2902C44.1202 31.1804 43.9902 31.0704 43.9902 30.9504Z" fill="colorPrimary"/>
<path d="M29.9805 30.9504V27.4204C29.9805 27.2904 30.1105 27.1904 30.2805 27.1904H33.6805C33.8505 27.1904 33.9805 27.3004 33.9805 27.4204V30.9504C33.9805 31.0804 33.8505 31.1804 33.6805 31.1804H30.2805C30.1105 31.1804 29.9805 31.0704 29.9805 30.9504Z" fill="colorPrimary"/>
<path d="M16 30.9504V27.4204C16 27.2904 16.13 27.1904 16.3 27.1904H19.7C19.87 27.1904 20 27.3004 20 27.4204V30.9504C20 31.0804 19.87 31.1804 19.7 31.1804H16.3C16.13 31.1804 16 31.0704 16 30.9504Z" fill="colorPrimary"/>
<path d="M43.9902 42.9504V39.4204C43.9902 39.2904 44.1202 39.1904 44.2902 39.1904H47.6902C47.8602 39.1904 47.9902 39.3004 47.9902 39.4204V42.9504C47.9902 43.0804 47.8602 43.1804 47.6902 43.1804H44.2902C44.1202 43.1804 43.9902 43.0704 43.9902 42.9504Z" fill="colorPrimary"/>
<path d="M29.9805 42.9504V39.4204C29.9805 39.2904 30.1105 39.1904 30.2805 39.1904H33.6805C33.8505 39.1904 33.9805 39.3004 33.9805 39.4204V42.9504C33.9805 43.0804 33.8505 43.1804 33.6805 43.1804H30.2805C30.1105 43.1804 29.9805 43.0704 29.9805 42.9504Z" fill="colorPrimary"/>
<path d="M16 42.9504V39.4204C16 39.2904 16.13 39.1904 16.3 39.1904H19.7C19.87 39.1904 20 39.3004 20 39.4204V42.9504C20 43.0804 19.87 43.1804 19.7 43.1804H16.3C16.13 43.1804 16 43.0704 16 42.9504Z" fill="colorPrimary"/>
</svg>
