<svg width="64" height="64" viewBox="0 0 64 64" fill="none" xmlns="http://www.w3.org/2000/svg">
<path d="M58 13H6C4.89543 13 4 13.8954 4 15V49C4 50.1046 4.89543 51 6 51H58C59.1046 51 60 50.1046 60 49V15C60 13.8954 59.1046 13 58 13Z" stroke="#EFF1F1" stroke-width="4" stroke-linecap="round" stroke-linejoin="round"/>
<path d="M19.7698 28.01H16.2398C16.1098 28.01 16.0098 27.88 16.0098 27.71V24.31C16.0098 24.14 16.1198 24.01 16.2398 24.01H19.7698C19.8998 24.01 19.9998 24.14 19.9998 24.31V27.71C19.9998 27.88 19.8898 28.01 19.7698 28.01Z" fill="#EFF1F1"/>
<path d="M47.7698 28.01H44.2398C44.1098 28.01 44.0098 27.88 44.0098 27.71V24.31C44.0098 24.14 44.1198 24.01 44.2398 24.01H47.7698C47.8998 24.01 47.9998 24.14 47.9998 24.31V27.71C47.9998 27.88 47.8898 28.01 47.7698 28.01Z" fill="#EFF1F1"/>
<path d="M39.0195 34.0098C39.0195 37.8798 35.8895 41.0098 32.0195 41.0098C28.1495 41.0098 25.0195 37.8798 25.0195 34.0098" stroke="#4860FF" stroke-width="4" stroke-miterlimit="10"/>
</svg>
