<svg width="64" height="64" viewBox="0 0 64 64" fill="none" xmlns="http://www.w3.org/2000/svg">
<path d="M26.7698 31.0303H23.2397C23.1097 31.0303 23.0098 30.9003 23.0098 30.7303V27.3303C23.0098 27.1603 23.1197 27.0303 23.2397 27.0303H26.7698C26.8998 27.0303 26.9998 27.1603 26.9998 27.3303V30.7303C26.9998 30.9003 26.8898 31.0303 26.7698 31.0303Z" fill="#053575"/>
<path d="M40.7698 31.0303H37.2397C37.1097 31.0303 37.0098 30.9003 37.0098 30.7303V27.3303C37.0098 27.1603 37.1197 27.0303 37.2397 27.0303H40.7698C40.8998 27.0303 40.9998 27.1603 40.9998 27.3303V30.7303C40.9998 30.9003 40.8898 31.0303 40.7698 31.0303Z" fill="#053575"/>
<path d="M4 27.97L32 7L60 27.97" stroke="#053575" stroke-width="4" stroke-linecap="round" stroke-linejoin="round"/>
<path d="M39.0703 37.0303C39.0703 40.9003 35.9403 44.0303 32.0703 44.0303C28.2003 44.0303 25.0703 40.9003 25.0703 37.0303" stroke="#FF8CC5" stroke-width="4" stroke-miterlimit="10"/>
<path d="M51.0498 34.0195V52.1295C51.0498 54.2795 49.2598 56.0195 47.0498 56.0195H17.0498C14.8398 56.0195 13.0498 54.2795 13.0498 52.1295V34.0195" stroke="#053575" stroke-width="4" stroke-linecap="square" stroke-linejoin="round"/>
</svg>
