<svg width="assetWidth" height="assetHeight" viewBox="0 0 64 64" fill="none" xmlns="http://www.w3.org/2000/svg">
<path d="M33.9307 44.2202V47.7502C33.9307 47.8802 33.8006 47.9802 33.6306 47.9802H30.2307C30.0607 47.9802 29.9307 47.8702 29.9307 47.7502V44.2202C29.9307 44.0902 30.0607 43.9902 30.2307 43.9902H33.6306C33.8006 43.9902 33.9307 44.1002 33.9307 44.2202Z" fill="colorPrimary"/>
<path d="M25.5303 24.5199C25.5303 20.9699 28.6103 18.1499 32.2403 18.5699C34.8703 18.8799 37.0603 20.9799 37.4503 23.5999C37.7303 25.4899 37.1303 27.2399 35.9903 28.5099L32.8003 31.6699C32.2503 32.2199 31.9403 32.9599 31.9403 33.7399V39.9899" stroke="colorPrimary" stroke-width="4" stroke-miterlimit="10"/>
<path d="M58 32C58 46.36 46.36 58 32 58C17.64 58 6 46.36 6 32" stroke="colorSecondary" stroke-width="4" stroke-linejoin="round"/>
<path d="M6 32C6 17.64 17.64 6 32 6C46.36 6 58 17.64 58 32" stroke="colorPrimary" stroke-width="4" stroke-miterlimit="10"/>
</svg>
