<svg width="64" height="64" viewBox="0 0 64 64" fill="none" xmlns="http://www.w3.org/2000/svg">
<path d="M51 56.07V7.92999C51 6.86408 50.1359 6 49.07 6L14.93 6C13.8641 6 13 6.86408 13 7.92999V56.07C13 57.1359 13.8641 58 14.93 58H49.07C50.1359 58 51 57.1359 51 56.07Z" stroke="#EFF1F1" stroke-width="4" stroke-linecap="round" stroke-linejoin="round"/>
<path d="M33.76 52H30.23C30.1 52 30 51.87 30 51.7V48.3C30 48.13 30.11 48 30.23 48H33.76C33.89 48 33.99 48.13 33.99 48.3V51.7C33.99 51.87 33.88 52 33.76 52Z" fill="#EFF1F1"/>
<path d="M26.76 20H23.23C23.1 20 23 19.87 23 19.7V16.3C23 16.13 23.11 16 23.23 16H26.76C26.89 16 26.99 16.13 26.99 16.3V19.7C26.99 19.87 26.88 20 26.76 20Z" fill="#EFF1F1"/>
<path d="M40.76 20H37.23C37.1 20 37 19.87 37 19.7V16.3C37 16.13 37.11 16 37.23 16H40.76C40.89 16 40.99 16.13 40.99 16.3V19.7C40.99 19.87 40.88 20 40.76 20Z" fill="#EFF1F1"/>
<path d="M38.9902 26C38.9902 29.87 35.8602 33 31.9902 33C28.1202 33 24.9902 29.87 24.9902 26" stroke="#4860FF" stroke-width="4" stroke-miterlimit="10"/>
</svg>
