<svg width="354" height="56" viewBox="0 0 354 56" fill="none" xmlns="http://www.w3.org/2000/svg">
<g clip-path="url(#clip0_4920_1314)">
<path d="M42.7037 14.9312C28.0486 14.9312 15.9158 26.2704 15.0796 40.7469C15.0583 41.1107 15.1868 41.4562 15.4397 41.7221C15.6931 41.9885 16.0501 42.141 16.4185 42.141H26.179C26.8721 42.141 27.445 41.6118 27.5095 40.9124C28.2464 33.1059 34.7801 27.2216 42.7031 27.2216C50.6262 27.2216 57.1583 33.1064 57.8936 40.9124C57.9602 41.6118 58.5331 42.141 59.2263 42.141H68.9799C69.3484 42.141 69.7069 41.9885 69.9603 41.7221C70.2132 41.4562 70.3417 41.1101 70.3204 40.7469C69.4847 26.2704 57.355 14.9312 42.7031 14.9312" fill="#053575"/>
<path d="M42.7037 29.9053C35.7834 29.9053 30.152 35.4831 30.152 42.3368C30.152 49.1905 35.7834 54.7766 42.7037 54.7766C49.624 54.7766 55.2538 49.1972 55.2538 42.3368C55.2538 35.4763 49.624 29.9053 42.7037 29.9053Z" fill="#053575"/>
<path d="M42.7036 0C31.5673 0 21.0248 4.22119 13.0169 11.8846C5.02877 19.5287 0.406903 29.7841 0.00101935 40.7549C-0.0135508 41.1233 0.119662 41.4725 0.375681 41.7353C0.632221 41.998 0.973059 42.1411 1.33992 42.1411H11.0286C11.7425 42.1411 12.3284 41.588 12.3612 40.8819C13.1319 24.8214 26.4594 12.2405 42.7036 12.2405C58.9478 12.2405 72.2718 24.8214 73.044 40.8819C73.0762 41.588 73.6622 42.1411 74.3745 42.1411H84.0668C84.4321 42.1411 84.773 41.9965 85.029 41.7353C85.2855 41.4725 85.4187 41.1233 85.4057 40.7549C84.9983 29.7841 80.3764 19.5287 72.3899 11.8846C64.381 4.22119 53.8384 0 42.7036 0Z" fill="#053575"/>
<path d="M135.768 5.35062H124.647C124.485 5.35062 124.344 5.45937 124.303 5.61496L117.349 32.6983H117.255L110.565 5.61809C110.526 5.45885 110.384 5.3501 110.221 5.3501H98.6318C98.445 5.3501 98.291 5.49268 98.278 5.67793L95.8828 41.4082C95.8765 41.5039 95.9103 41.5997 95.9769 41.671C96.0451 41.7423 96.1393 41.7813 96.2366 41.7813H102.242C102.43 41.7813 102.584 41.6366 102.595 41.4519L104.345 11.6907H104.405L112.323 41.5201C112.364 41.6741 112.505 41.7813 112.666 41.7813H120.951C121.11 41.7813 121.249 41.6757 121.292 41.5232L129.481 11.6907H129.535L130.82 41.4457C130.828 41.634 130.984 41.7818 131.174 41.7818H138.167C138.264 41.7818 138.358 41.7428 138.425 41.6715C138.493 41.6002 138.527 41.5045 138.521 41.4087L136.122 5.67845C136.109 5.4932 135.955 5.35062 135.768 5.35062" fill="#053575"/>
<path d="M153.698 13.7216C150.832 13.7216 146.43 14.1727 144.085 14.7035C143.924 14.7394 143.811 14.882 143.811 15.0459V20.1028C143.811 20.2084 143.86 20.3104 143.944 20.377C144.027 20.4436 144.139 20.4712 144.243 20.4452C145.848 20.0867 149.558 19.4794 153.286 19.4794C159.445 19.4794 159.622 20.95 159.626 24.848L159.086 24.8464C153.517 24.8449 147.217 24.8251 144.019 27.9884C142.686 29.308 142.009 31.0981 142.009 33.3133C142.009 41.0823 148.168 42.2443 154.824 42.3416C155.431 42.3577 156.036 42.3661 156.646 42.3661C159.757 42.3661 163.001 42.1532 167.335 41.6781C167.515 41.6589 167.651 41.5095 167.651 41.3295V23.0049C167.651 20.2896 166.879 18.1556 165.357 16.659C162.669 14.0166 158.16 13.6956 153.697 13.7216M159.626 30.1828V36.7362C158.233 36.9194 157.089 36.9959 155.752 36.9959C152.613 36.9959 150.393 36.7508 150.393 33.5714C150.393 30.392 152.613 30.1438 155.752 30.1438C157.604 30.1438 158.902 30.1568 159.626 30.1828Z" fill="#053575"/>
<path d="M194.65 35.9313L194.18 35.9948C192.87 36.1686 191.633 36.3341 189.494 36.3341C182.462 36.3341 179.594 33.8915 179.594 27.9062C179.594 21.921 182.369 19.6309 189.494 19.6309C191.094 19.6309 192.523 19.761 194.451 19.9832C194.553 19.9915 194.652 19.9619 194.728 19.8958C194.804 19.8292 194.847 19.735 194.847 19.6345V14.8404C194.847 14.6765 194.732 14.5334 194.571 14.498C192.265 13.985 189.604 13.7222 186.661 13.7222C175.993 13.7222 171.218 20.6685 171.218 27.5493C171.218 36.8128 177.106 42.3422 186.972 42.3422C189.919 42.3422 192.4 42.0633 194.783 41.4659C194.941 41.4269 195.051 41.2858 195.051 41.125V36.2805C195.051 36.178 195.006 36.0822 194.929 36.0177C194.853 35.9511 194.751 35.9188 194.65 35.9318" fill="#053575"/>
<path d="M216.834 14.4318C216.834 14.2387 216.674 14.0811 216.48 14.0811L215.998 14.0795C213.586 14.0618 210.606 14.0519 206.273 16.4763V14.6373C206.273 14.4443 206.114 14.2866 205.918 14.2866H199.433C199.238 14.2866 199.079 14.4443 199.079 14.6373V41.4304C199.079 41.625 199.238 41.7827 199.433 41.7827H206.745C206.941 41.7827 207.099 41.625 207.099 41.4304V22.2732C209.522 20.6861 213.456 20.7069 216.068 20.6991H216.48C216.674 20.6991 216.834 20.5435 216.834 20.3483V14.4313V14.4318Z" fill="#053575"/>
<path d="M231.591 13.6719C222.475 13.6719 216.813 19.1638 216.813 28.0089C216.813 36.8541 222.475 42.3429 231.591 42.3429C240.228 42.3429 246.261 36.4482 246.261 28.0089C246.261 19.5697 240.639 13.6719 231.591 13.6719ZM237.925 28.1094C237.925 34.2424 236.076 36.7448 231.541 36.7448C227.007 36.7448 225.093 34.2424 225.093 28.1094C225.093 21.9764 226.961 19.425 231.541 19.425C236.121 19.425 237.925 21.9405 237.925 28.1094Z" fill="#053575"/>
<path d="M252.036 42.3415L263.046 2.12207H272.781L283.791 42.3415H279.388L276.49 31.9962H259.337L256.439 42.3415H252.035H252.036ZM266.407 5.95767L260.322 27.9857H275.506L269.421 5.95767H266.408H266.407Z" fill="#00AC69"/>
<path d="M297.41 56.0002C292.774 56.0002 289.538 55.37 287.703 54.1113C285.869 52.852 284.951 50.5561 284.951 47.2237C284.951 45.6345 285.299 44.3466 285.994 43.3585C286.69 42.3708 287.867 41.2572 289.529 40.0167C288.447 39.2814 287.906 37.9446 287.906 36.0063C287.906 35.348 288.389 34.1277 289.355 32.345L289.877 31.4151C286.825 30.0205 285.299 27.0955 285.299 22.6386C285.299 16.0128 288.911 12.7002 296.135 12.7002C297.989 12.7002 299.708 12.8948 301.293 13.2814L302.162 13.4558L310.738 13.2232V16.9427L305.233 16.8267C306.508 18.1052 307.146 20.0436 307.146 22.6386C307.146 26.2817 306.247 28.8284 304.451 30.2817C302.655 31.7346 299.824 32.461 295.962 32.461C294.918 32.461 293.971 32.384 293.122 32.2284C292.426 33.9336 292.079 35.0384 292.079 35.541C292.079 36.7426 292.446 37.4877 293.18 37.7786C293.913 38.0695 296.135 38.2147 299.845 38.2147C303.554 38.2147 306.219 38.7959 307.841 39.9584C309.464 41.1209 310.275 43.3876 310.275 46.7585C310.275 52.9191 305.987 55.9997 297.411 55.9997L297.41 56.0002ZM289.24 46.8751C289.24 48.9284 289.809 50.3522 290.949 51.1468C292.089 51.9408 294.194 52.3384 297.266 52.3384C300.337 52.3384 302.54 51.9117 303.872 51.0599C305.205 50.207 305.871 48.7833 305.871 46.7877C305.871 44.7921 305.387 43.5042 304.422 42.9229C303.456 42.3417 301.563 42.0508 298.743 42.0508L292.485 41.7599C291.21 42.6898 290.35 43.5037 289.906 44.2015C289.462 44.8987 289.24 45.7896 289.24 46.8746L289.24 46.8751ZM289.645 22.6386C289.645 24.9256 290.156 26.5528 291.181 27.5212C292.204 28.4901 293.894 28.9741 296.251 28.9741C298.608 28.9741 300.287 28.4901 301.293 27.5212C302.297 26.5528 302.799 24.9157 302.799 22.61C302.799 20.3043 302.297 18.6677 301.293 17.6988C300.287 16.7309 298.607 16.246 296.251 16.246C293.895 16.246 292.204 16.7398 291.181 17.7274C290.156 18.7156 289.645 20.3532 289.645 22.6386Z" fill="#00AC69"/>
<path d="M313.404 42.3414V13.2811H317.693V17.2338C321.054 14.9083 324.588 13.3784 328.298 12.6416V17.059C326.675 17.3696 324.984 17.8536 323.227 18.5123C321.468 19.1716 320.126 19.7524 319.2 20.2556L317.751 21.0111V42.3414H313.405H313.404Z" fill="#00AC69"/>
<path d="M328.993 27.7538C328.993 22.4456 329.939 18.61 331.832 16.246C333.724 13.883 336.922 12.7002 341.423 12.7002C345.924 12.7002 349.11 13.883 350.984 16.246C352.858 18.6094 353.795 22.4456 353.795 27.7538C353.795 33.062 352.906 36.9174 351.13 39.3194C349.352 41.7224 346.107 42.9234 341.394 42.9234C336.681 42.9234 333.435 41.7224 331.659 39.3194C329.881 36.9174 328.993 33.0626 328.993 27.7538H328.993ZM333.455 27.6664C333.455 31.9094 333.966 34.8838 334.99 36.588C336.013 38.2933 338.158 39.1451 341.423 39.1451C344.687 39.1451 346.821 38.3026 347.826 36.6166C348.831 34.9312 349.333 31.9578 349.333 27.6955C349.333 23.4332 348.773 20.4984 347.652 18.8904C346.532 17.283 344.455 16.478 341.423 16.478C338.39 16.478 336.303 17.283 335.164 18.8904C334.025 20.4984 333.455 23.4239 333.455 27.6664Z" fill="#00AC69"/>
</g>
<defs>
<clipPath id="clip0_4920_1314">
<rect width="353.795" height="56" fill="white"/>
</clipPath>
</defs>
</svg>
