<svg width="logoWidth" height="logoHeight" viewBox="0 0 123 96" fill="none" xmlns="http://www.w3.org/2000/svg">
<path d="M3.83716 42.0609H10.6828C12.4962 42.0609 13.6177 42.9434 14.0472 44.7082C15.4865 50.5537 16.9336 56.4017 18.3806 62.2472C18.4664 62.5979 18.5936 62.933 18.8119 63.6293C19.0613 62.7616 19.2327 62.2238 19.373 61.6756C20.9604 55.521 22.5607 49.369 24.1065 43.204C24.3144 42.3779 24.5924 42.0167 25.5042 42.0401C27.8918 42.1051 30.2793 42.0713 32.6669 42.0557C33.2982 42.0531 33.6437 42.17 33.693 42.9364C34.249 51.5461 34.8466 60.1506 35.4233 68.7603C35.4623 69.3396 35.4285 69.9241 35.4285 70.6854C33.6021 70.6854 31.8147 70.7165 30.0325 70.6438C29.8325 70.636 29.5077 70.0566 29.4921 69.7293C29.2817 65.5024 29.1206 61.2755 28.9388 57.0486C28.8037 53.9181 28.6582 50.7901 28.5179 47.6595C28.414 47.644 28.3075 47.6284 28.2009 47.6154C27.1514 51.4396 26.107 55.2638 25.0522 59.0854C23.987 62.9486 22.9141 66.8092 21.8307 70.7243C19.7341 70.7243 17.7233 70.688 15.7177 70.7399C14.7461 70.7633 14.798 70.0307 14.6525 69.4825C12.9456 63.0993 11.2622 56.7109 9.5683 50.3225C9.3137 49.3664 9.0409 48.413 8.55248 47.4751C8.39401 49.8652 8.21736 52.2554 8.07706 54.6455C7.79129 59.5375 7.48993 64.4294 7.2717 69.324C7.22234 70.4126 6.90018 70.8075 5.79604 70.7191C4.59578 70.6256 3.38253 70.6983 1.90948 70.6983C2.55378 61.1274 3.18509 51.6786 3.83199 42.0583" fill="colorPrimary"/>
<path d="M52.2374 66.8092C52.2374 65.1543 52.2841 63.7384 52.201 62.3303C52.1828 62.0394 51.6944 61.5457 51.4164 61.5405C49.92 61.5146 48.4131 61.5276 46.9271 61.6938C45.4878 61.8549 44.8461 62.7148 44.8072 64.1749C44.7682 65.622 45.3813 66.6326 46.7686 66.7703C48.5249 66.9417 50.3123 66.8118 52.2374 66.8118M52.0243 57.4721C52.5569 54.6221 51.5775 53.1881 48.9665 53.1725C45.9685 53.1569 42.9678 53.4115 39.8684 53.5518V49.434C44.4928 48.691 49.1328 48.0727 53.7702 49.3353C56.8098 50.164 58.379 52.1801 58.4673 55.534C58.5894 60.2649 58.5271 65.0036 58.4803 69.7371C58.4777 70.0567 57.9685 70.6204 57.6541 70.6542C53.1493 71.1063 48.634 71.5064 44.1291 70.7348C39.7879 69.9917 37.7381 67.0145 38.4733 62.6758C38.7695 60.93 39.6762 59.5011 41.2921 58.9374C43.277 58.2437 45.3839 57.8202 47.4727 57.5137C48.9457 57.2981 50.4759 57.4721 52.0295 57.4721" fill="colorPrimary"/>
<path d="M103.651 59.8752C103.875 61.2106 103.968 62.5563 104.342 63.8189C104.953 65.8921 106.415 66.7624 108.878 66.7676C111.359 66.7728 112.822 65.9129 113.456 63.8631C114.264 61.2495 114.261 58.5814 113.451 55.9679C112.827 53.9544 111.396 53.1049 108.985 53.0893C106.48 53.0737 104.989 53.9103 104.371 55.9315C103.984 57.1915 103.885 58.5373 103.651 59.8752ZM108.91 71.114C104.153 70.9711 100.266 69.4565 98.2864 64.8425C96.0677 59.67 97.6395 53.4062 101.783 50.5952C105.68 47.9505 112.217 47.9505 116.096 50.5952C119.704 53.0555 121.346 58.0956 120.122 62.9616C119.029 67.308 115.324 70.5139 110.837 70.9789C110.172 71.0465 109.502 71.0725 108.912 71.114" fill="colorPrimary"/>
<path d="M79.9499 53.2582C77.7936 53.2582 75.8243 53.1387 73.8732 53.2815C69.2307 53.6219 67.438 56.0822 67.9784 61.1638C68.3084 64.245 70.0178 65.9025 73.1198 66.235C74.8137 66.4169 76.5388 66.3156 78.2508 66.3182C78.8276 66.3182 79.4043 66.2506 80.1473 66.2013C80.1473 67.4821 80.1889 68.646 80.1161 69.7995C80.1006 70.0437 79.6953 70.4126 79.4173 70.4723C75.8503 71.2127 72.2677 71.444 68.7396 70.319C63.7567 68.7291 60.9951 64.2684 61.4186 58.6386C61.7927 53.6738 65.274 49.8496 70.2984 48.9351C73.2627 48.3948 76.2244 48.5766 79.1627 49.1664C79.4615 49.2261 79.8927 49.6184 79.9135 49.8834C79.9967 51.0005 79.9499 52.128 79.9499 53.2608" fill="colorPrimary"/>
<path d="M88.8973 49.0858C88.9493 49.7171 88.9831 50.1276 89.0376 50.7615C91.6356 49.4183 94.2699 48.6468 97.2134 48.9897V54.1233C96.4652 54.1233 95.6884 54.0869 94.9194 54.1337C93.9608 54.1908 92.9943 54.2532 92.0513 54.4246C89.7417 54.8481 89.578 55.0793 89.578 57.4435V70.6568H83.4C83.3714 70.2593 83.3143 69.8566 83.3143 69.4565C83.3091 63.0915 83.3299 56.7264 83.2909 50.3614C83.2857 49.3898 83.5273 49.0105 84.5431 49.0676C85.9538 49.1456 87.3723 49.0858 88.8947 49.0858" fill="colorPrimary"/>
<path d="M0 80.4408H6.00131C7.58867 80.4408 8.78114 80.7603 9.57612 81.3968C10.3711 82.0334 10.7686 83.0648 10.7686 84.4884C10.7686 85.3432 10.6413 86.0212 10.3867 86.5227C10.1321 87.0241 9.69821 87.4709 9.0825 87.8606C9.75797 88.1464 10.2542 88.5569 10.5763 89.0972C10.8985 89.6376 11.0595 90.3858 11.0595 91.3445C11.0595 92.8279 10.6257 93.9295 9.75536 94.6491C8.88504 95.3687 7.664 95.7273 6.09223 95.7273H0V80.4408ZM5.84543 83.0933H3.10196V86.7357H5.86621C7.03529 86.7357 7.61984 86.1278 7.61984 84.9145C7.61984 83.7013 7.02751 83.0933 5.84283 83.0933H5.84543ZM5.93636 89.3414H3.10456V93.0721H5.93636C6.61183 93.0721 7.10804 92.937 7.43019 92.6668C7.75234 92.3967 7.91341 91.9031 7.91341 91.1834C7.91341 89.9546 7.25353 89.3414 5.93636 89.3414Z" fill="colorPrimary"/>
<path d="M22.0308 87.9931V92.6695C22.062 93.028 22.1217 93.28 22.2101 93.4229C22.301 93.5658 22.488 93.6671 22.7712 93.7269L22.6803 95.9975C21.9165 95.9975 21.306 95.9455 20.8487 95.839C20.3915 95.7351 19.9316 95.5247 19.4666 95.2103C18.3884 95.7351 17.2869 95.9975 16.162 95.9975C13.8394 95.9975 12.6781 94.7686 12.6781 92.311C12.6781 91.1133 13.0002 90.2612 13.6445 89.7598C14.2888 89.2584 15.2787 88.9622 16.6114 88.8713L19.0172 88.692V87.9957C19.0172 87.5307 18.9132 87.2138 18.7028 87.0397C18.4924 86.8682 18.1546 86.7799 17.6922 86.7799L13.4653 86.9592L13.3744 84.8678C14.9773 84.4339 16.5023 84.2157 17.9494 84.2157C19.3965 84.2157 20.4357 84.5145 21.0748 85.1146C21.7113 85.7147 22.0308 86.6734 22.0308 87.9931ZM16.9726 90.96C16.1334 91.0354 15.7125 91.4848 15.7125 92.3084C15.7125 93.1319 16.0789 93.545 16.8141 93.545C17.383 93.545 18.0065 93.4541 18.6794 93.2748L19.0172 93.1839V90.7782L16.9726 90.9574V90.96Z" fill="colorPrimary"/>
<path d="M27.9204 95.7247H24.9093V84.4859H27.8996V85.1146C28.918 84.5145 29.8559 84.2157 30.7106 84.2157C32.2096 84.2157 33.2436 84.6573 33.8126 85.5407C34.3815 86.424 34.6673 87.7879 34.6673 89.6325V95.7247H31.6563V89.7234C31.6563 88.7647 31.5445 88.0555 31.3185 87.5983C31.0925 87.141 30.6431 86.9124 29.9702 86.9124C29.3545 86.9124 28.7647 87.0163 28.1931 87.2267L27.923 87.3177V95.7247H27.9204Z" fill="colorPrimary"/>
<path d="M40.3491 95.7247H37.338V79.9888H40.3491V88.9362L41.4948 88.7335L43.7212 84.4859H47.0934L44.1707 89.8143L47.2493 95.7273H43.8537L41.5831 91.3445L40.3465 91.5471V95.7273L40.3491 95.7247Z" fill="colorPrimary"/>
<path d="M61.1354 95.7247H52.4348V80.4382H55.5368V92.9812H61.1354V95.7247Z" fill="colorPrimary"/>
<path d="M62.7773 83.0466V79.9888H65.7884V83.0466H62.7773ZM62.7773 95.7247V84.4859H65.7884V95.7247H62.7773Z" fill="colorPrimary"/>
<path d="M71.5871 95.7247H68.576V84.4859H71.5663V85.1146C72.6003 84.5145 73.4836 84.2157 74.2188 84.2157C75.4321 84.2157 76.37 84.569 77.0299 85.2731C78.4094 84.569 79.6668 84.2157 80.8073 84.2157C82.2907 84.2157 83.3221 84.647 83.8989 85.5095C84.4756 86.372 84.764 87.7463 84.764 89.6351V95.7273H81.7529V89.726C81.7529 88.7673 81.649 88.0581 81.4386 87.6008C81.2282 87.1436 80.8099 86.915 80.1812 86.915C79.7005 86.915 79.116 87.0189 78.4275 87.2293L78.0898 87.341C78.1496 88.466 78.1807 89.3181 78.1807 89.9027V95.7247H75.1697V89.9468C75.1697 88.8375 75.071 88.0555 74.8787 87.5983C74.6839 87.141 74.2578 86.9124 73.5979 86.9124C73.0134 86.9124 72.4366 87.0163 71.8677 87.2267L71.5975 87.3177V95.7247H71.5871Z" fill="colorPrimary"/>
<path d="M87.4347 83.0466V79.9888H90.4457V83.0466H87.4347ZM87.4347 95.7247V84.4859H90.4457V95.7247H87.4347Z" fill="colorPrimary"/>
<path d="M99.4607 87.0501H96.6965V91.6589C96.6965 92.1083 96.7068 92.4279 96.7302 92.6149C96.7536 92.802 96.8341 92.9631 96.977 93.0982C97.1199 93.2333 97.3408 93.3008 97.6395 93.3008L99.349 93.2566L99.4841 95.6624C98.4787 95.8884 97.7149 96.0001 97.1901 96.0001C95.8417 96.0001 94.9194 95.6961 94.4258 95.0908C93.9322 94.4829 93.6828 93.3632 93.6828 91.729V87.0527H92.3553V84.4911H93.6828V81.3657H96.6939V84.4911H99.4581V87.0527L99.4607 87.0501Z" fill="colorPrimary"/>
<path d="M104.441 92.8825C104.792 93.189 105.298 93.3423 105.958 93.3423C107.351 93.3423 108.595 93.2982 109.689 93.2072L110.318 93.1397L110.362 95.3661C108.639 95.7844 107.081 95.9949 105.685 95.9949C103.992 95.9949 102.763 95.5454 101.999 94.6465C101.235 93.7476 100.853 92.285 100.853 90.2637C100.853 86.2317 102.508 84.2183 105.821 84.2183C109.133 84.2183 110.72 85.9121 110.72 89.2973L110.497 91.3887H103.888C103.903 92.0771 104.085 92.5759 104.438 92.8825H104.441ZM107.756 89.0946C107.756 88.1957 107.613 87.5696 107.33 87.2189C107.044 86.8682 106.545 86.6915 105.836 86.6915C105.127 86.6915 104.623 86.876 104.329 87.2423C104.038 87.6086 103.882 88.2269 103.869 89.0972H107.759L107.756 89.0946Z" fill="colorPrimary"/>
<path d="M122.435 79.9913V95.7272H119.444V95.2544C118.395 95.748 117.488 95.9974 116.724 95.9974C115.09 95.9974 113.952 95.5246 113.308 94.5815C112.664 93.6385 112.341 92.142 112.341 90.0974C112.341 88.0528 112.726 86.5616 113.5 85.6237C114.272 84.6885 115.436 84.2182 116.994 84.2182C117.475 84.2182 118.14 84.2936 118.995 84.4443L119.421 84.5352V79.9939H122.432L122.435 79.9913ZM119.107 93.0279L119.421 92.9604V87.0474C118.597 86.8967 117.862 86.8214 117.218 86.8214C116.005 86.8214 115.397 87.8996 115.397 90.0585C115.397 91.2276 115.532 92.0589 115.802 92.5525C116.072 93.0461 116.516 93.2929 117.14 93.2929C117.763 93.2929 118.418 93.202 119.107 93.0227V93.0279Z" fill="colorPrimary"/>
<path d="M90.0586 33.2019C88.9701 33.2019 87.8789 33.1681 86.793 33.2123C85.6889 33.2538 85.2446 32.7914 85.1563 31.6743C84.3431 21.5266 77.5157 13.2676 67.7057 10.4982C53.7624 6.56228 39.406 15.7773 37.4627 30.0739C36.9613 33.7552 36.9457 33.1525 33.836 33.1993C32.285 33.2227 30.7366 33.1681 29.1856 33.2149C27.9983 33.2512 27.5073 32.7784 27.5852 31.5729C28.1906 22.2956 31.955 14.5354 38.9202 8.41202C58.0412 -8.39685 88.2271 1.26501 94.0335 26.0367C94.47 27.8994 94.6051 29.8375 94.8467 31.7444C94.974 32.7524 94.4596 33.2175 93.4568 33.2071C92.3267 33.1941 91.1939 33.2045 90.0638 33.2045" fill="colorPrimary"/>
<path d="M78.1288 33.233C77.1234 33.233 76.1127 33.1655 75.1151 33.2512C73.8291 33.3603 73.3381 32.7836 73.1511 31.5703C72.5197 27.4655 70.2647 24.4753 66.5548 22.6775C59.2701 19.152 50.8735 23.4361 49.3614 31.3859C49.1259 32.619 48.3647 33.2356 47.0778 33.2356C45.067 33.2356 43.0588 33.246 41.0479 33.233C39.7308 33.2226 39.3878 32.8381 39.5073 31.5729C40.427 21.8955 47.6 14.034 57.1683 12.2232C68.6306 10.0539 79.7499 17.2503 82.4466 28.6086C82.6856 29.6218 82.7895 30.6688 82.9272 31.7028C83.0675 32.755 82.6284 33.2798 81.5243 33.246C80.3942 33.2096 79.2641 33.2382 78.1314 33.2382" fill="colorPrimary"/>
<path d="M61.0315 43.1313C55.6017 43.0144 51.2397 38.5718 51.367 33.285C51.4995 27.7695 55.9342 23.5919 61.5407 23.7011C66.9574 23.8076 71.2155 28.3176 71.0674 33.7916C70.9271 39.0265 66.3937 43.2456 61.0315 43.1313Z" fill="colorPrimary"/>
</svg>
