<svg width="398" height="40" viewBox="0 0 398 40" fill="none" xmlns="http://www.w3.org/2000/svg">
<path d="M57.9397 30.7902C56.9303 30.7902 55.9185 30.7589 54.9114 30.7998C53.8876 30.8384 53.4756 30.4096 53.3937 29.3736C52.6396 19.9636 46.3084 12.305 37.2116 9.73683C24.2818 6.087 10.9689 14.6322 9.1669 27.8896C8.70194 31.3033 8.68748 30.7444 5.80375 30.7878C4.3655 30.8095 2.92966 30.7589 1.49141 30.8022C0.390439 30.836 -0.064886 30.3975 0.0073879 29.2797C0.568715 20.6767 4.05954 13.4806 10.5184 7.8023C28.2448 -7.78718 56.2365 1.17237 61.6209 24.1434C62.0256 25.8708 62.1509 27.668 62.3749 29.4363C62.493 30.371 62.016 30.8022 61.086 30.7926C60.0381 30.7806 58.9877 30.7902 57.9397 30.7902Z" fill="#053575"/>
<path d="M71.8861 3.99829H78.2342C79.9158 3.99829 80.9557 4.81659 81.354 6.45319C82.6887 11.8737 84.0306 17.2967 85.3724 22.7172C85.4519 23.0425 85.57 23.3532 85.7724 23.9989C86.0036 23.1942 86.1626 22.6955 86.2927 22.1872C87.7647 16.48 89.2487 10.7752 90.6822 5.0583C90.8749 4.2922 91.1327 3.95733 91.9783 3.97901C94.1923 4.03924 96.4063 4.00792 98.6203 3.99347C99.2057 3.99106 99.5261 4.09947 99.5719 4.81016C100.087 12.794 100.642 20.7731 101.176 28.7569C101.212 29.2941 101.181 29.8362 101.181 30.5421C99.4875 30.5421 97.8301 30.571 96.1774 30.5035C95.9919 30.4963 95.6908 29.9591 95.6763 29.6555C95.4812 25.7359 95.3318 21.8162 95.1632 17.8966C95.0379 14.9936 94.903 12.093 94.7729 9.18996C94.6765 9.17551 94.5777 9.16105 94.479 9.149C93.5057 12.6952 92.5372 16.2415 91.5591 19.7853C90.5713 23.3677 89.5764 26.9476 88.5718 30.5782C86.6276 30.5782 84.7629 30.5445 82.9031 30.5927C82.0021 30.6143 82.0503 29.935 81.9153 29.4266C80.3325 23.5074 78.7714 17.5834 77.2007 11.6593C76.9646 10.7728 76.7116 9.88861 76.2587 9.01891C76.1118 11.2353 75.9479 13.4517 75.8178 15.6681C75.5528 20.2045 75.2734 24.7409 75.071 29.2797C75.0252 30.2891 74.7265 30.6553 73.7026 30.5734C72.5896 30.4867 71.4645 30.5541 70.0986 30.5541C70.696 21.6789 71.2815 12.9169 71.8813 3.99588" fill="#053575"/>
<path d="M46.8649 30.8192C45.9326 30.8192 44.9955 30.7566 44.0703 30.8361C42.8778 30.9373 42.4225 30.4024 42.249 29.2774C41.6636 25.4709 39.5725 22.698 36.1323 21.0309C29.3771 17.7617 21.5908 21.7344 20.1887 29.1063C19.9702 30.2499 19.2643 30.8216 18.071 30.8216C16.2064 30.8216 14.3441 30.8313 12.4794 30.8192C11.258 30.8096 10.94 30.453 11.0508 29.2798C11.9037 20.3058 18.5553 13.0157 27.4281 11.3366C38.0572 9.32496 48.3682 15.9982 50.8689 26.531C51.0905 27.4705 51.1869 28.4414 51.3146 29.4002C51.4447 30.3759 51.0376 30.8626 50.0137 30.8313C48.9657 30.7975 47.9177 30.824 46.8673 30.824" fill="#053575"/>
<path d="M116.768 26.9478C116.768 25.4131 116.812 24.1002 116.735 22.7944C116.718 22.5246 116.265 22.0669 116.007 22.062C114.619 22.038 113.222 22.05 111.844 22.2042C110.509 22.3535 109.914 23.151 109.878 24.5049C109.842 25.8468 110.411 26.7839 111.697 26.9116C113.326 27.0706 114.983 26.9502 116.768 26.9502M116.571 18.2893C117.065 15.6465 116.156 14.3167 113.735 14.3022C110.955 14.2878 108.172 14.5239 105.298 14.654V10.8355C109.587 10.1465 113.889 9.57312 118.19 10.744C121.008 11.5125 122.463 13.382 122.545 16.4921C122.659 20.8792 122.601 25.2734 122.557 29.6628C122.555 29.9592 122.083 30.482 121.791 30.5133C117.614 30.9325 113.427 31.3035 109.249 30.588C105.224 29.8989 103.323 27.1381 104.005 23.1148C104.279 21.4959 105.12 20.1709 106.619 19.6481C108.459 19.0049 110.413 18.6122 112.35 18.3279C113.716 18.1279 115.135 18.2893 116.576 18.2893" fill="#053575"/>
<path d="M164.445 20.5178C164.652 21.7561 164.739 23.004 165.086 24.1748C165.652 26.0973 167.008 26.9044 169.292 26.9092C171.593 26.914 172.949 26.1166 173.537 24.2158C174.286 21.7922 174.284 19.318 173.532 16.8944C172.954 15.0274 171.627 14.2396 169.391 14.2251C167.068 14.2107 165.686 14.9864 165.112 16.8607C164.753 18.0291 164.662 19.2771 164.445 20.5178ZM169.321 30.9397C164.91 30.8072 161.306 29.4026 159.47 25.124C157.413 20.3275 158.87 14.519 162.713 11.9124C166.326 9.45987 172.388 9.45987 175.985 11.9124C179.331 14.1938 180.853 18.8675 179.719 23.3798C178.705 27.4103 175.269 30.3832 171.109 30.8144C170.492 30.877 169.87 30.9011 169.323 30.9397" fill="#053575"/>
<path d="M31.0081 39.9978C25.973 39.8894 21.9281 35.7698 22.0461 30.8672C22.169 25.7527 26.2813 21.8788 31.4802 21.98C36.5033 22.0787 40.4518 26.261 40.3145 31.337C40.1844 36.1914 35.9805 40.1038 31.0081 39.9978Z" fill="#053575"/>
<path d="M142.466 14.3817C140.467 14.3817 138.641 14.2709 136.831 14.4034C132.526 14.719 130.864 17.0004 131.365 21.7127C131.671 24.5699 133.256 26.1069 136.133 26.4153C137.704 26.5839 139.303 26.49 140.891 26.4924C141.426 26.4924 141.961 26.4298 142.65 26.384C142.65 27.5717 142.688 28.651 142.621 29.7206C142.606 29.9471 142.23 30.2892 141.973 30.3446C138.665 31.0312 135.343 31.2456 132.071 30.2025C127.45 28.7281 124.889 24.5916 125.282 19.371C125.629 14.7672 128.857 11.2209 133.517 10.3729C136.265 9.87181 139.012 10.0405 141.736 10.5873C142.013 10.6427 142.413 11.0065 142.433 11.2522C142.51 12.2882 142.466 13.3337 142.466 14.3841" fill="#053575"/>
<path d="M150.763 10.5126C150.812 11.098 150.843 11.4787 150.894 12.0665C153.303 10.821 155.746 10.1055 158.475 10.4235V15.1839C157.781 15.1839 157.061 15.1502 156.348 15.1936C155.459 15.2466 154.563 15.3044 153.688 15.4634C151.546 15.8561 151.395 16.0705 151.395 18.2628V30.5156H145.666C145.639 30.147 145.586 29.7736 145.586 29.4026C145.581 23.5002 145.601 17.5979 145.565 11.6955C145.56 10.7945 145.784 10.4427 146.726 10.4957C148.034 10.568 149.349 10.5126 150.761 10.5126" fill="#053575"/>
<path d="M188.336 4.68481H198.589C201.302 4.68481 203.338 5.22928 204.694 6.31579C206.051 7.40472 206.73 9.16338 206.73 11.5966C206.73 13.0565 206.513 14.2153 206.077 15.073C205.641 15.9306 204.899 16.6919 203.851 17.3568C205.003 17.8435 205.853 18.5469 206.405 19.4696C206.954 20.3923 207.231 21.6716 207.231 23.3098C207.231 25.8442 206.489 27.7257 205.005 28.9544C203.521 30.183 201.435 30.7974 198.746 30.7974H188.339V4.68481H188.336ZM198.32 9.21639H193.634V15.4368H198.358C200.355 15.4368 201.353 14.4008 201.353 12.3266C201.353 10.2523 200.341 9.21639 198.32 9.21639ZM198.474 19.8912H193.636V26.2658H198.474C199.625 26.2658 200.476 26.0345 201.028 25.5744C201.577 25.1142 201.854 24.2686 201.854 23.04C201.854 20.9416 200.726 19.8912 198.474 19.8912Z" fill="#053575"/>
<path d="M225.967 17.5882V25.5744C226.017 26.1887 226.121 26.6176 226.275 26.8609C226.429 27.1042 226.747 27.2777 227.234 27.3789L227.08 31.2576C225.774 31.2576 224.731 31.1684 223.95 30.9877C223.17 30.807 222.382 30.4505 221.589 29.9133C219.746 30.8095 217.865 31.2576 215.945 31.2576C211.977 31.2576 209.992 29.1592 209.992 24.9601C209.992 22.9123 210.541 21.4596 211.642 20.602C212.743 19.7443 214.432 19.2384 216.711 19.0842L220.821 18.7759V17.5857C220.821 16.7931 220.643 16.2487 220.284 15.9548C219.925 15.6609 219.349 15.5139 218.556 15.5139L211.336 15.8223L211.182 12.2519C213.921 11.5099 216.525 11.1389 218.997 11.1389C221.469 11.1389 223.247 11.6521 224.336 12.6759C225.425 13.6998 225.967 15.338 225.967 17.5906V17.5882ZM217.328 22.657C215.894 22.7846 215.176 23.5532 215.176 24.9601C215.176 26.367 215.803 27.0729 217.058 27.0729C218.031 27.0729 219.094 26.9187 220.245 26.6128L220.821 26.4586V22.3486L217.328 22.657Z" fill="#053575"/>
<path d="M236.027 30.7973H230.881V11.5966H235.989V12.6711C237.731 11.6472 239.33 11.134 240.788 11.134C243.346 11.134 245.115 11.8905 246.088 13.3986C247.061 14.9091 247.548 17.2388 247.548 20.3875V30.7949H242.402V20.5417C242.402 18.9035 242.209 17.6941 241.826 16.9135C241.443 16.133 240.675 15.7427 239.523 15.7427C238.473 15.7427 237.461 15.9234 236.49 16.2799L236.03 16.4341V30.7949L236.027 30.7973Z" fill="#053575"/>
<path d="M257.261 30.7973H252.116V3.91626H257.261V19.1998L259.22 18.8553L263.022 11.5966H268.782L263.79 20.6983L269.052 30.7973H263.253L259.374 23.3097L257.261 23.6543V30.7973Z" fill="#053575"/>
<path d="M292.77 30.7974H277.908V4.68481H283.205V26.1116H292.767V30.7974H292.77Z" fill="#053575"/>
<path d="M295.571 9.13925V3.91626H300.717V9.13925H295.571ZM295.571 30.7973V11.5966H300.717V30.7973H295.571Z" fill="#053575"/>
<path d="M310.626 30.7973H305.48V11.5966H310.587V12.6711C312.353 11.6472 313.864 11.134 315.119 11.134C317.193 11.134 318.793 11.7363 319.918 12.9385C322.272 11.7363 324.423 11.134 326.37 11.134C328.904 11.134 330.663 11.8712 331.651 13.3432C332.636 14.8152 333.13 17.1641 333.13 20.3899V30.7973H327.984V20.5441C327.984 18.9059 327.803 17.6965 327.447 16.9159C327.088 16.1354 326.372 15.7451 325.295 15.7451C324.476 15.7451 323.476 15.9258 322.301 16.2823L321.725 16.4751C321.826 18.3951 321.879 19.8551 321.879 20.8525V30.7973H316.733V20.9296C316.733 19.036 316.567 17.6989 316.234 16.9159C315.902 16.1354 315.172 15.7451 314.045 15.7451C313.047 15.7451 312.059 15.9258 311.089 16.2823L310.628 16.4365V30.7973H310.626Z" fill="#053575"/>
<path d="M337.697 9.13925V3.91626H342.843V9.13925H337.697ZM337.697 30.7973V11.5966H342.843V30.7973H337.697Z" fill="#053575"/>
<path d="M358.24 15.9741H353.516V23.8471C353.516 24.6156 353.535 25.1601 353.574 25.4781C353.612 25.7985 353.752 26.0731 353.995 26.3044C354.239 26.5357 354.617 26.6489 355.127 26.6489L358.045 26.5718L358.276 30.6818C356.561 31.0649 355.255 31.2576 354.359 31.2576C352.056 31.2576 350.48 30.7396 349.635 29.7013C348.789 28.663 348.367 26.7501 348.367 23.9603V15.9741H346.103V11.5967H348.367V6.25806H353.513V11.5967H358.238V15.9741H358.24Z" fill="#053575"/>
<path d="M366.747 25.9381C367.347 26.4633 368.211 26.7259 369.339 26.7259C371.719 26.7259 373.844 26.6488 375.713 26.4946L376.788 26.379L376.865 30.1806C373.921 30.8961 371.259 31.2551 368.879 31.2551C365.985 31.2551 363.887 30.4866 362.581 28.952C361.276 27.4149 360.623 24.9191 360.623 21.4644C360.623 14.5791 363.451 11.134 369.11 11.134C374.769 11.134 377.482 14.0274 377.482 19.8117L377.099 23.382H365.81C365.834 24.5601 366.149 25.4105 366.752 25.9357L366.747 25.9381ZM372.411 19.4672C372.411 17.9302 372.167 16.8629 371.681 16.2607C371.194 15.6584 370.344 15.3572 369.127 15.3572C367.91 15.3572 367.053 15.6704 366.554 16.2992C366.055 16.928 365.793 17.9832 365.766 19.4672H372.411Z" fill="#053575"/>
<path d="M397.485 3.91626V30.7973H392.377V29.9903C390.585 30.8359 389.036 31.2575 387.73 31.2575C384.94 31.2575 382.994 30.4504 381.893 28.8387C380.792 27.227 380.243 24.6733 380.243 21.1777C380.243 17.682 380.9 15.1356 382.221 13.5359C383.538 11.9363 385.528 11.1364 388.19 11.1364C389.009 11.1364 390.149 11.2641 391.609 11.5195L392.339 11.6737V3.91626H397.485ZM391.802 26.1887L392.339 26.073V15.974C390.93 15.7186 389.677 15.5909 388.576 15.5909C386.502 15.5909 385.466 17.4339 385.466 21.1199C385.466 23.117 385.697 24.5384 386.157 25.3816C386.617 26.2272 387.378 26.6488 388.441 26.6488C389.503 26.6488 390.624 26.4946 391.802 26.1887Z" fill="#053575"/>
</svg>
