<svg width="140" height="48" viewBox="0 0 140 48" fill="none" xmlns="http://www.w3.org/2000/svg">
<path d="M62.5482 3.1355H55.9896C55.8941 3.1355 55.81 3.19963 55.7872 3.29226L51.6855 19.2642H51.6299L47.6836 3.29369C47.6608 3.20105 47.5767 3.1355 47.4812 3.1355H40.6475C40.5378 3.1355 40.4466 3.21958 40.4394 3.32932L39.0271 24.4006C39.0228 24.4576 39.0442 24.5132 39.0827 24.5559C39.1226 24.5973 39.1782 24.6215 39.2352 24.6215H42.7767C42.8879 24.6215 42.9791 24.536 42.9848 24.4277L44.0166 6.87659H44.0523L48.7212 24.4676C48.7454 24.5588 48.828 24.6215 48.9235 24.6215H53.809C53.9031 24.6215 53.9858 24.5588 54.01 24.469L58.8399 6.87659H58.8713L59.6295 24.4234C59.6337 24.5345 59.7264 24.6215 59.8375 24.6215H63.962C64.019 24.6215 64.0746 24.5987 64.1145 24.5559C64.1544 24.5146 64.1744 24.4576 64.1701 24.4006L62.7549 3.32932C62.7478 3.22101 62.6565 3.1355 62.5468 3.1355" fill="#FEFEFE"/>
<path d="M73.1215 8.07223C71.4313 8.07223 68.836 8.33731 67.4536 8.65085C67.3581 8.67223 67.2911 8.75632 67.2911 8.8518V11.8347C67.2911 11.8974 67.3196 11.9573 67.3695 11.9957C67.4194 12.0357 67.4835 12.0499 67.5462 12.0356C68.4926 11.8247 70.6802 11.4656 72.8793 11.4656C76.5106 11.4656 76.6161 12.3321 76.6189 14.6309H76.2997C73.0161 14.6295 69.3006 14.6181 67.4137 16.4836C66.627 17.2604 66.2294 18.3178 66.2294 19.6233C66.2294 24.2053 69.8607 24.8908 73.7857 24.9478C74.1448 24.9577 74.5011 24.962 74.8603 24.962C76.6945 24.962 78.6085 24.838 81.1638 24.5573C81.2693 24.5459 81.3505 24.4575 81.3505 24.352V13.5449C81.3505 11.943 80.8959 10.6846 79.9966 9.8024C78.4118 8.24468 75.7538 8.05371 73.1201 8.07081M76.6175 17.7777V21.6414C75.7952 21.7497 75.1211 21.7953 74.3315 21.7953C72.4802 21.7953 71.1705 21.6513 71.1705 19.7758C71.1705 17.9003 72.4802 17.7549 74.3315 17.7549C75.4232 17.7549 76.1899 17.7634 76.6175 17.7777Z" fill="#FEFEFE"/>
<path d="M97.274 21.1711L96.9961 21.2082C96.2237 21.3108 95.4954 21.4077 94.2341 21.4077C90.0869 21.4077 88.3952 19.9668 88.3952 16.4367C88.3952 12.9065 90.0327 11.5569 94.2341 11.5569C95.1776 11.5569 96.0199 11.6324 97.1572 11.7649C97.217 11.7692 97.2755 11.7521 97.3196 11.7136C97.3638 11.6752 97.3895 11.6182 97.3895 11.5597V8.73216C97.3895 8.63525 97.3225 8.55117 97.227 8.52979C95.8674 8.22623 94.2983 8.07373 92.5624 8.07373C86.2717 8.07373 83.4555 12.1697 83.4555 16.2272C83.4555 21.6899 86.9287 24.9507 92.7462 24.9507C94.485 24.9507 95.9486 24.7868 97.3524 24.4334C97.4451 24.4106 97.5106 24.3279 97.5106 24.2338V21.3763C97.5106 21.3165 97.485 21.2595 97.4394 21.221C97.3937 21.1825 97.3339 21.1626 97.274 21.1711Z" fill="#FEFEFE"/>
<path d="M110.356 8.49126C110.356 8.37725 110.262 8.28462 110.148 8.28462H109.863C108.44 8.27322 106.683 8.26752 104.128 9.69839V8.61384C104.128 8.49982 104.034 8.40718 103.918 8.40718H100.093C99.9776 8.40718 99.8835 8.49982 99.8835 8.61384V24.4148C99.8835 24.5288 99.9776 24.6214 100.093 24.6214H104.406C104.521 24.6214 104.614 24.5288 104.614 24.4148V13.1174C106.042 12.1811 108.363 12.1939 109.903 12.1896H110.146C110.262 12.1896 110.354 12.097 110.354 11.983V8.49269L110.356 8.49126Z" fill="#FEFEFE"/>
<path d="M119.058 8.04248C113.682 8.04248 110.343 11.2819 110.343 16.4966C110.343 21.7114 113.682 24.9494 119.058 24.9494C124.151 24.9494 127.71 21.4734 127.71 16.4966C127.71 11.5199 124.395 8.04248 119.058 8.04248ZM122.793 16.5579C122.793 20.175 121.703 21.6515 119.028 21.6515C116.353 21.6515 115.226 20.175 115.226 16.5579C115.226 12.9408 116.327 11.4373 119.028 11.4373C121.729 11.4373 122.793 12.9209 122.793 16.5579Z" fill="#FEFEFE"/>
<path d="M38.752 38.4355C38.752 34.9766 41.3957 32.3999 44.7392 32.3999C47.2176 32.3999 49.4451 33.7624 50.2432 36.0256C50.2931 36.1581 50.2603 36.2921 50.0608 36.342L48.9135 36.5914C48.6969 36.6412 48.6299 36.4916 48.58 36.3591C47.9145 34.8954 46.6019 33.9149 44.7549 33.9149C42.2608 33.9149 40.4651 35.8773 40.4651 38.4384C40.4651 40.9994 42.2608 42.9619 44.7549 42.9619C46.6005 42.9619 47.9145 41.9814 48.58 40.5177C48.6299 40.3852 48.6969 40.2355 48.9135 40.2854L50.0608 40.5348C50.2603 40.5847 50.2931 40.7172 50.2432 40.8512C49.4451 43.113 47.2161 44.4769 44.7392 44.4769C41.3957 44.4769 38.752 41.8987 38.752 38.4398V38.4355Z" fill="#FEFEFE"/>
<path d="M53.4699 44.2573C52.2057 44.2573 51.5074 43.6089 51.5074 42.3276V32.9328C51.5074 32.749 51.6414 32.6165 51.8238 32.6165H52.8057C52.9881 32.6165 53.105 32.749 53.105 32.9328V42.0782C53.105 42.5941 53.3544 42.9091 53.9373 42.9091H54.3535C54.5359 42.9091 54.6699 43.0089 54.6699 43.2084V43.9067C54.6699 44.1732 54.4703 44.2559 54.2865 44.2559H53.4713L53.4699 44.2573Z" fill="#FEFEFE"/>
<path d="M55.3497 33.8621C55.3497 33.2464 55.8485 32.7319 56.4642 32.7319C57.0798 32.7319 57.5787 33.2478 57.5787 33.8621C57.5787 34.4764 57.0798 34.9766 56.4642 34.9766C55.8485 34.9766 55.3497 34.4607 55.3497 33.8621ZM55.9824 44.2559C55.8 44.2559 55.6661 44.1234 55.6661 43.9395V36.7224C55.6661 36.5058 55.7658 36.406 55.9824 36.406H56.9644C57.1468 36.406 57.2637 36.5386 57.2637 36.7224V43.9395C57.2637 44.122 57.1468 44.2559 56.9644 44.2559H55.9824Z" fill="#FEFEFE"/>
<path d="M62.8504 44.4724C60.5217 44.4724 58.726 42.6767 58.726 40.3323C58.726 37.9879 60.5217 36.175 62.8504 36.175C64.4295 36.175 65.7107 36.9404 66.3592 38.1204C66.4761 38.337 66.3763 38.5038 66.2267 38.6192L65.611 39.0183C65.3944 39.2007 65.1963 39.1009 65.0623 38.9185C64.5307 38.1204 63.8651 37.6715 62.8675 37.6715C61.3868 37.6715 60.3564 38.8515 60.3564 40.3323C60.3564 41.8131 61.3882 42.9931 62.8675 42.9931C63.8651 42.9931 64.5307 42.5427 65.0623 41.7446C65.1948 41.5622 65.3944 41.4781 65.611 41.6278L66.2267 42.0439C66.3763 42.1608 66.4761 42.3261 66.3592 42.5427C65.7107 43.7242 64.4309 44.4724 62.8504 44.4724Z" fill="#FEFEFE"/>
<path d="M69.3849 43.958C69.3849 44.1404 69.268 44.2573 69.0856 44.2573H68.1036C67.9212 44.2573 67.7872 44.1404 67.7872 43.958V32.9157C67.7872 32.7333 67.9212 32.6165 68.1036 32.6165H69.0856C69.268 32.6165 69.3849 32.7333 69.3849 32.9157V39.302H70.2172L72.5459 36.6084C72.6457 36.4744 72.7625 36.4089 72.9107 36.4089H74.1578C74.3744 36.4089 74.44 36.6084 74.3074 36.7908L71.5297 39.8507L74.7734 43.8583C74.8903 44.0407 74.8219 44.2573 74.5739 44.2573H73.3597C73.1601 44.2573 72.9934 44.1746 72.878 44.0079L70.183 40.5989H69.3849V43.958Z" fill="#FEFEFE"/>
<path d="M82.9882 36.1908C84.2523 36.1908 85.2499 36.7893 85.6989 37.6373V32.9143C85.6989 32.7319 85.8328 32.615 86.0152 32.615H86.9958C87.1796 32.615 87.2951 32.7319 87.2951 32.9143V43.9566C87.2951 44.139 87.1782 44.2558 86.9958 44.2558H86.0152C85.8328 44.2558 85.6989 44.139 85.6989 43.9566V43.0088C85.2172 43.8568 84.268 44.4725 83.0038 44.4725C80.8746 44.4725 79.0632 42.7936 79.0632 40.3323C79.0632 37.8711 80.8932 36.1908 82.9882 36.1908ZM83.2048 43.0088C84.6685 43.0088 85.716 41.8288 85.716 40.3323C85.716 38.8359 84.6685 37.6715 83.2048 37.6715C81.7411 37.6715 80.6936 38.8516 80.6936 40.3323C80.6936 41.8131 81.7411 43.0088 83.2048 43.0088Z" fill="#FEFEFE"/>
<path d="M96.8252 40.133V40.4323C96.8252 40.6147 96.7597 40.7486 96.5088 40.7486H90.4233C90.5559 42.1125 91.5877 43.0931 92.9345 43.0931C93.9492 43.0931 94.5649 42.6783 95.0808 42.0954C95.2134 41.9458 95.3459 41.9287 95.4955 42.0285L96.2281 42.5116C96.4105 42.6285 96.3777 42.8109 96.2936 42.9263C95.6295 43.8413 94.515 44.4726 92.9003 44.4726C90.5074 44.4726 88.7773 42.6926 88.7773 40.3482C88.7773 38.0038 90.5074 36.1738 92.8518 36.1738C95.1963 36.1738 96.8252 37.9197 96.8252 40.1315V40.133ZM95.2447 39.6669C95.0623 38.2859 94.0818 37.5049 92.8675 37.5049C91.6533 37.5049 90.6556 38.4028 90.4547 39.6669H95.2447Z" fill="#FEFEFE"/>
<path d="M103.91 43.9409C103.91 44.1233 103.776 44.2573 103.593 44.2573H102.546C102.362 44.2573 102.247 44.1248 102.247 43.9409V32.9328C102.247 32.749 102.363 32.6165 102.546 32.6165H106.736C109.481 32.6165 110.845 34.3295 110.845 36.3248C110.845 38.32 109.464 40.0673 106.736 40.0673H103.91V43.9423V43.9409ZM106.653 38.5865C108.034 38.5865 109.132 37.7884 109.132 36.3248C109.132 34.8611 108.034 34.0787 106.653 34.0787H103.91V38.5851H106.653V38.5865Z" fill="#FEFEFE"/>
<path d="M115.368 36.1738C116.615 36.1738 117.597 36.8066 118.045 37.6546V36.7239C118.045 36.5415 118.179 36.4076 118.361 36.4076H119.343C119.525 36.4076 119.642 36.5401 119.642 36.7239V43.9582C119.642 44.1406 119.525 44.2574 119.343 44.2574H118.361C118.179 44.2574 118.045 44.1406 118.045 43.9582V43.0104C117.596 43.8584 116.614 44.4741 115.35 44.4741C113.22 44.4741 111.409 42.7952 111.409 40.3168C111.409 37.8384 113.239 36.1752 115.368 36.1752V36.1738ZM115.551 43.009C116.999 43.009 118.063 41.8118 118.063 40.3325C118.063 38.8532 116.999 37.6717 115.551 37.6717C114.103 37.6717 113.039 38.8361 113.039 40.3325C113.039 41.8289 114.087 43.009 115.551 43.009Z" fill="#FEFEFE"/>
<path d="M127.773 44.2731V42.9591C127.324 43.7743 126.342 44.3729 125.096 44.3729C122.917 44.3729 121.122 42.7596 121.122 40.2983C121.122 37.837 122.934 36.1909 125.047 36.1909C126.309 36.1909 127.325 36.8237 127.773 37.6717V36.7239C127.773 36.5415 127.89 36.4075 128.072 36.4075H129.053C129.237 36.4075 129.369 36.5401 129.369 36.7239V44.3244C129.369 46.4693 127.857 47.9999 125.245 47.9999C123.115 47.9999 121.737 46.9852 121.354 45.5216C121.303 45.389 121.387 45.2394 121.536 45.2223L122.567 44.9387C122.751 44.9059 122.866 44.9558 122.916 45.1054C123.114 45.8864 123.864 46.6189 125.277 46.6189C126.941 46.6189 127.772 45.6712 127.772 44.2745L127.773 44.2731ZM125.262 42.9434C126.724 42.9434 127.756 41.8118 127.756 40.2983C127.756 38.7847 126.724 37.6546 125.262 37.6546C123.8 37.6546 122.751 38.8346 122.751 40.2983C122.751 41.7619 123.798 42.9434 125.262 42.9434Z" fill="#FEFEFE"/>
<path d="M134.957 36.1909C137.252 36.1909 139.082 37.9866 139.082 40.3325C139.082 42.6783 137.252 44.4726 134.957 44.4726C132.663 44.4726 130.834 42.6769 130.834 40.3325C130.834 37.9881 132.663 36.1909 134.957 36.1909ZM134.957 42.9933C136.421 42.9933 137.468 41.8118 137.468 40.3325C137.468 38.8532 136.421 37.6717 134.957 37.6717C133.494 37.6717 132.446 38.836 132.446 40.3325C132.446 41.8289 133.494 42.9933 134.957 42.9933Z" fill="#FEFEFE"/>
<path d="M25.5563 42.0713C25.5563 43.5236 21.0798 44.7022 15.5587 44.7022C10.0375 44.7022 5.56104 43.5236 5.56104 42.0713C5.56104 40.619 10.0375 39.4404 15.5587 39.4404C21.0798 39.4404 25.5563 40.619 25.5563 42.0713Z" fill="#FEFEFE"/>
<path d="M15.5587 0C6.96627 0 0 6.96627 0 15.5587C0 24.7468 15.5587 42.4917 15.5587 42.4917C15.5587 42.4917 31.1173 25.4295 31.1173 15.5587C31.1173 6.96484 24.1511 0 15.5587 0Z" fill="#20B787"/>
<path d="M15.5601 7.63892C10.9468 7.63892 7.12735 11.209 6.8637 15.7667C6.85799 15.8807 6.8979 15.989 6.97771 16.0731C7.05752 16.1572 7.17011 16.2042 7.28555 16.2042H10.3582C10.5763 16.2042 10.7559 16.0375 10.7772 15.818C11.0095 13.361 13.0661 11.5083 15.5601 11.5083C18.0542 11.5083 20.1107 13.361 20.3416 15.818C20.363 16.0389 20.5426 16.2042 20.7606 16.2042H23.8304C23.9459 16.2042 24.0585 16.1558 24.1397 16.0731C24.2195 15.989 24.2594 15.8807 24.2537 15.7667C23.9901 11.209 20.172 7.63892 15.5601 7.63892Z" fill="#FEFEFE"/>
<path d="M15.5602 12.3535C13.3811 12.3535 11.6082 14.1093 11.6082 16.267C11.6082 18.4248 13.3811 20.182 15.5602 20.182C17.7393 20.182 19.5108 18.4262 19.5108 16.267C19.5108 14.1079 17.7393 12.3535 15.5602 12.3535Z" fill="#FEFEFE"/>
<path d="M15.5601 2.93872C12.0541 2.93872 8.73489 4.26699 6.21517 6.67981C3.70116 9.08551 2.24605 12.3135 2.11779 15.7682C2.11351 15.8836 2.15626 15.9934 2.23607 16.076C2.31588 16.1587 2.4242 16.2043 2.53821 16.2043H5.58809C5.81327 16.2043 5.99712 16.0304 6.0071 15.8081C6.24938 10.753 10.4451 6.7924 15.5586 6.7924C20.6722 6.7924 24.8665 10.753 25.1102 15.8081C25.1202 16.0304 25.3054 16.2043 25.5292 16.2043H28.5805C28.6959 16.2043 28.8028 16.1587 28.8841 16.076C28.9653 15.9934 29.0066 15.8836 29.0023 15.7682C28.8741 12.3135 27.419 9.08694 24.905 6.67981C22.3838 4.26699 19.066 2.93872 15.5601 2.93872Z" fill="#FEFEFE"/>
</svg>
