<svg width="logoWidth" height="logoHeight" viewBox="0 0 140 48" fill="none" xmlns="http://www.w3.org/2000/svg">
<path d="M62.5464 3.13525H55.9879C55.8924 3.13525 55.8083 3.19939 55.7855 3.29202L51.684 19.2635H51.6284L47.6822 3.29344C47.6594 3.20081 47.5753 3.13525 47.4798 3.13525H40.6463C40.5366 3.13525 40.4454 3.21934 40.4382 3.32907L39.0259 24.3997C39.0217 24.4567 39.043 24.5123 39.0815 24.555C39.1214 24.5964 39.177 24.6206 39.234 24.6206H42.7755C42.8866 24.6206 42.9778 24.5351 42.9835 24.4268L44.0153 6.87624H44.051L48.7197 24.4667C48.7439 24.5579 48.8266 24.6206 48.9221 24.6206H53.8074C53.9015 24.6206 53.9842 24.5579 54.0084 24.4681L58.8382 6.87624H58.8695L59.6277 24.4225C59.632 24.5337 59.7246 24.6206 59.8358 24.6206H63.9601C64.0171 24.6206 64.0727 24.5978 64.1126 24.555C64.1525 24.5137 64.1725 24.4567 64.1682 24.3997L62.753 3.32907C62.7459 3.22076 62.6547 3.13525 62.5449 3.13525" fill="colorPrimary"/>
<path d="M73.1194 8.07346C71.4292 8.07346 68.8341 8.33853 67.4517 8.65206C67.3562 8.67344 67.2892 8.75752 67.2892 8.853V11.8358C67.2892 11.8985 67.3177 11.9584 67.3676 11.9969C67.4175 12.0368 67.4816 12.051 67.5443 12.0368C68.4906 11.8258 70.6782 11.4667 72.8772 11.4667C76.5084 11.4667 76.6139 12.3332 76.6167 14.6319H76.2975C73.014 14.6305 69.2986 14.6191 67.4118 16.4846C66.6251 17.2613 66.2275 18.3188 66.2275 19.6242C66.2275 24.206 69.8587 24.8915 73.7835 24.9485C74.1427 24.9585 74.499 24.9627 74.8581 24.9627C76.6923 24.9627 78.6062 24.8388 81.1615 24.558C81.2669 24.5466 81.3482 24.4582 81.3482 24.3528V13.546C81.3482 11.9441 80.8936 10.6857 79.9943 9.80357C78.4095 8.2459 75.7517 8.05493 73.118 8.07203M76.6153 17.7786V21.6422C75.793 21.7505 75.1189 21.7961 74.3294 21.7961C72.4781 21.7961 71.1684 21.6521 71.1684 19.7767C71.1684 17.9012 72.4781 17.7558 74.3294 17.7558C75.421 17.7558 76.1878 17.7644 76.6153 17.7786Z" fill="colorPrimary"/>
<path d="M97.2712 21.1702L96.9933 21.2073C96.2209 21.3099 95.4927 21.4068 94.2314 21.4068C90.0843 21.4068 88.3926 19.966 88.3926 16.4359C88.3926 12.9059 90.0301 11.5563 94.2314 11.5563C95.1749 11.5563 96.0171 11.6318 97.1544 11.7643C97.2142 11.7686 97.2727 11.7515 97.3168 11.713C97.361 11.6746 97.3867 11.6176 97.3867 11.5591V8.73165C97.3867 8.63475 97.3197 8.55066 97.2242 8.52929C95.8646 8.22573 94.2956 8.07324 92.5597 8.07324C86.2692 8.07324 83.4531 12.1691 83.4531 16.2264C83.4531 21.689 86.9262 24.9497 92.7436 24.9497C94.4823 24.9497 95.9459 24.7858 97.3496 24.4324C97.4423 24.4096 97.5078 24.3269 97.5078 24.2329V21.3755C97.5078 21.3156 97.4822 21.2586 97.4366 21.2201C97.391 21.1816 97.3311 21.1617 97.2712 21.1702Z" fill="colorPrimary"/>
<path d="M110.353 8.49224C110.353 8.37823 110.258 8.2856 110.144 8.2856H109.859C108.437 8.2742 106.68 8.26849 104.125 9.69933V8.6148C104.125 8.50079 104.031 8.40816 103.915 8.40816H100.09C99.9747 8.40816 99.8806 8.50079 99.8806 8.6148V24.4153C99.8806 24.5293 99.9747 24.6219 100.09 24.6219H104.403C104.518 24.6219 104.611 24.5293 104.611 24.4153V13.1182C106.039 12.1819 108.36 12.1947 109.899 12.1905H110.143C110.258 12.1905 110.351 12.0978 110.351 11.9838V8.49367L110.353 8.49224Z" fill="colorPrimary"/>
<path d="M119.054 8.04346C113.679 8.04346 110.34 11.2828 110.34 16.4974C110.34 21.7119 113.679 24.9498 119.054 24.9498C124.148 24.9498 127.706 21.4739 127.706 16.4974C127.706 11.5208 124.392 8.04346 119.054 8.04346ZM122.79 16.5586C122.79 20.1756 121.699 21.6521 119.025 21.6521C116.35 21.6521 115.222 20.1756 115.222 16.5586C115.222 12.9416 116.324 11.4381 119.025 11.4381C121.725 11.4381 122.79 12.9217 122.79 16.5586Z" fill="colorPrimary"/>
<path d="M38.7509 38.4358C38.7509 34.977 41.3945 32.4004 44.7379 32.4004C47.2162 32.4004 49.4436 33.7628 50.2417 36.0259C50.2916 36.1585 50.2588 36.2924 50.0593 36.3423L48.9121 36.5917C48.6955 36.6416 48.6285 36.492 48.5786 36.3594C47.9131 34.8958 46.6005 33.9153 44.7535 33.9153C42.2595 33.9153 40.4639 35.8777 40.4639 38.4387C40.4639 40.9997 42.2595 42.9621 44.7535 42.9621C46.5991 42.9621 47.9131 41.9816 48.5786 40.518C48.6285 40.3854 48.6955 40.2358 48.9121 40.2857L50.0593 40.5351C50.2588 40.5849 50.2916 40.7175 50.2417 40.8514C49.4436 43.1131 47.2147 44.477 44.7379 44.477C41.3945 44.477 38.7509 41.8989 38.7509 38.4401V38.4358Z" fill="colorPrimary"/>
<path d="M53.4681 44.256C52.204 44.256 51.5057 43.6076 51.5057 42.3264V32.9319C51.5057 32.748 51.6396 32.6155 51.8221 32.6155H52.804C52.9864 32.6155 53.1033 32.748 53.1033 32.9319V42.077C53.1033 42.5929 53.3527 42.9078 53.9355 42.9078H54.3517C54.5341 42.9078 54.6681 43.0076 54.6681 43.2071V43.9054C54.6681 44.1719 54.4685 44.2546 54.2847 44.2546H53.4695L53.4681 44.256Z" fill="colorPrimary"/>
<path d="M55.3478 33.8626C55.3478 33.2469 55.8466 32.7324 56.4623 32.7324C57.078 32.7324 57.5768 33.2483 57.5768 33.8626C57.5768 34.4768 57.078 34.977 56.4623 34.977C55.8466 34.977 55.3478 34.4611 55.3478 33.8626ZM55.9806 44.2561C55.7982 44.2561 55.6642 44.1235 55.6642 43.9397V36.7228C55.6642 36.5062 55.764 36.4064 55.9806 36.4064H56.9625C57.1449 36.4064 57.2618 36.539 57.2618 36.7228V43.9397C57.2618 44.1221 57.1449 44.2561 56.9625 44.2561H55.9806Z" fill="colorPrimary"/>
<path d="M62.8483 44.4727C60.5197 44.4727 58.724 42.677 58.724 40.3327C58.724 37.9883 60.5197 36.1755 62.8483 36.1755C64.4274 36.1755 65.7086 36.9408 66.357 38.1208C66.4739 38.3375 66.3741 38.5042 66.2245 38.6196L65.6088 39.0187C65.3922 39.2011 65.1941 39.1013 65.0602 38.9189C64.5286 38.1208 63.863 37.6719 62.8654 37.6719C61.3847 37.6719 60.3544 38.8519 60.3544 40.3327C60.3544 41.8134 61.3862 42.9934 62.8654 42.9934C63.863 42.9934 64.5286 42.543 65.0602 41.745C65.1927 41.5626 65.3922 41.4785 65.6088 41.6281L66.2245 42.0442C66.3741 42.1611 66.4739 42.3264 66.357 42.543C65.7086 43.7245 64.4288 44.4727 62.8483 44.4727Z" fill="colorPrimary"/>
<path d="M69.3826 43.9567C69.3826 44.1391 69.2657 44.256 69.0833 44.256H68.1014C67.919 44.256 67.785 44.1391 67.785 43.9567V32.9148C67.785 32.7323 67.919 32.6155 68.1014 32.6155H69.0833C69.2657 32.6155 69.3826 32.7323 69.3826 32.9148V39.3008H70.2149L72.5436 36.6073C72.6433 36.4733 72.7602 36.4078 72.9084 36.4078H74.1554C74.372 36.4078 74.4376 36.6073 74.305 36.7897L71.5274 39.8495L74.771 43.8569C74.8879 44.0394 74.8195 44.256 74.5715 44.256H73.3573C73.1578 44.256 72.9911 44.1733 72.8756 44.0066L70.1807 40.5977H69.3826V43.9567Z" fill="colorPrimary"/>
<path d="M82.9856 36.1911C84.2496 36.1911 85.2472 36.7897 85.6962 37.6377V32.9148C85.6962 32.7323 85.8301 32.6155 86.0125 32.6155H86.993C87.1769 32.6155 87.2923 32.7323 87.2923 32.9148V43.9567C87.2923 44.1391 87.1754 44.256 86.993 44.256H86.0125C85.8301 44.256 85.6962 44.1391 85.6962 43.9567V43.009C85.2145 43.857 84.2653 44.4726 83.0012 44.4726C80.8721 44.4726 79.0607 42.7938 79.0607 40.3326C79.0607 37.8714 80.8906 36.1911 82.9856 36.1911ZM83.2022 43.009C84.6658 43.009 85.7133 41.829 85.7133 40.3326C85.7133 38.8362 84.6658 37.6719 83.2022 37.6719C81.7386 37.6719 80.6911 38.8519 80.6911 40.3326C80.6911 41.8133 81.7386 43.009 83.2022 43.009Z" fill="colorPrimary"/>
<path d="M96.8222 40.1316V40.4309C96.8222 40.6133 96.7566 40.7473 96.5058 40.7473H90.4205C90.553 42.1111 91.5848 43.0916 92.9316 43.0916C93.9463 43.0916 94.5619 42.6769 95.0778 42.094C95.2104 41.9444 95.3429 41.9273 95.4925 42.0271L96.2251 42.5102C96.4075 42.627 96.3747 42.8095 96.2906 42.9249C95.6265 43.8398 94.512 44.4712 92.8974 44.4712C90.5046 44.4712 88.7744 42.6912 88.7744 40.3468C88.7744 38.0025 90.5046 36.1726 92.8489 36.1726C95.1933 36.1726 96.8222 37.9184 96.8222 40.1302V40.1316ZM95.2417 39.6656C95.0593 38.2847 94.0788 37.5037 92.8646 37.5037C91.6504 37.5037 90.6528 38.4015 90.4518 39.6656H95.2417Z" fill="colorPrimary"/>
<path d="M103.907 43.9396C103.907 44.122 103.773 44.256 103.59 44.256H102.543C102.359 44.256 102.243 44.1235 102.243 43.9396V32.9319C102.243 32.748 102.36 32.6155 102.543 32.6155H106.733C109.477 32.6155 110.841 34.3285 110.841 36.3237C110.841 38.3189 109.46 40.0661 106.733 40.0661H103.907V43.941V43.9396ZM106.65 38.5854C108.031 38.5854 109.128 37.7873 109.128 36.3237C109.128 34.8601 108.031 34.0777 106.65 34.0777H103.907V38.5839H106.65V38.5854Z" fill="colorPrimary"/>
<path d="M115.365 36.1741C116.612 36.1741 117.594 36.8068 118.041 37.6548V36.7242C118.041 36.5418 118.175 36.4078 118.357 36.4078H119.339C119.522 36.4078 119.639 36.5403 119.639 36.7242V43.9582C119.639 44.1406 119.522 44.2574 119.339 44.2574H118.357C118.175 44.2574 118.041 44.1406 118.041 43.9582V43.0104C117.592 43.8584 116.61 44.4741 115.346 44.4741C113.217 44.4741 111.406 42.7953 111.406 40.3169C111.406 37.8386 113.235 36.1755 115.365 36.1755V36.1741ZM115.547 43.009C116.995 43.009 118.06 41.8119 118.06 40.3326C118.06 38.8533 116.995 37.6719 115.547 37.6719C114.099 37.6719 113.036 38.8362 113.036 40.3326C113.036 41.829 114.083 43.009 115.547 43.009Z" fill="colorPrimary"/>
<path d="M127.769 44.2731V42.9591C127.32 43.7743 126.338 44.3729 125.093 44.3729C122.914 44.3729 121.118 42.7596 121.118 40.2984C121.118 37.8372 122.931 36.1912 125.043 36.1912C126.305 36.1912 127.322 36.8239 127.769 37.6719V36.7242C127.769 36.5417 127.886 36.4078 128.068 36.4078H129.049C129.233 36.4078 129.365 36.5403 129.365 36.7242V44.3244C129.365 46.4692 127.853 47.9998 125.241 47.9998C123.112 47.9998 121.734 46.9851 121.35 45.5215C121.299 45.389 121.383 45.2394 121.533 45.2222L122.563 44.9386C122.747 44.9059 122.862 44.9557 122.912 45.1054C123.11 45.8864 123.86 46.6189 125.274 46.6189C126.937 46.6189 127.768 45.6712 127.768 44.2745L127.769 44.2731ZM125.258 42.9435C126.72 42.9435 127.752 41.8119 127.752 40.2984C127.752 38.7849 126.72 37.6548 125.258 37.6548C123.796 37.6548 122.747 38.8348 122.747 40.2984C122.747 41.762 123.794 42.9435 125.258 42.9435Z" fill="colorPrimary"/>
<path d="M134.953 36.1912C137.248 36.1912 139.077 37.9868 139.077 40.3326C139.077 42.6784 137.248 44.4726 134.953 44.4726C132.659 44.4726 130.83 42.677 130.83 40.3326C130.83 37.9883 132.659 36.1912 134.953 36.1912ZM134.953 42.9933C136.417 42.9933 137.464 41.8119 137.464 40.3326C137.464 38.8533 136.417 37.6719 134.953 37.6719C133.49 37.6719 132.442 38.8362 132.442 40.3326C132.442 41.829 133.49 42.9933 134.953 42.9933Z" fill="colorPrimary"/>
<path d="M25.5556 42.07C25.5556 43.5222 21.0792 44.7008 15.5582 44.7008C10.0373 44.7008 5.56091 43.5222 5.56091 42.07C5.56091 40.6178 10.0373 39.4392 15.5582 39.4392C21.0792 39.4392 25.5556 40.6178 25.5556 42.07Z" fill="colorPrimary"/>
<path d="M15.5582 0C6.96606 0 0 6.96606 0 15.5582C0 24.7461 15.5582 42.4904 15.5582 42.4904C15.5582 42.4904 31.1164 25.4287 31.1164 15.5582C31.1178 6.96606 24.1518 0 15.5582 0Z" fill="colorSecondary"/>
<path d="M15.5596 7.64014C10.9465 7.64014 7.1271 11.2101 6.86345 15.7677C6.85775 15.8817 6.89765 15.99 6.97746 16.0741C7.05727 16.1582 7.16985 16.2052 7.28529 16.2052H10.3579C10.5759 16.2052 10.7555 16.0385 10.7769 15.819C11.0092 13.3621 13.0656 11.5094 15.5596 11.5094C18.0536 11.5094 20.1101 13.3621 20.341 15.819C20.3623 16.0399 20.5419 16.2052 20.76 16.2052H23.8297C23.9451 16.2052 24.0577 16.1567 24.1389 16.0741C24.2188 15.99 24.2587 15.8817 24.253 15.7677C23.9893 11.2101 20.1714 7.64014 15.5596 7.64014Z" fill="#FEFEFE"/>
<path d="M15.5596 12.353C13.3806 12.353 11.6077 14.1088 11.6077 16.2665C11.6077 18.4241 13.3806 20.1813 15.5596 20.1813C17.7387 20.1813 19.5101 18.4255 19.5101 16.2665C19.5101 14.1074 17.7387 12.353 15.5596 12.353Z" fill="#FEFEFE"/>
<path d="M15.5596 2.93994C12.0538 2.93994 8.73463 4.26817 6.21499 6.68092C3.70105 9.08655 2.24599 12.3145 2.11772 15.769C2.11345 15.8845 2.1562 15.9942 2.23601 16.0768C2.31582 16.1595 2.42413 16.2051 2.53814 16.2051H5.58793C5.8131 16.2051 5.99694 16.0312 6.00692 15.8089C6.24919 10.754 10.4448 6.79351 15.5582 6.79351C20.6716 6.79351 24.8657 10.754 25.1094 15.8089C25.1194 16.0312 25.3047 16.2051 25.5284 16.2051H28.5796C28.6951 16.2051 28.802 16.1595 28.8832 16.0768C28.9644 15.9942 29.0058 15.8845 29.0015 15.769C28.8732 12.3145 27.4182 9.08798 24.9042 6.68092C22.3832 4.26817 19.0654 2.93994 15.5596 2.93994Z" fill="#FEFEFE"/>
</svg>
