<svg width="170" height="48" viewBox="0 0 170 48" fill="none" xmlns="http://www.w3.org/2000/svg">
<path d="M65.71 28.9448H58.7161V33.8079H65.1439V37.4294H58.7161V45.1315H54.2501V25.3086H65.71V28.9448Z" fill="#053575"/>
<mask id="mask0_4920_895" style="mask-type:luminance" maskUnits="userSpaceOnUse" x="54" y="25" width="12" height="21">
<path d="M65.71 28.9448H58.7161V33.8079H65.1439V37.4294H58.7161V45.1315H54.2501V25.3086H65.71V28.9448Z" fill="white"/>
</mask>
<g mask="url(#mask0_4920_895)">
<path d="M169.931 23.0059H52.3445V48.0001H169.931V23.0059Z" fill="#053575"/>
</g>
<path d="M87.148 35.0821C87.148 37.1091 86.7361 38.9169 85.9122 40.4994C85.0884 42.0849 83.9267 43.3088 82.4301 44.1771C80.9335 45.0425 79.2384 45.4751 77.3506 45.4751C75.4629 45.4751 73.8478 45.0543 72.3749 44.2097C70.8991 43.3651 69.7581 42.1856 68.9461 40.6654C68.1341 39.1451 67.7311 37.4174 67.7311 35.4822C67.7311 33.4285 68.14 31.6029 68.9609 30.0086C69.7818 28.4142 70.9495 27.1784 72.4638 26.2983C73.9782 25.4181 75.7148 24.9795 77.6677 24.9795C79.4933 24.9795 81.1291 25.4003 82.5812 26.236C84.0334 27.0747 85.1565 28.2631 85.9537 29.8011C86.7509 31.3392 87.148 33.0995 87.148 35.0821ZM82.4479 35.331C82.4479 33.3129 82.0152 31.7244 81.1499 30.5627C80.2845 29.4011 79.0813 28.8202 77.5433 28.8202C76.0052 28.8202 74.7546 29.407 73.8241 30.5746C72.8935 31.7452 72.4282 33.301 72.4282 35.2481C72.4282 37.1951 72.8846 38.7302 73.7974 39.886C74.7101 41.0417 75.9222 41.6196 77.4336 41.6196C78.945 41.6196 80.1926 41.0595 81.0965 39.9393C82.0004 38.8191 82.4508 37.284 82.4508 35.3281L82.4479 35.331Z" fill="#053575"/>
<mask id="mask1_4920_895" style="mask-type:luminance" maskUnits="userSpaceOnUse" x="67" y="24" width="21" height="22">
<path d="M87.148 35.0821C87.148 37.1091 86.7361 38.9169 85.9122 40.4994C85.0884 42.0849 83.9267 43.3088 82.4301 44.1771C80.9335 45.0425 79.2384 45.4751 77.3506 45.4751C75.4629 45.4751 73.8478 45.0543 72.3749 44.2097C70.8991 43.3651 69.7581 42.1856 68.9461 40.6654C68.1341 39.1451 67.7311 37.4174 67.7311 35.4822C67.7311 33.4285 68.14 31.6029 68.9609 30.0086C69.7818 28.4142 70.9495 27.1784 72.4638 26.2983C73.9782 25.4181 75.7148 24.9795 77.6677 24.9795C79.4933 24.9795 81.1291 25.4003 82.5812 26.236C84.0334 27.0747 85.1565 28.2631 85.9537 29.8011C86.7509 31.3392 87.148 33.0995 87.148 35.0821ZM82.4479 35.331C82.4479 33.3129 82.0152 31.7244 81.1499 30.5627C80.2845 29.4011 79.0813 28.8202 77.5433 28.8202C76.0052 28.8202 74.7546 29.407 73.8241 30.5746C72.8935 31.7452 72.4282 33.301 72.4282 35.2481C72.4282 37.1951 72.8846 38.7302 73.7974 39.886C74.7101 41.0417 75.9222 41.6196 77.4336 41.6196C78.945 41.6196 80.1926 41.0595 81.0965 39.9393C82.0004 38.8191 82.4508 37.284 82.4508 35.3281L82.4479 35.331Z" fill="white"/>
</mask>
<g mask="url(#mask1_4920_895)">
<path d="M169.931 23.0059H52.3445V48.0001H169.931V23.0059Z" fill="#053575"/>
</g>
<path d="M108.257 45.1316H103.75L95.5792 32.6759C95.0991 31.9469 94.7672 31.3986 94.5834 31.0312H94.5271C94.6012 31.7691 94.6368 32.8359 94.6368 34.2377V45.1286H90.4197V25.3057H95.2295L103.095 37.3731L104.09 38.9912H104.147C104.073 38.5111 104.037 37.6042 104.037 36.2677V25.3057H108.254V45.1286L108.257 45.1316Z" fill="#053575"/>
<mask id="mask2_4920_895" style="mask-type:luminance" maskUnits="userSpaceOnUse" x="90" y="25" width="19" height="21">
<path d="M108.257 45.1316H103.75L95.5792 32.6759C95.0991 31.9469 94.7672 31.3986 94.5834 31.0312H94.5271C94.6012 31.7691 94.6368 32.8359 94.6368 34.2377V45.1286H90.4197V25.3057H95.2295L103.095 37.3731L104.09 38.9912H104.147C104.073 38.5111 104.037 37.6042 104.037 36.2677V25.3057H108.254V45.1286L108.257 45.1316Z" fill="white"/>
</mask>
<g mask="url(#mask2_4920_895)">
<path d="M169.931 23.0059H52.3445V48.0001H169.931V23.0059Z" fill="#053575"/>
</g>
<path d="M130.374 34.9697C130.374 36.9789 129.938 38.7541 129.067 40.2981C128.196 41.8421 126.957 43.0334 125.348 43.8721C123.738 44.7107 121.895 45.1286 119.812 45.1286H112.791V25.3057H119.812C126.853 25.3057 130.374 28.527 130.374 34.9667V34.9697ZM125.674 35.026C125.674 33.1264 125.119 31.6387 124.008 30.56C122.897 29.4813 121.374 28.9419 119.438 28.9419H117.254V41.5072H119.465C121.365 41.5072 122.873 40.9323 123.993 39.7854C125.114 38.6385 125.674 37.0501 125.674 35.023V35.026Z" fill="#053575"/>
<mask id="mask3_4920_895" style="mask-type:luminance" maskUnits="userSpaceOnUse" x="112" y="25" width="19" height="21">
<path d="M130.374 34.9697C130.374 36.9789 129.938 38.7541 129.067 40.2981C128.196 41.8421 126.957 43.0334 125.348 43.8721C123.738 44.7107 121.895 45.1286 119.812 45.1286H112.791V25.3057H119.812C126.853 25.3057 130.374 28.527 130.374 34.9667V34.9697ZM125.674 35.026C125.674 33.1264 125.119 31.6387 124.008 30.56C122.897 29.4813 121.374 28.9419 119.438 28.9419H117.254V41.5072H119.465C121.365 41.5072 122.873 40.9323 123.993 39.7854C125.114 38.6385 125.674 37.0501 125.674 35.023V35.026Z" fill="white"/>
</mask>
<g mask="url(#mask3_4920_895)">
<path d="M169.931 23.0059H52.3445V48.0001H169.931V23.0059Z" fill="#053575"/>
</g>
<path d="M151.827 35.0821C151.827 37.1091 151.415 38.9169 150.591 40.4994C149.767 42.0849 148.605 43.3088 147.109 44.1771C145.612 45.0425 143.917 45.4751 142.029 45.4751C140.142 45.4751 138.526 45.0543 137.054 44.2097C135.578 43.3651 134.437 42.1856 133.625 40.6654C132.813 39.1451 132.41 37.4174 132.41 35.4822C132.41 33.4285 132.819 31.6029 133.64 30.0086C134.46 28.4142 135.628 27.1784 137.142 26.2983C138.657 25.4181 140.393 24.9795 142.346 24.9795C144.172 24.9795 145.808 25.4003 147.26 26.236C148.712 27.0747 149.835 28.2631 150.632 29.8011C151.43 31.3392 151.827 33.0995 151.827 35.0821ZM147.126 35.331C147.126 33.3129 146.694 31.7244 145.828 30.5627C144.963 29.4011 143.76 28.8202 142.222 28.8202C140.684 28.8202 139.433 29.407 138.503 30.5746C137.572 31.7452 137.107 33.301 137.107 35.2481C137.107 37.1951 137.563 38.7302 138.476 39.886C139.389 41.0417 140.601 41.6196 142.112 41.6196C143.624 41.6196 144.871 41.0595 145.775 39.9393C146.679 38.8191 147.129 37.284 147.129 35.3281L147.126 35.331Z" fill="#053575"/>
<mask id="mask4_4920_895" style="mask-type:luminance" maskUnits="userSpaceOnUse" x="132" y="24" width="20" height="22">
<path d="M151.827 35.0821C151.827 37.1091 151.415 38.9169 150.591 40.4994C149.767 42.0849 148.605 43.3088 147.109 44.1771C145.612 45.0425 143.917 45.4751 142.029 45.4751C140.142 45.4751 138.526 45.0543 137.054 44.2097C135.578 43.3651 134.437 42.1856 133.625 40.6654C132.813 39.1451 132.41 37.4174 132.41 35.4822C132.41 33.4285 132.819 31.6029 133.64 30.0086C134.46 28.4142 135.628 27.1784 137.142 26.2983C138.657 25.4181 140.393 24.9795 142.346 24.9795C144.172 24.9795 145.808 25.4003 147.26 26.236C148.712 27.0747 149.835 28.2631 150.632 29.8011C151.43 31.3392 151.827 33.0995 151.827 35.0821ZM147.126 35.331C147.126 33.3129 146.694 31.7244 145.828 30.5627C144.963 29.4011 143.76 28.8202 142.222 28.8202C140.684 28.8202 139.433 29.407 138.503 30.5746C137.572 31.7452 137.107 33.301 137.107 35.2481C137.107 37.1951 137.563 38.7302 138.476 39.886C139.389 41.0417 140.601 41.6196 142.112 41.6196C143.624 41.6196 144.871 41.0595 145.775 39.9393C146.679 38.8191 147.129 37.284 147.129 35.3281L147.126 35.331Z" fill="white"/>
</mask>
<g mask="url(#mask4_4920_895)">
<path d="M169.931 23.0059H52.3445V48.0001H169.931V23.0059Z" fill="#053575"/>
</g>
<path d="M167.127 39.56C167.127 41.4389 166.446 42.8969 165.082 43.9282C163.719 44.9595 161.834 45.4752 159.428 45.4752C157.383 45.4752 155.673 45.1077 154.301 44.3698V39.9453C155.887 41.2907 157.632 41.9634 159.541 41.9634C160.462 41.9634 161.174 41.7797 161.677 41.4092C162.178 41.0418 162.43 40.5528 162.43 39.9453C162.43 39.3377 162.187 38.8251 161.704 38.3835C161.221 37.9419 160.237 37.37 158.752 36.6706C155.73 35.2511 154.218 33.3159 154.218 30.8651C154.218 29.087 154.876 27.6615 156.195 26.5857C157.514 25.513 159.262 24.9766 161.446 24.9766C163.381 24.9766 164.985 25.2314 166.256 25.7382V29.8723C164.919 28.9506 163.399 28.4913 161.695 28.4913C160.839 28.4913 160.16 28.6721 159.662 29.0366C159.164 29.4011 158.915 29.8871 158.915 30.4946C158.915 31.1021 159.117 31.6356 159.517 32.0356C159.917 32.4357 160.741 32.9306 161.986 33.5204C163.838 34.3946 165.157 35.2866 165.945 36.1875C166.733 37.0914 167.127 38.2146 167.127 39.56Z" fill="#053575"/>
<mask id="mask5_4920_895" style="mask-type:luminance" maskUnits="userSpaceOnUse" x="154" y="24" width="14" height="22">
<path d="M167.127 39.56C167.127 41.4389 166.446 42.8969 165.082 43.9282C163.719 44.9595 161.834 45.4752 159.428 45.4752C157.383 45.4752 155.673 45.1077 154.301 44.3698V39.9453C155.887 41.2907 157.632 41.9634 159.541 41.9634C160.462 41.9634 161.174 41.7797 161.677 41.4092C162.178 41.0418 162.43 40.5528 162.43 39.9453C162.43 39.3377 162.187 38.8251 161.704 38.3835C161.221 37.9419 160.237 37.37 158.752 36.6706C155.73 35.2511 154.218 33.3159 154.218 30.8651C154.218 29.087 154.876 27.6615 156.195 26.5857C157.514 25.513 159.262 24.9766 161.446 24.9766C163.381 24.9766 164.985 25.2314 166.256 25.7382V29.8723C164.919 28.9506 163.399 28.4913 161.695 28.4913C160.839 28.4913 160.16 28.6721 159.662 29.0366C159.164 29.4011 158.915 29.8871 158.915 30.4946C158.915 31.1021 159.117 31.6356 159.517 32.0356C159.917 32.4357 160.741 32.9306 161.986 33.5204C163.838 34.3946 165.157 35.2866 165.945 36.1875C166.733 37.0914 167.127 38.2146 167.127 39.56Z" fill="white"/>
</mask>
<g mask="url(#mask5_4920_895)">
<path d="M169.931 23.0059H52.3445V48.0001H169.931V23.0059Z" fill="#053575"/>
</g>
<path d="M55.3732 2.67912H59.3739C60.9624 2.67912 60.9594 2.67912 61.3388 4.22607C62.1804 7.643 63.025 11.057 63.8696 14.4709C63.92 14.6754 63.9941 14.871 64.1215 15.277C64.2667 14.7702 64.3675 14.4561 64.4504 14.1361C65.378 10.5413 66.3115 6.94658 67.2154 3.34295C67.3369 2.8599 67.4999 2.64949 68.0333 2.6643C69.4262 2.70283 70.822 2.68208 72.2178 2.67319C72.5853 2.67319 72.7898 2.73839 72.8164 3.18885C73.1424 8.21792 73.4891 13.247 73.827 18.2761C73.8507 18.6139 73.827 18.9547 73.827 19.3993C72.7601 19.3993 71.717 19.417 70.6738 19.3755C70.5582 19.3696 70.3686 19.0318 70.3597 18.8421C70.2352 16.3735 70.1433 13.9049 70.0367 11.4333C69.9566 9.60485 69.8737 7.77636 69.7907 5.94787L69.607 5.9212C68.9935 8.15569 68.383 10.3902 67.7666 12.6217C67.1443 14.8799 66.519 17.1351 65.8848 19.42C64.6579 19.42 63.4843 19.3993 62.3137 19.4289C61.7477 19.4437 61.7774 19.014 61.6914 18.6969C60.6927 14.9688 59.7118 11.2348 58.722 7.50372C58.5738 6.94361 58.4138 6.38647 58.1293 5.84119C58.0344 7.237 57.9337 8.63282 57.8507 10.0286C57.6818 12.8855 57.5069 15.7452 57.3795 18.605C57.3499 19.2422 57.1632 19.4704 56.5171 19.42C55.8148 19.3637 55.1065 19.4081 54.2471 19.4081C54.6234 13.816 54.9939 8.29498 55.3702 2.67616" fill="#053575"/>
<mask id="mask6_4920_895" style="mask-type:luminance" maskUnits="userSpaceOnUse" x="54" y="2" width="20" height="18">
<path d="M55.3732 2.67912H59.3739C60.9624 2.67912 60.9594 2.67912 61.3388 4.22607C62.1804 7.643 63.025 11.057 63.8696 14.4709C63.92 14.6754 63.9941 14.871 64.1215 15.277C64.2667 14.7702 64.3675 14.4561 64.4504 14.1361C65.378 10.5413 66.3115 6.94658 67.2154 3.34295C67.3369 2.8599 67.4999 2.64949 68.0333 2.6643C69.4262 2.70283 70.822 2.68208 72.2178 2.67319C72.5853 2.67319 72.7898 2.73839 72.8164 3.18885C73.1424 8.21792 73.4891 13.247 73.827 18.2761C73.8507 18.6139 73.827 18.9547 73.827 19.3993C72.7601 19.3993 71.717 19.417 70.6738 19.3755C70.5582 19.3696 70.3686 19.0318 70.3597 18.8421C70.2352 16.3735 70.1433 13.9049 70.0367 11.4333C69.9566 9.60485 69.8737 7.77636 69.7907 5.94787L69.607 5.9212C68.9935 8.15569 68.383 10.3902 67.7666 12.6217C67.1443 14.8799 66.519 17.1351 65.8848 19.42C64.6579 19.42 63.4843 19.3993 62.3137 19.4289C61.7477 19.4437 61.7774 19.014 61.6914 18.6969C60.6927 14.9688 59.7118 11.2348 58.722 7.50372C58.5738 6.94361 58.4138 6.38647 58.1293 5.84119C58.0344 7.237 57.9337 8.63282 57.8507 10.0286C57.6818 12.8855 57.5069 15.7452 57.3795 18.605C57.3499 19.2422 57.1632 19.4704 56.5171 19.42C55.8148 19.3637 55.1065 19.4081 54.2471 19.4081C54.6234 13.816 54.9939 8.29498 55.3702 2.67616" fill="white"/>
</mask>
<g mask="url(#mask6_4920_895)">
<path d="M123.412 1.20044H53.6425V21.7642H123.412V1.20044Z" fill="#053575"/>
</g>
<path d="M82.8776 17.0223C82.8776 16.0769 82.9042 15.2679 82.8568 14.4618C82.8479 14.2959 82.5664 14.0143 82.4093 14.0114C81.5558 13.9965 80.6935 14.0025 79.8459 14.1003C79.025 14.1921 78.6575 14.6841 78.6338 15.5168C78.6101 16.3436 78.9628 16.9215 79.754 16.9986C80.7587 17.0964 81.7781 17.0223 82.8776 17.0223ZM82.7561 11.685C83.0613 10.058 82.5012 9.23715 81.0076 9.22826C79.2947 9.21937 77.5818 9.36458 75.8096 9.44459V7.09156C78.453 6.66778 81.1024 6.31216 83.7518 7.03526C85.4884 7.50942 86.3864 8.65926 86.4367 10.5767C86.5079 13.2794 86.4693 15.988 86.4427 18.6907C86.4427 18.8745 86.1493 19.1945 85.9715 19.2153C83.3991 19.4731 80.8179 19.7013 78.2426 19.2597C75.7622 18.836 74.5916 17.1349 75.0124 14.6544C75.1813 13.6587 75.6999 12.8408 76.6216 12.5178C77.7566 12.1206 78.9598 11.8776 80.1511 11.7028C80.9928 11.5783 81.867 11.6791 82.7561 11.6791" fill="#053575"/>
<mask id="mask7_4920_895" style="mask-type:luminance" maskUnits="userSpaceOnUse" x="74" y="6" width="13" height="14">
<path d="M82.8776 17.0223C82.8776 16.0769 82.9042 15.2679 82.8568 14.4618C82.8479 14.2959 82.5664 14.0143 82.4093 14.0114C81.5558 13.9965 80.6935 14.0025 79.8459 14.1003C79.025 14.1921 78.6575 14.6841 78.6338 15.5168C78.6101 16.3436 78.9628 16.9215 79.754 16.9986C80.7587 17.0964 81.7781 17.0223 82.8776 17.0223ZM82.7561 11.685C83.0613 10.058 82.5012 9.23715 81.0076 9.22826C79.2947 9.21937 77.5818 9.36458 75.8096 9.44459V7.09156C78.453 6.66778 81.1024 6.31216 83.7518 7.03526C85.4884 7.50942 86.3864 8.65926 86.4367 10.5767C86.5079 13.2794 86.4693 15.988 86.4427 18.6907C86.4427 18.8745 86.1493 19.1945 85.9715 19.2153C83.3991 19.4731 80.8179 19.7013 78.2426 19.2597C75.7622 18.836 74.5916 17.1349 75.0124 14.6544C75.1813 13.6587 75.6999 12.8408 76.6216 12.5178C77.7566 12.1206 78.9598 11.8776 80.1511 11.7028C80.9928 11.5783 81.867 11.6791 82.7561 11.6791" fill="white"/>
</mask>
<g mask="url(#mask7_4920_895)">
<path d="M123.412 1.2002H53.6425V21.764H123.412V1.2002Z" fill="#053575"/>
</g>
<path d="M111.985 13.0603C112.113 13.8219 112.166 14.5924 112.379 15.3125C112.729 16.4979 113.565 16.9958 114.972 16.9988C116.389 16.9988 117.228 16.5098 117.586 15.3392C118.046 13.8456 118.046 12.3194 117.583 10.8287C117.228 9.6789 116.41 9.19288 115.032 9.18399C113.6 9.1751 112.75 9.65223 112.397 10.808C112.178 11.5281 112.119 12.2957 111.985 13.0603ZM114.99 19.4822C112.273 19.3992 110.053 18.5368 108.921 15.8993C107.653 12.9447 108.553 9.36477 110.918 7.75854C113.144 6.24715 116.881 6.24715 119.095 7.75854C121.157 9.16325 122.094 12.0438 121.394 14.8236C120.769 17.307 118.653 19.1384 116.09 19.4051C115.71 19.4437 115.325 19.4585 114.99 19.4822Z" fill="#053575"/>
<mask id="mask8_4920_895" style="mask-type:luminance" maskUnits="userSpaceOnUse" x="108" y="6" width="14" height="14">
<path d="M111.985 13.0603C112.113 13.8219 112.166 14.5924 112.379 15.3125C112.729 16.4979 113.565 16.9958 114.972 16.9988C116.389 16.9988 117.228 16.5098 117.586 15.3392C118.046 13.8456 118.046 12.3194 117.583 10.8287C117.228 9.6789 116.41 9.19288 115.032 9.18399C113.6 9.1751 112.75 9.65223 112.397 10.808C112.178 11.5281 112.119 12.2957 111.985 13.0603ZM114.99 19.4822C112.273 19.3992 110.053 18.5368 108.921 15.8993C107.653 12.9447 108.553 9.36477 110.918 7.75854C113.144 6.24715 116.881 6.24715 119.095 7.75854C121.157 9.16325 122.094 12.0438 121.394 14.8236C120.769 17.307 118.653 19.1384 116.09 19.4051C115.71 19.4437 115.325 19.4585 114.99 19.4822Z" fill="white"/>
</mask>
<g mask="url(#mask8_4920_895)">
<path d="M123.412 1.2002H53.6425V21.764H123.412V1.2002Z" fill="#053575"/>
</g>
<path d="M98.7086 9.27868C97.4788 9.27868 96.3526 9.21052 95.2354 9.2935C92.5831 9.48909 91.5577 10.8938 91.8689 13.7951C92.0556 15.5554 93.0335 16.5037 94.8057 16.6934C95.7748 16.7971 96.7586 16.7378 97.7366 16.7408C98.0656 16.7408 98.3975 16.7023 98.8213 16.6756C98.8213 17.4076 98.845 18.0714 98.8035 18.7323C98.7946 18.8716 98.5634 19.0849 98.4064 19.1175C96.3675 19.5413 94.3226 19.6717 92.3045 19.0286C89.4566 18.1188 87.88 15.5702 88.12 12.3548C88.3334 9.51873 90.3219 7.33165 93.1935 6.81008C94.8887 6.50187 96.5808 6.60559 98.2582 6.94344C98.4271 6.979 98.676 7.20126 98.6879 7.35536C98.7353 7.99252 98.7086 8.63856 98.7086 9.28461" fill="#053575"/>
<mask id="mask9_4920_895" style="mask-type:luminance" maskUnits="userSpaceOnUse" x="88" y="6" width="11" height="14">
<path d="M98.7086 9.27868C97.4788 9.27868 96.3526 9.21052 95.2354 9.2935C92.5831 9.48909 91.5577 10.8938 91.8689 13.7951C92.0556 15.5554 93.0335 16.5037 94.8057 16.6934C95.7748 16.7971 96.7586 16.7378 97.7366 16.7408C98.0656 16.7408 98.3975 16.7023 98.8213 16.6756C98.8213 17.4076 98.845 18.0714 98.8035 18.7323C98.7946 18.8716 98.5634 19.0849 98.4064 19.1175C96.3675 19.5413 94.3226 19.6717 92.3045 19.0286C89.4566 18.1188 87.88 15.5702 88.12 12.3548C88.3334 9.51873 90.3219 7.33165 93.1935 6.81008C94.8887 6.50187 96.5808 6.60559 98.2582 6.94344C98.4271 6.979 98.676 7.20126 98.6879 7.35536C98.7353 7.99252 98.7086 8.63856 98.7086 9.28461" fill="white"/>
</mask>
<g mask="url(#mask9_4920_895)">
<path d="M123.412 1.2002H53.6425V21.764H123.412V1.2002Z" fill="#053575"/>
</g>
<path d="M103.269 6.89621C103.299 7.25776 103.32 7.49188 103.35 7.85342C104.834 7.08587 106.34 6.64727 108.02 6.8399V9.77378C107.59 9.77378 107.149 9.75303 106.71 9.77971C106.162 9.8123 105.611 9.84787 105.071 9.94566C103.75 10.1887 103.658 10.3191 103.658 11.6704V19.2215H100.128C100.11 18.9933 100.081 18.7651 100.081 18.5369C100.078 14.9007 100.09 11.2615 100.066 7.62523C100.063 7.07106 100.199 6.85472 100.783 6.88436C101.589 6.92881 102.398 6.89621 103.269 6.89621Z" fill="#053575"/>
<mask id="mask10_4920_895" style="mask-type:luminance" maskUnits="userSpaceOnUse" x="100" y="6" width="9" height="14">
<path d="M103.269 6.89621C103.299 7.25776 103.32 7.49188 103.35 7.85342C104.834 7.08587 106.34 6.64727 108.02 6.8399V9.77378C107.59 9.77378 107.149 9.75303 106.71 9.77971C106.162 9.8123 105.611 9.84787 105.071 9.94566C103.75 10.1887 103.658 10.3191 103.658 11.6704V19.2215H100.128C100.11 18.9933 100.081 18.7651 100.081 18.5369C100.078 14.9007 100.09 11.2615 100.066 7.62523C100.063 7.07106 100.199 6.85472 100.783 6.88436C101.589 6.92881 102.398 6.89621 103.269 6.89621Z" fill="white"/>
</mask>
<g mask="url(#mask10_4920_895)">
<path d="M123.412 1.20044H53.6425V21.7642H123.412V1.20044Z" fill="#053575"/>
</g>
<path d="M9.69659 45.5905C4.27929 45.475 -0.0741049 41.0415 0.0533261 35.7635C0.186684 30.2573 4.61121 26.0906 10.2063 26.1973C15.6118 26.304 19.8614 30.8026 19.7162 36.2673C19.5769 41.492 15.0517 45.7031 9.69956 45.5876" fill="#053575"/>
<path d="M29.0394 14.2041H2.27301C1.02093 14.2041 0.00592041 15.2191 0.00592041 16.4712V21.518C0.00592041 22.7701 1.02093 23.7851 2.27301 23.7851H29.0394C30.2915 23.7851 31.3065 22.7701 31.3065 21.518V16.4712C31.3065 15.2191 30.2915 14.2041 29.0394 14.2041Z" fill="#053575"/>
<mask id="mask11_4920_895" style="mask-type:luminance" maskUnits="userSpaceOnUse" x="0" y="14" width="32" height="10">
<path d="M29.0394 14.2041H2.27301C1.02093 14.2041 0.00592041 15.2191 0.00592041 16.4712V21.518C0.00592041 22.7701 1.02093 23.7851 2.27301 23.7851H29.0394C30.2915 23.7851 31.3065 22.7701 31.3065 21.518V16.4712C31.3065 15.2191 30.2915 14.2041 29.0394 14.2041Z" fill="white"/>
</mask>
<g mask="url(#mask11_4920_895)">
<path d="M44.669 0H0V24.7453H44.669V0Z" fill="#053575"/>
</g>
<path d="M40.9794 2.06567H2.45971C1.10452 2.06567 0.00592041 3.16427 0.00592041 4.51946V9.19292C0.00592041 10.5481 1.10452 11.6467 2.45971 11.6467H40.9794C42.3346 11.6467 43.4332 10.5481 43.4332 9.19292V4.51946C43.4332 3.16427 42.3346 2.06567 40.9794 2.06567Z" fill="#053575"/>
<mask id="mask12_4920_895" style="mask-type:luminance" maskUnits="userSpaceOnUse" x="0" y="2" width="44" height="10">
<path d="M40.9794 2.06567H2.45971C1.10452 2.06567 0.00592041 3.16427 0.00592041 4.51946V9.19292C0.00592041 10.5481 1.10452 11.6467 2.45971 11.6467H40.9794C42.3346 11.6467 43.4332 10.5481 43.4332 9.19292V4.51946C43.4332 3.16427 42.3346 2.06567 40.9794 2.06567Z" fill="white"/>
</mask>
<g mask="url(#mask12_4920_895)">
<path d="M44.669 0H0V24.7453H44.669V0Z" fill="#053575"/>
</g>
</svg>
