<svg width="logoWidth" height="logoHeight" viewBox="0 0 40 40" fill="none" xmlns="http://www.w3.org/2000/svg">
<path d="M20.0016 13.9934C13.1386 13.9934 7.45641 19.3045 7.06356 26.0849C7.0527 26.2542 7.11348 26.417 7.23285 26.5407C7.35222 26.6644 7.51935 26.7361 7.69081 26.7361H12.2618C12.5873 26.7361 12.8543 26.4886 12.8847 26.1609C13.2298 22.5059 16.2901 19.7494 20.0016 19.7494C23.713 19.7494 26.7712 22.5059 27.1163 26.1609C27.1467 26.4886 27.4158 26.7361 27.7414 26.7361H32.3101C32.4816 26.7361 32.6509 26.6644 32.7703 26.5407C32.8896 26.417 32.9483 26.2542 32.9396 26.0849C32.5489 19.3045 26.8667 13.9934 20.0059 13.9934" fill="colorPrimary"/>
<path d="M20.0026 21.0059C16.7621 21.0059 14.125 23.6191 14.125 26.8292C14.125 30.0392 16.7621 32.6546 20.0026 32.6546C23.243 32.6546 25.8801 30.0414 25.8801 26.8292C25.8801 23.6169 23.243 21.0059 20.0026 21.0059Z" fill="colorPrimary"/>
<path d="M20.0011 7C14.7855 7 9.84776 8.97727 6.09723 12.5672C2.35539 16.1462 0.191458 20.9494 0.000459178 26.0869C-0.00605215 26.2605 0.0568907 26.4233 0.176265 26.547C0.295639 26.6707 0.456252 26.738 0.627717 26.738H5.16611C5.50036 26.738 5.77601 26.4797 5.7912 26.1476C6.15149 18.6249 12.3937 12.7343 20.0011 12.7343C27.6085 12.7343 33.8485 18.6271 34.211 26.1476C34.2262 26.4775 34.4996 26.738 34.8339 26.738H39.3723C39.5438 26.738 39.7022 26.6707 39.8237 26.547C39.9431 26.4233 40.0061 26.2605 39.9995 26.0869C39.8085 20.9494 37.6446 16.1462 33.9028 12.565C30.1522 8.97727 25.2167 7 20.0011 7Z" fill="colorPrimary"/>
</svg>
