<svg width="assetWidth" height="assetHeight" viewBox="0 0 96 96" fill="none" xmlns="http://www.w3.org/2000/svg">
<path d="M47.9987 18.6162C32.4956 18.6162 19.6604 30.6114 18.7745 45.9261C18.7541 46.313 18.8865 46.6745 19.1564 46.9596C19.4262 47.2397 19.803 47.4026 20.1899 47.4026H30.5151C31.2483 47.4026 31.8541 46.8425 31.9254 46.1043C32.7044 37.8462 39.6184 31.6195 47.9987 31.6195C56.3791 31.6195 63.2931 37.8462 64.067 46.1043C64.1382 46.8425 64.7441 47.4026 65.4773 47.4026H75.7974C76.1894 47.4026 76.5662 47.2397 76.836 46.9596C77.1058 46.6796 77.2382 46.313 77.2179 45.9261C76.332 30.6114 63.5018 18.6162 48.0038 18.6162" fill="colorPrimary"/>
<path d="M47.9999 34.4614C40.6785 34.4614 34.7217 40.3623 34.7217 47.6123C34.7217 54.8624 40.6785 60.7734 47.9999 60.7734C55.3212 60.7734 61.2781 54.8726 61.2781 47.6123C61.2781 40.3521 55.3212 34.4614 47.9999 34.4614Z" fill="colorPrimary"/>
<path d="M47.9997 2.82373C36.2184 2.82373 25.0633 7.28883 16.5964 15.3942C8.14479 23.4793 3.25712 34.3289 2.82435 45.9371C2.80908 46.3291 2.95164 46.6957 3.22148 46.9757C3.49132 47.2558 3.8528 47.4034 4.23974 47.4034H14.4886C15.2421 47.4034 15.8632 46.8179 15.8989 46.0695C16.7135 29.0797 30.8114 15.771 47.9997 15.771C65.188 15.771 79.2808 29.0797 80.0955 46.0695C80.1311 46.8179 80.7471 47.4034 81.5057 47.4034H91.7597C92.1466 47.4034 92.5081 47.2507 92.7779 46.9757C93.0478 46.6957 93.1904 46.3291 93.1751 45.9371C92.7423 34.3289 87.8546 23.4843 79.403 15.3942C70.9311 7.28883 59.776 2.82373 47.9997 2.82373Z" fill="colorPrimary"/>
<path d="M27.1015 69.8506H20.4726C20.3758 69.8506 20.2893 69.9168 20.2689 70.0084L16.1246 86.1581H16.0686L12.0821 70.0135C12.0566 69.9168 11.9752 69.8557 11.8784 69.8557H4.96949C4.85748 69.8557 4.76583 69.9422 4.76074 70.0491L3.33008 91.3513C3.33008 91.4073 3.34535 91.4633 3.38608 91.5091C3.42681 91.5498 3.48282 91.5753 3.53882 91.5753H7.11803C7.23004 91.5753 7.32168 91.4887 7.32677 91.3767L8.3705 73.6334H8.40613L13.1258 91.4175C13.1513 91.5091 13.2327 91.5753 13.3294 91.5753H18.268C18.3648 91.5753 18.4462 91.5142 18.4717 91.4225L23.3543 73.6334H23.3848L24.1536 91.3716C24.1536 91.4836 24.2503 91.5702 24.3624 91.5702H28.5322C28.5882 91.5702 28.6442 91.5447 28.6849 91.504C28.7256 91.4633 28.746 91.4022 28.7409 91.3462L27.3102 70.0441C27.3001 69.932 27.2084 69.8506 27.1015 69.8506Z" fill="colorPrimary"/>
<path d="M37.7909 74.8406C36.0802 74.8406 33.4582 75.1105 32.0581 75.4261C31.9613 75.4465 31.8951 75.5331 31.8951 75.6298V78.6439C31.8951 78.705 31.9257 78.766 31.9766 78.8068C32.0275 78.8475 32.0937 78.8628 32.1548 78.8475C33.112 78.6337 35.3216 78.2722 37.5465 78.2722C41.2174 78.2722 41.3243 79.1479 41.3294 81.4746H41.0086C37.6891 81.4746 33.9317 81.4594 32.0275 83.3482C31.2333 84.1374 30.8311 85.2015 30.8311 86.5252C30.8311 91.1583 34.5019 91.8508 38.4731 91.9068C38.8346 91.917 39.1961 91.922 39.5576 91.922C41.4108 91.922 43.3455 91.7948 45.9319 91.5096C46.0389 91.4995 46.1203 91.4078 46.1203 91.3009V80.3749C46.1203 78.7559 45.6621 77.483 44.7507 76.5921C43.147 75.0188 40.4588 74.8254 37.8011 74.8406M41.3345 84.6567V88.5618C40.5046 88.6687 39.8223 88.7145 39.023 88.7145C37.1494 88.7145 35.8256 88.5669 35.8256 86.6729C35.8256 84.7789 37.1494 84.6313 39.023 84.6313C40.1278 84.6313 40.9017 84.6414 41.3345 84.6567Z" fill="colorPrimary"/>
<path d="M62.2108 88.0829L61.9308 88.1185C61.1518 88.2203 60.4136 88.3222 59.1357 88.3222C54.9404 88.3222 53.2348 86.8661 53.2348 83.297C53.2348 79.728 54.8895 78.3635 59.1357 78.3635C60.0878 78.3635 60.9431 78.4399 62.0886 78.5723C62.1497 78.5723 62.2108 78.5621 62.2516 78.5214C62.2974 78.4806 62.3229 78.4246 62.3229 78.3635V75.5073C62.3229 75.4106 62.2567 75.324 62.1599 75.3036C60.7853 74.9982 59.1968 74.8403 57.4454 74.8403C51.0863 74.8403 48.2402 78.9796 48.2402 83.0832C48.2402 88.6073 51.7532 91.9014 57.6337 91.9014C59.3902 91.9014 60.8718 91.7334 62.2923 91.377C62.3839 91.3515 62.4501 91.2701 62.4501 91.1733V88.2865C62.4501 88.2254 62.4247 88.1694 62.3788 88.1287C62.333 88.088 62.2719 88.0676 62.2108 88.0778" fill="colorPrimary"/>
<path d="M75.4392 75.2626C75.4392 75.1455 75.3424 75.0539 75.2304 75.0539H74.9453C73.5095 75.0437 71.7327 75.0386 69.1463 76.4845V75.3899C69.1463 75.2728 69.0495 75.1811 68.9324 75.1811H65.0681C64.951 75.1811 64.8594 75.2728 64.8594 75.3899V91.3665C64.8594 91.4836 64.9561 91.5752 65.0681 91.5752H69.4263C69.5434 91.5752 69.635 91.4836 69.635 91.3665V79.9466C71.081 78.9996 73.423 79.0149 74.9809 79.0098H75.2253C75.3424 79.0098 75.4341 78.9182 75.4341 78.8011V75.2728L75.4392 75.2626Z" fill="colorPrimary"/>
<path d="M84.2369 74.8105C78.7994 74.8105 75.4238 78.0843 75.4238 83.3589C75.4238 88.6335 78.7994 91.9072 84.2369 91.9072C89.3843 91.9072 92.9838 88.3942 92.9838 83.3589C92.9838 78.3236 89.6337 74.8105 84.2369 74.8105ZM88.0147 83.42C88.0147 87.0756 86.9099 88.5673 84.2064 88.5673C81.5029 88.5673 80.3624 87.0756 80.3624 83.42C80.3624 79.7644 81.4774 78.2421 84.2064 78.2421C86.9353 78.2421 88.0147 79.744 88.0147 83.42Z" fill="colorPrimary"/>
</svg>
