<svg width="logoWidth" height="logoHeight" viewBox="0 0 142 32" fill="colorPrimary" xmlns="http://www.w3.org/2000/svg">
<g id="logo-content">
<g id="isologo-content">
<g id="content">
<path id="vector" d="M23.7078 9.10941C15.6337 9.10941 8.94874 15.3577 8.48656 23.3347C8.4738 23.5339 8.54529 23.7254 8.68573 23.871C8.82618 24.0165 9.02279 24.1008 9.22452 24.1008H14.6021C14.9851 24.1008 15.2992 23.8097 15.3349 23.4241C15.741 19.1241 19.3413 15.8812 23.7078 15.8812C28.0742 15.8812 31.672 19.1241 32.078 23.4241C32.1137 23.8097 32.4304 24.1008 32.8134 24.1008H38.1884C38.3902 24.1008 38.5893 24.0165 38.7298 23.871C38.8702 23.7254 38.9391 23.5339 38.9289 23.3347C38.4693 15.3577 31.7843 9.10941 23.7129 9.10941" fill="$colorPrimary"/>
<path id="vector_2" d="M23.7075 17.36C19.8952 17.36 16.7927 20.4344 16.7927 24.211C16.7927 27.9875 19.8952 31.0644 23.7075 31.0644C27.5198 31.0644 30.6223 27.9901 30.6223 24.211C30.6223 20.4318 27.5198 17.36 23.7075 17.36Z" fill="$colorPrimary"/>
<path id="vector_3" d="M23.7072 0.882355C17.5712 0.882355 11.7621 3.20856 7.34973 7.43198C2.94756 11.6426 0.401759 17.2935 0.177054 23.3375C0.169393 23.5418 0.243444 23.7333 0.383884 23.8788C0.524325 24.0244 0.713281 24.1035 0.915004 24.1035H6.25429C6.64753 24.1035 6.97182 23.7997 6.98969 23.409C7.41356 14.5587 14.7573 7.6286 23.7072 7.6286C32.6571 7.6286 39.9983 14.5613 40.4247 23.409C40.4426 23.7971 40.7643 24.1035 41.1576 24.1035H46.4968C46.6986 24.1035 46.885 24.0244 47.028 23.8788C47.1684 23.7333 47.2425 23.5418 47.2348 23.3375C47.0101 17.2935 44.4643 11.6426 40.0621 7.42943C35.6497 3.20856 29.8432 0.882355 23.7072 0.882355Z" fill="$colorPrimary"/>
</g>
</g>
<path id="vector_4" d="M78.0129 2.77466H71.6368C71.5438 2.77466 71.4641 2.83576 71.4402 2.92609L67.4524 18.452H67.3993L63.563 2.92609C63.5417 2.83576 63.4594 2.772 63.3664 2.772H56.7219C56.6157 2.772 56.5253 2.85436 56.52 2.96063L55.1465 23.444C55.1438 23.4998 55.1624 23.5529 55.1996 23.5954C55.2395 23.6353 55.2926 23.6592 55.3484 23.6592H58.7915C58.9004 23.6592 58.9881 23.5768 58.9934 23.4705L59.9977 6.40906H60.0322L64.5725 23.5104C64.5965 23.5981 64.6762 23.6592 64.7691 23.6592H69.5194C69.6097 23.6592 69.6894 23.5981 69.716 23.5104L74.4104 6.40906H74.4423L75.1782 23.4679C75.1835 23.5768 75.2712 23.6592 75.3801 23.6592H79.3891C79.4449 23.6592 79.498 23.6379 79.5379 23.5954C79.5777 23.5556 79.5963 23.4998 79.5937 23.444L78.2175 2.96063C78.2095 2.85436 78.1218 2.772 78.0156 2.772" fill="$colorPrimary"/>
<path id="vector_5" d="M88.2915 7.5723C86.6497 7.5723 84.1258 7.83 82.7815 8.13552C82.6885 8.15678 82.6247 8.23913 82.6247 8.33212V11.2306C82.6247 11.2917 82.654 11.3502 82.7018 11.3874C82.7496 11.4245 82.8134 11.4405 82.8718 11.4272C83.7911 11.2226 85.9191 10.8746 88.0551 10.8746C91.5859 10.8746 91.6868 11.7168 91.6895 13.9511H91.3787C88.1853 13.9511 84.5748 13.9378 82.7416 15.7524C81.9765 16.5095 81.5886 17.535 81.5886 18.8049C81.5886 23.2576 85.1194 23.9244 88.9345 23.9802C89.2825 23.9909 89.6305 23.9935 89.9786 23.9935C91.7612 23.9935 93.6209 23.8713 96.105 23.6003C96.2086 23.5897 96.2856 23.5047 96.2856 23.4011V12.8964C96.2856 11.3395 95.8419 10.1174 94.9705 9.25932C93.4296 7.74498 90.8447 7.56167 88.2862 7.57495M91.6842 17.0116V20.7682C90.8872 20.8745 90.231 20.917 89.4632 20.917C87.6646 20.917 86.392 20.7762 86.392 18.9537C86.392 17.1312 87.6646 16.9877 89.4632 16.9877C90.5258 16.9877 91.2697 16.9957 91.6842 17.009" fill="$colorPrimary"/>
<path id="vector_6" d="M111.768 20.3033L111.497 20.3405C110.745 20.4388 110.039 20.5345 108.811 20.5345C104.781 20.5345 103.136 19.1344 103.136 15.7019C103.136 12.2694 104.728 10.957 108.811 10.957C109.728 10.957 110.546 11.0314 111.654 11.1589C111.712 11.1642 111.768 11.1456 111.813 11.1084C111.856 11.0712 111.882 11.0154 111.882 10.9596V8.21257C111.882 8.11959 111.816 8.03723 111.723 8.01598C110.4 7.72108 108.875 7.5723 107.188 7.5723C101.072 7.5723 98.3357 11.5547 98.3357 15.5C98.3357 20.8108 101.712 23.9802 107.366 23.9802C109.056 23.9802 110.477 23.8208 111.845 23.4781C111.935 23.4569 111.999 23.3745 111.999 23.2815V20.5052C111.999 20.4468 111.973 20.391 111.93 20.3538C111.888 20.3166 111.827 20.298 111.771 20.3033" fill="$colorPrimary"/>
<path id="vector_7" d="M124.485 7.97907C124.485 7.86749 124.394 7.77716 124.283 7.77716H124.006C122.625 7.76654 120.917 7.76122 118.433 9.15069V8.09597C118.433 7.98439 118.342 7.89406 118.228 7.89406H114.511C114.4 7.89406 114.309 7.98439 114.309 8.09597V23.4571C114.309 23.5687 114.4 23.6591 114.511 23.6591H118.704C118.815 23.6591 118.905 23.5687 118.905 23.4571V12.4743C120.295 11.5657 122.55 11.5763 124.046 11.571H124.283C124.394 11.571 124.485 11.4806 124.485 11.3691V7.97642V7.97907Z" fill="$colorPrimary"/>
<path id="vector_8" d="M132.945 7.543C127.719 7.543 124.472 10.6912 124.472 15.7629C124.472 20.8346 127.719 23.9802 132.945 23.9802C137.897 23.9802 141.353 20.6008 141.353 15.7629C141.353 10.925 138.131 7.543 132.945 7.543ZM136.576 15.8187C136.576 19.3335 135.516 20.7682 132.915 20.7682C130.315 20.7682 129.22 19.3335 129.22 15.8187C129.22 12.3039 130.291 10.84 132.915 10.84C135.54 10.84 136.576 12.2826 136.576 15.8187Z" fill="$colorPrimary"/>
</g>
</svg>
