<svg width="assetWidth" height="assetHeight" viewBox="0 0 142 40" fill="none" xmlns="http://www.w3.org/2000/svg">
<g clip-path="url(#clip0_4920_748)">
<path d="M23.5312 14.1094C15.4572 14.1094 8.77223 20.3577 8.31005 28.3347C8.29728 28.5339 8.36878 28.7254 8.50922 28.8709C8.64966 29.0165 8.84628 29.1007 9.048 29.1007H14.4256C14.8086 29.1007 15.1227 28.8097 15.1584 28.4241C15.5644 24.1241 19.1648 20.8812 23.5312 20.8812C27.8977 20.8812 31.4955 24.1241 31.9015 28.4241C31.9372 28.8097 32.2539 29.1007 32.6369 29.1007H38.0119C38.2136 29.1007 38.4128 29.0165 38.5533 28.8709C38.6937 28.7254 38.7626 28.5339 38.7524 28.3347C38.2928 20.3577 31.6078 14.1094 23.5363 14.1094" fill="colorPrimary"/>
<path d="M23.531 22.3599C19.7187 22.3599 16.6162 25.4342 16.6162 29.2108C16.6162 32.9874 19.7187 36.0643 23.531 36.0643C27.3433 36.0643 30.4458 32.9899 30.4458 29.2108C30.4458 25.4317 27.3433 22.3599 23.531 22.3599Z" fill="colorPrimary"/>
<path d="M23.5307 5.88232C17.3947 5.88232 11.5856 8.20853 7.17321 12.432C2.77105 16.6426 0.225245 22.2934 0.000540209 28.3375C-0.00712018 28.5417 0.0669302 28.7333 0.207371 28.8788C0.347811 29.0244 0.536767 29.1035 0.738491 29.1035H6.07778C6.47101 29.1035 6.7953 28.7996 6.81318 28.409C7.23705 19.5587 14.5808 12.6286 23.5307 12.6286C32.4806 12.6286 39.8218 19.5612 40.2482 28.409C40.2661 28.7971 40.5878 29.1035 40.9811 29.1035H46.3203C46.5221 29.1035 46.7085 29.0244 46.8515 28.8788C46.9919 28.7333 47.0659 28.5417 47.0583 28.3375C46.8336 22.2934 44.2878 16.6426 39.8856 12.4294C35.4732 8.20853 29.6667 5.88232 23.5307 5.88232Z" fill="colorPrimary"/>
<path d="M77.8364 7.77463H71.4603C71.3673 7.77463 71.2876 7.83573 71.2637 7.92606L67.2759 23.452H67.2228L63.3865 7.92606C63.3652 7.83573 63.2829 7.77197 63.1899 7.77197H56.5454C56.4391 7.77197 56.3488 7.85433 56.3435 7.9606L54.97 28.4439C54.9673 28.4997 54.9859 28.5529 55.0231 28.5954C55.063 28.6352 55.1161 28.6591 55.1719 28.6591H58.615C58.7239 28.6591 58.8116 28.5768 58.8169 28.4705L59.8212 11.409H59.8557L64.396 28.5104C64.4199 28.598 64.4996 28.6591 64.5926 28.6591H69.3429C69.4332 28.6591 69.5129 28.598 69.5395 28.5104L74.2339 11.409H74.2658L75.0017 28.4679C75.007 28.5768 75.0947 28.6591 75.2036 28.6591H79.2126C79.2684 28.6591 79.3215 28.6379 79.3614 28.5954C79.4012 28.5555 79.4198 28.4997 79.4172 28.4439L78.041 7.9606C78.033 7.85433 77.9453 7.77197 77.8391 7.77197" fill="colorPrimary"/>
<path d="M88.115 12.5723C86.4732 12.5723 83.9493 12.83 82.605 13.1355C82.512 13.1567 82.4482 13.2391 82.4482 13.3321V16.2306C82.4482 16.2917 82.4775 16.3501 82.5253 16.3873C82.5731 16.4245 82.6369 16.4405 82.6953 16.4272C83.6145 16.2226 85.7426 15.8746 87.8786 15.8746C91.4094 15.8746 91.5103 16.7168 91.513 18.9511H91.2021C88.0088 18.9511 84.3983 18.9378 82.5651 20.7523C81.8 21.5095 81.4121 22.535 81.4121 23.8049C81.4121 28.2576 84.9429 28.9244 88.758 28.9802C89.106 28.9908 89.454 28.9935 89.802 28.9935C91.5847 28.9935 93.4444 28.8713 95.9285 28.6003C96.0321 28.5897 96.1091 28.5046 96.1091 28.401V17.8963C96.1091 16.3395 95.6654 15.1174 94.794 14.2593C93.2531 12.745 90.6681 12.5616 88.1097 12.5749M91.5077 22.0116V25.7682C90.7106 25.8745 90.0544 25.917 89.2866 25.917C87.488 25.917 86.2155 25.7762 86.2155 23.9537C86.2155 22.1312 87.488 21.9877 89.2866 21.9877C90.3493 21.9877 91.0932 21.9957 91.5077 22.0089" fill="colorPrimary"/>
<path d="M111.592 25.3033L111.321 25.3405C110.569 25.4388 109.862 25.5344 108.635 25.5344C104.604 25.5344 102.96 24.1343 102.96 20.7018C102.96 17.2694 104.551 15.9569 108.635 15.9569C109.551 15.9569 110.369 16.0313 111.477 16.1588C111.536 16.1642 111.592 16.1456 111.637 16.1084C111.679 16.0712 111.706 16.0154 111.706 15.9596V13.2125C111.706 13.1196 111.639 13.0372 111.546 13.0159C110.223 12.721 108.698 12.5723 107.011 12.5723C100.896 12.5723 98.1592 16.5547 98.1592 20.4999C98.1592 25.8107 101.536 28.9802 107.189 28.9802C108.879 28.9802 110.3 28.8208 111.669 28.4781C111.759 28.4568 111.823 28.3745 111.823 28.2815V25.5052C111.823 25.4468 111.796 25.391 111.754 25.3538C111.711 25.3166 111.65 25.298 111.594 25.3033" fill="colorPrimary"/>
<path d="M124.308 12.979C124.308 12.8675 124.218 12.7771 124.106 12.7771H123.83C122.448 12.7665 120.74 12.7612 118.256 14.1507V13.0959C118.256 12.9844 118.166 12.894 118.051 12.894H114.335C114.223 12.894 114.133 12.9844 114.133 13.0959V28.4571C114.133 28.5687 114.223 28.659 114.335 28.659H118.527C118.639 28.659 118.729 28.5687 118.729 28.4571V17.4742C120.118 16.5656 122.374 16.5762 123.87 16.5709H124.106C124.218 16.5709 124.308 16.4806 124.308 16.369V12.9764V12.979Z" fill="colorPrimary"/>
<path d="M132.768 12.543C127.542 12.543 124.296 15.6912 124.296 20.7629C124.296 25.8346 127.542 28.9801 132.768 28.9801C137.72 28.9801 141.177 25.6008 141.177 20.7629C141.177 15.925 137.954 12.543 132.768 12.543ZM136.4 20.8187C136.4 24.3335 135.34 25.7681 132.739 25.7681C130.138 25.7681 129.043 24.3335 129.043 20.8187C129.043 17.3038 130.114 15.84 132.739 15.84C135.364 15.84 136.4 17.2826 136.4 20.8187Z" fill="colorPrimary"/>
</g>
<defs>
<clipPath id="clip0_4920_748">
<rect width="141.176" height="40" fill="white"/>
</clipPath>
</defs>
</svg>
