<svg width="assetWidth" height="assetHeight" viewBox="0 0 170 48" fill="colorPrimary" xmlns="http://www.w3.org/2000/svg">
<g clip-path="url(#clip0_2610_910)">
<path d="M28.2349 11.2847C18.5461 11.2847 10.5241 18.7827 9.96952 28.3551C9.9542 28.5941 10.04 28.8239 10.2085 28.9985C10.3771 29.1732 10.613 29.2743 10.8551 29.2743H17.3082C17.7678 29.2743 18.1447 28.925 18.1876 28.4623C18.6748 23.3023 22.9952 19.4108 28.2349 19.4108C33.4746 19.4108 37.792 23.3023 38.2792 28.4623C38.3221 28.925 38.7021 29.2743 39.1617 29.2743H45.6118C45.8538 29.2743 46.0928 29.1732 46.2614 28.9985C46.4299 28.8239 46.5126 28.5941 46.5004 28.3551C45.9488 18.7827 37.9269 11.2847 28.2411 11.2847" fill="colorPrimary"/>
<path d="M28.2372 21.1846C23.6624 21.1846 19.9395 24.8738 19.9395 29.4057C19.9395 33.9376 23.6624 37.6299 28.2372 37.6299C32.812 37.6299 36.5349 33.9406 36.5349 29.4057C36.5349 24.8707 32.812 21.1846 28.2372 21.1846Z" fill="colorPrimary"/>
<path d="M28.2358 1.41162C20.8727 1.41162 13.9017 4.20306 8.60688 9.27118C3.32428 14.324 0.269317 21.1049 -0.000328311 28.3578C-0.00952077 28.6029 0.0793397 28.8327 0.247868 29.0074C0.416397 29.182 0.643144 29.277 0.885212 29.277H7.29236C7.76424 29.277 8.15339 28.9124 8.17483 28.4436C8.68348 17.8232 17.496 9.50712 28.2358 9.50712C38.9757 9.50712 47.7851 17.8263 48.2969 28.4436C48.3183 28.9093 48.7044 29.277 49.1763 29.277H55.5834C55.8255 29.277 56.0492 29.182 56.2208 29.0074C56.3893 28.8327 56.4782 28.6029 56.469 28.3578C56.1993 21.1049 53.1444 14.324 47.8618 9.26811C42.5669 4.20306 35.599 1.41162 28.2358 1.41162Z" fill="colorPrimary"/>
<path d="M93.3999 3.68229H85.7486C85.637 3.68229 85.5414 3.75561 85.5127 3.86401L80.7274 22.4948H80.6637L76.0602 3.86401C76.0347 3.75561 75.9358 3.6791 75.8243 3.6791H67.851C67.7235 3.6791 67.6151 3.77793 67.6087 3.90545L65.9605 28.4851C65.9573 28.5521 65.9796 28.6158 66.0243 28.6669C66.0721 28.7147 66.1358 28.7434 66.2028 28.7434H70.3345C70.4652 28.7434 70.5704 28.6445 70.5768 28.517L71.7818 8.04351H71.8233L77.2716 28.5648C77.3003 28.67 77.396 28.7434 77.5075 28.7434H83.2077C83.3161 28.7434 83.4118 28.67 83.4436 28.5648L89.0769 8.04351H89.1151L89.9982 28.5138C90.0046 28.6445 90.1098 28.7434 90.2405 28.7434H95.0512C95.1182 28.7434 95.182 28.7179 95.2298 28.6669C95.2776 28.619 95.2999 28.5521 95.2967 28.4851L93.6453 3.90545C93.6358 3.77793 93.5306 3.6791 93.403 3.6791" fill="colorPrimary"/>
<path d="M105.733 9.43994C103.763 9.43994 100.734 9.74918 99.1209 10.1158C99.0093 10.1413 98.9328 10.2401 98.9328 10.3517V13.8299C98.9328 13.9032 98.9679 13.9733 99.0252 14.0179C99.0826 14.0626 99.1591 14.0817 99.2293 14.0658C100.332 13.8203 102.886 13.4027 105.449 13.4027C109.686 13.4027 109.807 14.4133 109.81 17.0944H109.437C105.605 17.0944 101.273 17.0785 99.0731 19.2559C98.1549 20.1645 97.6895 21.395 97.6895 22.9189C97.6895 28.2621 101.926 29.0622 106.504 29.1292C106.922 29.142 107.34 29.1451 107.757 29.1451C109.896 29.1451 112.128 28.9985 115.109 28.6733C115.233 28.6606 115.326 28.5585 115.326 28.4342V15.8287C115.326 13.9606 114.793 12.4941 113.748 11.4643C111.898 9.64716 108.797 9.42719 105.726 9.44313M109.804 20.767V25.2749C108.848 25.4024 108.06 25.4534 107.139 25.4534C104.98 25.4534 103.453 25.2844 103.453 23.0974C103.453 20.9105 104.98 20.7383 107.139 20.7383C108.414 20.7383 109.307 20.7479 109.804 20.7638" fill="colorPrimary"/>
<path d="M133.906 24.7165L133.581 24.7611C132.678 24.8791 131.83 24.9938 130.357 24.9938C125.521 24.9938 123.548 23.3137 123.548 19.1948C123.548 15.0759 125.458 13.501 130.357 13.501C131.457 13.501 132.439 13.5903 133.769 13.7433C133.839 13.7497 133.906 13.7273 133.96 13.6827C134.011 13.6381 134.043 13.5711 134.043 13.5042V10.2078C134.043 10.0962 133.963 9.99736 133.852 9.97185C132.264 9.61798 130.434 9.43945 128.41 9.43945C121.071 9.43945 117.787 14.2183 117.787 18.9525C117.787 25.3254 121.839 29.1287 128.623 29.1287C130.651 29.1287 132.356 28.9374 133.998 28.5262C134.107 28.5007 134.183 28.4018 134.183 28.2903V24.9588C134.183 24.8886 134.151 24.8217 134.1 24.7771C134.049 24.7324 133.976 24.7101 133.909 24.7165" fill="colorPrimary"/>
<path d="M149.167 9.92797C149.167 9.79408 149.059 9.68568 148.925 9.68568H148.593C146.936 9.67293 144.886 9.66656 141.905 11.3339V10.0682C141.905 9.93435 141.796 9.82596 141.659 9.82596H137.199C137.065 9.82596 136.957 9.93435 136.957 10.0682V28.5014C136.957 28.6353 137.065 28.7437 137.199 28.7437H142.23C142.364 28.7437 142.472 28.6353 142.472 28.5014V15.3221C144.14 14.2318 146.846 14.2446 148.641 14.2382H148.925C149.059 14.2382 149.167 14.1298 149.167 13.9959V9.92479V9.92797Z" fill="colorPrimary"/>
<path d="M159.318 9.40488C153.047 9.40488 149.152 13.1827 149.152 19.2686C149.152 25.3546 153.047 29.1292 159.318 29.1292C165.261 29.1292 169.408 25.074 169.408 19.2686C169.408 13.4632 165.541 9.40488 159.318 9.40488ZM163.676 19.3356C163.676 23.5533 162.404 25.2749 159.283 25.2749C156.162 25.2749 154.849 23.5533 154.849 19.3356C154.849 15.1178 156.133 13.3612 159.283 13.3612C162.433 13.3612 163.676 15.0923 163.676 19.3356Z" fill="colorPrimary"/>
<path d="M66.3997 39.621C66.3997 36.8506 68.5165 34.7848 71.1945 34.7848C73.1774 34.7848 74.9627 35.8751 75.6035 37.6891C75.6449 37.7943 75.6162 37.9027 75.4568 37.9409L74.5387 38.1418C74.3665 38.1832 74.3123 38.0621 74.2741 37.9569C73.7417 36.7837 72.6896 35.9994 71.2104 35.9994C69.2115 35.9994 67.7737 37.5711 67.7737 39.621C67.7737 41.6709 69.2115 43.2426 71.2104 43.2426C72.6896 43.2426 73.7417 42.4552 74.2741 41.2852C74.3123 41.1799 74.3665 41.0588 74.5387 41.1002L75.4568 41.3011C75.6162 41.3425 75.6417 41.4477 75.6035 41.5529C74.9659 43.3637 73.1806 44.4572 71.1945 44.4572C68.5165 44.4572 66.3997 42.3914 66.3997 39.6242" fill="colorPrimary"/>
<path d="M82.6981 40.979V41.2181C82.6981 41.3647 82.6471 41.4699 82.4463 41.4699H77.5718C77.677 42.5634 78.5027 43.3477 79.5834 43.3477C80.3964 43.3477 80.8873 43.0161 81.3018 42.5507C81.4102 42.4327 81.5154 42.4168 81.6333 42.4965L82.2199 42.8822C82.3666 42.9747 82.3411 43.1213 82.2709 43.2138C81.7385 43.947 80.8459 44.4507 79.5547 44.4507C77.6387 44.4507 76.252 43.0257 76.252 41.148C76.252 39.2702 77.6387 37.8037 79.5133 37.8037C81.3879 37.8037 82.695 39.2033 82.695 40.9726M81.4293 40.5996C81.2827 39.4966 80.4984 38.8685 79.5261 38.8685C78.5537 38.8685 77.7567 39.589 77.5941 40.5996H81.4293Z" fill="colorPrimary"/>
<path d="M86.8369 37.9568C86.9549 37.9568 87.0888 38.0237 87.0888 38.2214V39.0057C87.0888 39.2065 86.9421 39.2735 86.8369 39.2735H86.5723C85.6669 39.2735 85.0421 39.7804 85.0421 41.1257V44.0555C85.0421 44.2021 84.9209 44.2818 84.803 44.2818H84.0028C83.8561 44.2818 83.7637 44.1894 83.7637 44.0427V38.2501C83.7637 38.1035 83.8561 37.9951 84.0028 37.9951H84.7488C84.8699 37.9951 84.9879 38.0875 84.9879 38.2342V39.0057C85.2557 38.435 85.8391 37.9536 86.6393 37.9536H86.8401L86.8369 37.9568Z" fill="colorPrimary"/>
<path d="M90.7376 44.4538C88.8726 44.4538 87.4348 43.016 87.4348 41.1383C87.4348 39.2605 88.8726 37.81 90.7376 37.81C92.0033 37.81 93.0298 38.4221 93.5463 39.3689C93.6387 39.5442 93.559 39.675 93.4411 39.7706L92.9469 40.0894C92.7748 40.236 92.6154 40.1563 92.507 40.0097C92.0798 39.3689 91.5474 39.0118 90.7472 39.0118C89.5612 39.0118 88.7355 39.9587 88.7355 41.1446C88.7355 42.3306 89.5612 43.2742 90.7472 43.2742C91.5474 43.2742 92.0798 42.9172 92.507 42.2764C92.6122 42.1297 92.7716 42.0628 92.9469 42.1839L93.4411 42.5155C93.559 42.6079 93.6419 42.7418 93.5463 42.914C93.0266 43.8608 92.0001 44.457 90.7376 44.457" fill="colorPrimary"/>
<path d="M97.4743 37.8105C98.4722 37.8105 99.2596 38.3174 99.6199 38.9965V38.2505C99.6199 38.1038 99.7251 37.9986 99.8717 37.9986H100.659C100.806 37.9986 100.898 38.1038 100.898 38.2505V44.0463C100.898 44.193 100.806 44.2854 100.659 44.2854H99.8717C99.7251 44.2854 99.6199 44.193 99.6199 44.0463V43.2876C99.2596 43.9666 98.4754 44.4608 97.4616 44.4608C95.756 44.4608 94.3054 43.1154 94.3054 41.1325C94.3054 39.1495 95.7687 37.8169 97.4743 37.8169M97.621 43.2908C98.7814 43.2908 99.6326 42.3344 99.6326 41.1484C99.6326 39.9625 98.7814 39.0156 97.621 39.0156C96.4605 39.0156 95.6093 39.9465 95.6093 41.1484C95.6093 42.3503 96.4478 43.2908 97.621 43.2908Z" fill="colorPrimary"/>
<path d="M102.931 44.3619C102.558 44.2152 102.294 43.8709 102.294 43.4565C102.294 42.8858 102.734 42.4331 103.317 42.4331C103.862 42.4331 104.328 42.8731 104.328 43.4979C104.328 44.3778 103.531 45.3342 103.065 45.7614C102.89 45.9081 102.743 46.0133 102.546 45.8953L102.399 45.8156C102.252 45.7231 102.227 45.6148 102.294 45.484L102.931 44.365V44.3619Z" fill="colorPrimary"/>
<path d="M113.396 38.6072C113.542 38.7252 113.529 38.8878 113.408 39.0344L113.09 39.3947C112.943 39.5286 112.783 39.5286 112.608 39.4074C112.143 39.0472 111.598 38.8336 110.969 38.8336C110.223 38.8336 109.771 39.2066 109.771 39.6465C109.771 40.0323 110.023 40.2841 110.702 40.4053L111.808 40.6189C113.019 40.8707 113.711 41.3776 113.711 42.4552C113.711 43.5327 112.739 44.4541 111.033 44.4541C109.914 44.4541 109.101 44.0683 108.582 43.6411C108.25 43.3606 108.263 43.1215 108.464 42.9621L108.811 42.672C109.012 42.5126 109.143 42.605 109.289 42.7102C109.755 43.1374 110.341 43.4435 111.087 43.4435C111.951 43.4435 112.391 43.0035 112.391 42.5636C112.391 42.0726 112.006 41.8431 111.247 41.6996L110.182 41.4988C109.117 41.2852 108.464 40.6986 108.464 39.7262C108.464 38.6072 109.541 37.807 111.02 37.807C112.127 37.807 112.924 38.1928 113.389 38.6072" fill="colorPrimary"/>
<path d="M114.576 35.9572C114.576 35.4662 114.975 35.0518 115.469 35.0518C115.963 35.0518 116.361 35.4662 116.361 35.9572C116.361 36.4481 115.963 36.8498 115.469 36.8498C114.975 36.8498 114.576 36.4354 114.576 35.9572ZM115.083 44.2811C114.936 44.2811 114.831 44.1727 114.831 44.0261V38.2462C114.831 38.0708 114.911 37.9943 115.083 37.9943H115.871C116.017 37.9943 116.11 38.1027 116.11 38.2462V44.0261C116.11 44.1727 116.017 44.2811 115.871 44.2811H115.083Z" fill="colorPrimary"/>
<path d="M123.728 40.9789V41.218C123.728 41.3647 123.673 41.4699 123.476 41.4699H118.601C118.707 42.5634 119.532 43.3476 120.613 43.3476C121.426 43.3476 121.917 43.0161 122.331 42.5506C122.437 42.4327 122.545 42.4167 122.663 42.4964L123.249 42.8822C123.396 42.9746 123.371 43.1213 123.3 43.2137C122.768 43.947 121.875 44.4507 120.584 44.4507C118.668 44.4507 117.281 43.0256 117.281 41.1479C117.281 39.2701 118.668 37.8036 120.543 37.8036C122.417 37.8036 123.724 39.2032 123.724 40.9725M122.459 40.5995C122.312 39.4965 121.528 38.8684 120.556 38.8684C119.583 38.8684 118.786 39.5889 118.624 40.5995H122.459Z" fill="colorPrimary"/>
<path d="M126.07 44.0554C126.07 44.2021 125.952 44.2818 125.831 44.2818H125.031C124.884 44.2818 124.792 44.1893 124.792 44.0427V38.25C124.792 38.1034 124.884 37.9982 125.031 37.9982H125.831C125.952 37.9982 126.07 38.0906 126.07 38.2373V38.9163C126.43 38.2915 127.215 37.8229 128.161 37.8229C129.185 37.8229 129.931 38.3425 130.291 39.1013C130.823 38.1959 131.675 37.8229 132.622 37.8229C134.378 37.8229 135.258 39.0502 135.258 40.5135V44.0554C135.258 44.2021 135.153 44.2818 135.006 44.2818H134.235C134.088 44.2818 133.983 44.2021 133.983 44.0554V40.7909C133.983 39.7675 133.476 38.9929 132.373 38.9929C131.27 38.9929 130.667 39.7644 130.667 40.7909V44.0554C130.667 44.2021 130.549 44.2818 130.428 44.2818H129.644C129.523 44.2818 129.392 44.2021 129.392 44.0554V40.7909C129.392 39.7675 128.872 38.9929 127.795 38.9929C126.717 38.9929 126.077 39.7644 126.077 40.7909V44.0554H126.07Z" fill="colorPrimary"/>
<path d="M138 38.9927C138.386 38.3137 139.186 37.8195 140.197 37.8195C141.89 37.8195 143.327 39.1649 143.327 41.1223C143.327 43.0798 141.902 44.4506 140.184 44.4506C139.266 44.4506 138.424 44.0107 138.013 43.3189V46.8353C138.013 46.9819 137.921 47.0744 137.774 47.0744H136.974C136.827 47.0744 136.735 46.9819 136.735 46.8353V38.2435C136.735 38.0969 136.827 37.9917 136.974 37.9917H137.761C137.908 37.9917 138 38.0969 138 38.2435V38.9895V38.9927ZM140.025 43.2806C141.198 43.2806 142.024 42.3338 142.024 41.1383C142.024 39.9428 141.198 39.0055 140.025 39.0055C138.851 39.0055 138 39.9523 138 41.1383C138 42.3242 138.851 43.2806 140.025 43.2806Z" fill="colorPrimary"/>
<path d="M147.57 37.9568C147.688 37.9568 147.821 38.0237 147.821 38.2214V39.0057C147.821 39.2065 147.675 39.2735 147.57 39.2735H147.302C146.396 39.2735 145.772 39.7804 145.772 41.1257V44.0555C145.772 44.2021 145.654 44.2818 145.532 44.2818H144.732C144.586 44.2818 144.493 44.1894 144.493 44.0427V38.2501C144.493 38.1035 144.586 37.9951 144.732 37.9951H145.478C145.596 37.9951 145.717 38.0875 145.717 38.2342V39.0057C145.985 38.435 146.572 37.9536 147.369 37.9536H147.57V37.9568Z" fill="colorPrimary"/>
<path d="M154.612 40.9788V41.2179C154.612 41.3645 154.561 41.4697 154.36 41.4697H149.486C149.591 42.5632 150.417 43.3475 151.497 43.3475C152.31 43.3475 152.801 43.0159 153.216 42.5505C153.324 42.4325 153.429 42.4166 153.547 42.4963L154.134 42.882C154.281 42.9745 154.255 43.1211 154.185 43.2136C153.653 43.9468 152.76 44.4505 151.469 44.4505C149.553 44.4505 148.166 43.0255 148.166 41.1478C148.166 39.27 149.553 37.8035 151.427 37.8035C153.302 37.8035 154.609 39.2031 154.609 40.9724M153.343 40.5994C153.197 39.4964 152.412 38.8683 151.44 38.8683C150.468 38.8683 149.671 39.5888 149.508 40.5994H153.343Z" fill="colorPrimary"/>
<path d="M155.506 43.4565C155.506 42.8826 155.933 42.4331 156.504 42.4331C157.074 42.4331 157.527 42.8858 157.527 43.4565C157.527 44.0271 157.074 44.4543 156.504 44.4543C155.933 44.4543 155.506 44.0016 155.506 43.4565Z" fill="colorPrimary"/>
</g>
<defs>
<clipPath id="clip0_2610_910">
<rect width="169.412" height="48" fill="white"/>
</clipPath>
</defs>
</svg>
