<svg width="152" height="96" viewBox="0 0 152 96" fill="none" xmlns="http://www.w3.org/2000/svg">
<path d="M75.9933 95.9999C46.2624 95.9999 18.7589 84.0037 0.524815 63.0976C-0.254292 62.2136 -0.149413 60.8602 0.72958 60.0811C1.5886 59.3369 3.00198 59.4368 3.75611 60.2858C21.1662 80.253 47.491 91.7098 75.9883 91.7098C104.486 91.7098 130.796 80.253 148.206 60.2858C148.965 59.4368 150.378 59.3369 151.232 60.0811C152.121 60.8602 152.216 62.2136 151.437 63.0976C133.213 84.0037 105.709 95.9999 75.9883 95.9999" fill="#C9B787"/>
<path d="M51.4166 0L53.2744 27.8831H47.8556L46.8568 4.39497H46.3424L39.9547 27.8831H33.5421L27.3741 4.39497H26.8547L25.4863 27.8831H20.8366L22.6995 0H31.6492L36.8832 21.3356H37.3826L42.8164 0H51.4166Z" fill="#040404"/>
<path d="M66.3344 28.3274C61.2752 28.2575 56.6904 27.3635 56.6904 21.5452C56.6904 14.9328 64.4216 15.2225 70.3198 15.2225C70.3198 11.9512 70.2848 10.4729 65.1407 10.4729C62.3489 10.4729 59.5322 10.9124 58.0888 11.237V7.28654C59.8468 6.887 63.2279 6.52742 65.4604 6.52742C70.4497 6.48247 75.9833 7.04682 75.9833 13.4994V27.808C72.3924 28.1926 69.4458 28.4123 66.3344 28.3274ZM70.3248 18.8433C69.6056 18.7984 67.6529 18.7984 67.0536 18.7984C64.7112 18.7984 62.6386 18.9582 62.6386 21.75C62.6386 24.5418 64.7112 24.6916 67.0536 24.6916C68.2522 24.6916 69.2111 24.6117 70.3248 24.4519V18.8383V18.8433Z" fill="#040404"/>
<path d="M90.5217 28.3325C83.5896 28.3325 78.6104 24.5768 78.6104 17.0504C78.6104 10.2482 83.9442 6.53247 90.282 6.53247C92.2647 6.53247 94.3823 6.69228 96.34 7.13177V10.8675C94.9816 10.7127 93.793 10.5928 92.4745 10.5928C87.1705 10.5928 84.5436 12.2659 84.5436 17.3301C84.5436 22.3943 87.1705 24.1772 92.4745 24.1772C94.3423 24.1772 95.3462 24.0224 96.5048 23.8626V27.6433C94.4622 28.1627 92.5244 28.3275 90.5217 28.3275" fill="#040404"/>
<path d="M105.814 12.7802V27.8779H100.161V6.97191H105.185C105.185 6.97191 105.135 8.87971 105.185 8.87971C108.936 6.64727 111.398 6.8021 113.36 6.8021V11.4218C111.278 11.4218 107.852 11.3519 105.819 12.7753" fill="#040404"/>
<path d="M125.022 28.3276C117.94 28.3276 113.885 23.9027 113.885 17.4001C113.885 10.8976 117.98 6.48267 125.022 6.48267C132.064 6.48267 136.104 10.7478 136.104 17.4001C136.104 24.0525 131.48 28.3276 125.022 28.3276ZM124.992 10.4331C121.012 10.4331 119.733 12.8604 119.733 17.4801C119.733 22.0998 121.012 24.502 124.992 24.502C128.973 24.502 130.211 22.0598 130.211 17.4801C130.211 12.9003 128.933 10.4331 124.992 10.4331Z" fill="#040404"/>
<path d="M26.5799 41.6223C27.6188 40.0291 29.6614 38.9104 32.2235 38.9104C36.9381 38.9104 41.0584 42.5862 41.0584 48.3396C41.0584 54.093 36.8981 57.8437 32.1486 57.8437C29.9561 57.8437 27.7336 56.9547 26.6549 55.3216V64.566C26.6549 64.9755 26.3202 65.3101 25.9107 65.3101H22.6045C22.195 65.3101 21.8604 64.9755 21.8604 64.566V40.2139C21.8604 39.7694 22.195 39.4348 22.6045 39.4348H25.8358C26.2403 39.4348 26.5799 39.7694 26.5799 40.2139V41.6223ZM31.4444 53.4288C34.2312 53.4288 36.2339 51.2013 36.2339 48.3796C36.2339 45.5578 34.2312 43.3653 31.4444 43.3653C28.6576 43.3653 26.6199 45.5928 26.6199 48.3796C26.6199 51.1664 28.6975 53.4288 31.4444 53.4288Z" fill="#C9B787"/>
<path d="M53.0396 39.21C53.4491 39.21 53.8936 39.3948 53.8936 40.1389V43.3352C53.8936 44.0794 53.3043 44.2642 53.0046 44.2642H52.1157C49.7384 44.2642 48.3649 45.4528 48.3649 48.5742V56.63C48.3649 57.0395 47.9954 57.3342 47.5858 57.3342H44.3196C43.915 57.3342 43.5754 56.9996 43.5754 56.59V40.2188C43.5754 39.7743 43.9101 39.4347 44.3196 39.4347H47.4011C47.8056 39.4347 48.1452 39.7344 48.1452 40.1389V41.8469C49.0741 40.2488 50.6324 39.21 52.5252 39.21H53.0446H53.0396Z" fill="#C9B787"/>
<path d="M73.2664 47.8601V48.7491C73.2664 49.1936 73.1166 49.5632 72.4124 49.5632H59.642C59.9017 52.0903 61.9045 53.7584 64.3217 53.7584C66.2145 53.7584 67.4381 53.0891 68.5169 51.8655C68.7766 51.5659 69.0762 51.3811 69.4858 51.6757L71.8231 53.3089C72.2276 53.6035 72.2276 54.088 71.9729 54.3827C70.4896 56.2755 68.1873 57.8337 64.2118 57.8337C58.6082 57.8337 54.7077 53.7534 54.7077 48.4444C54.7077 43.1355 58.6432 38.9004 64.1369 38.9004C69.6306 38.9004 73.2714 43.0956 73.2714 47.8501M68.5568 46.5117C68.1123 44.0245 66.2545 42.761 64.1769 42.761C61.9844 42.761 60.2414 44.2443 59.7569 46.5117H68.5568Z" fill="#C9B787"/>
<path d="M80.4033 56.6202C80.4033 57.0298 80.0287 57.3244 79.6242 57.3244H76.3579C75.9484 57.3244 75.6138 56.9898 75.6138 56.5803V40.209C75.6138 39.7645 75.9484 39.4299 76.3579 39.4299H79.6242C80.0287 39.4299 80.4033 39.7246 80.4033 40.1341V41.5425C81.4421 40.0592 83.5597 38.9055 85.9719 38.9055C88.6438 38.9055 90.6865 40.1691 91.6903 42.0619C93.3634 39.7995 95.7008 38.9055 98.0431 38.9055C103.237 38.9055 105.689 42.5813 105.689 46.4818V56.6202C105.689 57.0298 105.315 57.3244 104.91 57.3244H101.679C101.269 57.3244 100.9 57.0298 100.9 56.6202V47.6355C100.9 45.2233 99.7112 43.3304 97.0742 43.3304C94.4372 43.3304 93.0638 45.2233 93.0638 47.6355V56.6202C93.0638 57.0298 92.6942 57.3244 92.2847 57.3244H89.0534C88.6488 57.3244 88.2743 57.0298 88.2743 56.6202V47.6355C88.2743 45.2233 87.0906 43.3304 84.4536 43.3304C81.8167 43.3304 80.4083 45.2233 80.4083 47.6355V56.6202H80.4033Z" fill="#C9B787"/>
<path d="M108.401 34.0859C108.401 32.4528 109.74 31.0793 111.408 31.0793C113.076 31.0793 114.379 32.4528 114.379 34.0859C114.379 35.719 113.041 37.0925 111.408 37.0925C109.775 37.0925 108.401 35.719 108.401 34.0859ZM109.775 57.3293C109.33 57.3293 108.996 56.9547 108.996 56.5502V40.2139C108.996 39.7694 109.33 39.4348 109.775 39.4348H113.006C113.45 39.4348 113.785 39.7694 113.785 40.2139V56.5502C113.785 56.9547 113.45 57.3293 113.006 57.3293H109.775Z" fill="#C9B787"/>
<path d="M125.162 38.9155C127.689 38.9155 129.732 40.0292 130.621 41.6274V40.219C130.621 39.7745 130.955 39.4399 131.365 39.4399H134.631C135.041 39.4399 135.375 39.7745 135.375 40.219V56.5903C135.375 56.9948 135.041 57.3344 134.631 57.3344H131.365C130.96 57.3344 130.621 56.9998 130.621 56.5903V55.1419C129.692 56.7401 127.649 57.8538 125.127 57.8538C120.487 57.8538 116.177 54.1431 116.177 48.3497C116.177 42.5563 120.447 38.9205 125.162 38.9205M125.831 53.4389C128.618 53.4389 130.621 51.2114 130.621 48.3897C130.621 45.5679 128.618 43.3754 125.831 43.3754C123.044 43.3754 121.007 45.6029 121.007 48.3897C121.007 51.1765 123.084 53.4389 125.831 53.4389Z" fill="#C9B787"/>
</svg>
