<svg width="logoWidth" height="logoHeight" viewBox="0 0 152 96" fill="none" xmlns="http://www.w3.org/2000/svg">
<path d="M75.9933 96C46.2624 96 18.7589 84.0037 0.524815 63.0977C-0.254292 62.2137 -0.149413 60.8603 0.72958 60.0812C1.5886 59.337 3.00198 59.4369 3.75611 60.2859C21.1662 80.2531 47.491 91.7099 75.9883 91.7099C104.486 91.7099 130.796 80.2531 148.206 60.2859C148.965 59.4369 150.378 59.337 151.232 60.0812C152.121 60.8603 152.216 62.2137 151.437 63.0977C133.213 84.0037 105.709 96 75.9883 96" fill="colorPrimary"/>
<path d="M51.4166 0L53.2744 27.8831H47.8556L46.8568 4.39497H46.3424L39.9547 27.8831H33.5421L27.3741 4.39497H26.8547L25.4863 27.8831H20.8366L22.6995 0H31.6492L36.8832 21.3356H37.3826L42.8164 0H51.4166Z" fill="colorSecondary"/>
<path d="M66.3344 28.3275C61.2752 28.2576 56.6904 27.3636 56.6904 21.5453C56.6904 14.9329 64.4216 15.2225 70.3198 15.2225C70.3198 11.9513 70.2848 10.473 65.1407 10.473C62.3489 10.473 59.5322 10.9125 58.0888 11.2371V7.28663C59.8468 6.88709 63.2279 6.52751 65.4604 6.52751C70.4497 6.48256 75.9833 7.04691 75.9833 13.4995V27.8081C72.3924 28.1927 69.4458 28.4124 66.3344 28.3275ZM70.3248 18.8434C69.6056 18.7984 67.6529 18.7985 67.0536 18.7985C64.7112 18.7985 62.6386 18.9583 62.6386 21.7501C62.6386 24.5419 64.7112 24.6917 67.0536 24.6917C68.2522 24.6917 69.2111 24.6118 70.3248 24.452V18.8384V18.8434Z" fill="colorSecondary"/>
<path d="M90.5217 28.3325C83.5896 28.3325 78.6104 24.5768 78.6104 17.0505C78.6104 10.2483 83.9442 6.53252 90.282 6.53252C92.2647 6.53252 94.3823 6.69232 96.34 7.13182V10.8675C94.9816 10.7127 93.793 10.5929 92.4745 10.5929C87.1705 10.5929 84.5436 12.2659 84.5436 17.3301C84.5436 22.3943 87.1705 24.1773 92.4745 24.1773C94.3423 24.1773 95.3462 24.0225 96.5048 23.8626V27.6433C94.4622 28.1627 92.5244 28.3275 90.5217 28.3275" fill="colorSecondary"/>
<path d="M105.814 12.7803V27.878H100.161V6.97201H105.185C105.185 6.97201 105.135 8.87982 105.185 8.87982C108.936 6.64737 111.398 6.80221 113.361 6.80221V11.4219C111.278 11.4219 107.852 11.352 105.819 12.7754" fill="colorSecondary"/>
<path d="M125.022 28.3275C117.94 28.3275 113.885 23.9026 113.885 17.4C113.885 10.8975 117.98 6.48256 125.022 6.48256C132.064 6.48256 136.104 10.7477 136.104 17.4C136.104 24.0524 131.48 28.3275 125.022 28.3275ZM124.992 10.433C121.012 10.433 119.733 12.8602 119.733 17.48C119.733 22.0997 121.012 24.5019 124.992 24.5019C128.973 24.5019 130.211 22.0597 130.211 17.48C130.211 12.9002 128.933 10.433 124.992 10.433Z" fill="colorSecondary"/>
<path d="M26.5799 41.6223C27.6188 40.0291 29.6614 38.9104 32.2235 38.9104C36.9381 38.9104 41.0584 42.5862 41.0584 48.3396C41.0584 54.093 36.8981 57.8437 32.1486 57.8437C29.9561 57.8437 27.7336 56.9548 26.6549 55.3216V64.566C26.6549 64.9756 26.3202 65.3102 25.9107 65.3102H22.6045C22.195 65.3102 21.8604 64.9756 21.8604 64.566V40.2139C21.8604 39.7695 22.195 39.4348 22.6045 39.4348H25.8358C26.2403 39.4348 26.5799 39.7695 26.5799 40.2139V41.6223ZM31.4444 53.4288C34.2312 53.4288 36.2339 51.2014 36.2339 48.3796C36.2339 45.5578 34.2312 43.3653 31.4444 43.3653C28.6576 43.3653 26.6199 45.5928 26.6199 48.3796C26.6199 51.1664 28.6975 53.4288 31.4444 53.4288Z" fill="colorPrimary"/>
<path d="M53.0396 39.2101C53.4491 39.2101 53.8936 39.3949 53.8936 40.139V43.3354C53.8936 44.0795 53.3043 44.2643 53.0046 44.2643H52.1157C49.7384 44.2643 48.3649 45.4529 48.3649 48.5744V56.6301C48.3649 57.0397 47.9954 57.3343 47.5858 57.3343H44.3196C43.915 57.3343 43.5754 56.9997 43.5754 56.5902V40.2189C43.5754 39.7744 43.9101 39.4348 44.3196 39.4348H47.4011C47.8056 39.4348 48.1452 39.7345 48.1452 40.139V41.8471C49.0741 40.2489 50.6324 39.2101 52.5252 39.2101H53.0446H53.0396Z" fill="colorPrimary"/>
<path d="M73.2664 47.8602V48.7492C73.2664 49.1936 73.1166 49.5632 72.4124 49.5632H59.642C59.9017 52.0903 61.9045 53.7584 64.3217 53.7584C66.2145 53.7584 67.4381 53.0892 68.5169 51.8656C68.7766 51.5659 69.0762 51.3811 69.4858 51.6758L71.8231 53.3089C72.2276 53.6036 72.2276 54.088 71.9729 54.3827C70.4896 56.2755 68.1873 57.8337 64.2118 57.8337C58.6082 57.8337 54.7077 53.7534 54.7077 48.4445C54.7077 43.1356 58.6432 38.9004 64.1369 38.9004C69.6306 38.9004 73.2714 43.0956 73.2714 47.8502M68.5568 46.5117C68.1123 44.0246 66.2545 42.761 64.1769 42.761C61.9844 42.761 60.2414 44.2443 59.7569 46.5117H68.5568Z" fill="colorPrimary"/>
<path d="M80.4033 56.6201C80.4033 57.0297 80.0287 57.3243 79.6242 57.3243H76.3579C75.9484 57.3243 75.6138 56.9897 75.6138 56.5802V40.2089C75.6138 39.7644 75.9484 39.4298 76.3579 39.4298H79.6242C80.0287 39.4298 80.4033 39.7245 80.4033 40.134V41.5424C81.4421 40.0591 83.5597 38.9054 85.9719 38.9054C88.6438 38.9054 90.6865 40.169 91.6903 42.0618C93.3634 39.7994 95.7008 38.9054 98.0431 38.9054C103.237 38.9054 105.689 42.5812 105.689 46.4817V56.6201C105.689 57.0297 105.315 57.3243 104.91 57.3243H101.679C101.269 57.3243 100.9 57.0297 100.9 56.6201V47.6354C100.9 45.2232 99.7112 43.3303 97.0742 43.3303C94.4372 43.3303 93.0638 45.2232 93.0638 47.6354V56.6201C93.0638 57.0297 92.6942 57.3243 92.2847 57.3243H89.0534C88.6488 57.3243 88.2743 57.0297 88.2743 56.6201V47.6354C88.2743 45.2232 87.0906 43.3303 84.4536 43.3303C81.8167 43.3303 80.4083 45.2232 80.4083 47.6354V56.6201H80.4033Z" fill="colorPrimary"/>
<path d="M108.401 34.0859C108.401 32.4528 109.74 31.0794 111.408 31.0794C113.076 31.0794 114.379 32.4528 114.379 34.0859C114.379 35.7191 113.041 37.0925 111.408 37.0925C109.775 37.0925 108.401 35.7191 108.401 34.0859ZM109.775 57.3293C109.33 57.3293 108.996 56.9547 108.996 56.5502V40.2139C108.996 39.7694 109.33 39.4348 109.775 39.4348H113.006C113.45 39.4348 113.785 39.7694 113.785 40.2139V56.5502C113.785 56.9547 113.45 57.3293 113.006 57.3293H109.775Z" fill="colorPrimary"/>
<path d="M125.162 38.9154C127.689 38.9154 129.732 40.0292 130.621 41.6273V40.2189C130.621 39.7744 130.955 39.4398 131.365 39.4398H134.631C135.041 39.4398 135.375 39.7744 135.375 40.2189V56.5902C135.375 56.9947 135.041 57.3343 134.631 57.3343H131.365C130.96 57.3343 130.621 56.9997 130.621 56.5902V55.1418C129.692 56.74 127.649 57.8537 125.127 57.8537C120.487 57.8537 116.177 54.143 116.177 48.3496C116.177 42.5563 120.447 38.9204 125.162 38.9204M125.831 53.4388C128.618 53.4388 130.621 51.2113 130.621 48.3896C130.621 45.5678 128.618 43.3753 125.831 43.3753C123.044 43.3753 121.007 45.6028 121.007 48.3896C121.007 51.1764 123.084 53.4388 125.831 53.4388Z" fill="colorPrimary"/>
</svg>
