<svg width="152" height="96" viewBox="0 0 152 96" fill="none" xmlns="http://www.w3.org/2000/svg">
<path d="M75.9933 95.9999C46.2624 95.9999 18.7589 84.0037 0.524815 63.0976C-0.254292 62.2136 -0.149413 60.8602 0.72958 60.0811C1.5886 59.3369 3.00198 59.4368 3.75611 60.2858C21.1662 80.253 47.491 91.7098 75.9883 91.7098C104.486 91.7098 130.796 80.253 148.206 60.2858C148.965 59.4368 150.378 59.3369 151.232 60.0811C152.121 60.8602 152.216 62.2136 151.437 63.0976C133.213 84.0037 105.709 95.9999 75.9883 95.9999" fill="#CD3377"/>
<path d="M51.4166 0L53.2744 27.8831H47.8556L46.8568 4.39496H46.3424L39.9547 27.8831H33.5421L27.3741 4.39496H26.8547L25.4863 27.8831H20.8366L22.6995 0H31.6492L36.8832 21.3356H37.3826L42.8164 0H51.4166Z" fill="#053575"/>
<path d="M66.3344 28.3326C61.2752 28.2626 56.6905 27.3687 56.6905 21.5503C56.6905 14.9379 64.4216 15.2276 70.3199 15.2276C70.3199 11.9563 70.2849 10.478 65.1408 10.478C62.349 10.478 59.5322 10.9175 58.0889 11.2421V7.29167C59.8469 6.89213 63.228 6.53254 65.4604 6.53254C70.4497 6.4876 75.9834 7.05195 75.9834 13.5046V27.8132C72.3925 28.1977 69.4459 28.4175 66.3344 28.3326ZM70.3249 18.8484C69.6057 18.8035 67.6529 18.8035 67.0536 18.8035C64.7113 18.8035 62.6387 18.9633 62.6387 21.7551C62.6387 24.5469 64.7113 24.6967 67.0536 24.6967C68.2522 24.6967 69.2111 24.6168 70.3249 24.457V18.8434V18.8484Z" fill="#053575"/>
<path d="M90.5217 28.3325C83.5896 28.3325 78.6104 24.5768 78.6104 17.0504C78.6104 10.2482 83.9442 6.53247 90.282 6.53247C92.2647 6.53247 94.3823 6.69229 96.34 7.13178V10.8675C94.9816 10.7127 93.793 10.5928 92.4745 10.5928C87.1705 10.5928 84.5436 12.2659 84.5436 17.3301C84.5436 22.3943 87.1705 24.1773 92.4745 24.1773C94.3423 24.1773 95.3462 24.0224 96.5048 23.8626V27.6433C94.4622 28.1627 92.5244 28.3275 90.5217 28.3275" fill="#053575"/>
<path d="M105.814 12.7853V27.883H100.161V6.98192H105.185C105.185 6.98192 105.135 8.88973 105.185 8.88973C108.936 6.65729 111.398 6.81211 113.36 6.81211V11.4318C111.278 11.4318 107.852 11.3619 105.819 12.7853" fill="#053575"/>
<path d="M125.022 28.3325C117.94 28.3325 113.885 23.9076 113.885 17.405C113.885 10.9025 117.98 6.48755 125.022 6.48755C132.064 6.48755 136.104 10.7527 136.104 17.405C136.104 24.0574 131.48 28.3325 125.022 28.3325ZM124.992 10.438C121.012 10.438 119.733 12.8652 119.733 17.4849C119.733 22.1047 121.012 24.5069 124.992 24.5069C128.973 24.5069 130.211 22.0647 130.211 17.4849C130.211 12.9052 128.933 10.438 124.992 10.438Z" fill="#053575"/>
<path d="M26.5799 41.6272C27.6188 40.034 29.6614 38.9153 32.2235 38.9153C36.9381 38.9153 41.0584 42.5911 41.0584 48.3445C41.0584 54.0979 36.8981 57.8486 32.1486 57.8486C29.9561 57.8486 27.7336 56.9596 26.6549 55.3265V64.5709C26.6549 64.9804 26.3202 65.315 25.9107 65.315H22.6045C22.195 65.315 21.8604 64.9804 21.8604 64.5709V40.2188C21.8604 39.7743 22.195 39.4397 22.6045 39.4397H25.8358C26.2403 39.4397 26.5799 39.7743 26.5799 40.2188V41.6272ZM31.4444 53.4336C34.2312 53.4336 36.2339 51.2062 36.2339 48.3844C36.2339 45.5627 34.2312 43.3702 31.4444 43.3702C28.6576 43.3702 26.6199 45.5976 26.6199 48.3844C26.6199 51.1712 28.6975 53.4336 31.4444 53.4336Z" fill="#CD3377"/>
<path d="M53.0397 39.21C53.4492 39.21 53.8937 39.3947 53.8937 40.1389V43.3352C53.8937 44.0794 53.3044 44.2642 53.0047 44.2642H52.1157C49.7384 44.2642 48.365 45.4528 48.365 48.5742V56.63C48.365 57.0395 47.9954 57.3342 47.5859 57.3342H44.3196C43.9151 57.3342 43.5755 56.9996 43.5755 56.59V40.2188C43.5755 39.7743 43.9101 39.4347 44.3196 39.4347H47.4011C47.8057 39.4347 48.1453 39.7344 48.1453 40.1389V41.8469C49.0742 40.2488 50.6324 39.21 52.5252 39.21H53.0446H53.0397Z" fill="#CD3377"/>
<path d="M73.2664 47.8601V48.7491C73.2664 49.1936 73.1166 49.5632 72.4124 49.5632H59.642C59.9017 52.0903 61.9045 53.7584 64.3217 53.7584C66.2145 53.7584 67.4381 53.0891 68.5169 51.8655C68.7766 51.5659 69.0762 51.3811 69.4858 51.6758L71.8231 53.3089C72.2276 53.6035 72.2276 54.088 71.9729 54.3827C70.4896 56.2755 68.1873 57.8337 64.2118 57.8337C58.6082 57.8337 54.7077 53.7534 54.7077 48.4445C54.7077 43.1355 58.6432 38.9004 64.1369 38.9004C69.6306 38.9004 73.2714 43.0956 73.2714 47.8501M68.5568 46.5117C68.1123 44.0245 66.2545 42.761 64.1769 42.761C61.9844 42.761 60.2414 44.2443 59.7569 46.5117H68.5568Z" fill="#CD3377"/>
<path d="M80.4033 56.6251C80.4033 57.0346 80.0287 57.3293 79.6242 57.3293H76.3579C75.9484 57.3293 75.6138 56.9947 75.6138 56.5851V40.2139C75.6138 39.7694 75.9484 39.4348 76.3579 39.4348H79.6242C80.0287 39.4348 80.4033 39.7295 80.4033 40.139V41.5474C81.4421 40.0641 83.5597 38.9104 85.9719 38.9104C88.6438 38.9104 90.6865 40.174 91.6903 42.0668C93.3634 39.8044 95.7008 38.9104 98.0431 38.9104C103.237 38.9104 105.689 42.5862 105.689 46.4867V56.6251C105.689 57.0346 105.315 57.3293 104.91 57.3293H101.679C101.269 57.3293 100.9 57.0346 100.9 56.6251V47.6404C100.9 45.2282 99.7112 43.3353 97.0742 43.3353C94.4372 43.3353 93.0638 45.2282 93.0638 47.6404V56.6251C93.0638 57.0346 92.6942 57.3293 92.2847 57.3293H89.0534C88.6488 57.3293 88.2743 57.0346 88.2743 56.6251V47.6404C88.2743 45.2282 87.0906 43.3353 84.4536 43.3353C81.8167 43.3353 80.4083 45.2282 80.4083 47.6404V56.6251H80.4033Z" fill="#CD3377"/>
<path d="M108.401 34.0859C108.401 32.4528 109.74 31.0793 111.408 31.0793C113.076 31.0793 114.379 32.4528 114.379 34.0859C114.379 35.719 113.041 37.0925 111.408 37.0925C109.775 37.0925 108.401 35.719 108.401 34.0859ZM109.775 57.3293C109.33 57.3293 108.996 56.9547 108.996 56.5502V40.2139C108.996 39.7694 109.33 39.4348 109.775 39.4348H113.006C113.45 39.4348 113.785 39.7694 113.785 40.2139V56.5502C113.785 56.9547 113.45 57.3293 113.006 57.3293H109.775Z" fill="#CD3377"/>
<path d="M125.162 38.9153C127.689 38.9153 129.732 40.029 130.621 41.6272V40.2188C130.621 39.7743 130.955 39.4397 131.365 39.4397H134.631C135.041 39.4397 135.375 39.7743 135.375 40.2188V56.59C135.375 56.9946 135.041 57.3342 134.631 57.3342H131.365C130.96 57.3342 130.621 56.9996 130.621 56.59V55.1417C129.692 56.7399 127.649 57.8536 125.127 57.8536C120.487 57.8536 116.177 54.1428 116.177 48.3495C116.177 42.5561 120.447 38.9203 125.162 38.9203M125.831 53.4386C128.618 53.4386 130.621 51.2112 130.621 48.3894C130.621 45.5677 128.618 43.3752 125.831 43.3752C123.044 43.3752 121.007 45.6026 121.007 48.3894C121.007 51.1762 123.084 53.4386 125.831 53.4386Z" fill="#CD3377"/>
</svg>
