<svg width="208" height="48" viewBox="0 0 208 48" fill="none" xmlns="http://www.w3.org/2000/svg">
<g clip-path="url(#clip0_4920_874)">
<path d="M98.1786 27.1979C96.9033 26.7076 95.6268 26.4781 94.2863 26.4781C92.0956 26.4781 90.0667 27.5578 90.0667 30.0758C90.0667 34.1637 97.3284 35.4402 97.3284 40.6731C97.3284 45.3178 93.6656 48 89.5438 48C87.777 48 84.311 47.8031 84.311 45.3504C84.311 45.0231 84.3436 44.6632 84.4414 44.3359L84.7361 44.2381C86.0114 45.3504 87.9086 45.546 89.5764 45.546C91.9966 45.546 94.0569 44.4337 94.0569 41.7189C94.0569 37.6636 86.829 36.3218 86.829 31.0564C86.829 26.2813 90.9833 24.0894 95.0061 24.0894C96.3466 24.0894 97.7535 24.2198 99.0614 24.5471L98.1786 27.1967V27.1979Z" fill="#111111"/>
<path d="M101.941 39.4302C101.908 39.8553 101.875 40.2804 101.875 40.7055C101.875 43.8128 103.805 45.6449 106.88 45.6449C108.188 45.6449 109.627 45.0893 110.543 44.1401L110.772 44.3032C110.805 44.4336 110.805 44.5652 110.805 44.6956C110.805 47.2801 107.861 47.9986 105.8 47.9986C101.548 47.9986 98.8658 45.0555 98.8658 40.8685C98.8658 35.2432 102.496 29.6167 108.155 29.6167C110.575 29.6167 112.963 30.9246 112.963 33.6068C112.963 38.6766 105.701 39.429 101.941 39.429V39.4302ZM107.272 31.7434C104.297 31.7434 102.497 34.8833 102.137 37.5004C104.59 37.5004 109.792 37.4351 109.792 33.9679C109.792 32.5948 108.549 31.7434 107.272 31.7434Z" fill="#111111"/>
<path d="M126.013 32.8232C124.999 32.3981 123.887 32.2351 122.808 32.2351C118.818 32.2351 116.79 35.7023 116.79 40.9677C116.79 43.6173 118.589 45.6776 121.304 45.6776C122.58 45.6776 124.052 45.2851 124.902 44.2707L125.131 44.4011C125.164 44.5315 125.164 44.6632 125.164 44.7936C125.164 47.378 122.351 47.9988 120.291 47.9988C116.137 47.9988 113.586 44.8914 113.586 40.8687C113.586 34.8509 117.282 29.8789 123.628 29.8789C124.707 29.8789 125.82 29.9441 126.898 30.141L126.015 32.8232H126.013Z" fill="#111111"/>
<path d="M140.765 43.9119C140.732 44.174 140.667 44.4675 140.667 44.7295C140.667 45.285 140.962 45.6775 141.582 45.6775C141.812 45.6775 142.007 45.6123 142.203 45.5145L142.333 45.6449C142.138 46.9202 141.123 47.7378 139.848 47.7378C138.408 47.7378 137.591 46.9202 137.591 45.4807C137.591 44.8587 137.787 43.8129 137.918 43.3226H137.82C136.218 45.5145 134.157 47.9999 131.345 47.9999C129.186 47.9999 127.812 46.4951 127.812 44.3696C127.812 43.6499 127.91 42.9301 128.042 42.2441L130.234 30.1421H133.309L131.183 41.8843C131.085 42.342 131.02 42.8323 131.02 43.3238C131.02 44.4687 131.576 45.1558 132.72 45.1558C134.585 45.1558 136.318 42.9965 138.346 40.3481L140.111 30.1433H143.186L140.766 43.9131L140.765 43.9119Z" fill="#111111"/>
<path d="M156.269 32.9547C155.941 32.8243 155.614 32.7591 155.254 32.7591C153.129 32.7591 151.035 35.6696 149.792 37.1743L147.96 47.477H144.885L147.338 33.7071C147.371 33.445 147.436 33.1516 147.436 32.8895C147.436 32.334 147.141 31.9415 146.553 31.9415C146.324 31.9415 146.128 32.0067 145.932 32.1045L145.802 31.9741C145.997 30.7314 146.947 29.8812 148.189 29.8812C149.629 29.8812 150.349 30.7314 150.349 32.1383C150.349 32.9233 150.184 33.7083 150.054 34.4933H150.152C151.525 32.4004 153.487 29.6204 156.269 29.6204C156.531 29.6204 156.824 29.653 157.086 29.7182L156.269 32.9559V32.9547Z" fill="#111111"/>
<path d="M159.769 43.9119C159.736 44.174 159.671 44.4675 159.671 44.7295C159.671 45.285 160.031 45.6775 160.586 45.6775C160.816 45.6775 161.011 45.6123 161.207 45.5145L161.337 45.6449C161.14 46.8876 160.095 47.7378 158.852 47.7378C157.446 47.7378 156.497 46.9202 156.497 45.4807C156.497 45.0882 156.562 44.6631 156.627 44.2706L159.113 30.1409H162.187L159.767 43.9107L159.769 43.9119ZM161.306 26.577C160.488 26.577 159.834 25.9877 159.834 25.1701C159.834 23.9274 160.619 22.8804 161.992 22.8804C162.809 22.8804 163.464 23.4685 163.464 24.2873C163.464 25.53 162.679 26.577 161.305 26.577H161.306Z" fill="#111111"/>
<path d="M174.814 32.3655H169.809L168.043 42.4072C167.946 42.8975 167.879 43.3552 167.879 43.8468C167.879 45.0895 168.599 45.744 169.809 45.744C171.216 45.744 172.099 45.2863 172.654 44.697L172.916 44.8274C172.949 44.9904 172.949 45.1221 172.949 45.2851C172.949 47.4432 170.299 47.9999 168.304 47.9999C166.112 47.9999 164.772 46.5278 164.772 44.3697C164.772 43.7803 164.837 43.1596 164.936 42.5703L166.736 32.3655H164.61L164.48 32.235C164.905 31.287 165.494 30.8281 166.9 29.9127L170.432 27.5903H170.662L170.204 30.1421H175.209L174.816 32.3667L174.814 32.3655Z" fill="#111111"/>
<path d="M178.673 43.9119C178.641 44.174 178.576 44.4675 178.576 44.7295C178.576 45.285 178.935 45.6775 179.491 45.6775C179.72 45.6775 179.916 45.6123 180.112 45.5145L180.242 45.6449C180.045 46.8876 178.999 47.7378 177.757 47.7378C176.351 47.7378 175.402 46.9202 175.402 45.4807C175.402 45.0882 175.467 44.6631 175.532 44.2706L178.018 30.1409H181.092L178.672 43.9107L178.673 43.9119ZM180.211 26.577C179.393 26.577 178.739 25.9877 178.739 25.1701C178.739 23.9274 179.524 22.8804 180.897 22.8804C181.714 22.8804 182.369 23.4685 182.369 24.2873C182.369 25.53 181.584 26.577 180.21 26.577H180.211Z" fill="#111111"/>
<path d="M185.608 39.4302C185.575 39.8553 185.543 40.2804 185.543 40.7055C185.543 43.8128 187.472 45.6449 190.547 45.6449C191.855 45.6449 193.295 45.0893 194.21 44.1401L194.439 44.3032C194.472 44.4336 194.472 44.5652 194.472 44.6956C194.472 47.2801 191.528 47.9986 189.468 47.9986C185.215 47.9986 182.533 45.0555 182.533 40.8685C182.533 35.2432 186.163 29.6167 191.822 29.6167C194.243 29.6167 196.63 30.9246 196.63 33.6068C196.63 38.6766 189.368 39.429 185.608 39.429V39.4302ZM190.94 31.7434C187.964 31.7434 186.165 34.8833 185.805 37.5004C188.257 37.5004 193.459 37.4351 193.459 33.9679C193.459 32.5948 192.216 31.7434 190.94 31.7434Z" fill="#111111"/>
<path d="M206.737 32.5622C205.757 32.1045 204.807 31.9076 203.597 31.9076C202.092 31.9076 200.752 32.7252 200.752 34.3604C200.752 37.0752 206.116 38.2527 206.116 42.5049C206.116 46.1025 203.336 47.9672 199.967 47.9672C198.43 47.9672 195.977 47.5421 195.977 45.547C195.977 45.2523 196.009 44.9577 196.075 44.6642L196.337 44.5338C197.384 45.4492 198.887 45.8091 200.262 45.8091C201.766 45.8091 203.336 44.9589 203.336 43.2573C203.336 40.3468 197.939 39.2019 197.939 35.0475C197.939 31.7772 200.916 29.7483 203.957 29.7483C205.135 29.7483 206.312 29.8461 207.457 30.1734L206.737 32.561V32.5622Z" fill="#111111"/>
<path d="M69.1524 36.7469C67.9471 36.7469 66.7395 36.7107 65.5366 36.7578C64.3133 36.8049 63.8241 36.2928 63.7239 35.055C62.823 23.8236 55.2666 14.684 44.4109 11.6189C28.9805 7.26289 13.0912 17.4604 10.9403 33.2845C10.3848 37.3592 10.3679 36.6926 6.92484 36.7445C5.20995 36.7699 3.49385 36.7095 1.77896 36.7614C0.465021 36.8013 -0.0784298 36.2771 0.00852237 34.9427C0.677571 24.6751 4.84282 16.0861 12.5526 9.31109C33.7146 -9.29304 67.1211 1.39966 73.5459 28.8149C74.0302 30.8776 74.1787 33.0213 74.4444 35.1323C74.5857 36.2481 74.0157 36.7614 72.907 36.7505C71.6559 36.736 70.4035 36.7469 69.1512 36.7469" fill="#111111"/>
<path d="M55.9368 36.7808C54.8246 36.7808 53.7051 36.7059 52.6012 36.8001C51.1786 36.9221 50.634 36.282 50.4274 34.9391C49.7294 30.3946 47.2344 27.0856 43.1271 25.0966C35.0659 21.1946 25.7729 25.9347 24.1003 34.7326C23.8402 36.0973 22.9981 36.78 21.5738 36.7808C19.3481 36.782 17.1248 36.7917 14.899 36.7772C13.4414 36.7663 13.0622 36.34 13.195 34.9403C14.2119 24.2295 22.1523 15.5295 32.7411 13.5259C45.4265 11.1239 57.7314 19.0897 60.7156 31.6591C60.9813 32.7798 61.0936 33.9379 61.2469 35.0828C61.4027 36.247 60.9173 36.8291 59.6927 36.7905C58.4427 36.7518 57.1904 36.782 55.938 36.782" fill="#111111"/>
<path d="M37.0127 47.7368C31.0021 47.6088 26.1775 42.6911 26.3163 36.84C26.4637 30.7364 31.3704 26.1123 37.5742 26.233C43.5679 26.3502 48.2802 31.3415 48.1184 37.4003C47.9626 43.1935 42.9459 47.8636 37.0127 47.7368Z" fill="#111111"/>
<path d="M86.5017 1.4214H90.1911C91.1685 1.4214 91.7727 1.89682 92.0038 2.84766C92.7791 5.99847 93.5593 9.14928 94.3394 12.2989C94.3865 12.4873 94.4542 12.6696 94.5725 13.044C94.7066 12.5766 94.7995 12.2868 94.8756 11.9909C95.7307 8.67346 96.5929 5.3584 97.4262 2.03611C97.5385 1.59048 97.6883 1.39604 98.1798 1.40933C99.466 1.44435 100.753 1.42623 102.041 1.41778C102.38 1.41657 102.567 1.47937 102.594 1.89239C102.893 6.53226 103.215 11.1697 103.526 15.8084C103.547 16.1199 103.529 16.4351 103.529 16.8458C102.544 16.8458 101.581 16.8614 100.621 16.8228C100.513 16.818 100.338 16.5064 100.329 16.3301C100.216 14.0524 100.129 11.7747 100.031 9.49709C99.9587 7.80997 99.8802 6.12407 99.8053 4.43695C99.7486 4.4285 99.6918 4.42125 99.6351 4.4128C99.0699 6.47308 98.5059 8.53337 97.9383 10.5936C97.3646 12.6757 96.7862 14.7565 96.2017 16.8663C95.0713 16.8663 93.9892 16.8457 92.9071 16.8747C92.3842 16.888 92.4108 16.4931 92.3323 16.1972C91.412 12.7578 90.5051 9.31352 89.5933 5.87166C89.4568 5.35599 89.3095 4.84273 89.0462 4.33792C88.9605 5.62651 88.8651 6.91388 88.7902 8.20246C88.6356 10.8388 88.4738 13.4751 88.3566 16.1127C88.3301 16.6996 88.1562 16.911 87.562 16.8651C86.9147 16.8143 86.2613 16.853 85.4679 16.853C85.8145 11.6963 86.1563 6.60351 86.5041 1.41899" fill="#111111"/>
<path d="M112.585 14.7577C112.585 13.8664 112.61 13.102 112.566 12.3436C112.556 12.1866 112.293 11.9197 112.142 11.9172C111.335 11.9028 110.522 11.91 109.723 12.0006C108.947 12.0875 108.602 12.5513 108.58 13.3375C108.559 14.1164 108.889 14.6623 109.637 14.7359C110.584 14.8289 111.546 14.7589 112.585 14.7589M112.47 9.72533C112.756 8.18918 112.23 7.41627 110.822 7.40902C109.206 7.40057 107.59 7.53824 105.919 7.61433V5.39463C108.411 4.99368 110.911 4.66037 113.41 5.34149C115.049 5.78833 115.894 6.87402 115.941 8.6819C116.007 11.2325 115.972 13.7855 115.947 16.3361C115.946 16.5088 115.672 16.8131 115.501 16.83C113.074 17.074 110.641 17.289 108.212 16.8723C105.873 16.4714 104.769 14.8676 105.165 12.5295C105.324 11.5888 105.814 10.8195 106.683 10.5151C107.753 10.1408 108.888 9.91252 110.014 9.74828C110.808 9.63113 111.633 9.72533 112.469 9.72533" fill="#111111"/>
<path d="M140.292 11.0212C140.412 11.7397 140.464 12.4655 140.664 13.1467C140.993 14.2637 141.781 14.7335 143.109 14.7359C144.446 14.7384 145.234 14.2758 145.575 13.1708C146.01 11.7615 146.008 10.3243 145.572 8.91619C145.237 7.83171 144.465 7.37279 143.167 7.36434C141.816 7.35588 141.013 7.80635 140.681 8.89566C140.474 9.57437 140.419 10.3002 140.294 11.0212M143.127 17.0776C140.563 17.0003 138.469 16.1852 137.401 13.6974C136.206 10.9088 137.053 7.53462 139.285 6.0202C141.385 4.59515 144.908 4.59515 146.999 6.0202C148.943 7.34622 149.828 10.0623 149.168 12.6841C148.578 15.027 146.581 16.754 144.164 17.0052C143.806 17.0426 143.444 17.0559 143.127 17.0776Z" fill="#111111"/>
<path d="M127.519 7.45502C126.357 7.45502 125.296 7.39101 124.245 7.4683C121.743 7.65187 120.777 8.97789 121.069 11.7157C121.246 13.3762 122.168 14.2687 123.839 14.4486C124.752 14.5465 125.682 14.4909 126.603 14.4933C126.915 14.4933 127.225 14.4559 127.626 14.4305C127.626 15.1213 127.649 15.7469 127.609 16.37C127.601 16.5029 127.384 16.7009 127.234 16.7323C125.311 17.1309 123.38 17.2565 121.479 16.649C118.794 15.7928 117.306 13.3883 117.534 10.3534C117.734 7.67844 119.611 5.61695 122.319 5.12422C123.916 4.83317 125.513 4.93099 127.095 5.24861C127.256 5.28122 127.489 5.49256 127.5 5.63506C127.544 6.23648 127.519 6.84515 127.519 7.45502Z" fill="#111111"/>
<path d="M132.341 5.20631C132.369 5.54688 132.388 5.76788 132.416 6.10965C133.816 5.38626 135.236 4.97082 136.823 5.15438V7.91995C136.419 7.91995 136.002 7.90062 135.586 7.92478C135.069 7.95497 134.549 7.98878 134.042 8.08177C132.796 8.31002 132.708 8.43441 132.708 9.7085V16.8301H129.38C129.364 16.6152 129.334 16.399 129.334 16.1828C129.332 12.753 129.343 9.32205 129.321 5.89227C129.318 5.36935 129.449 5.16405 129.996 5.19424C130.757 5.2353 131.521 5.20511 132.341 5.20511" fill="#111111"/>
</g>
<defs>
<clipPath id="clip0_4920_874">
<rect width="207.457" height="48" fill="white"/>
</clipPath>
</defs>
</svg>
