<svg width="logoWidth" height="logoHeight" viewBox="0 0 262 56" fill="none" xmlns="http://www.w3.org/2000/svg">
<g clip-path="url(#clip0_4920_1242)">
<path d="M15.9928 15.9663L12.0414 31.6038H11.6762L7.87386 15.9663H1.35021L0 36.395H3.37954L4.37739 19.1889H4.75058L9.24649 36.395H13.9106L18.5554 19.1889H18.927L19.659 36.395H23.5975L22.2553 15.9663H15.9928Z" fill="colorPrimary"/>
<path d="M32.4756 20.7543C30.6752 20.7758 28.8804 20.9615 27.1132 21.3089V24.1994C28.7992 23.8439 30.5161 23.6576 32.2386 23.6432C35.9801 23.6432 36.0057 24.7249 36.0057 27.1141C31.7164 27.1141 26.0897 26.9093 26.0897 31.757C26.0897 36.0162 29.4244 36.6594 33.1067 36.7174C35.4516 36.756 37.7964 36.6289 40.1236 36.337V25.8582C40.1316 21.1347 36.1034 20.722 32.4756 20.7543ZM36.0121 33.885C35.2258 34.0025 34.4318 34.0607 33.6368 34.0591C31.9279 34.0591 30.4175 33.9462 30.4175 31.9037C30.4175 29.8611 31.9279 29.7434 33.6368 29.7434C34.0725 29.7434 35.49 29.7434 36.0121 29.7741V33.885Z" fill="colorPrimary"/>
<path d="M46.3675 28.6615C46.3675 24.9537 48.2783 23.7285 52.1335 23.7285C53.0733 23.7391 54.0115 23.808 54.9428 23.9348V21.1942C53.494 20.8892 52.0167 20.7427 50.5366 20.7573C45.9254 20.7573 42.0477 23.4705 42.0477 28.46C42.0477 33.9767 45.6691 36.7221 50.7144 36.7221C52.1791 36.7428 53.6404 36.5754 55.063 36.224V33.4495C54.0955 33.6071 53.1168 33.6847 52.1367 33.6817C48.2783 33.6817 46.3675 32.3984 46.3675 28.6615Z" fill="colorPrimary"/>
<path d="M61.3826 22.4762C61.3538 22.4762 61.3826 21.0753 61.3826 21.0753H57.7324V36.3903H61.8423V25.3377C63.5404 24.4984 65.4376 24.1534 67.3201 24.3414V20.956C65.2307 20.8145 63.1509 21.347 61.3826 22.4762Z" fill="colorPrimary"/>
<path d="M75.8318 20.7222C70.7064 20.7222 67.7161 23.8464 67.7161 28.7231C67.7161 33.4756 70.6728 36.7176 75.8318 36.7176C76.8952 36.7746 77.9588 36.6078 78.9546 36.2279C79.9504 35.8479 80.8565 35.2631 81.6151 34.5108C82.3737 33.7585 82.9681 32.8552 83.3603 31.8586C83.7525 30.8621 83.934 29.7942 83.893 28.7231C83.893 23.8464 80.8787 20.7222 75.8318 20.7222ZM75.803 33.9189C72.9023 33.9189 71.9749 32.1327 71.9749 28.7795C71.9749 25.3941 72.9023 23.6207 75.803 23.6207C78.6748 23.6207 79.5989 25.3941 79.5989 28.7795C79.6005 32.1327 78.6764 33.9189 75.8046 33.9189H75.803Z" fill="colorPrimary"/>
<path d="M125.167 15.4149C125.167 15.3331 125.182 15.2521 125.213 15.1764C125.244 15.1007 125.289 15.0319 125.347 14.9739C125.404 14.916 125.472 14.87 125.547 14.8386C125.622 14.8072 125.702 14.791 125.784 14.791H138.828C138.909 14.7908 138.99 14.8068 139.065 14.8381C139.141 14.8694 139.209 14.9153 139.267 14.9733C139.324 15.0313 139.37 15.1001 139.401 15.1759C139.432 15.2517 139.448 15.3329 139.448 15.4149V17.2511C139.448 17.3331 139.432 17.4143 139.401 17.4901C139.37 17.5659 139.324 17.6348 139.267 17.6927C139.209 17.7507 139.141 17.7967 139.065 17.8279C138.99 17.8592 138.909 17.8752 138.828 17.875H128.523V24.5717H137.229C137.392 24.577 137.547 24.6444 137.662 24.7603C137.777 24.8761 137.844 25.0318 137.849 25.1956V27.035C137.849 27.2005 137.784 27.3592 137.668 27.4762C137.551 27.5932 137.394 27.6589 137.229 27.6589H128.523V34.7151H138.828C138.909 34.7151 138.99 34.7313 139.065 34.7628C139.141 34.7942 139.209 34.8403 139.267 34.8984C139.324 34.9565 139.37 35.0255 139.401 35.1014C139.432 35.1773 139.448 35.2586 139.448 35.3406V37.1446C139.448 37.2266 139.432 37.3078 139.401 37.3836C139.37 37.4594 139.324 37.5282 139.267 37.5862C139.209 37.6442 139.141 37.6901 139.065 37.7214C138.99 37.7527 138.909 37.7687 138.828 37.7685H125.784C125.702 37.7685 125.622 37.7523 125.547 37.7209C125.472 37.6895 125.404 37.6435 125.347 37.5856C125.289 37.5276 125.244 37.4588 125.213 37.3831C125.182 37.3074 125.167 37.2264 125.167 37.1446V15.4149Z" fill="colorPrimary"/>
<path d="M149.59 15.4149C149.59 15.3329 149.606 15.2517 149.637 15.1759C149.668 15.1001 149.713 15.0313 149.771 14.9733C149.829 14.9153 149.897 14.8694 149.972 14.8381C150.048 14.8068 150.128 14.7908 150.21 14.791H152.362C152.525 14.7959 152.68 14.8631 152.796 14.979C152.911 15.0949 152.979 15.2508 152.984 15.4149V34.7119H161.822C161.903 34.7119 161.984 34.7281 162.059 34.7596C162.135 34.791 162.203 34.8371 162.261 34.8952C162.318 34.9533 162.364 35.0223 162.395 35.0982C162.426 35.174 162.442 35.2553 162.442 35.3374V37.1414C162.442 37.2234 162.426 37.3046 162.395 37.3804C162.364 37.4562 162.318 37.525 162.261 37.583C162.203 37.641 162.135 37.6869 162.059 37.7182C161.984 37.7495 161.903 37.7655 161.822 37.7653H150.211C150.13 37.7655 150.049 37.7495 149.974 37.7182C149.899 37.6869 149.83 37.641 149.773 37.583C149.715 37.525 149.669 37.4562 149.638 37.3804C149.607 37.3046 149.591 37.2234 149.591 37.1414L149.59 15.4149Z" fill="colorPrimary"/>
<path d="M171.083 15.4149C171.083 15.3331 171.098 15.2521 171.129 15.1764C171.16 15.1007 171.205 15.0319 171.263 14.9739C171.32 14.916 171.388 14.87 171.463 14.8386C171.538 14.8072 171.618 14.791 171.7 14.791H184.744C184.825 14.7908 184.906 14.8068 184.981 14.8381C185.057 14.8694 185.125 14.9153 185.183 14.9733C185.24 15.0313 185.286 15.1001 185.317 15.1759C185.348 15.2517 185.364 15.3329 185.364 15.4149V17.2511C185.364 17.3331 185.348 17.4143 185.317 17.4901C185.286 17.5659 185.24 17.6348 185.183 17.6927C185.125 17.7507 185.057 17.7967 184.981 17.8279C184.906 17.8592 184.825 17.8752 184.744 17.875H174.439V24.5717H183.147C183.309 24.5778 183.463 24.6455 183.577 24.7613C183.692 24.8771 183.758 25.0323 183.764 25.1956V27.035C183.764 27.1167 183.748 27.1977 183.717 27.2733C183.686 27.3489 183.641 27.4176 183.584 27.4755C183.526 27.5334 183.458 27.5795 183.383 27.6109C183.308 27.6424 183.228 27.6587 183.147 27.6589H174.439V34.7151H184.744C184.825 34.7151 184.906 34.7313 184.981 34.7628C185.057 34.7942 185.125 34.8403 185.183 34.8984C185.24 34.9565 185.286 35.0255 185.317 35.1014C185.348 35.1773 185.364 35.2586 185.364 35.3406V37.1446C185.364 37.2266 185.348 37.3078 185.317 37.3836C185.286 37.4594 185.24 37.5282 185.183 37.5862C185.125 37.6442 185.057 37.6901 184.981 37.7214C184.906 37.7527 184.825 37.7687 184.744 37.7685H171.7C171.619 37.7683 171.538 37.752 171.463 37.7205C171.388 37.689 171.32 37.643 171.263 37.5851C171.206 37.5271 171.16 37.4584 171.13 37.3828C171.099 37.3073 171.083 37.2263 171.083 37.1446V15.4149Z" fill="colorPrimary"/>
<path d="M205.517 14.4621C208.441 14.4141 211.269 15.5079 213.409 17.5138C213.476 17.5687 213.53 17.6373 213.569 17.7152C213.607 17.793 213.629 17.8782 213.632 17.9651C213.635 18.052 213.619 18.1385 213.586 18.2189C213.554 18.2993 213.504 18.3716 213.441 18.4311L211.999 19.9078C211.772 20.2028 211.479 20.2028 211.184 19.9078C209.619 18.5309 207.621 17.753 205.543 17.7105C203.344 17.7826 201.26 18.7136 199.731 20.3062C198.202 21.8987 197.35 24.0277 197.354 26.2421C197.358 28.4565 198.219 30.5822 199.753 32.1689C201.288 33.7556 203.376 34.6787 205.575 34.7425C207.64 34.7108 209.626 33.943 211.181 32.5758C211.285 32.476 211.422 32.4177 211.566 32.4118C211.71 32.4058 211.852 32.4527 211.964 32.5435L213.463 34.0202C213.519 34.0804 213.563 34.1513 213.592 34.2286C213.62 34.3059 213.633 34.3882 213.63 34.4706C213.627 34.5531 213.608 34.6341 213.573 34.709C213.539 34.7839 213.49 34.8512 213.43 34.9069C211.31 36.9802 208.462 38.1254 205.506 38.0924C202.393 38.0924 199.407 36.8475 197.205 34.6316C195.003 32.4157 193.767 29.4102 193.767 26.2764C193.767 23.1426 195.003 20.1372 197.205 17.9213C199.407 15.7053 202.393 14.4604 205.506 14.4604L205.517 14.4621Z" fill="colorPrimary"/>
<path d="M226.454 17.8685H221.134C221.052 17.8688 220.971 17.8528 220.896 17.8215C220.821 17.7902 220.752 17.7443 220.695 17.6863C220.637 17.6283 220.592 17.5594 220.56 17.4837C220.529 17.4079 220.513 17.3266 220.514 17.2447V15.4149C220.513 15.3329 220.529 15.2517 220.56 15.1759C220.592 15.1001 220.637 15.0313 220.695 14.9733C220.752 14.9153 220.821 14.8694 220.896 14.8381C220.971 14.8068 221.052 14.7908 221.134 14.791H235.156C235.238 14.7908 235.319 14.8068 235.394 14.838C235.469 14.8693 235.538 14.9152 235.596 14.9732C235.653 15.0311 235.699 15.1 235.73 15.1758C235.762 15.2516 235.778 15.3328 235.778 15.4149V17.2511C235.777 17.4167 235.712 17.5754 235.595 17.6924C235.479 17.8093 235.321 17.875 235.156 17.875H229.847V37.1414C229.841 37.3052 229.775 37.4608 229.659 37.5767C229.544 37.6926 229.39 37.76 229.227 37.7653H227.073C226.91 37.76 226.755 37.6926 226.64 37.5767C226.525 37.4608 226.458 37.3052 226.453 37.1414L226.454 17.8685Z" fill="colorPrimary"/>
<path d="M240.214 36.9092L250.226 14.8232C250.285 14.7255 250.366 14.6426 250.462 14.5807C250.558 14.5187 250.667 14.4793 250.78 14.4653H251.1C251.213 14.4792 251.322 14.5185 251.418 14.5805C251.514 14.6425 251.595 14.7254 251.654 14.8232L261.599 36.9092C261.649 37.0009 261.673 37.1045 261.669 37.209C261.665 37.3135 261.633 37.415 261.577 37.5026C261.52 37.5902 261.441 37.6608 261.347 37.7067C261.254 37.7527 261.15 37.7723 261.047 37.7636H258.992C258.831 37.7722 258.672 37.7292 258.537 37.6409C258.402 37.5525 258.298 37.4233 258.24 37.2719L256.219 32.7741H245.555C244.905 34.2847 244.218 35.7597 243.568 37.2719C243.503 37.4182 243.398 37.5427 243.265 37.63C243.132 37.7173 242.977 37.7637 242.818 37.7636H240.765C240.662 37.7709 240.558 37.7504 240.466 37.704C240.373 37.6576 240.295 37.5871 240.239 37.4999C240.182 37.4127 240.15 37.3119 240.146 37.208C240.142 37.1041 240.165 37.0009 240.214 36.9092V36.9092ZM254.987 29.9529L250.983 20.9589H250.823L246.843 29.9529H254.987Z" fill="colorPrimary"/>
<path d="M101.518 26.0662C101.792 26.2349 102.108 26.3241 102.429 26.3242H102.549C102.923 26.2987 103.28 26.1538 103.566 25.9105C103.853 25.6672 104.055 25.3383 104.143 24.9714C104.231 24.6046 104.201 24.2191 104.056 23.8709C103.911 23.5227 103.66 23.23 103.339 23.0355C96.9659 19.1664 94.5602 13.3821 97.2126 8.31041C97.7746 7.26709 98.5385 6.34759 99.4592 5.60612C100.38 4.86465 101.439 4.31622 102.573 3.99317C105.588 3.15127 108.811 3.53936 111.543 5.07328C111.803 5.21982 112.097 5.29643 112.395 5.29576C112.669 5.29601 112.939 5.23209 113.183 5.10908C113.428 4.98607 113.641 4.80734 113.805 4.58707C113.97 4.3668 114.081 4.11103 114.13 3.84005C114.179 3.56907 114.164 3.29032 114.088 3.0259C113.956 2.57506 113.654 2.19452 113.245 1.96674C109.683 -0.0214338 105.485 -0.512223 101.564 0.601281C99.9802 1.05663 98.503 1.82768 97.2206 2.86866C95.9382 3.90965 94.8766 5.19935 94.0989 6.66122C93.2826 8.2103 92.7972 9.91409 92.6739 11.6632C92.5506 13.4123 92.7921 15.168 93.383 16.8175C94.9473 20.7565 97.8229 24.0259 101.518 26.0662V26.0662Z" fill="colorPrimary"/>
<path d="M107.726 26.3581C107.32 26.1566 106.851 26.1254 106.422 26.2713C105.994 26.4173 105.64 26.7286 105.439 27.1368C105.239 27.5459 105.209 28.0179 105.355 28.4494C105.5 28.881 105.81 29.2368 106.216 29.4389C112.726 32.6631 115.666 39.305 113.213 45.2199C112.235 47.4473 110.624 49.3333 108.582 50.6399C106.54 51.9465 104.159 52.6151 101.741 52.5614C99.9042 52.5604 98.0865 52.1905 96.3941 51.4733C95.9746 51.3035 95.5058 51.3048 95.0873 51.4769C94.6687 51.649 94.3331 51.9785 94.1518 52.3954C94.0644 52.6035 94.0188 52.8269 94.0177 53.0528C94.0166 53.2787 94.06 53.5026 94.1453 53.7116C94.2306 53.9205 94.3562 54.1104 94.5149 54.2702C94.6735 54.43 94.862 54.5566 95.0695 54.6427C97.1794 55.536 99.4451 55.9969 101.734 55.9985H101.93C104.989 56.0134 107.985 55.1264 110.55 53.4471C113.114 51.7677 115.133 49.3695 116.359 46.5482C119.537 38.9068 115.903 30.4142 107.726 26.3581Z" fill="colorPrimary"/>
</g>
<defs>
<clipPath id="clip0_4920_1242">
<rect width="261.673" height="56" fill="white"/>
</clipPath>
</defs>
</svg>
