<svg width="assetWidth" height="assetHeight" viewBox="0 0 258 64" fill="none" xmlns="http://www.w3.org/2000/svg">
<g clip-path="url(#clip0_4920_1276)">
<path d="M45.3822 27.8713C45.3822 24.2707 47.1832 23.0726 50.9558 23.0726C51.8875 23.0726 52.7249 23.1609 53.6277 23.2781V20.6062C52.2727 20.3002 50.8081 20.18 49.3938 20.18C44.8859 20.18 41.1178 22.8092 41.1178 27.6658C41.1178 33.0338 44.7793 35.7072 49.7105 35.7072C51.1354 35.7072 52.2727 35.59 54.0783 35.2185V32.5223C53.1755 32.6426 52.4569 32.7507 51.1248 32.7507C47.3537 32.7507 45.3822 31.5023 45.3822 27.8728V27.8713ZM230.167 14.4343H216.438C216.091 14.4343 215.814 14.6642 215.814 14.99V16.7697C215.814 17.0909 216.091 17.5964 216.438 17.5964H221.686V36.1152C221.686 36.4289 221.928 36.5705 222.245 36.5705H224.358C224.673 36.5705 224.848 36.4273 224.848 36.1152V17.5964H230.166C230.514 17.5964 230.72 17.0909 230.72 16.7697V14.99C230.72 14.6642 230.514 14.4343 230.166 14.4343H230.167ZM74.2186 20.1495C69.2006 20.1495 66.2715 23.1898 66.2715 27.9246C66.2715 32.6593 69.1641 35.7057 74.2186 35.7057C78.8133 35.7057 82.1124 32.5497 82.1124 27.9246C82.1124 23.2994 79.1543 20.1495 74.2186 20.1495ZM74.1942 32.979C71.3549 32.979 70.4429 31.2496 70.4429 27.9794C70.4429 24.7092 71.3549 22.9584 74.1942 22.9584C77.0335 22.9584 77.9089 24.6924 77.9089 27.9794C77.9089 31.2663 77.0061 32.979 74.1942 32.979ZM15.6567 15.3386L11.7851 30.7H11.4243L7.70198 15.3386H1.32299L0 35.217H3.30368L4.27651 18.5007H4.64494L9.04172 35.217H13.6197L18.1657 18.5007H18.5265L19.242 35.217H23.0999L21.7769 15.3386H15.6567ZM31.7229 20.18C30.1335 20.18 27.8757 20.4342 26.5192 20.7143V23.5186C27.422 23.307 29.5611 22.9919 31.5478 22.9919C35.2108 22.9919 35.2443 24.0378 35.2443 26.3595C31.0363 26.3595 25.5403 26.157 25.5403 30.8766C25.5403 35.0176 28.7511 35.6433 32.3532 35.7057C34.5699 35.7575 36.9114 35.6174 39.1691 35.3297V25.1416C39.1691 20.5423 35.2717 20.1495 31.7229 20.18ZM35.1042 32.9455C34.6521 33.0597 33.7036 33.113 32.848 33.113C31.1748 33.113 29.7407 33.0064 29.7407 31.0197C29.7407 29.0329 31.1551 28.9172 32.8297 28.9172C33.253 28.9172 34.6521 28.9172 35.1058 28.9415V32.944L35.1042 32.9455ZM256.046 35.8123L246.316 14.3384C246.223 14.142 245.923 13.9837 245.777 13.9837H245.457C245.297 13.9837 245.002 14.18 244.914 14.3764L235.115 35.7925C234.923 36.2096 235.173 36.572 235.657 36.572H237.668C238.049 36.572 238.305 36.4867 238.399 36.2599C239.036 34.7938 239.71 33.4099 240.352 32.0549H250.786L252.762 36.2599C252.89 36.5446 253.118 36.572 253.5 36.572H255.51C255.988 36.572 256.241 36.2294 256.044 35.8123H256.046ZM241.602 29.345L245.489 20.3094H245.641L249.572 29.345H241.602ZM59.9519 21.8516V20.3094H56.3376V35.2185H60.404V24.6361C61.759 23.6146 64.4689 23.6678 65.8254 23.6678V20.3794C64.4704 20.3794 62.6633 20.2652 59.9534 21.8516H59.9519ZM180.818 14.4343H168.052C167.697 14.4343 167.475 14.6642 167.475 14.99V36.1152C167.475 36.4289 167.697 36.5705 168.052 36.5705H180.818C181.169 36.5705 181.48 36.4273 181.48 36.1152V34.3538C181.48 34.031 181.169 33.8605 180.818 33.8605H170.637V27.0857H179.256C179.571 27.0857 179.673 26.6335 179.673 26.2849V24.4976C179.673 24.1763 179.569 23.9236 179.256 23.9236H170.637V17.5994H180.818C181.169 17.5994 181.48 17.094 181.48 16.7728V14.993C181.48 14.6672 181.169 14.4373 180.818 14.4373V14.4343ZM158.376 33.8605H149.856V14.99C149.856 14.6642 149.445 14.4343 149.127 14.4343H147.017C146.668 14.4343 146.242 14.6642 146.242 14.99V36.1152C146.242 36.4289 146.668 36.5705 147.017 36.5705H158.376C158.738 36.5705 158.892 36.4273 158.892 36.1152V34.3538C158.892 34.031 158.739 33.8605 158.376 33.8605ZM207.469 31.6408C207.275 31.4825 206.987 31.449 206.704 31.6743C205.175 32.8572 203.546 33.7829 201.22 33.7829C196.653 33.7829 193.174 29.9859 193.174 25.5176C193.174 21.0493 196.618 17.2143 201.183 17.2143C203.166 17.2143 205.209 18.0501 206.704 19.3578C206.987 19.6441 207.276 19.6441 207.504 19.3578L208.908 17.9176C209.164 17.6634 209.164 17.2858 208.882 17.027C206.704 15.1453 204.371 14.0598 201.154 14.0598C194.772 14.0598 189.628 19.1934 189.628 25.5831C189.628 31.9727 194.772 37.0424 201.154 37.0424C203.997 37.0424 206.743 36.0528 208.91 33.9473C209.133 33.7159 209.199 33.2988 208.946 33.0856L207.471 31.6408H207.469ZM105.436 25.6272C105.209 25.5115 104.949 25.4567 104.689 25.4567C104.063 25.4567 103.484 25.813 103.192 26.3884C102.999 26.7827 102.971 27.2395 103.113 27.6612C103.256 28.0814 103.55 28.43 103.959 28.6218C110.334 31.7687 113.207 38.2193 110.806 43.971C108.986 48.3115 104.583 51.1112 99.5777 51.1112C97.7919 51.1112 96.0259 50.755 94.3436 50.0516C93.5139 49.6984 92.4999 50.1186 92.1543 50.9483C91.9853 51.3654 91.9853 51.8146 92.1437 52.2317C92.3188 52.6397 92.6507 53.066 93.0511 53.2274C95.1444 54.1058 97.3367 54.6432 99.5777 54.6432H99.7589C106.04 54.1911 111.581 50.8676 113.89 45.3534C117 37.9209 113.441 29.5764 105.436 25.6287V25.6272ZM135.874 14.4343H123.111C122.763 14.4343 122.297 14.6642 122.297 14.99V36.1152C122.297 36.4289 122.763 36.5705 123.111 36.5705H135.874C136.226 36.5705 136.302 36.4273 136.302 36.1152V34.3538C136.302 34.031 136.226 33.8605 135.874 33.8605H125.911V27.0857H134.315C134.632 27.0857 134.947 26.6335 134.947 26.2849V24.4976C134.947 24.1763 134.632 23.9236 134.315 23.9236H125.911V17.5994H135.874C136.226 17.5994 136.302 17.094 136.302 16.7728V14.993C136.302 14.6672 136.226 14.4373 135.874 14.4373V14.4343ZM99.3631 25.3456C99.6325 25.5069 99.937 25.5968 100.255 25.5968C100.299 25.5968 100.337 25.5968 100.372 25.5952C100.936 25.5526 101.441 25.2344 101.727 24.7625C101.968 24.3651 102.041 23.9069 101.931 23.4577C101.817 23.0132 101.536 22.6311 101.146 22.3966C94.9069 18.6301 92.5547 13.0108 95.1459 8.07814C96.2025 6.0731 98.0644 4.57807 100.395 3.87927C103.187 3.04346 106.455 3.43168 109.171 4.92214C109.425 5.07134 109.711 5.14289 110.003 5.14289C110.637 5.14289 111.22 4.80035 111.523 4.25075C111.736 3.8473 111.792 3.38144 111.655 2.93993C111.529 2.49691 111.238 2.13152 110.833 1.90164C107.307 -0.027286 103.073 -0.519031 99.4042 0.578642C96.1842 1.55148 93.5824 3.63569 92.095 6.47502C90.4751 9.53968 90.2269 13.0428 91.3962 16.3434C92.6233 19.8389 95.3789 22.9538 99.36 25.3486L99.3631 25.3456Z" fill="colorPrimary"/>
<path d="M192.339 50.0241C192.339 51.5983 191.607 52.9197 190.143 53.99C188.678 55.0603 186.875 55.5947 184.73 55.5947C184.164 55.5947 183.382 55.5277 182.384 55.3952L179.99 61.6052C179.907 61.8214 179.781 62.1609 179.615 62.6283L179.464 63.0028C179.449 63.018 179.432 63.0439 179.416 63.0759C179.416 63.1931 179.524 63.1885 179.74 63.1885L181.661 63.1764C181.827 63.2129 181.911 63.2875 181.911 63.3986C181.911 63.5829 181.777 63.6681 181.512 63.6498H174.902C174.902 63.6498 174.527 63.7062 174.527 63.4245C174.527 63.2586 174.635 63.1764 174.851 63.1764H176.424C176.707 63.1764 176.923 63.0393 177.073 62.7653C177.222 62.4913 177.446 61.966 177.745 61.1865L182.884 48.0297C182.951 47.8485 183.111 47.4344 183.377 46.7569C183.276 46.7402 181.702 46.7356 181.619 46.7356C181.22 46.7356 181.069 46.7037 181.069 46.5392C181.069 46.3748 181.229 46.3154 181.562 46.3154H183.858C186.203 46.3154 187.915 46.4144 188.995 46.6138C191.224 47.0294 192.339 48.1667 192.339 50.0241ZM189.843 49.6739C189.843 48.6645 189.581 47.9338 189.057 47.4877C188.533 47.0386 187.681 46.8148 186.501 46.8148C186.335 46.8148 186.102 46.8407 185.802 46.8894L182.61 54.8974C183.458 55.0648 184.097 55.1471 184.529 55.1471C185.927 55.1471 187.16 54.5914 188.233 53.4815C189.307 52.3701 189.843 51.102 189.843 49.6754V49.6739Z" fill="colorPrimary"/>
<path d="M201.118 54.0235C201.118 54.3569 201.01 54.6431 200.794 54.8837C200.577 55.1257 200.329 55.246 200.046 55.246C199.778 55.246 199.646 55.1546 199.646 54.972L199.696 54.7238C199.728 54.6233 199.745 54.532 199.745 54.4498C199.745 54.0509 199.545 53.8499 199.145 53.8499C198.664 53.8499 197.989 54.3158 197.125 55.2475C196.26 56.1792 195.445 57.484 194.681 59.1647L192.885 63.1063C192.758 63.4032 192.661 63.5752 192.566 63.6468C192.455 63.7275 192.353 63.6894 192.353 63.6894L190.864 63.6787C190.864 63.6787 190.787 63.6818 190.724 63.6178C190.712 63.6057 190.682 63.5691 190.714 63.4778L190.837 63.2281L195.066 53.5394C195.066 53.4069 194.943 53.4267 194.728 53.4267C194.743 53.4267 194.054 53.451 194.054 53.451C193.806 53.451 193.631 53.381 193.681 53.276C193.698 53.2425 193.723 53.1542 193.863 53.1313C194.654 53.008 196.936 52.8025 196.949 52.8025C197.05 52.8025 197.099 52.8512 197.099 52.9532C197.099 53.0339 196.991 53.343 196.774 53.8758L195.852 56.1214C197.382 53.993 198.728 52.9273 199.892 52.9273C200.707 52.9273 201.113 53.2942 201.113 54.025L201.118 54.0235Z" fill="colorPrimary"/>
<path d="M206.804 53.0248C206.804 53.0766 206.763 53.174 206.679 53.3247C206.562 53.5226 206.372 53.9291 206.105 54.5442L203.236 61.0891C202.853 61.9691 202.662 62.5156 202.662 62.7318C202.662 63.1794 202.895 63.4047 203.36 63.4047C203.676 63.4047 204.038 63.2951 204.444 63.0744C204.851 62.8521 205.163 62.5872 205.379 62.2766C205.53 62.0802 205.647 61.9828 205.729 61.9828C205.828 61.9828 205.878 62.0315 205.878 62.1305C205.878 62.3269 205.647 62.6222 205.181 63.0165C204.482 63.6072 203.692 63.9026 202.811 63.9026C202.229 63.9026 201.751 63.7534 201.377 63.455C201.004 63.1551 200.816 62.776 200.816 62.3086C200.816 61.8945 201.023 61.2231 201.439 60.2944L204.033 54.5213C204.033 54.5213 204.464 53.5181 204.464 53.4678C204.464 53.3186 204.041 53.4511 203.31 53.4024C203.176 53.3689 203.111 53.3095 203.111 53.2273C203.111 53.0781 203.178 53.002 203.31 53.002C203.327 53.002 206.561 52.8284 206.628 52.8284C206.743 52.8284 206.803 52.8954 206.803 53.0263L206.804 53.0248ZM208.524 48.3616C208.524 49.0604 208.2 49.409 207.55 49.409C207.217 49.409 206.944 49.3055 206.728 49.0969C206.512 48.8914 206.404 48.6295 206.404 48.3129C206.404 47.6308 206.786 47.2898 207.55 47.2898C208.199 47.2898 208.524 47.6476 208.524 48.3631V48.3616Z" fill="colorPrimary"/>
<path d="M218.177 54.2716C218.177 55.5033 217.941 56.776 217.466 58.0884C216.992 59.4007 216.347 60.5669 215.532 61.5808C214.285 63.1276 213.005 63.8995 211.691 63.8995C210.976 63.8995 210.386 63.7046 209.919 63.3149C209.455 62.9236 209.22 62.4197 209.22 61.8061C209.22 61.0419 209.546 59.894 210.193 58.3639L211.639 54.9445C211.84 54.4802 211.939 54.1711 211.939 54.0219C211.939 53.6718 211.74 53.4982 211.341 53.4982C211.009 53.4982 210.563 53.7464 210.007 54.2412C209.45 54.736 209.047 55.2368 208.797 55.7408C208.68 55.992 208.555 56.1183 208.422 56.1183C208.273 56.1183 208.199 56.059 208.199 55.9432C208.199 55.5779 208.655 54.9628 209.572 54.0981C210.435 53.282 211.283 52.874 212.116 52.874C212.632 52.874 213.046 53.008 213.363 53.2729C213.678 53.5409 213.836 53.888 213.836 54.3188C213.836 54.7832 213.678 55.383 213.363 56.1107L211.965 59.3459C211.498 60.4238 211.266 61.3372 211.266 62.0817C211.266 62.9449 211.623 63.3773 212.34 63.3773C213.387 63.3773 214.53 62.4197 215.768 60.506C217.007 58.5938 217.626 56.8156 217.626 55.1699C217.626 54.6203 217.51 54.3462 217.278 54.3462C217.26 54.3462 217.183 54.3675 217.041 54.4086C216.901 54.4513 216.781 54.4711 216.68 54.4711C216.231 54.4711 216.006 54.264 216.006 53.8469C216.006 53.582 216.109 53.3521 216.318 53.1618C216.526 52.9715 216.771 52.874 217.053 52.874C217.802 52.874 218.175 53.3399 218.175 54.2716H218.177Z" fill="colorPrimary"/>
<path d="M231.769 53.0933C231.769 53.1436 231.729 53.2471 231.597 53.544L228.304 60.9917C227.987 61.7042 227.83 62.2492 227.83 62.6283C227.83 63.0592 228.045 63.2753 228.479 63.2753C229.128 63.2753 229.775 62.8338 230.423 61.9523C230.556 61.7697 230.656 61.6783 230.723 61.6783C230.79 61.6783 230.824 61.7118 230.824 61.7773C230.824 61.963 230.641 62.2523 230.275 62.6496C229.543 63.4322 228.669 63.8234 227.655 63.8234C227.139 63.8234 226.719 63.6986 226.396 63.4489C226.07 63.1977 225.909 62.8749 225.909 62.4761C225.909 62.2279 225.967 61.9356 226.084 61.6037C225.035 63.1322 223.822 63.898 222.441 63.898C221.576 63.898 220.871 63.6209 220.32 63.0637C219.772 62.5096 219.498 61.7986 219.498 60.9354C219.498 59.9915 219.813 58.9532 220.447 57.8266C221.077 56.6984 221.917 55.6677 222.965 54.7391C224.396 53.4785 225.71 52.8467 226.906 52.8467C228.103 52.8467 228.854 53.4465 229.003 54.6416L229.627 53.3217C229.759 53.0553 229.875 52.9213 229.974 52.9213C230.008 52.9213 231.57 52.9167 231.617 52.9167C231.717 52.9167 231.767 52.9761 231.767 53.0903L231.769 53.0933ZM228.654 55.0862C228.654 54.5731 228.5 54.159 228.193 53.8454C227.885 53.5303 227.489 53.3734 227.008 53.3734C226.177 53.3734 225.378 53.8621 224.614 54.838C223.732 55.9479 223.026 57.1186 222.493 58.3503C221.961 59.5834 221.695 60.6613 221.695 61.59C221.695 62.7136 222.161 63.2769 223.091 63.2769C223.624 63.2769 224.201 62.9861 224.824 62.4076C225.449 61.829 225.969 61.1013 226.383 60.2229L228.328 56.0544C228.544 55.5916 228.653 55.2673 228.653 55.0862H228.654Z" fill="colorPrimary"/>
<path d="M248.123 46.1327C248.105 46.1829 247.945 46.5285 247.835 46.763L242.149 60.5379C241.715 61.5823 241.5 62.2309 241.5 62.479C241.5 62.9449 241.765 63.1778 242.298 63.1778C243.096 63.1778 243.776 62.7424 244.343 61.8746C244.525 61.5975 244.65 61.4575 244.717 61.4575C244.833 61.4575 244.892 61.5229 244.892 61.6569C244.892 61.9386 244.609 62.3375 244.043 62.8536C243.346 63.4854 242.505 63.802 241.523 63.802C240.276 63.802 239.654 63.2707 239.654 62.205V61.4818C239.043 62.3542 238.455 62.9753 237.895 63.3453C237.333 63.7152 236.673 63.8995 235.915 63.8995C234.99 63.8995 234.234 63.6056 233.648 63.0165C233.061 62.4273 232.769 61.66 232.769 60.7145C232.769 58.7567 233.701 56.9085 235.564 55.1653C237.244 53.5896 238.848 52.8009 240.378 52.8009C241.442 52.8009 242.15 53.3079 242.499 54.3218L242.648 54.0219L242.823 53.6459L245.667 46.7691C245.813 46.4539 245.721 46.355 245.629 46.3306C245.538 46.3047 245.226 46.2758 244.694 46.2408C244.378 46.2271 244.221 46.1784 244.221 46.0946C244.221 46.0109 244.312 45.9683 244.495 45.9683H244.795C245.011 45.9683 247.94 45.985 247.975 45.985C248.076 45.985 248.126 46.0352 248.126 46.1342L248.123 46.1327ZM242.173 54.8182C242.173 54.436 241.998 54.095 241.65 53.7966C241.299 53.4997 240.91 53.349 240.477 53.349C239.246 53.349 237.991 54.3797 236.711 56.435C235.497 58.3761 234.89 60.0188 234.89 61.3616C234.89 62.5719 235.44 63.1778 236.537 63.1778C237.501 63.1778 238.449 62.5049 239.381 61.1621C240.046 60.2167 240.619 59.1129 241.103 57.8524L241.677 56.3847C242.01 55.5398 242.176 55.0146 242.176 54.8166L242.173 54.8182Z" fill="colorPrimary"/>
<path d="M257.139 56.8903C257.139 58.836 256.248 60.5898 254.47 62.1549C253.072 63.3865 251.617 64.0001 250.104 64.0001C249.073 64.0001 248.225 63.6438 247.56 62.9268C246.894 62.2112 246.562 61.2901 246.562 60.1575C246.562 59.1938 246.836 58.2042 247.386 57.1887C247.934 56.1748 248.665 55.31 249.581 54.5945C251.011 53.4816 252.39 52.9229 253.721 52.9229C254.735 52.9229 255.557 53.2898 256.19 54.0205C256.822 54.7528 257.139 55.7089 257.139 56.8888V56.8903ZM255.217 55.2704C255.217 54.0068 254.653 53.375 253.521 53.375C252.141 53.375 250.944 54.3646 249.93 56.3422C248.965 58.2407 248.485 60.0204 248.485 61.6814C248.485 62.9283 249.041 63.5525 250.155 63.5525C251.551 63.5525 252.715 62.6542 253.646 60.8593C254.694 58.8314 255.217 56.968 255.217 55.272V55.2704Z" fill="colorPrimary"/>
<path d="M192.339 50.0241C192.339 51.5983 191.607 52.9197 190.143 53.99C188.678 55.0603 186.875 55.5947 184.73 55.5947C184.164 55.5947 183.382 55.5277 182.384 55.3952L179.99 61.6052C179.907 61.8214 179.781 62.1609 179.615 62.6283L179.464 63.0028C179.449 63.018 179.432 63.0439 179.416 63.0759C179.416 63.1931 179.524 63.1885 179.74 63.1885L181.661 63.1764C181.827 63.2129 181.911 63.2875 181.911 63.3986C181.911 63.5829 181.777 63.6681 181.512 63.6498H174.902C174.902 63.6498 174.527 63.7062 174.527 63.4245C174.527 63.2586 174.635 63.1764 174.851 63.1764H176.424C176.707 63.1764 176.923 63.0393 177.073 62.7653C177.222 62.4913 177.446 61.966 177.745 61.1865L182.884 48.0297C182.951 47.8485 183.111 47.4344 183.377 46.7569C183.276 46.7402 181.702 46.7356 181.619 46.7356C181.22 46.7356 181.069 46.7037 181.069 46.5392C181.069 46.3748 181.229 46.3154 181.562 46.3154H183.858C186.203 46.3154 187.915 46.4144 188.995 46.6138C191.224 47.0294 192.339 48.1667 192.339 50.0241ZM189.843 49.6739C189.843 48.6645 189.581 47.9338 189.057 47.4877C188.533 47.0386 187.681 46.8148 186.501 46.8148C186.335 46.8148 186.102 46.8407 185.802 46.8894L182.61 54.8974C183.458 55.0648 184.097 55.1471 184.529 55.1471C185.927 55.1471 187.16 54.5914 188.233 53.4815C189.307 52.3701 189.843 51.102 189.843 49.6754V49.6739Z" fill="colorPrimary"/>
<path d="M201.118 54.0235C201.118 54.3569 201.01 54.6431 200.794 54.8837C200.577 55.1257 200.329 55.246 200.046 55.246C199.778 55.246 199.646 55.1546 199.646 54.972L199.696 54.7238C199.728 54.6233 199.745 54.532 199.745 54.4498C199.745 54.0509 199.545 53.8499 199.145 53.8499C198.664 53.8499 197.989 54.3158 197.125 55.2475C196.26 56.1792 195.445 57.484 194.681 59.1647L192.885 63.1063C192.758 63.4032 192.661 63.5752 192.566 63.6468C192.455 63.7275 192.353 63.6894 192.353 63.6894L190.864 63.6787C190.864 63.6787 190.787 63.6818 190.724 63.6178C190.712 63.6057 190.682 63.5691 190.714 63.4778L190.837 63.2281L195.066 53.5394C195.066 53.4069 194.943 53.4267 194.728 53.4267C194.743 53.4267 194.054 53.451 194.054 53.451C193.806 53.451 193.631 53.381 193.681 53.276C193.698 53.2425 193.723 53.1542 193.863 53.1313C194.654 53.008 196.936 52.8025 196.949 52.8025C197.05 52.8025 197.099 52.8512 197.099 52.9532C197.099 53.0339 196.991 53.343 196.774 53.8758L195.852 56.1214C197.382 53.993 198.728 52.9273 199.892 52.9273C200.707 52.9273 201.113 53.2942 201.113 54.025L201.118 54.0235Z" fill="colorPrimary"/>
<path d="M206.804 53.0248C206.804 53.0766 206.763 53.174 206.679 53.3247C206.562 53.5226 206.372 53.9291 206.105 54.5442L203.236 61.0891C202.853 61.9691 202.662 62.5156 202.662 62.7318C202.662 63.1794 202.895 63.4047 203.36 63.4047C203.676 63.4047 204.038 63.2951 204.444 63.0744C204.851 62.8521 205.163 62.5872 205.379 62.2766C205.53 62.0802 205.647 61.9828 205.729 61.9828C205.828 61.9828 205.878 62.0315 205.878 62.1305C205.878 62.3269 205.647 62.6222 205.181 63.0165C204.482 63.6072 203.692 63.9026 202.811 63.9026C202.229 63.9026 201.751 63.7534 201.377 63.455C201.004 63.1551 200.816 62.776 200.816 62.3086C200.816 61.8945 201.023 61.2231 201.439 60.2944L204.033 54.5213C204.033 54.5213 204.464 53.5181 204.464 53.4678C204.464 53.3186 204.041 53.4511 203.31 53.4024C203.176 53.3689 203.111 53.3095 203.111 53.2273C203.111 53.0781 203.178 53.002 203.31 53.002C203.327 53.002 206.561 52.8284 206.628 52.8284C206.743 52.8284 206.803 52.8954 206.803 53.0263L206.804 53.0248ZM208.524 48.3616C208.524 49.0604 208.2 49.409 207.55 49.409C207.217 49.409 206.944 49.3055 206.728 49.0969C206.512 48.8914 206.404 48.6295 206.404 48.3129C206.404 47.6308 206.786 47.2898 207.55 47.2898C208.199 47.2898 208.524 47.6476 208.524 48.3631V48.3616Z" fill="colorPrimary"/>
<path d="M218.177 54.2716C218.177 55.5033 217.941 56.776 217.466 58.0884C216.992 59.4007 216.347 60.5669 215.532 61.5808C214.285 63.1276 213.005 63.8995 211.691 63.8995C210.976 63.8995 210.386 63.7046 209.919 63.3149C209.455 62.9236 209.22 62.4197 209.22 61.8061C209.22 61.0419 209.546 59.894 210.193 58.3639L211.639 54.9445C211.84 54.4802 211.939 54.1711 211.939 54.0219C211.939 53.6718 211.74 53.4982 211.341 53.4982C211.009 53.4982 210.563 53.7464 210.007 54.2412C209.45 54.736 209.047 55.2368 208.797 55.7408C208.68 55.992 208.555 56.1183 208.422 56.1183C208.273 56.1183 208.199 56.059 208.199 55.9432C208.199 55.5779 208.655 54.9628 209.572 54.0981C210.435 53.282 211.283 52.874 212.116 52.874C212.632 52.874 213.046 53.008 213.363 53.2729C213.678 53.5409 213.836 53.888 213.836 54.3188C213.836 54.7832 213.678 55.383 213.363 56.1107L211.965 59.3459C211.498 60.4238 211.266 61.3372 211.266 62.0817C211.266 62.9449 211.623 63.3773 212.34 63.3773C213.387 63.3773 214.53 62.4197 215.768 60.506C217.007 58.5938 217.626 56.8156 217.626 55.1699C217.626 54.6203 217.51 54.3462 217.278 54.3462C217.26 54.3462 217.183 54.3675 217.041 54.4086C216.901 54.4513 216.781 54.4711 216.68 54.4711C216.231 54.4711 216.006 54.264 216.006 53.8469C216.006 53.582 216.109 53.3521 216.318 53.1618C216.526 52.9715 216.771 52.874 217.053 52.874C217.802 52.874 218.175 53.3399 218.175 54.2716H218.177Z" fill="colorPrimary"/>
<path d="M231.769 53.0933C231.769 53.1436 231.729 53.2471 231.597 53.544L228.304 60.9917C227.987 61.7042 227.83 62.2492 227.83 62.6283C227.83 63.0592 228.045 63.2753 228.479 63.2753C229.128 63.2753 229.775 62.8338 230.423 61.9523C230.556 61.7697 230.656 61.6783 230.723 61.6783C230.79 61.6783 230.824 61.7118 230.824 61.7773C230.824 61.963 230.641 62.2523 230.275 62.6496C229.543 63.4322 228.669 63.8234 227.655 63.8234C227.139 63.8234 226.719 63.6986 226.396 63.4489C226.07 63.1977 225.909 62.8749 225.909 62.4761C225.909 62.2279 225.967 61.9356 226.084 61.6037C225.035 63.1322 223.822 63.898 222.441 63.898C221.576 63.898 220.871 63.6209 220.32 63.0637C219.772 62.5096 219.498 61.7986 219.498 60.9354C219.498 59.9915 219.813 58.9532 220.447 57.8266C221.077 56.6984 221.917 55.6677 222.965 54.7391C224.396 53.4785 225.71 52.8467 226.906 52.8467C228.103 52.8467 228.854 53.4465 229.003 54.6416L229.627 53.3217C229.759 53.0553 229.875 52.9213 229.974 52.9213C230.008 52.9213 231.57 52.9167 231.617 52.9167C231.717 52.9167 231.767 52.9761 231.767 53.0903L231.769 53.0933ZM228.654 55.0862C228.654 54.5731 228.5 54.159 228.193 53.8454C227.885 53.5303 227.489 53.3734 227.008 53.3734C226.177 53.3734 225.378 53.8621 224.614 54.838C223.732 55.9479 223.026 57.1186 222.493 58.3503C221.961 59.5834 221.695 60.6613 221.695 61.59C221.695 62.7136 222.161 63.2769 223.091 63.2769C223.624 63.2769 224.201 62.9861 224.824 62.4076C225.449 61.829 225.969 61.1013 226.383 60.2229L228.328 56.0544C228.544 55.5916 228.653 55.2673 228.653 55.0862H228.654Z" fill="colorPrimary"/>
<path d="M248.123 46.1327C248.105 46.1829 247.945 46.5285 247.835 46.763L242.149 60.5379C241.715 61.5823 241.5 62.2309 241.5 62.479C241.5 62.9449 241.765 63.1778 242.298 63.1778C243.096 63.1778 243.776 62.7424 244.343 61.8746C244.525 61.5975 244.65 61.4575 244.717 61.4575C244.833 61.4575 244.892 61.5229 244.892 61.6569C244.892 61.9386 244.609 62.3375 244.043 62.8536C243.346 63.4854 242.505 63.802 241.523 63.802C240.276 63.802 239.654 63.2707 239.654 62.205V61.4818C239.043 62.3542 238.455 62.9753 237.895 63.3453C237.333 63.7152 236.673 63.8995 235.915 63.8995C234.99 63.8995 234.234 63.6056 233.648 63.0165C233.061 62.4273 232.769 61.66 232.769 60.7145C232.769 58.7567 233.701 56.9085 235.564 55.1653C237.244 53.5896 238.848 52.8009 240.378 52.8009C241.442 52.8009 242.15 53.3079 242.499 54.3218L242.648 54.0219L242.823 53.6459L245.667 46.7691C245.813 46.4539 245.721 46.355 245.629 46.3306C245.538 46.3047 245.226 46.2758 244.694 46.2408C244.378 46.2271 244.221 46.1784 244.221 46.0946C244.221 46.0109 244.312 45.9683 244.495 45.9683H244.795C245.011 45.9683 247.94 45.985 247.975 45.985C248.076 45.985 248.126 46.0352 248.126 46.1342L248.123 46.1327ZM242.173 54.8182C242.173 54.436 241.998 54.095 241.65 53.7966C241.299 53.4997 240.91 53.349 240.477 53.349C239.246 53.349 237.991 54.3797 236.711 56.435C235.497 58.3761 234.89 60.0188 234.89 61.3616C234.89 62.5719 235.44 63.1778 236.537 63.1778C237.501 63.1778 238.449 62.5049 239.381 61.1621C240.046 60.2167 240.619 59.1129 241.103 57.8524L241.677 56.3847C242.01 55.5398 242.176 55.0146 242.176 54.8166L242.173 54.8182Z" fill="colorPrimary"/>
<path d="M257.139 56.8903C257.139 58.836 256.248 60.5898 254.47 62.1549C253.072 63.3865 251.617 64.0001 250.104 64.0001C249.073 64.0001 248.225 63.6438 247.56 62.9268C246.894 62.2112 246.562 61.2901 246.562 60.1575C246.562 59.1938 246.836 58.2042 247.386 57.1887C247.934 56.1748 248.665 55.31 249.581 54.5945C251.011 53.4816 252.39 52.9229 253.721 52.9229C254.735 52.9229 255.557 53.2898 256.19 54.0205C256.822 54.7528 257.139 55.7089 257.139 56.8888V56.8903ZM255.217 55.2704C255.217 54.0068 254.653 53.375 253.521 53.375C252.141 53.375 250.944 54.3646 249.93 56.3422C248.965 58.2407 248.485 60.0204 248.485 61.6814C248.485 62.9283 249.041 63.5525 250.155 63.5525C251.551 63.5525 252.715 62.6542 253.646 60.8593C254.694 58.8314 255.217 56.968 255.217 55.272V55.2704Z" fill="colorPrimary"/>
</g>
<defs>
<clipPath id="clip0_4920_1276">
<rect width="257.139" height="64" fill="white"/>
</clipPath>
</defs>
</svg>
