<svg width="assetWidth" height="assetHeight" viewBox="0 0 109 96" fill="none" xmlns="http://www.w3.org/2000/svg">
<g clip-path="url(#clip0_4920_799)">
<path d="M9.18833 43.1504C10.9221 43.1504 12.6577 43.2034 14.388 43.1351C16.168 43.065 16.8256 43.8525 16.9657 45.6119C18.2844 62.1591 29.842 75.6777 45.9297 79.5877C68.8177 85.1513 90.8737 69.5094 93.1268 46.1193C93.3916 43.3708 93.6376 43.1504 96.48 43.1487C99.6811 43.1453 102.882 43.2017 106.082 43.1282C107.997 43.0838 108.723 43.8798 108.598 45.7742C107.626 60.5398 101.632 72.8899 90.5389 82.6283C60.0854 109.365 12.0615 93.9655 2.82876 54.5286C2.1489 51.6264 1.95588 48.6081 1.55445 45.6427C1.32897 43.9652 2.05666 43.1197 3.78534 43.1436C5.58577 43.1675 7.3862 43.1487 9.18662 43.1487L9.18833 43.1504Z" fill="colorPrimary"/>
<path d="M52.421 23.8823C52.4005 23.4262 52.3766 22.9701 52.3134 22.5208C50.4754 9.16967 39.0715 -0.293676 25.1054 0.00696431C12.2206 0.290523 1.20447 10.7344 0.0275342 23.7832C-0.039085 24.5228 -0.0442096 25.6007 0.686894 26.407C1.41116 27.2081 2.45999 27.3089 3.18597 27.3174C4.18355 27.3277 5.18113 27.3294 6.17871 27.3294C6.86711 27.3294 7.5555 27.3294 8.2439 27.326L10.1947 27.3226C13.0883 27.3226 13.7374 26.7845 14.2772 23.9386C15.0664 19.7792 17.8507 16.3628 21.7232 14.8016C25.5854 13.2437 29.9447 13.7715 33.3867 16.2091C36.0924 18.1257 37.7357 20.7546 38.2687 24.0223C38.6957 26.6376 39.5003 27.3157 42.1787 27.3208H44.8691L46.5756 27.3191C47.5322 27.3174 48.4887 27.3157 49.447 27.3226C50.39 27.3226 51.1586 27.0492 51.7018 26.4804C52.0742 26.0909 52.503 25.3821 52.4398 24.2102L52.4227 23.8806L52.421 23.8823Z" fill="colorPrimary"/>
<path d="M86.4957 29.1092C80.1532 29.1314 75.0115 24.1196 74.9227 17.8301C74.8356 11.5474 80.0353 6.36134 86.4359 6.34768C92.8023 6.33572 97.9627 11.368 97.9986 17.6217C98.0345 23.9744 92.915 29.0853 86.4957 29.1092Z" fill="colorPrimary"/>
</g>
<defs>
<clipPath id="clip0_4920_799">
<rect width="108.613" height="96" fill="white"/>
</clipPath>
</defs>
</svg>
