<svg width="432" height="432" viewBox="0 0 432 432" fill="none" xmlns="http://www.w3.org/2000/svg">
<path d="M173.042 170.395C168.841 164.473 162.905 159.76 156.096 157.216C145.111 153.119 132.152 154.782 122.559 161.521C142.095 150.821 145.254 120.793 131.052 103.633C116.844 86.4858 90.5243 82.6085 69.9013 91.0363C50.7606 98.8622 35.5491 116.993 33.6654 137.584C31.7818 158.174 44.8832 179.878 64.7423 185.626C55.6662 182.999 41.8205 186.386 30.4533 193.002C20.0288 199.069 11.6886 207.854 11.0229 217.208C10.5698 223.623 14.0005 229.818 18.6999 234.213C23.2245 238.446 29.0696 241.281 34.2156 244.369C25.006 250.599 17.9613 254.087 10 260.598" stroke="#00CE7C" stroke-width="3" stroke-miterlimit="10"/>
<path d="M342.174 299.065C324.658 247.171 303.724 215.881 271.359 203.86" stroke="#FEFEFE" stroke-width="3" stroke-linecap="round" stroke-linejoin="round"/>
<path d="M226.11 149.363C226.11 149.363 232.382 167.947 234.201 170.828C236.02 173.715 221.883 169.352 221.883 169.352" stroke="#FEFEFE" stroke-width="3" stroke-linecap="round" stroke-linejoin="round"/>
<path d="M236 151.895C236.66 154.503 238.751 156.387 241.191 156.335C243.373 156.283 245.204 154.697 245.955 152.477" stroke="#FEFEFE" stroke-width="3" stroke-linecap="round" stroke-linejoin="round"/>
<path d="M206.715 150.801C207.375 153.409 209.466 155.293 211.906 155.241C214.087 155.189 215.919 153.604 216.67 151.383" stroke="#FEFEFE" stroke-width="3" stroke-linecap="round" stroke-linejoin="round"/>
<path d="M183.661 158.114C183.661 158.114 183.661 158.16 183.661 158.179L181.356 158.567C181.343 158.496 181.337 158.431 181.324 158.36C182.094 158.257 182.865 158.134 183.635 157.991C183.641 158.03 183.648 158.075 183.654 158.114H183.661Z" fill="#00A6E8"/>
<path d="M213.248 115.484C213.74 115.393 214.226 115.309 214.724 115.238C214.918 115.212 215.113 115.193 215.313 115.167C215.533 115.141 215.754 115.115 215.98 115.089C216.459 115.037 216.932 114.998 217.404 114.966C217.624 114.953 217.838 114.934 218.058 114.921C218.776 114.888 219.495 114.869 220.207 114.882C235.969 115.076 249.776 125.821 253.504 141.091C253.433 141.091 253.362 141.098 253.284 141.104C252.637 141.117 251.989 141.104 251.342 141.085C251.523 141.784 251.692 142.489 251.828 143.201C251.918 143.693 252.002 144.185 252.074 144.684C252.074 144.703 252.086 144.716 252.086 144.735L249.549 145.163C242.778 144.619 236.053 142.211 230.208 137.822C224.22 133.33 219.974 127.381 217.585 120.85C217.547 121.562 217.501 122.274 217.424 122.986C216.368 132.741 211.572 141.551 203.921 147.797C198.956 151.849 193.26 154.406 187.389 155.532C187.285 155.008 187.195 154.477 187.117 153.947C187.098 153.791 187.085 153.636 187.065 153.481C186.975 152.775 186.91 152.069 186.864 151.37C186.178 151.506 185.486 151.623 184.793 151.713C183.615 134.366 195.823 118.708 213.261 115.478L213.248 115.484Z" fill="#FEFEFE" stroke="#FEFEFE" stroke-width="3" stroke-linecap="round" stroke-linejoin="round"/>
<path d="M185.555 141.499C185.555 141.499 181.471 174.706 187.407 188.15C180.176 188.435 163.605 180.027 163.605 180.027C177.335 166.259 185.555 141.499 185.555 141.499Z" fill="#FEFEFE" stroke="#FEFEFE" stroke-width="3" stroke-linecap="round" stroke-linejoin="round"/>
<path d="M253.414 140.554C253.414 140.554 262.198 166.685 259.544 184.829C259.544 184.829 278.199 175.683 276.354 171.631C261.44 159.092 253.42 140.554 253.42 140.554H253.414Z" fill="#FEFEFE" stroke="#FEFEFE" stroke-width="3" stroke-linecap="round" stroke-linejoin="round"/>
<path d="M307.69 249.626C283.869 267.314 254.508 277.941 222.677 278.308C192.721 278.661 164.738 269.887 141.352 254.579L103.5 309.924C137.699 332.579 178.749 345.573 222.718 345.06C268.867 344.52 311.443 329.165 346.017 303.576L307.696 249.626H307.69Z" fill="#FF8CC5" stroke="#FF8CC5" stroke-width="3" stroke-linejoin="round"/>
<path d="M287.905 221.959L272.571 200.611C270.791 198.138 267.386 197.523 264.835 199.193C252.478 207.298 237.759 212.081 221.919 212.269C207.892 212.431 194.668 208.974 183.114 202.76C180.557 201.381 177.372 202.126 175.722 204.521L160.575 226.496L142.437 252.809C165.507 267.969 193.114 276.656 222.67 276.306C254.077 275.937 283.044 265.419 306.541 247.903L287.905 221.965V221.959Z" fill="#FF8CC5" stroke="#FF8CC5" stroke-width="3" stroke-linecap="round" stroke-linejoin="round"/>
<path d="M283.145 99.8756C305.373 80.3206 342.858 81.6088 363.701 102.64C384.538 123.67 385.476 161.168 365.721 183.215C378.22 181.002 392.875 179.597 401.898 188.523C409.75 196.291 409.899 209.412 405.232 219.425C400.565 229.439 392.085 237.058 383.826 244.392C392.2 237.363 405.232 233.327 421.499 239.658" stroke="#00CE7C" stroke-width="3" stroke-miterlimit="10"/>
<path d="M221.616 208.579C223.163 204.721 234.853 201.783 239.216 205.686C243.631 209.634 247.333 227.04 245.748 231.144C244.783 233.643 224.16 236.161 223.383 234.691C220.451 229.176 218.962 215.201 221.616 208.579Z" fill="#FEFEFE" stroke="#FEFEFE" stroke-width="3" stroke-linecap="round" stroke-linejoin="round"/>
<path d="M221.403 267.923L227.009 262.045L223.895 233.849L217.481 239.849L221.403 267.923Z" fill="#444748" stroke="#444748" stroke-width="3" stroke-linecap="round" stroke-linejoin="round"/>
<path d="M228.01 261.062L256.589 257.36L252.731 229.811L224.153 233.513L228.01 261.062Z" fill="#A9ACAC" stroke="#A9ACAC" stroke-width="3" stroke-linecap="round" stroke-linejoin="round"/>
<path d="M221.403 267.925L251.275 263.503L256.59 257.361L227.507 261.756L221.403 267.925Z" fill="#444748" stroke="#444748" stroke-width="3" stroke-linecap="round" stroke-linejoin="round"/>
<path d="M242.896 262.796C242.896 262.796 241.666 262.447 239.297 262.777C237.083 263.081 236.145 263.825 236.145 263.825L243.55 313.143C243.854 315.26 245.615 316.749 247.479 316.464C249.343 316.179 250.605 314.237 250.301 312.114L242.896 262.796Z" fill="#FEFEFE" stroke="#FEFEFE" stroke-width="3" stroke-linecap="round" stroke-linejoin="round"/>
<path d="M244.785 235.927L245.387 240.807L238.48 241.662L238.493 242.749C239.16 242.419 239.872 242.205 240.622 242.115C242.513 241.882 243.943 242.095 244.914 242.749C245.885 243.403 246.493 244.704 246.733 246.639C247.199 250.381 245.393 252.504 241.328 253.009C240.564 253.106 239.632 253.138 238.538 253.119C237.444 253.1 236.544 253.048 235.845 252.97L234.764 252.854L234.687 248.821C236.926 248.873 238.778 248.808 240.241 248.627C241.069 248.523 241.457 248.251 241.406 247.798C241.354 247.345 240.933 247.177 240.15 247.274C239.626 247.339 239.082 247.481 238.519 247.701L238.234 247.811H234.564L233.606 237.305L244.785 235.92V235.927Z" fill="#053575"/>
<path d="M201.636 284.229C201.636 284.229 169.213 288.999 152.894 277.219C138.071 266.519 136.421 254.938 136.421 254.938L113.254 288.876C113.254 288.876 127.799 314.542 152.532 318.898C177.265 323.255 193.746 322.426 199.552 319.643C205.358 316.859 206.2 282.688 206.2 282.688L201.636 284.222V284.229Z" fill="#053575"/>
<path d="M198.268 319.521C182.856 324.479 160.557 324.227 135.804 312.252C124.01 306.549 112.533 295.901 110.481 276.566C105.743 231.915 159.715 200.683 169.353 206.903" stroke="#FEFEFE" stroke-width="3" stroke-linecap="square" stroke-linejoin="round"/>
<path d="M203.221 283.045C214.491 280.566 227.223 276.889 233.101 272.119C239.412 266.985 246.021 261.975 251.147 265.794C257.581 268.798 260.397 276.378 259.523 283.026C258.844 288.236 257.141 296.451 252.565 299.816C249.594 301.998 245.639 300.852 242.26 301.247C238.667 301.668 236.415 303.526 233.211 305.131C224.835 309.319 219.138 313.947 195.078 320.42" fill="#053575"/>
<path d="M203.221 283.045C214.491 280.566 227.223 276.889 233.101 272.119C239.412 266.985 246.021 261.975 251.147 265.794C257.581 268.798 260.397 276.378 259.523 283.026C258.844 288.236 257.141 296.451 252.565 299.816C249.594 301.998 245.639 300.852 242.26 301.247C238.667 301.668 236.415 303.526 233.211 305.131C224.835 309.319 219.138 313.947 195.078 320.42" stroke="#FEFEFE" stroke-width="3" stroke-linecap="round" stroke-linejoin="round"/>
<path d="M137.906 256.428C142.263 276.902 171.08 288.288 203.219 283.045" stroke="#FEFEFE" stroke-width="3" stroke-linecap="round" stroke-linejoin="round"/>
<path d="M245.465 281.919C245.465 281.919 254.313 284.676 256.236 293.447" stroke="#FEFEFE" stroke-width="3" stroke-linecap="round" stroke-linejoin="round"/>
<path d="M249.965 272.488C249.965 272.488 255.48 273.984 259.59 281.188" stroke="#FEFEFE" stroke-width="3" stroke-linecap="round" stroke-linejoin="round"/>
<path d="M243.097 176.784C243.097 176.784 237.446 185.69 226.895 184.758C216.344 183.826 209.645 172.278 209.645 172.278" stroke="#FEFEFE" stroke-width="3" stroke-linecap="round" stroke-linejoin="round"/>
</svg>
