<svg width="432" height="432" viewBox="0 0 432 432" fill="none" xmlns="http://www.w3.org/2000/svg">
<path d="M168.484 64.0243C163.938 64.2999 160.022 60.8411 159.747 56.2947L157.579 12.7671C157.499 11.4401 158.507 10.3017 159.834 10.2147L163.263 10.0044C164.59 9.92466 165.729 10.9325 165.816 12.2595L168.491 64.0243H168.484Z" fill="#00CE7C"/>
<path d="M131.309 77.5109C141.968 53.9234 142.018 39.0952 145.956 35.4407C149.886 31.7789 153.997 37.79 152.307 44.6784C151.372 52.3862 150.553 54.0757 150.553 54.0757" fill="#EFF1F1"/>
<path d="M193.617 223.054C159.718 219.356 126.284 198.734 119.577 159.55C114.704 131.097 120.896 105.429 132.882 74.0826C133.013 73.7853 133.143 73.4879 133.267 73.1979L144.527 57.0645L149.922 90.6293L152.431 177.938L193.617 223.054Z" fill="#EFF1F1"/>
<path d="M149.798 34.7379C149.798 34.7379 151.575 29.6767 153.924 30.6049C156.274 31.533 157.419 33.0122 158.253 39.8209C158.384 40.9085 157.513 49.0514 157.513 49.0514C157.513 49.0514 157.941 52.2926 161.545 59.9641C165.149 67.6429 168.709 63.0313 168.955 61.6899C169.209 60.3484 169.601 54.5984 169.601 54.5984C169.601 54.5984 170.754 51.1107 174.647 51.8866C178.534 52.6552 179.962 59.5219 178.628 65.6707C176.322 76.2716 169.035 86.7348 164.518 96.5019C156.375 114.093 149.69 143.38 161.98 160.238C168.658 169.396 179.411 175.842 190.745 175.966L155.396 208.385C155.396 208.385 139.618 69.3905 143.867 53.6123C148.116 37.8341 149.813 34.7525 149.813 34.7525L149.798 34.7379Z" fill="#EFF1F1"/>
<path d="M131.309 77.5129C141.968 53.9254 142.018 39.0971 145.956 35.4426C149.886 31.7809 153.997 37.792 152.307 44.6804C151.372 52.3882 150.553 54.0777 150.553 54.0777" stroke="#053575" stroke-width="3" stroke-linecap="round" stroke-linejoin="round"/>
<path d="M133.266 73.1963C133.143 73.4863 133.012 73.7764 132.881 74.0809C120.903 105.427 114.703 131.095 119.576 159.548C126.283 198.733 159.717 219.354 193.616 223.053" stroke="#053575" stroke-width="3" stroke-linecap="round" stroke-linejoin="round"/>
<path d="M190.735 175.958C179.402 175.835 168.649 169.389 161.971 160.231C149.68 143.38 156.373 114.086 164.509 96.4946C169.026 86.7276 176.313 76.2716 178.619 65.6634C179.96 59.5146 178.532 52.6479 174.638 51.8793C170.752 51.1107 169.591 54.5912 169.591 54.5912C169.591 54.5912 169.193 60.3412 168.946 61.6827C168.692 63.0241 165.139 67.6357 161.536 59.9569C157.932 52.2781 157.504 49.0441 157.504 49.0441C157.504 49.0441 158.374 40.894 158.244 39.8136C157.41 33.0122 156.264 31.533 153.915 30.5976C151.566 29.6622 149.789 34.7307 149.789 34.7307" stroke="#053575" stroke-width="3" stroke-linecap="round" stroke-linejoin="round"/>
<path d="M318.604 77.5109C307.945 53.9234 307.894 39.0952 303.957 35.4407C300.027 31.7789 295.915 37.79 297.605 44.6784C298.54 52.3862 299.36 54.0757 299.36 54.0757" fill="#EFF1F1"/>
<path d="M315.617 71.4721C315.617 71.4721 296.206 133.715 294.386 144.642C292.566 155.569 276.788 176.807 268.891 176.807C260.995 176.807 253.113 178.627 253.113 178.627L283.538 216.05C283.538 216.05 346.557 142.148 315.617 71.4648V71.4721Z" fill="#EFF1F1"/>
<path d="M256.296 223.053C290.195 219.354 323.629 198.733 330.336 159.548C335.209 131.095 329.017 105.427 317.031 74.0809C316.9 73.7836 316.77 73.4863 316.646 73.1963C316.646 73.1963 283.756 218.912 256.289 223.053H256.296Z" fill="#EFF1F1"/>
<path d="M300.114 34.7379C300.114 34.7379 298.337 29.6767 295.988 30.6049C293.639 31.533 290.89 33.005 291.659 39.8209" fill="#EFF1F1"/>
<path d="M259.177 175.959C270.51 175.836 281.263 169.39 287.942 160.232C300.232 143.381 293.539 114.087 285.404 96.4957C280.886 86.7286 273.599 76.2727 271.293 65.6645C269.952 59.5157 271.38 52.649 275.274 51.8804C279.161 51.1118 280.321 54.5923 280.321 54.5923C280.321 54.5923 280.72 60.3423 280.966 61.6838C281.22 63.0252 284.773 67.6368 288.377 59.958C291.98 52.2792 287.746 48.4797 287.746 48.4797L284.193 51.0393C284.193 51.0393 280.85 53.1276 279.132 52.8013C278.218 52.6345 277.362 52.1197 276.652 51.1408C274.607 48.2984 279.32 41.3882 283.932 39.0824C288.543 36.7766 294.526 41.5695 294.526 41.5695C294.526 41.5695 316.249 127.037 312.609 145.853C308.969 164.67 274.977 198.053 274.977 198.053L258.031 175.503L259.191 175.952L259.177 175.959Z" fill="#EFF1F1"/>
<path d="M292.562 37.821L299.653 33.9707L321.348 84.4956L309.261 104.327L300.458 103.37L287.102 77.2736L292.562 37.821Z" fill="#EFF1F1"/>
<path d="M318.6 77.5109C307.941 53.9234 307.89 39.0952 303.953 35.4407C300.023 31.7789 295.911 37.79 297.601 44.6784C298.536 52.3863 299.356 54.0757 299.356 54.0757" stroke="#053575" stroke-width="3" stroke-linecap="round" stroke-linejoin="round"/>
<path d="M316.643 73.1973C316.766 73.4873 316.897 73.7774 317.027 74.0819C329.006 105.428 335.206 131.096 330.333 159.549C323.626 198.734 290.191 219.355 256.293 223.053" stroke="#053575" stroke-width="3" stroke-linecap="round" stroke-linejoin="round"/>
<path d="M300.114 34.7379C300.114 34.7379 298.337 29.6767 295.988 30.6049C293.639 31.533 290.89 33.005 291.659 39.8209" stroke="#053575" stroke-width="3" stroke-linecap="round" stroke-linejoin="round"/>
<path d="M294.505 41.5753C294.505 41.5753 288.523 36.7824 283.911 39.0882C279.3 41.3941 274.586 48.297 276.631 51.1466C277.334 52.1328 278.197 52.6403 279.111 52.8071C280.837 53.1262 284.172 51.0451 284.172 51.0451L287.725 48.4855C287.725 48.4855 291.967 52.285 288.356 59.9638C284.752 67.6426 281.192 63.031 280.946 61.6896C280.692 60.3481 280.3 54.5981 280.3 54.5981C280.3 54.5981 279.147 51.1104 275.253 51.8863C271.367 52.6549 269.938 59.5216 271.273 65.6704C273.578 76.2714 280.866 86.7345 285.383 96.5016C293.526 114.092 300.211 143.379 287.921 160.238C281.243 169.396 270.49 175.842 259.156 175.965" stroke="#053575" stroke-width="3" stroke-linecap="round" stroke-linejoin="round"/>
<path d="M216.239 193.201C234.592 193.201 249.47 175.742 249.47 154.205C249.47 132.668 234.592 115.209 216.239 115.209C197.886 115.209 183.008 132.668 183.008 154.205C183.008 175.742 197.886 193.201 216.239 193.201Z" fill="#EFF1F1"/>
<path d="M210.039 133.126C210.039 133.126 207.233 148.346 206.138 150.804C205.043 153.262 215.594 148.266 215.594 148.266" stroke="#053575" stroke-width="3" stroke-linecap="round" stroke-linejoin="round"/>
<path d="M199.285 153.727C199.285 153.727 204.702 160.042 212.837 158.128C220.973 156.214 224.903 146.439 224.903 146.439" stroke="#053575" stroke-width="3" stroke-linecap="round" stroke-linejoin="round"/>
<path d="M202.602 136.215C202.385 138.325 200.956 140.036 199.049 140.268C197.338 140.478 195.728 139.442 194.895 137.788" stroke="#053575" stroke-width="3" stroke-linecap="round" stroke-linejoin="round"/>
<path d="M225.348 132.067C225.131 134.177 223.702 135.889 221.795 136.121C220.084 136.331 218.474 135.294 217.641 133.641" stroke="#053575" stroke-width="3" stroke-linecap="round" stroke-linejoin="round"/>
<path d="M244.179 135.18C244.179 135.18 244.179 135.216 244.179 135.23L246.021 135.274C246.021 135.216 246.021 135.165 246.021 135.107C245.405 135.107 244.788 135.107 244.172 135.078C244.172 135.114 244.172 135.143 244.172 135.18H244.179Z" fill="#00A6E8"/>
<path d="M216.27 105.217C215.878 105.203 215.487 105.188 215.088 105.188C214.928 105.188 214.776 105.196 214.624 105.203C214.45 105.203 214.269 105.21 214.095 105.217C213.717 105.232 213.34 105.254 212.971 105.283C212.797 105.297 212.63 105.304 212.456 105.319C211.89 105.37 211.332 105.442 210.774 105.529C198.483 107.458 188.912 117.399 187.723 129.748C187.781 129.748 187.839 129.74 187.897 129.733C188.404 129.675 188.912 129.588 189.412 129.501C189.347 130.067 189.296 130.639 189.274 131.212C189.26 131.604 189.245 132.003 189.245 132.394C189.245 132.409 189.245 132.423 189.245 132.438L191.276 132.488C196.504 131.299 201.485 128.667 205.553 124.578C209.722 120.394 212.369 115.267 213.5 109.902C213.609 110.453 213.725 111.004 213.87 111.548C215.791 119.045 220.533 125.39 227.212 129.4C231.548 132.003 236.283 133.359 240.996 133.576C241.017 133.156 241.025 132.728 241.025 132.307C241.025 132.184 241.017 132.061 241.017 131.937C241.01 131.379 240.981 130.821 240.938 130.27C241.489 130.299 242.047 130.313 242.598 130.306C241.569 116.623 230.271 105.776 216.284 105.21L216.27 105.217Z" fill="#053575" stroke="#053575" stroke-width="3" stroke-linecap="round" stroke-linejoin="round"/>
<path d="M240.828 122.416C240.828 122.416 247.76 147.889 244.635 159.055C250.312 158.461 262.313 150.035 262.313 150.035C250.037 140.826 240.835 122.416 240.835 122.416H240.828Z" fill="#053575" stroke="#053575" stroke-width="3" stroke-linecap="round" stroke-linejoin="round"/>
<path d="M187.73 129.319C187.73 129.319 183.814 150.717 187.933 164.588C187.933 164.588 172.336 159.549 173.322 156.17C183.553 144.699 187.737 129.319 187.737 129.319H187.73Z" fill="#053575" stroke="#053575" stroke-width="3" stroke-linecap="round" stroke-linejoin="round"/>
<path d="M144.858 314.894C140.725 341.613 130.936 371.052 124.599 388.375C121.082 397.975 113.94 405.814 104.716 410.222L86.0378 419.148C85.0299 419.627 85.3997 421.142 86.5164 421.106L151.804 420.424L159.679 403.051L162.137 420.773L168.453 420.279C169.475 416.625 196.876 325.415 196.876 325.415" fill="#EFF1F1"/>
<path fill-rule="evenodd" clip-rule="evenodd" d="M145.081 313.464C145.871 313.586 146.413 314.325 146.29 315.115C142.135 341.981 132.305 371.528 125.96 388.873C122.313 398.829 114.906 406.957 105.343 411.528L88.3695 419.64L150.869 418.987L158.363 402.454C158.629 401.867 159.251 401.527 159.889 401.619C160.526 401.711 161.026 402.214 161.115 402.853L163.386 419.224L167.344 418.915C168.823 413.886 175.302 392.268 181.664 371.061C185.153 359.431 188.61 347.916 191.195 339.307C192.487 335.003 193.562 331.426 194.313 328.925L195.491 325.003L195.492 325C195.492 324.999 195.493 324.999 196.879 325.415C198.265 325.832 198.265 325.832 198.265 325.833L197.085 329.758C196.334 332.259 195.26 335.836 193.967 340.14C191.383 348.748 187.925 360.263 184.436 371.893C177.454 395.167 170.355 418.86 169.849 420.67C169.685 421.255 169.173 421.675 168.567 421.723L162.252 422.216C161.488 422.275 160.811 421.73 160.705 420.972L158.935 408.204L153.125 421.022C152.892 421.535 152.384 421.866 151.822 421.872L86.5469 422.554C83.8926 422.623 82.9851 418.998 85.4187 417.841C85.4185 417.841 85.4189 417.841 85.4187 417.841L104.094 408.917C112.977 404.671 119.855 397.122 123.242 387.878C129.571 370.577 139.319 341.247 143.43 314.673C143.552 313.883 144.291 313.341 145.081 313.464ZM196.879 325.415L198.265 325.832C198.495 325.066 198.061 324.259 197.295 324.029C196.53 323.799 195.722 324.233 195.493 324.999L196.879 325.415Z" fill="#053575"/>
<path d="M289.19 314.894C293.324 341.613 303.112 371.052 309.45 388.375C312.966 397.975 320.109 405.814 329.332 410.222L348.011 419.148C349.018 419.627 348.649 421.142 347.532 421.106L282.244 420.424L274.369 403.051L271.911 420.773L265.596 420.279C264.573 416.625 237.172 325.415 237.172 325.415" fill="#EFF1F1"/>
<path d="M289.19 314.894C293.324 341.613 303.112 371.052 309.45 388.375C312.966 397.975 320.109 405.814 329.332 410.222L348.011 419.148C349.018 419.627 348.649 421.142 347.532 421.106L282.244 420.424L274.369 403.051L271.911 420.773L265.596 420.279C264.573 416.625 237.172 325.415 237.172 325.415" stroke="#053575" stroke-width="3" stroke-linecap="round" stroke-linejoin="round"/>
<path d="M160.512 203.163L180.38 175.102C180.38 175.102 182.555 171.477 184.73 171.477C186.906 171.477 187.631 172.202 189.081 172.927C190.531 173.652 205.033 182.491 220.26 182.056C235.487 181.621 243.463 178.728 249.989 175.102C256.515 171.477 258.009 175.508 258.009 175.508L338.451 288.943C338.451 288.943 341.352 292.568 340.627 295.468C339.902 298.369 337.726 299.094 337.726 299.094C337.726 299.094 288.42 333.87 220.26 333.87C152.101 333.87 102.069 296.919 102.069 296.919C102.069 296.919 96.9934 293.293 101.344 287.492C105.695 281.692 160.512 203.163 160.512 203.163Z" fill="#00CE7C"/>
</svg>
