<svg width="432" height="432" viewBox="0 0 432 432" fill="none" xmlns="http://www.w3.org/2000/svg">
<path d="M137.035 83.4141H90.8023C85.3509 83.4141 80.9316 87.8333 80.9316 93.2847V411.872C80.9316 417.324 85.3509 421.743 90.8023 421.743H137.035C142.487 421.743 146.906 417.324 146.906 411.872V93.2847C146.906 87.8333 142.487 83.4141 137.035 83.4141Z" fill="#00A6E8"/>
<path d="M239.994 252.826H193.761C188.31 252.826 183.891 257.245 183.891 262.697V411.89C183.891 417.341 188.31 421.761 193.761 421.761H239.994C245.446 421.761 249.865 417.341 249.865 411.89V262.697C249.865 257.245 245.446 252.826 239.994 252.826Z" fill="#00A6E8"/>
<path d="M345.846 181.957H299.613C294.161 181.957 289.742 186.377 289.742 191.828V411.873C289.742 417.324 294.161 421.744 299.613 421.744H345.846C351.297 421.744 355.716 417.324 355.716 411.873V191.828C355.716 186.377 351.297 181.957 345.846 181.957Z" fill="#00A6E8"/>
<path d="M424 421.743H10.0234" stroke="#053575" stroke-width="4" stroke-miterlimit="10"/>
</svg>
