<svg width="432" height="432" viewBox="0 0 432 432" fill="none" xmlns="http://www.w3.org/2000/svg">
<path d="M358.969 69.0112C320.837 69.0112 289.904 91.865 289.904 120.011C289.904 128.005 292.36 135.529 296.77 142.262L287.516 162.983L311.326 156.91C323.728 165.663 340.472 171.033 358.969 171.033C397.102 171.033 428 148.179 428 120C428 91.8203 397.102 69 358.969 69V69.0112ZM326.943 127.178C323.002 127.178 319.776 123.963 319.776 120.011C319.776 116.059 322.991 112.843 326.943 112.843C330.895 112.843 334.109 116.059 334.109 120.011C334.109 123.963 330.928 127.178 326.943 127.178ZM358.969 127.178C354.995 127.178 351.803 123.963 351.803 120.011C351.803 116.059 354.984 112.843 358.969 112.843C362.954 112.843 366.136 116.059 366.136 120.011C366.136 123.963 362.921 127.178 358.969 127.178ZM390.962 127.178C387.021 127.178 383.795 123.963 383.795 120.011C383.795 116.059 387.01 112.843 390.962 112.843C394.914 112.843 398.129 116.059 398.129 120.011C398.129 123.963 394.914 127.178 390.962 127.178Z" fill="#FF8CC5"/>
<path d="M117.109 136.032C126.52 144.327 136.7 156.329 141.947 162.782C143.722 164.96 142.784 168.231 140.138 169.157L123.852 174.829C123.852 174.829 134.233 196.421 130.315 214.854" stroke="#F8FAFA" stroke-width="3" stroke-linecap="round" stroke-linejoin="round"/>
<path d="M105.655 161.689C105.109 158.92 106.761 155.481 109.306 155.571C111.806 155.66 113.224 158.741 114.095 161.343C113.961 160.606 113.816 159.858 113.682 159.121" stroke="#F8FAFA" stroke-width="3" stroke-linecap="round" stroke-linejoin="round"/>
<path d="M31.7147 106.871C10.0922 122.636 4.49965 157.48 17.9397 182.009C20.3509 186.396 22.5835 190.449 26.044 194.267C28.5221 197.003 32.7975 197.103 35.4543 194.546L57.166 173.702" fill="#F8FAFA"/>
<path d="M31.7147 106.871C10.0922 122.636 4.49965 157.48 17.9397 182.009C20.3509 186.396 22.5835 190.449 26.044 194.267C28.5221 197.003 32.7975 197.103 35.4543 194.546L57.166 173.702" stroke="#F8FAFA" stroke-width="9.54599" stroke-linecap="round" stroke-linejoin="round"/>
<path d="M51.0904 177.253C54.8188 158.586 51.95 144.53 68.6943 159.858L68.3817 132.07C70.6142 132.662 72.8915 133.131 75.191 133.432C76.5082 133.611 77.8701 133.733 79.1427 133.354C80.4152 132.985 81.5539 131.992 81.6543 130.764C81.766 129.335 80.5157 128.174 79.366 127.225C78.0376 126.13 76.7092 125.025 75.3808 123.931C75.8608 123.708 76.2961 123.484 76.7203 123.261C81.4311 125.885 86.3874 128.185 91.1986 130.351C94.793 131.969 98.7112 133.443 102.685 132.941C104.192 132.751 105.911 132.014 106.101 130.619C106.302 129.201 104.828 128.107 103.522 127.347C98.8563 124.601 94.2014 121.854 89.5353 119.108C98.1977 123.741 99.3698 124.366 109.349 125.17C113.725 125.528 119.284 124.757 120.557 120.872C121.74 117.243 118.19 113.883 114.842 111.717C94.2461 98.4089 65.5798 93.3067 42.1824 101.714C38.0522 103.198 34.2791 105.175 30.8633 107.564" fill="#F8FAFA"/>
<path d="M51.0904 177.253C54.8188 158.586 51.95 144.53 68.6943 159.858L68.3817 132.07C70.6142 132.662 72.8915 133.131 75.191 133.432C76.5082 133.611 77.8701 133.733 79.1427 133.354C80.4153 132.985 81.5539 131.992 81.6543 130.764C81.766 129.335 80.5157 128.174 79.366 127.225C78.0376 126.13 76.7092 125.025 75.3808 123.931C75.8608 123.708 76.2961 123.484 76.7203 123.261C81.4311 125.885 86.3874 128.185 91.1986 130.351C94.793 131.969 98.7112 133.443 102.685 132.941C104.192 132.751 105.911 132.014 106.101 130.619C106.302 129.201 104.828 128.107 103.522 127.347C98.8563 124.601 94.2014 121.854 89.5353 119.108C98.1977 123.741 99.3698 124.366 109.349 125.17C113.725 125.528 119.284 124.757 120.557 120.872C121.74 117.243 118.19 113.883 114.842 111.717C94.2461 98.4089 65.5798 93.3067 42.1824 101.714C38.0522 103.198 34.2791 105.175 30.8633 107.564" stroke="#F8FAFA" stroke-width="9.54599" stroke-linecap="round" stroke-linejoin="round"/>
<path d="M63.8826 172.183C63.8826 172.183 58.77 162.861 56.3477 161.019" stroke="#F8FAFA" stroke-width="8.45972" stroke-linecap="round" stroke-linejoin="round"/>
<path d="M51.5352 169.906C51.5352 169.906 56.4468 166.088 58.6906 166.277" stroke="#F8FAFA" stroke-width="8.45972" stroke-linecap="round" stroke-linejoin="round"/>
<path d="M124.846 191.565C124.846 191.565 108.403 189.979 99.5508 181.684L124.846 191.565Z" fill="#DBDBDB"/>
<path d="M124.846 191.565C124.846 191.565 108.403 189.979 99.5508 181.684" stroke="#F8FAFA" stroke-width="3" stroke-linecap="round" stroke-linejoin="round"/>
<path d="M173.68 360.407C173.68 360.407 205.137 364.739 227.842 363.756C250.547 362.774 276.088 346.005 283.98 331.446C291.883 316.887 301.115 295.608 299.396 255.873C297.677 216.139 269.725 216.083 269.725 216.083" stroke="#F8FAFA" stroke-width="3" stroke-linecap="round" stroke-linejoin="round"/>
<path d="M291.086 250.056C290.695 248.884 286.23 229.669 272.645 228.698" stroke="#F8FAFA" stroke-width="3" stroke-linecap="round" stroke-linejoin="round"/>
<path d="M287.398 270.667C287.398 270.667 289.374 250.682 277.664 242.655" stroke="#F8FAFA" stroke-width="3" stroke-linecap="round" stroke-linejoin="round"/>
<path d="M88.3359 251.373C88.3359 251.373 101.073 282.366 112.425 273.848C123.789 265.329 129.471 239.762 135.153 234.08C140.835 228.397 152.199 225.561 160.716 234.08C169.233 242.598 163.551 268.165 163.551 268.165C163.551 268.165 163.551 271.347 157.869 271.001C148.414 270.442 149.352 251.117 149.352 251.117C149.352 251.117 149.352 259.635 143.67 259.635" stroke="#F8FAFA" stroke-width="3" stroke-linecap="round" stroke-linejoin="round"/>
<path d="M161.027 233.566C165.314 232.45 169.143 232.595 174.914 236.916C186.278 245.434 180.596 268.165 180.596 273.848C180.596 279.531 165.794 284.198 161.999 271.414" stroke="#F8FAFA" stroke-width="3" stroke-linecap="round" stroke-linejoin="round"/>
<path d="M172.691 234.526C172.691 234.526 194.816 242.587 194.816 248.27C194.816 253.953 191.981 259.635 183.452 256.788" stroke="#F8FAFA" stroke-width="3" stroke-linecap="round" stroke-linejoin="round"/>
<path d="M183.445 236.916C183.445 236.916 191.963 225.55 203.326 225.55C214.69 225.55 220.372 231.233 217.526 236.916C214.69 242.599 203.326 236.916 194.798 251.117" stroke="#F8FAFA" stroke-width="3" stroke-linecap="round" stroke-linejoin="round"/>
<path d="M196.694 249.219C196.694 249.219 197.81 274.942 184.393 298.432C170.975 321.923 137.43 358.821 93.8171 352.112C50.2037 345.402 36.786 311.852 36.786 311.852L15.1523 267.864" stroke="#F8FAFA" stroke-width="3" stroke-linecap="round" stroke-linejoin="round"/>
<path d="M193.762 293.308C203.272 296.3 220.017 308.324 230.164 305.231C245.758 300.486 245.457 268.489 245.223 256.052C245.479 250.458 244.943 232.427 255.615 234.861C258.975 235.632 261.141 238.445 260.929 241.906C260.583 247.578 259.366 267.428 259.366 267.428" stroke="#F8FAFA" stroke-width="3" stroke-linecap="round" stroke-linejoin="round"/>
<path d="M261.469 268.589C268.747 269.036 274.998 263.498 275.445 256.219L278.916 186.619C279.05 184.498 277.432 182.678 275.311 182.544L269.819 182.209C267.698 182.075 265.878 183.694 265.744 185.816L261.469 268.589Z" fill="#203AE9" stroke="#203AE9" stroke-width="5.01987" stroke-miterlimit="10"/>
</svg>
