<svg width="432" height="432" viewBox="0 0 432 432" fill="none" xmlns="http://www.w3.org/2000/svg">
<path d="M158.596 421.906L296.54 421.679C319.512 423.693 339.214 416.037 359.502 404.396C376.736 394.502 399.488 382.932 412.579 370.646C417.009 366.488 420.241 361.026 420.902 354.985C421.928 345.607 417.997 337.986 406.319 336.449C395.349 335.003 384.474 336.736 373.626 338.66C364.885 340.212 356.603 343.802 347.889 345.5C346.703 345.731 345.457 345.932 344.136 346.1C349.311 342.06 353.133 339.078 356.956 336.09C358.17 335.033 358.17 335.033 358.657 334.547L360.607 332.604C362.557 330.174 361.582 331.341 363.692 329.009C371.574 320.296 378.376 311.499 383.728 300.868C392.897 282.653 385.297 269.243 365.451 268.884C350.466 268.615 337.447 275.416 324.798 282.94C310.144 291.653 296.794 302.338 283.405 312.945C282.079 313.997 280.549 314.774 279.119 315.682C274.324 320.971 269.11 325.746 262.67 330.019C262.211 325.621 268.976 309.866 269.959 306.854C271.207 297.926 272.14 299.821 274.332 288.877C277.964 276.275 278.843 271.969 280.839 259.974C282.719 248.672 285.963 235.882 279.434 226.467C275.308 220.509 268.492 216.947 261.328 218.19C250.143 220.132 242.244 227.357 235.019 235.658C226.276 245.697 219.338 257.004 212.82 268.604C206.744 281.464 200.547 294.27 194.775 307.519C194.477 295.059 192.185 283.113 190.03 271.143L189.981 270.874C189.71 270.008 189.434 269.141 189.158 268.275C189.158 268.275 189.091 268.137 189.097 268.137C188.904 267.689 188.705 267.247 188.506 266.799C186.921 263.566 185.567 260.177 183.7 257.13C176.868 245.978 167.986 244.389 156.956 251.942C151.294 255.815 147.511 261.307 143.766 266.894C137.988 280.998 134.989 295.585 135.42 310.752C136.519 349.441 143.512 386.683 158.596 421.936V421.906Z" fill="#00CE7C"/>
<path d="M103.93 325.203C100.203 349.31 91.3675 375.867 85.6503 391.495C82.4806 400.155 76.0309 407.227 67.708 411.207L50.8546 419.258C49.9472 419.692 50.2777 421.06 51.2889 421.027L113.471 420.418L120.576 404.744L122.799 420.736L128.497 420.288C129.417 416.995 156.882 326.668 155.786 334.699" stroke="#FEFEFE" stroke-width="3" stroke-linecap="round" stroke-linejoin="round"/>
<path d="M267.959 301.104C282.472 342.427 302.774 379.958 312.167 396.383C315.395 402.029 320.256 406.567 326.116 409.406L346.489 419.258C347.397 419.693 347.066 421.06 346.055 421.028L284.235 420.049L277.131 404.739L274.545 420.73L269.217 420.283L223.777 331.044" stroke="#FEFEFE" stroke-width="3" stroke-linecap="round" stroke-linejoin="round"/>
<path d="M74.7288 44.1865C74.3334 45.2496 91.1651 59.0704 91.1651 59.0704L76.9176 72.3067L65.7188 53.3457L74.9946 44.219" fill="#FEFEFE"/>
<path d="M74.7288 44.1865C74.3334 45.2496 91.1651 59.0704 91.1651 59.0704L76.9176 72.3067L65.7188 53.3457L74.9946 44.219" stroke="#FEFEFE" stroke-width="3" stroke-linecap="round" stroke-linejoin="round"/>
<path d="M71.1168 64.4877L52.2734 65.9786L52.4809 67.1648L76.5887 72.1884L71.1881 62.2773" fill="#FEFEFE"/>
<path d="M71.1168 64.4877L52.2734 65.9786L52.4809 67.1648L76.5887 72.1884L71.1881 62.2773" stroke="#FEFEFE" stroke-width="3" stroke-linecap="round" stroke-linejoin="round"/>
<path d="M83.3125 60.5929C88.8937 60.5929 93.4181 56.0685 93.4181 50.4874C93.4181 44.9062 88.8937 40.3818 83.3125 40.3818C77.7314 40.3818 73.207 44.9062 73.207 50.4874C73.207 56.0685 77.7314 60.5929 83.3125 60.5929Z" stroke="#FEFEFE" stroke-width="3" stroke-linecap="round" stroke-linejoin="round"/>
<path d="M130.422 10.4541C104.565 12.9692 90.4598 8.2243 85.7084 10.7847C80.9636 13.3386 85.3454 19.1854 92.4368 19.8012C100.06 21.4023 101.94 21.169 101.94 21.169" stroke="#FEFEFE" stroke-width="3" stroke-linecap="round" stroke-linejoin="round"/>
<path d="M125.691 10.9207C126.009 10.8948 126.327 10.8688 126.657 10.8429C160.319 9.57888 186.713 11.9837 212.181 25.8035C262.521 53.1189 258.736 120.409 230.506 155.438L213.16 175.481" stroke="#FEFEFE" stroke-width="3" stroke-linecap="round" stroke-linejoin="round"/>
<path d="M83.8046 14.2197C83.8046 14.2197 78.418 14.2716 78.5411 16.8061C78.6643 19.3341 79.1764 22.426 85.8983 23.8974" stroke="#FEFEFE" stroke-width="3" stroke-linecap="round" stroke-linejoin="round"/>
<path d="M88.4912 21.752C88.4912 21.752 82.0091 25.8875 82.7091 31.0148C83.4092 36.1421 88.4523 42.8511 91.8164 41.8269C92.9767 41.4704 93.7416 40.8221 94.1954 40.0119C95.0575 38.4756 94.1565 34.6318 94.1565 34.6318L92.873 30.4249C92.873 30.4249 97.8577 27.6247 103.99 33.5298C110.122 39.435 104.593 41.3278 103.231 41.1333C101.877 40.9388 96.2826 39.4609 96.2826 39.4609C96.2826 39.4609 92.5943 39.435 92.0757 43.3761C91.5507 47.3236 97.6179 50.8953 103.893 51.6083C114.718 52.8399 127.008 49.2942 137.748 48.1533C157.091 46.0985 187.09 49.2035 199.14 66.3226C205.687 75.6243 208.338 87.9272 204.792 98.7328" stroke="#FEFEFE" stroke-width="3" stroke-linecap="round" stroke-linejoin="round"/>
<path d="M44.6763 112.242C45.0198 111.626 45.4477 111.075 45.9208 110.556C45.9662 110.504 46.0376 110.478 46.0764 110.42C46.5302 109.824 47.0422 109.266 47.4701 108.657C48.0599 107.808 48.6563 106.952 49.285 106.155C49.8749 105.416 50.4194 104.632 51.0482 103.919C51.5473 103.348 51.9038 102.648 52.3511 102.032C52.8178 101.384 53.3882 100.807 53.7966 100.127C54.542 98.895 55.5143 97.8384 56.3764 96.6976C57.2385 95.5502 58.1265 94.4029 59.41 93.6769C60.9592 92.8019 62.5084 92.6787 64.129 93.4695C64.654 93.7288 65.192 93.9427 65.6522 94.3187C66.4365 94.9604 67.0913 95.6993 67.3894 96.6911C67.8237 98.1625 67.8691 99.608 67.1301 101.047C66.5921 102.104 65.7365 102.791 64.829 103.471C62.9557 104.884 60.9333 106.084 59.0211 107.432C57.6274 108.411 56.2532 109.422 54.879 110.42C53.6863 111.282 52.4353 112.06 51.1843 112.844C49.8166 113.694 48.4813 114.607 47.1784 115.56C46.1672 116.306 45.1949 117.116 44.0994 117.738C43.7947 117.913 43.5808 118.186 43.3086 118.393" fill="#FF8CC5"/>
<path d="M44.6763 112.242C45.0198 111.626 45.4477 111.075 45.9208 110.556C45.9662 110.504 46.0376 110.478 46.0764 110.42C46.5302 109.824 47.0422 109.266 47.4701 108.657C48.0599 107.808 48.6563 106.952 49.285 106.155C49.8749 105.416 50.4194 104.632 51.0482 103.919C51.5473 103.348 51.9038 102.648 52.3511 102.032C52.8178 101.384 53.3882 100.807 53.7966 100.127C54.542 98.895 55.5143 97.8384 56.3764 96.6976C57.2385 95.5502 58.1265 94.4029 59.41 93.6769C60.9592 92.8019 62.5084 92.6787 64.129 93.4695C64.654 93.7288 65.192 93.9427 65.6522 94.3187C66.4365 94.9604 67.0913 95.6993 67.3894 96.6911C67.8237 98.1625 67.8691 99.608 67.1301 101.047C66.5921 102.104 65.7365 102.791 64.829 103.471C62.9557 104.884 60.9333 106.084 59.0211 107.432C57.6274 108.411 56.2532 109.422 54.879 110.42C53.6863 111.282 52.4353 112.06 51.1843 112.844C49.8166 113.694 48.4813 114.607 47.1784 115.56C46.1672 116.306 45.1949 117.116 44.0994 117.738C43.7947 117.913 43.5808 118.186 43.3086 118.393" stroke="#FF8CC5" stroke-width="3" stroke-linecap="round" stroke-linejoin="round"/>
<path d="M50.5266 88.9325C50.1442 88.6797 50.3062 88.2259 50.1507 87.8824C49.658 86.7999 49.0876 85.8341 48.057 85.1534C46.3003 83.9867 44.4399 84.0904 42.5602 84.6479C41.8536 84.8553 41.2119 85.3544 40.6998 85.9054C40.4016 86.223 40.1812 86.6638 40.0192 87.0657C39.5201 88.2778 39.3062 89.5548 39.2349 90.8706C39.1117 93.0356 39.2543 95.1877 39.2608 97.3462C39.2608 99.1093 39.1441 100.872 39.1441 102.636C39.1441 104.82 38.9756 107.011 39.1117 109.189C39.2219 110.952 39.196 112.715 39.2089 114.478C39.2089 114.686 39.2413 114.906 39.1182 115.094" fill="#FF8CC5"/>
<path d="M50.5266 88.9325C50.1442 88.6797 50.3062 88.2259 50.1507 87.8824C49.658 86.7999 49.0876 85.8341 48.057 85.1534C46.3003 83.9867 44.4399 84.0904 42.5602 84.6479C41.8536 84.8553 41.2119 85.3544 40.6998 85.9054C40.4016 86.223 40.1812 86.6638 40.0192 87.0657C39.5201 88.2778 39.3062 89.5548 39.2349 90.8706C39.1117 93.0356 39.2543 95.1877 39.2608 97.3462C39.2608 99.1093 39.1441 100.872 39.1441 102.636C39.1441 104.82 38.9756 107.011 39.1117 109.189C39.2219 110.952 39.196 112.715 39.2089 114.478C39.2089 114.686 39.2413 114.906 39.1182 115.094" stroke="#FF8CC5" stroke-width="3" stroke-linecap="round" stroke-linejoin="round"/>
<path d="M67.0049 101.527C67.6207 101.735 68.2624 101.845 68.8782 102.052C70.0191 102.441 70.8617 103.252 71.6979 104.036C72.022 104.341 72.1776 104.859 72.3461 105.313C72.6313 106.091 73.0527 106.843 72.9619 107.711C72.8841 108.444 72.7869 109.15 72.411 109.844C71.7368 111.075 70.9655 112.041 69.8894 112.631C69.2672 112.975 68.5736 113.124 67.9059 113.312C65.6891 113.934 63.4398 114.44 61.197 114.958C59.1616 115.425 57.0615 115.606 55.065 116.216C52.5499 116.981 49.983 117.499 47.4421 118.147C46.379 118.42 45.303 118.672 44.3047 119.139" fill="#FF8CC5"/>
<path d="M67.0049 101.527C67.6207 101.735 68.2624 101.845 68.8782 102.052C70.0191 102.441 70.8617 103.252 71.6979 104.036C72.022 104.341 72.1776 104.859 72.3461 105.313C72.6313 106.091 73.0527 106.843 72.9619 107.711C72.8841 108.444 72.7869 109.15 72.411 109.844C71.7368 111.075 70.9655 112.041 69.8894 112.631C69.2672 112.975 68.5736 113.124 67.9059 113.312C65.6891 113.934 63.4398 114.44 61.197 114.958C59.1616 115.425 57.0615 115.606 55.065 116.216C52.5499 116.981 49.983 117.499 47.4421 118.147C46.379 118.42 45.303 118.672 44.3047 119.139" stroke="#FF8CC5" stroke-width="3" stroke-linecap="round" stroke-linejoin="round"/>
<path d="M36.8501 114.783C37.2844 114.134 37.3946 113.48 37.1094 112.708C36.8242 111.937 36.6556 111.12 36.4806 110.316C35.9037 107.6 35.3398 104.884 34.7823 102.168C34.4582 100.58 34.16 98.9858 33.8295 97.3977C33.7517 97.0153 33.7582 96.5809 33.4341 96.2828C33.4341 96.2828 32.2284 90.2998 33.2979 87.182C33.4535 87.1107 33.4989 86.9616 33.5702 86.8255C33.8165 86.3328 34.1924 85.9374 34.6397 85.6392C36.0852 84.6605 37.6668 84.2262 39.3846 84.6021C39.968 84.7318 40.6097 84.8355 40.9791 85.4189" fill="#FF8CC5"/>
<path d="M36.8501 114.783C37.2844 114.134 37.3946 113.48 37.1094 112.708C36.8242 111.937 36.6556 111.12 36.4806 110.316C35.9037 107.6 35.3398 104.884 34.7823 102.168C34.4582 100.58 34.16 98.9858 33.8295 97.3977C33.7517 97.0153 33.7582 96.5809 33.4341 96.2828C33.4341 96.2828 32.2284 90.2998 33.2979 87.182C33.4535 87.1107 33.4989 86.9616 33.5702 86.8255C33.8165 86.3328 34.1924 85.9374 34.6397 85.6392C36.0852 84.6605 37.6668 84.2262 39.3846 84.6021C39.968 84.7318 40.6097 84.8355 40.9791 85.4189" stroke="#FF8CC5" stroke-width="3" stroke-linecap="round" stroke-linejoin="round"/>
<path d="M37.375 113.992C38.0945 114.239 38.639 114.79 39.2159 115.237C39.8317 115.717 40.4086 116.274 41.0374 116.754C41.4328 117.052 41.8217 117.35 42.1976 117.674C42.7162 118.134 43.2413 118.588 43.8247 118.958C44.5053 119.385 45.0174 119.995 45.7498 120.474C45.9702 120.455 46.3008 120.384 46.6249 120.403C48.8547 120.578 51.0781 120.293 53.3079 120.293C55.447 120.293 57.5861 120.144 59.7251 120.092C61.5142 120.053 63.3097 120.124 65.0988 119.975C65.6562 119.93 66.285 119.839 66.823 120.189C66.823 120.189 75.5673 121.68 72.2031 112.78" fill="#FF8CC5"/>
<path d="M37.375 113.992C38.0945 114.239 38.639 114.79 39.2159 115.237C39.8317 115.717 40.4086 116.274 41.0374 116.754C41.4328 117.052 41.8217 117.35 42.1976 117.674C42.7162 118.134 43.2413 118.588 43.8247 118.958C44.5053 119.385 45.0174 119.995 45.7498 120.474C45.9702 120.455 46.3008 120.384 46.6249 120.403C48.8547 120.578 51.0781 120.293 53.3079 120.293C55.447 120.293 57.5861 120.144 59.7251 120.092C61.5142 120.053 63.3097 120.124 65.0988 119.975C65.6562 119.93 66.285 119.839 66.823 120.189C66.823 120.189 75.5673 121.68 72.2031 112.78" stroke="#FF8CC5" stroke-width="3" stroke-linecap="round" stroke-linejoin="round"/>
<path d="M60.4778 93.1132C60.2833 91.9788 60.0565 90.825 59.4407 89.8591C58.6304 88.5757 57.6192 87.5645 55.9469 87.3506C54.6569 87.1821 53.4513 87.2339 52.2521 87.7266C51.8502 87.8951 51.565 88.2257 51.189 88.4266C50.4954 88.809 50.2297 89.5804 49.7111 90.1249C49.4778 90.3712 49.4 90.7666 49.2704 91.1037C48.687 92.6594 48.136 94.228 47.5072 95.7643C47.1377 96.6653 46.8525 97.6182 46.5479 98.5581C46.2432 99.498 45.77 100.386 45.4005 101.306C44.9079 102.545 44.4542 103.802 43.9745 105.047C43.5272 106.22 43.1772 107.438 42.6975 108.592C42.0234 110.206 41.5048 111.879 40.8631 113.506C40.6233 114.115 40.4742 114.763 40.1631 115.353C40.0918 115.489 40.001 115.606 39.9297 115.742" fill="#FF8CC5"/>
<path d="M60.4778 93.1132C60.2833 91.9788 60.0565 90.825 59.4407 89.8591C58.6304 88.5757 57.6192 87.5645 55.9469 87.3506C54.6569 87.1821 53.4513 87.2339 52.2521 87.7266C51.8502 87.8951 51.565 88.2257 51.189 88.4266C50.4954 88.809 50.2297 89.5804 49.7111 90.1249C49.4778 90.3712 49.4 90.7666 49.2704 91.1037C48.687 92.6594 48.136 94.228 47.5072 95.7643C47.1377 96.6653 46.8525 97.6182 46.5479 98.5581C46.2432 99.498 45.77 100.386 45.4005 101.306C44.9079 102.545 44.4542 103.802 43.9745 105.047C43.5272 106.22 43.1772 107.438 42.6975 108.592C42.0234 110.206 41.5048 111.879 40.8631 113.506C40.6233 114.115 40.4742 114.763 40.1631 115.353C40.0918 115.489 40.001 115.606 39.9297 115.742" stroke="#FF8CC5" stroke-width="3" stroke-linecap="round" stroke-linejoin="round"/>
<path d="M44.7908 112.332C44.726 112.274 44.6158 112.222 44.5834 112.3C44.013 113.519 42.9888 114.387 42.2304 115.463C41.9128 115.917 41.6211 116.377 41.3359 116.85" fill="#FF8CC5"/>
<path d="M44.7908 112.332C44.726 112.274 44.6158 112.222 44.5834 112.3C44.013 113.519 42.9888 114.387 42.2304 115.463C41.9128 115.917 41.6211 116.377 41.3359 116.85" stroke="#FF8CC5" stroke-width="3" stroke-linecap="round" stroke-linejoin="round"/>
<path d="M36.4802 148.898C36.3246 148.755 36.2728 148.573 36.2598 148.36C36.1302 146.765 36.0718 145.157 35.832 143.576C35.4301 140.918 35.2097 138.248 35.0995 135.564C35.0541 134.404 35.0282 133.243 35.0282 132.083C35.0282 130.903 35.2032 129.724 35.5727 128.622C36.0783 127.085 36.8626 125.653 37.8997 124.395C38.6063 123.54 39.4619 122.943 40.6028 122.859C41.1797 122.814 41.7631 122.755 42.3335 122.658C43.7271 122.412 44.7318 121.589 45.5032 120.415L36.7459 114.77C36.1431 115.69 36.1172 116.695 36.2922 117.725C36.3829 118.257 36.5191 118.782 36.5839 119.32C36.7135 120.331 36.4478 121.277 36.02 122.191C35.6375 122.995 35.1838 123.76 34.743 124.538C34.367 125.199 34.1725 125.945 33.9262 126.664C33.5179 127.844 33.3169 129.075 33.1289 130.313C32.8632 132.096 32.8113 133.859 32.9345 135.655C33.0252 136.925 33.1484 138.189 33.2197 139.46C33.3169 141.333 33.6799 143.167 33.7642 145.047C33.842 146.707 33.9198 148.366 34.0624 150.025C34.0818 150.259 34.0624 150.473 33.8679 150.628" fill="#00CE7C"/>
<path d="M36.4802 148.898C36.3246 148.755 36.2728 148.573 36.2598 148.36C36.1302 146.765 36.0718 145.157 35.832 143.576C35.4301 140.918 35.2097 138.248 35.0995 135.564C35.0541 134.404 35.0282 133.243 35.0282 132.083C35.0282 130.903 35.2032 129.724 35.5727 128.622C36.0783 127.085 36.8626 125.653 37.8997 124.395C38.6063 123.54 39.4619 122.943 40.6028 122.859C41.1797 122.814 41.7631 122.755 42.3335 122.658C43.7271 122.412 44.7318 121.589 45.5032 120.415L36.7459 114.77C36.1431 115.69 36.1172 116.695 36.2922 117.725C36.3829 118.257 36.5191 118.782 36.5839 119.32C36.7135 120.331 36.4478 121.277 36.02 122.191C35.6375 122.995 35.1838 123.76 34.743 124.538C34.367 125.199 34.1725 125.945 33.9262 126.664C33.5179 127.844 33.3169 129.075 33.1289 130.313C32.8632 132.096 32.8113 133.859 32.9345 135.655C33.0252 136.925 33.1484 138.189 33.2197 139.46C33.3169 141.333 33.6799 143.167 33.7642 145.047C33.842 146.707 33.9198 148.366 34.0624 150.025C34.0818 150.259 34.0624 150.473 33.8679 150.628" stroke="#00CE7C" stroke-width="3" stroke-linecap="round" stroke-linejoin="round"/>
<path d="M67.1262 101.054C66.5882 102.11 65.7326 102.797 64.8251 103.478C62.9518 104.891 60.9294 106.09 59.0172 107.439C57.6235 108.417 56.2493 109.429 54.8751 110.427C53.6824 111.289 52.4314 112.067 51.1804 112.851C49.8127 113.7 48.4773 114.614 47.1745 115.567C46.1633 116.312 45.1909 117.123 44.0955 117.745C43.7908 117.92 43.5769 118.192 43.3047 118.4" stroke="#FEFEFE" stroke-width="3" stroke-linecap="round" stroke-linejoin="round"/>
<path d="M44.6719 112.242C45.0154 111.626 45.4432 111.075 45.9164 110.557C45.9618 110.505 46.0331 110.479 46.072 110.421C46.5258 109.824 47.0378 109.267 47.4656 108.658C48.0555 107.808 48.6518 106.953 49.2806 106.155C49.8705 105.416 50.415 104.632 51.0437 103.919C51.5429 103.349 51.8994 102.649 52.3466 102.033C52.8134 101.385 53.3838 100.808 53.7921 100.127C54.5376 98.8956 55.5099 97.839 56.372 96.6981C56.7998 96.1277 57.2406 95.5508 57.7332 95.0322" stroke="#FEFEFE" stroke-width="3" stroke-linecap="round" stroke-linejoin="round"/>
<path d="M39.1883 90.8838C39.0781 93.0488 39.2272 95.2008 39.2402 97.3594C39.2531 99.1225 39.1429 100.886 39.1494 102.649C39.1624 104.833 39.0003 107.024 39.1494 109.202C39.2661 110.965 39.2466 112.728 39.2726 114.491C39.2726 114.699 39.3115 114.919 39.1819 115.114" stroke="#FEFEFE" stroke-width="3" stroke-linecap="round" stroke-linejoin="round"/>
<path d="M69.8894 112.631C69.2671 112.974 68.5735 113.124 67.9059 113.312C65.689 113.934 63.4397 114.439 61.1969 114.958C59.1616 115.425 57.0614 115.606 55.0649 116.215C52.5499 116.98 49.983 117.499 47.442 118.147C46.379 118.419 45.3029 118.672 44.3047 119.139" stroke="#FEFEFE" stroke-width="3" stroke-linecap="round" stroke-linejoin="round"/>
<path d="M49.2743 91.1035C48.6909 92.6592 48.1399 94.2279 47.5111 95.7641C47.1416 96.6651 46.8564 97.618 46.5518 98.5579C46.2471 99.4978 45.7739 100.386 45.4044 101.306C44.9118 102.544 44.4581 103.802 43.9784 105.046C43.5311 106.22 43.1811 107.438 42.7014 108.592C42.0273 110.206 41.5087 111.879 40.867 113.506C40.6272 114.115 40.4781 114.763 40.1669 115.353C40.0956 115.489 40.0049 115.606 39.9336 115.742" stroke="#FEFEFE" stroke-width="3" stroke-linecap="round" stroke-linejoin="round"/>
<path d="M44.7908 112.332C44.726 112.274 44.6158 112.222 44.5834 112.3C44.013 113.519 42.9888 114.387 42.2304 115.463C41.9128 115.917 41.6211 116.377 41.3359 116.85" stroke="#FEFEFE" stroke-width="3" stroke-linecap="round" stroke-linejoin="round"/>
<path d="M23.5975 184.899L18.4961 235.933L18.4443 236.607C17.7054 251.146 25.2375 264.415 38.1108 271.221C39.7962 272.109 41.5139 272.867 43.2641 273.483C43.5817 273.593 43.8993 273.703 44.217 273.801C68.1552 281.527 82.9083 271.428 100.274 257.563L120.044 242.304" stroke="#FEFEFE" stroke-width="3" stroke-linecap="round" stroke-linejoin="round"/>
<path d="M120.621 172.084C113.646 182.553 89.9282 209.343 81.3914 218.593C76.8085 223.558 64.9464 238.603 56.6299 231.414C54.9122 229.93 53.9917 227.687 53.6741 225.438C52.0925 214.282 55.0872 201.694 56.2086 190.506L56.5327 182.727" stroke="#FEFEFE" stroke-width="3" stroke-linecap="round" stroke-linejoin="round"/>
<path d="M56.5323 182.735C55.6637 176.013 50.4456 169.686 46.6925 166.205C42.9394 162.731 28.1085 149.773 25.2693 150.344C22.4302 150.914 25.412 153.961 25.412 153.961C25.412 153.961 21.8792 147.187 18.5863 149.43C15.2934 151.673 19.9865 159.049 18.3141 155.393C16.6482 151.737 12.6034 150.046 11.2486 155.05C9.89389 160.054 14.2434 165.473 20.2068 174.023C26.1703 182.566 22.9034 193.015 22.9034 193.015" stroke="#FEFEFE" stroke-width="3" stroke-linecap="round" stroke-linejoin="round"/>
<path d="M18.1797 155.471C18.1797 155.471 20.3447 160.877 25.109 165.395C30.7225 170.723 36.0054 172.22 36.9971 173.121" stroke="#FEFEFE" stroke-width="3" stroke-linecap="round" stroke-linejoin="round"/>
<path d="M28.5352 158.647C29.864 159.905 31.3289 161.007 32.8976 161.94" stroke="#FEFEFE" stroke-width="3" stroke-linecap="round" stroke-linejoin="round"/>
<path d="M41.5021 168.973H36.2775C32.4985 168.973 29.3482 166.277 29.0046 162.744L27.5591 149.449C27.4295 148.282 28.3435 147.265 29.5167 147.265H48.2693C49.4426 147.265 50.35 148.282 50.2269 149.449L48.7814 162.744C48.4378 166.27 45.2811 168.973 41.5085 168.973H41.5021Z" fill="#00A6E8" stroke="#00A6E8" stroke-width="3" stroke-linecap="round" stroke-linejoin="round"/>
<path d="M34.9508 173.291C34.9508 173.291 36.0463 173.725 29.7134 168.209C23.3804 162.692 26.6863 158.35 28.0151 157.591C29.3374 156.833 31.9302 156.735 37.1224 161.493C42.321 166.251 50.9485 172.39 50.9485 172.39C50.9485 172.39 57.476 178.528 56.2574 188.51" stroke="#FEFEFE" stroke-width="3" stroke-linecap="round" stroke-linejoin="round"/>
<path d="M138.328 80.6613C136.13 79.3973 151.234 68.2222 168.748 71.5734C194.313 76.4674 201.515 102.285 209.255 143.803L152.964 146.616L160.477 121.842C160.477 121.842 167.29 123.501 164.269 115.243C163.135 112.145 165.637 114.238 163.822 113.862C160.088 113.091 156.374 112.793 156.374 112.793C156.374 112.793 176.021 127.481 156.406 113.655C137.142 108.975 134.678 88.9194 138.334 80.6613H138.328Z" fill="#FEFEFE" stroke="#FEFEFE" stroke-width="3" stroke-linecap="round" stroke-linejoin="round"/>
<path d="M125.773 156.217C122.617 151.874 124.121 140.53 123.939 140.718C123.939 140.718 139.982 137.354 139.982 125.038C129.326 130.561 121.476 131.533 121.476 131.533L120.951 123.748L107.967 118.653C106.872 118.225 106.47 116.89 107.138 115.924C110.612 110.953 120.212 96.3809 131.458 85.666" stroke="#FEFEFE" stroke-width="3" stroke-linecap="round" stroke-linejoin="round"/>
<path d="M127.441 108.313C127.124 110.738 128.336 113.687 130.086 113.531C131.804 113.376 132.698 110.666 133.236 108.365C133.158 109.014 133.081 109.662 133.003 110.31" stroke="#FEFEFE" stroke-width="3" stroke-linecap="round" stroke-linejoin="round"/>
<path d="M152.926 114.795C152.926 114.795 159.719 107.898 165.015 111.612C170.311 115.326 167.575 121.465 165.469 123.902C163.368 126.339 157.081 127.72 157.081 127.72" fill="#053575"/>
<path d="M155.617 122.217C155.617 122.217 160.317 117.097 162.112 116.345" stroke="#FEFEFE" stroke-width="3" stroke-linecap="round" stroke-linejoin="round"/>
<path d="M163.578 120.89C163.578 120.89 160.882 119.01 159.734 119.217" stroke="#FEFEFE" stroke-width="3" stroke-linecap="round" stroke-linejoin="round"/>
<path d="M198.913 158.686C167.144 186.805 124.79 166.341 124.79 166.341C124.79 166.341 124.531 165.557 124.265 166.159C123.948 166.043 89.3594 209.084 89.3594 209.084L118.574 245.603L102.751 325.715C181.262 368.075 270.364 305.997 270.364 305.997L198.906 158.692L198.913 158.686Z" fill="#203AE9" stroke="#203AE9" stroke-width="3" stroke-linecap="round" stroke-linejoin="round"/>
</svg>
