<svg width="432" height="432" viewBox="0 0 432 432" fill="none" xmlns="http://www.w3.org/2000/svg">
<path d="M422.55 421.319C367.77 394.379 293.472 379.244 216.001 379.244C138.531 379.244 64.2331 394.379 9.45312 421.319" stroke="#111111" stroke-width="3"/>
<path d="M139.298 423.358H71.2264C59.8925 424.304 50.1655 420.833 40.1432 415.554C30.0755 410.248 14.9313 406.119 10.5533 395.41C8.12302 389.463 9.48582 385.606 16.9926 384.683C22.404 384.015 27.7758 384.797 33.1248 385.663C35.2825 386.014 37.4233 386.496 39.5697 386.915C41.9319 387.832 44.3168 388.631 47.684 389.021C45.1288 387.187 43.2379 385.833 41.347 384.479C41.1426 383.84 41.0517 383.058 39.9899 383.494L40.0296 383.545C40.4328 382.259 39.1438 381.908 38.5021 381.257C34.6068 377.298 30.7626 373.306 28.1108 368.475C23.5738 360.195 27.3101 354.09 37.1053 353.909C44.4985 353.773 50.932 356.859 57.1782 360.269C64.4124 364.222 71.0106 369.069 77.6259 373.883C78.2789 374.359 79.0341 374.716 79.7439 375.124C82.1118 377.525 84.6898 379.694 87.8696 381.631C88.0911 379.632 86.24 378.839 85.7516 377.474C85.127 373.413 82.9579 369.8 81.7314 365.904C79.2726 358.077 76.8082 350.256 77.4385 342.038C77.6373 339.456 77.7849 336.851 79.5111 334.534C81.544 331.821 84.9055 330.196 88.4431 330.757C93.9625 331.629 97.8692 334.914 101.441 338.68C105.762 343.239 109.197 348.381 112.417 353.648C115.427 359.493 118.493 365.315 121.349 371.335C121.485 365.666 122.61 360.229 123.666 354.781C123.666 354.781 123.694 354.656 123.689 354.656C123.825 354.26 123.955 353.869 124.092 353.473L124.126 353.41C124.222 353.206 124.319 353.002 124.415 352.799C125.199 351.326 125.858 349.786 126.778 348.398C130.139 343.318 134.523 342.593 139.974 346.014C142.774 347.77 144.642 350.267 146.493 352.804C149.355 359.215 150.848 365.847 150.644 372.751C150.127 390.352 146.709 407.297 139.287 423.347L139.298 423.358Z" fill="#00CE7C"/>
<path d="M11.4023 10.1066C24.183 9.41918 43.8373 11.8443 50.9452 23.6438C57.7197 34.8865 55.5444 51.5659 48.9224 64.1095C42.3004 76.6532 32.0398 86.0041 22.039 95.0312C38.2025 79.2808 54.324 65.2984 71.7999 62.7022C100.062 58.5036 117.052 75.0227 123.815 85.4132M123.815 85.4132C125.792 87.7616 127.041 88.809 127.653 90.5816C128.481 92.9819 127.889 96.125 125.576 97.1725C124.027 97.8741 122.313 97.3199 121.496 94.8693C120.522 91.9464 121.009 89.9979 123.815 85.4132ZM123.815 85.4132C130.273 77.0565 137.288 69.626 145.854 64.6665" stroke="#00A6E8" stroke-width="3" stroke-linecap="round" stroke-linejoin="round"/>
<path d="M245.063 77.2736C273.72 61.1776 296.783 60.9557 315.887 69.5022C327.329 74.6214 339.561 84.9276 341.219 97.3531V97.3531C341.96 102.904 335.509 105.304 334.864 99.7408V99.7408C334.582 97.305 335.285 96.5172 337.47 92.9208C344.996 80.5322 356.11 70.4858 370.913 69.5379C393.287 68.1051 405.176 80.1895 421.576 94.3232C421.576 94.3232 409.688 83.4512 400.061 71.9881C390.428 60.5306 386.017 43.7318 393.469 30.4511C399.107 20.4069 409.903 14.6132 421.576 11.2969" stroke="#00A6E8" stroke-width="3" stroke-linecap="round" stroke-linejoin="round"/>
<path d="M265.891 211.615C272.484 217.135 280.512 221.547 285.924 222.457C291.743 223.434 297.545 225.999 297.738 231.304C298.997 236.954 296.303 246.112 292.128 249.326C288.856 251.846 283.376 254.637 279.359 253.722C276.755 253.128 275.32 247.711 273.54 245.857C271.648 243.886 269.902 243.643 267.411 242.914C257.484 240.021 235.795 224.96 225.445 213.739" stroke="#053575" stroke-width="3" stroke-linecap="round" stroke-linejoin="round"/>
<path d="M229.523 162.949C237.292 189.079 267.28 212.773 267.28 212.773" stroke="#053575" stroke-width="3" stroke-linecap="round" stroke-linejoin="round"/>
<path d="M279.805 230.863C279.805 230.863 286.149 246.558 287.341 243.575" stroke="#053575" stroke-width="3" stroke-linecap="round" stroke-linejoin="round"/>
<path d="M288.581 232.783C288.581 232.783 291.762 238.619 287.078 243.924" stroke="#053575" stroke-width="3" stroke-linecap="round" stroke-linejoin="round"/>
<path d="M162.677 247.926C162.943 252.502 164.033 254.835 164.135 258.553C164.372 267.157 161.615 266.473 158.875 264.53" fill="#EFF1F1"/>
<path d="M162.677 247.926C162.943 252.502 164.033 254.835 164.135 258.553C164.372 267.157 161.615 266.473 158.875 264.53" stroke="#053575" stroke-width="3" stroke-linecap="round" stroke-linejoin="round"/>
<path d="M155.831 259.207C156.543 259.919 158.758 261.179 160.673 263.512C166.504 270.619 168.204 279.308 165.69 287.314L156.769 284.512C158.317 279.574 157.035 274.094 153.238 269.472" fill="#203AE9"/>
<path d="M127.831 261.913C122.238 263.551 118.069 267.308 116.538 272.178L107.617 269.376C110.289 260.862 117.64 254.517 127.266 252.41C128.312 252.184 129.368 252.009 130.436 251.885" fill="#203AE9"/>
<path d="M264.054 382.6C264.054 382.6 286.303 387.48 288.15 402.192L244.789 399.39L245.428 405.667L227.648 401.102L231.507 386.261L264.054 382.6Z" fill="#053575" stroke="#053575" stroke-width="3" stroke-linecap="round" stroke-linejoin="round"/>
<path d="M137.313 377.527C137.313 377.527 133.183 398.583 118.811 399.012L124.042 357.714L116.031 357.578L121.489 340.951L135.652 345.996L137.313 377.521V377.527Z" fill="#053575" stroke="#053575" stroke-width="3" stroke-linecap="round" stroke-linejoin="round"/>
<path d="M191.983 273.131C191.983 273.131 183.588 304.605 172.978 324.763C161.153 347.232 136.77 346.571 136.77 346.571L137.832 380.253C137.832 380.253 189.277 366.553 208.118 341.085C237.293 301.651 228.451 286.357 230.044 272.832" fill="#EFF1F1"/>
<path d="M191.983 273.131C191.983 273.131 183.588 304.605 172.978 324.763C161.153 347.232 136.77 346.571 136.77 346.571L137.832 380.253C137.832 380.253 189.277 366.553 208.118 341.085C237.293 301.651 228.451 286.357 230.044 272.832" stroke="#053575" stroke-width="3" stroke-linecap="round" stroke-linejoin="round"/>
<path d="M235.729 241.101C235.729 241.101 252.7 263.812 266.327 296.557C279.507 328.24 269.434 382.849 269.434 382.849L231.424 385.002C231.424 385.002 235.729 360.979 227.48 327.274C221.966 304.749 208.791 295.687 197.001 286.399C189.899 280.806 169.51 263.987 175.82 240.078" fill="#EFF1F1"/>
<path d="M235.729 241.101C235.729 241.101 252.7 263.812 266.327 296.557C279.507 328.24 269.434 382.849 269.434 382.849L231.424 385.002C231.424 385.002 235.729 360.979 227.48 327.274C221.966 304.749 208.791 295.687 197.001 286.399C189.899 280.806 169.51 263.987 175.82 240.078" stroke="#053575" stroke-width="3" stroke-linecap="round" stroke-linejoin="round"/>
<path d="M162.68 247.925C163.719 230.004 169.137 207.061 188.233 183.452C194.097 176.203 159.68 170.266 159.68 170.266C159.68 170.266 140.997 198.231 136.172 238.23" stroke="#053575" stroke-width="3" stroke-linecap="round" stroke-linejoin="round"/>
<path d="M229.599 147.663C219.95 151.341 204.171 150.488 195.583 134.274C194.917 133.019 193.363 132.528 192.086 133.144C188.001 135.121 179.324 140.11 170.459 150.16C162.68 158.985 158.364 167.787 156.641 171.793C156.098 173.052 156.595 174.51 157.793 175.177L182.245 188.86C183.606 189.623 184.03 191.385 183.16 192.685C180.956 195.979 177.222 202.08 176.216 206.978C173.013 222.605 173.013 235.187 173.205 240.407C173.256 241.859 174.465 242.994 175.917 242.972L236.147 242C237.916 241.972 239.164 240.271 238.667 238.571C237.339 234.023 235.272 224.323 234.39 206.261C233.769 193.549 233.368 161.612 233.243 150.121C233.221 148.256 231.351 146.997 229.611 147.663H229.599Z" fill="#203AE9"/>
<path d="M238.156 94.7637C242.738 99.2099 247.613 105.56 250.122 108.967C250.969 110.119 250.415 111.758 249.048 112.159L241.647 115.001C241.647 115.001 255.63 138.486 234.195 144.243" stroke="#053575" stroke-width="3" stroke-linecap="round" stroke-linejoin="round"/>
<path d="M231.703 107.526C231.488 106.108 232.415 104.396 233.708 104.509C234.98 104.617 235.618 106.215 235.997 107.56C235.946 107.181 235.895 106.803 235.844 106.424" fill="#EFF1F1"/>
<path d="M231.703 107.526C231.488 106.108 232.415 104.396 233.708 104.509C234.98 104.617 235.618 106.215 235.997 107.56C235.946 107.181 235.895 106.803 235.844 106.424" stroke="#053575" stroke-width="3" stroke-linecap="round" stroke-linejoin="round"/>
<path d="M237.606 82.3516C227.465 75.0806 213.019 71.7812 200.924 75.4817C198.969 76.0805 197.161 76.9054 195.489 77.9054L195.472 77.8489C184.093 85.3289 180.399 102.899 186.624 115.696C187.737 117.984 188.777 120.102 190.444 122.125C191.636 123.577 193.805 123.735 195.223 122.503L206.771 112.447L205.02 107.086C206.042 101.894 207.082 99.758 212.969 105.69L213.488 91.5604C214.607 91.9164 215.754 92.2101 216.918 92.4192C217.584 92.5378 218.274 92.6395 218.929 92.4813C219.584 92.3231 220.189 91.8486 220.268 91.2271C220.358 90.504 219.754 89.8825 219.194 89.374C218.545 88.7808 217.895 88.1933 217.251 87.6001C217.5 87.4984 217.731 87.3967 217.952 87.2893C220.279 88.7356 222.742 90.0294 225.138 91.2497C226.923 92.1593 228.883 93.0067 230.912 92.8485C231.686 92.792 232.573 92.4531 232.708 91.7525C232.844 91.035 232.121 90.4475 231.477 90.0237C229.177 88.5153 226.872 87.0012 224.573 85.4928C228.867 88.0633 229.443 88.4023 234.494 89.0633C236.708 89.3514 239.556 89.1029 240.296 87.1537C240.991 85.3402 239.262 83.5437 237.612 82.3629L237.606 82.3516Z" fill="#053575" stroke="#053575" stroke-width="3" stroke-linecap="round" stroke-linejoin="round"/>
<path d="M213.495 108.249C213.495 108.249 210.19 102.001 205.58 103.187C200.97 104.373 199.913 110.452 200.631 112.684C202.043 117.102 205.936 117.633 205.936 117.633" fill="#EFF1F1"/>
<path d="M213.495 108.249C213.495 108.249 210.19 102.001 205.58 103.187C200.97 104.373 199.913 110.452 200.631 112.684C202.043 117.102 205.936 117.633 205.936 117.633" stroke="#053575" stroke-width="3" stroke-linecap="round" stroke-linejoin="round"/>
<path d="M210.614 112.774C210.614 112.774 207.592 108.288 206.281 107.469L210.614 112.774Z" fill="#EFF1F1"/>
<path d="M210.614 112.774C210.614 112.774 207.592 108.288 206.281 107.469" stroke="#053575" stroke-width="3" stroke-linecap="round" stroke-linejoin="round"/>
<path d="M204.25 112.193C204.25 112.193 206.561 110.029 207.708 110.023L204.25 112.193Z" fill="#EFF1F1"/>
<path d="M204.25 112.193C204.25 112.193 206.561 110.029 207.708 110.023" stroke="#053575" stroke-width="3" stroke-linecap="round" stroke-linejoin="round"/>
<path d="M240.123 124.617C240.123 124.617 231.807 123.408 227.508 118.973L240.123 124.617Z" fill="#EFF1F1"/>
<path d="M240.123 124.617C240.123 124.617 231.807 123.408 227.508 118.973" stroke="#053575" stroke-width="3" stroke-linecap="round" stroke-linejoin="round"/>
<path d="M136.064 238.529C136.064 238.529 121.991 254.427 130.318 267.794C132.183 270.788 134.143 270.246 134.386 266.822C134.578 264.077 133.081 258.817 133.946 257.009" fill="#EFF1F1"/>
<path d="M136.064 238.529C136.064 238.529 121.991 254.427 130.318 267.794C132.183 270.788 134.143 270.246 134.386 266.822C134.578 264.077 133.081 258.817 133.946 257.009" stroke="#053575" stroke-width="3" stroke-linecap="round" stroke-linejoin="round"/>
<path d="M134.387 265.008C134.387 265.008 136.11 269.782 139.562 270.708C143.008 271.635 143.805 267.528 143.805 267.528" fill="#EFF1F1"/>
<path d="M134.387 265.008C134.387 265.008 136.11 269.782 139.562 270.708C143.008 271.635 143.805 267.528 143.805 267.528" stroke="#053575" stroke-width="3" stroke-linecap="round" stroke-linejoin="round"/>
<path d="M141.285 257.981C141.285 257.981 142.743 266.201 145.398 269.252C148.048 272.302 149.245 272.963 151.5 271.24C153.754 269.517 154.336 257.297 155.596 256.037" fill="#EFF1F1"/>
<path d="M141.285 257.981C141.285 257.981 142.743 266.201 145.398 269.252C148.048 272.302 149.245 272.963 151.5 271.24C153.754 269.517 154.336 257.297 155.596 256.037" stroke="#053575" stroke-width="3" stroke-linecap="round" stroke-linejoin="round"/>
<path d="M188.657 294.535L88.1361 256.671C86.4192 256.024 84.5031 256.892 83.8564 258.609L62.263 315.935C61.6163 317.652 62.4839 319.568 64.2008 320.215L164.722 358.079C166.439 358.725 168.355 357.858 169.002 356.141L190.595 298.814C191.242 297.097 190.374 295.181 188.657 294.535Z" fill="#FF8CC5" stroke="#FF8CC5" stroke-width="3" stroke-linecap="round" stroke-linejoin="round"/>
<path d="M89.3242 276.771C85.9966 294.381 85.8158 292.596 88.3243 295.822C89.0644 296.771 157.328 321.742 159.385 322.477C163.775 324.047 175.904 311.194 177.757 308.149" stroke="#053575" stroke-width="3" stroke-linecap="round" stroke-linejoin="round"/>
<path d="M419.629 357.262C434.438 367.395 392.024 405.976 368.966 424.001H308.559C328.825 337.484 353.377 327.222 363.119 332.905C368.965 336.315 376.37 351.222 359.222 383.568C388.451 360.185 405.989 350.442 419.629 357.262Z" fill="#00CE7C"/>
</svg>
