<svg width="432" height="432" viewBox="0 0 432 432" fill="none" xmlns="http://www.w3.org/2000/svg">
<path d="M273.338 334.683C238.879 330.134 216.134 311.609 194.336 285.499C146.493 228.163 128.389 240.009 84.6478 245.965C40.9066 251.907 22.3163 256.864 22.2637 268.512C22.2111 280.161 34.2015 260.742 19.9497 282.527C15.2824 289.666 28.8899 306.377 85.5287 319.787C106.67 324.796 134.831 340.507 140.682 348.106C161.06 374.598 212.23 443.503 319.538 415.184C406.613 392.202 404.207 337.326 414.935 331.712L361.281 266.133C361.281 266.133 352.341 345.135 273.338 334.696V334.683Z" fill="#EFF1F1"/>
<path d="M117.584 332.45C150.373 359.284 194.89 414.476 247.256 420.393C339.669 430.831 394.822 389.089 412.702 333.949" stroke="#053575" stroke-width="3" stroke-linecap="round" stroke-linejoin="round"/>
<path d="M362.023 268.356C359.301 274.483 342.643 336.92 278.55 335.434C245.287 334.658 208.225 301.895 187.571 275.863L172.254 258.719" stroke="#053575" stroke-width="3" stroke-linecap="round" stroke-linejoin="round"/>
<path d="M172.265 258.718C156.62 246.254 132.534 243.572 117.428 243.927C102.321 244.282 44.2366 247.319 39.3983 254.366C34.5601 261.413 47.129 261.742 47.129 261.742C47.129 261.742 25.712 254.656 23.3454 266.173C20.9789 277.69 46.0772 283.685 35.0334 279.373C23.9897 275.06 11.9336 279.78 19.3486 293.164C26.7637 306.548 47.129 309.112 77.3415 314.962C107.554 320.813 125.027 338.417 125.027 338.417" stroke="#053575" stroke-width="3" stroke-linecap="round" stroke-linejoin="round"/>
<path d="M34.916 279.805C34.916 279.805 50.6139 286.799 70.0194 286.589C92.8695 286.339 107.161 278.648 111.105 278.517" stroke="#053575" stroke-width="3" stroke-linecap="round" stroke-linejoin="round"/>
<path d="M63.3887 265.239C68.7791 265.173 74.1695 264.503 79.4153 263.254" stroke="#053575" stroke-width="3" stroke-linecap="round" stroke-linejoin="round"/>
<path d="M107.103 283.079C107.103 283.079 110.324 281.738 85.5545 283.079C60.7849 284.42 58.8654 268.393 60.1144 264.068C61.3634 259.729 66.6486 254.207 87.4477 253.616C108.247 253.024 139.156 248.291 139.156 248.291C139.156 248.291 165.609 247.883 183.555 271.535" fill="#EFF1F1"/>
<path d="M107.103 283.079C107.103 283.079 110.324 281.738 85.5545 283.079C60.7849 284.42 58.8654 268.393 60.1144 264.068C61.3634 259.729 66.6486 254.207 87.4477 253.616C108.247 253.024 139.156 248.291 139.156 248.291C139.156 248.291 165.609 247.883 183.555 271.535" stroke="#053575" stroke-width="3" stroke-linecap="round" stroke-linejoin="round"/>
<path d="M118.884 174.167H90.8016C85.1888 174.167 80.6387 178.718 80.6387 184.33V193.363C80.6387 198.975 85.1888 203.525 90.8016 203.525H118.884C124.497 203.525 129.047 198.975 129.047 193.363V184.33C129.047 178.718 124.497 174.167 118.884 174.167Z" fill="#444748"/>
<path d="M103.739 11.2461C62.4831 11.2461 36.3594 37.2778 36.3594 76.0625C36.3594 118.989 79.1934 161.494 79.5615 161.901V174.641C79.5615 177.428 81.9412 179.69 84.8731 179.69H123.566C126.498 179.69 128.877 177.428 128.877 174.641V161.901C129.245 161.507 172.079 118.989 172.079 76.0625C172.066 37.2778 150.912 11.2461 103.739 11.2461Z" fill="#FDD756"/>
<path d="M94.3687 180.189C94.3687 180.189 96.7747 93.206 91.1213 85.1993C85.468 77.1925 73.8457 77.6133 71.9656 82.1754C70.0856 86.7375 66.641 100.056 76.0545 104.631C85.468 109.206 133.495 106.919 135.375 105.775C137.255 104.631 145.735 87.4869 138.202 82.9116C130.669 78.3364 117.232 77.4949 118.165 87.7761C119.099 98.0574 115.365 180.176 115.365 180.176" stroke="#053575" stroke-width="3" stroke-miterlimit="10"/>
</svg>
