<svg width="432" height="432" viewBox="0 0 432 432" fill="none" xmlns="http://www.w3.org/2000/svg">
<path d="M176.089 352.403C188.965 321.696 204.802 292.495 222.559 264.044C231.65 249.485 252.532 203.943 274.843 211.993C280.087 213.885 283.482 219.142 284.426 224.521C287.488 241.988 272.781 263.746 265.804 279.139C260.996 289.748 257.323 303.071 250.707 312.736C250.792 312.615 266.493 289.737 291.816 297.251C299.709 299.59 306.144 309.619 304.494 325.685C304.494 325.685 311.901 311.225 332.054 318.452C352.213 325.685 344.563 365.472 340.693 383.524C335.806 406.331 336.636 398.684 330.399 421C279.759 417.237 227.305 419.72 176.332 419.146C163.479 419.003 150.631 418.859 137.777 418.716L138.766 413.017" fill="#FF8CC5"/>
<path d="M176.089 352.403C188.965 321.696 204.802 292.495 222.559 264.044C231.65 249.485 252.532 203.943 274.843 211.993C280.087 213.885 283.482 219.142 284.426 224.521C287.488 241.988 272.781 263.746 265.804 279.139C260.996 289.748 257.323 303.071 250.707 312.736C250.792 312.615 266.493 289.737 291.816 297.251C299.709 299.59 306.144 309.619 304.494 325.685C304.494 325.685 311.901 311.225 332.054 318.452C352.213 325.685 344.563 365.472 340.693 383.524C335.806 406.331 336.636 398.684 330.399 421C279.759 417.237 227.305 419.72 176.332 419.146C163.479 419.003 150.631 418.859 137.777 418.716L138.766 413.017" stroke="#FF8CC5" stroke-width="3" stroke-linecap="round" stroke-linejoin="round"/>
<path d="M299.854 323.062C294.175 335.121 269.497 373.469 290.622 382.236C308.537 389.672 324.086 361.354 332.877 350.696" stroke="#FEFEFE" stroke-width="3" stroke-linecap="round" stroke-linejoin="round"/>
<path d="M251.584 312.364L240.442 331.629C240.442 331.629 228.283 357.31 234.408 368.333C240.532 379.355 257.765 377.105 263.527 374.583C276.245 369.033 283.669 354.303 289.675 343.065" stroke="#FEFEFE" stroke-width="3" stroke-linecap="round" stroke-linejoin="round"/>
<path d="M197.609 381.424C197.609 381.424 228.028 378.88 241.085 373.86C254.142 368.84 261.074 357.298 256.673 343.881C252.278 330.464 218.294 324.854 182.586 342.149C146.879 359.444 137.997 401.513 135.602 420.999L327.935 420.908" fill="#FF8CC5"/>
<path d="M197.609 381.424C197.609 381.424 228.028 378.88 241.085 373.86C254.142 368.84 261.074 357.298 256.673 343.881C252.278 330.464 218.294 324.854 182.586 342.149C146.879 359.444 137.997 401.513 135.602 420.999L327.935 420.908" stroke="#FF8CC5" stroke-width="3" stroke-linecap="round" stroke-linejoin="round"/>
<path d="M283.516 367.674C284.657 365.396 286.544 363.476 288.911 362.422C293.516 360.375 299.477 361.826 302.561 365.743C305.646 369.666 305.539 375.663 302.324 379.48L299.284 383.789" stroke="#FEFEFE" stroke-width="3" stroke-linecap="round" stroke-linejoin="round"/>
<path d="M217.133 371.214C232.212 374.861 243.173 388.344 242.975 404.101" stroke="#FEFEFE" stroke-width="3" stroke-linecap="round" stroke-linejoin="round"/>
<path d="M195.478 393.129C211.8 386.255 229.586 382.542 245.626 375.486C258.016 370.035 270.237 361.076 268.333 347.229C265.807 328.83 243.665 329.999 229.648 331.445C213.111 333.15 196.986 338.093 181.918 344.867" fill="#FF8CC5"/>
<path d="M195.478 393.129C211.8 386.255 229.586 382.542 245.626 375.486C258.016 370.035 270.237 361.076 268.333 347.229C265.807 328.83 243.665 329.999 229.648 331.445C213.111 333.15 196.986 338.093 181.918 344.867" stroke="#FEFEFE" stroke-width="3" stroke-linecap="round" stroke-linejoin="round"/>
<path d="M242.338 331.979C236.282 336.1 233.598 344.282 237.525 350.262C240.344 354.56 245.875 356.998 251.361 357.682C256.847 358.366 262.373 357.55 267.797 356.733" stroke="#FEFEFE" stroke-width="3" stroke-linecap="round" stroke-linejoin="round"/>
<path d="M328.702 169.345L330.533 168.739L329.397 161.798L327.566 162.405L328.702 169.345Z" fill="#FEFEFE"/>
<path d="M334.003 163.206C333.257 163.118 332.794 163.041 332.692 162.732C332.596 162.461 332.828 162.059 333.545 161.822C334.139 161.612 334.619 161.595 335.003 161.617L335.195 161.639L334.947 160.133C334.54 160.122 333.918 160.166 333.212 160.404C331.404 161.005 330.438 162.318 330.873 163.592C331.189 164.536 332.291 164.756 333.099 164.839C333.924 164.922 334.235 165.049 334.331 165.336C334.478 165.777 333.986 166.163 333.461 166.34C332.726 166.583 332.302 166.61 331.619 166.566L331.348 166.538L331.602 168.094C332.093 168.133 332.941 168.034 333.76 167.769C335.687 167.129 336.63 165.838 336.167 164.47C335.913 163.719 335.229 163.317 334.009 163.201L334.003 163.206Z" fill="#FEFEFE"/>
<path d="M339.585 158.423L338.173 158.892C337.732 159.036 337.45 159.262 337.404 159.753L336.777 166.666L338.698 166.026C338.698 166.026 338.732 165.115 338.738 164.911C338.947 164.84 340.817 164.227 341.083 164.133C341.218 164.343 341.648 165.044 341.648 165.044L343.348 164.481L339.585 158.418V158.423ZM338.8 163.4C338.823 162.969 338.89 161.325 338.89 161.325C338.89 161.347 338.907 160.895 338.913 160.619L339.235 161.143C339.235 161.143 340.128 162.594 340.32 162.898L338.8 163.4Z" fill="#FEFEFE"/>
<path d="M324.884 163.306L324.646 168.37L324.138 167.526L322.448 164.723C322.194 164.343 321.827 164.326 321.426 164.447L318.477 165.429L318.499 165.573C319.279 165.507 320.002 165.534 320.674 165.656L324.285 170.814L326.223 170.168L326.827 162.666L324.889 163.311L324.884 163.306Z" fill="#FEFEFE"/>
<path d="M194.975 159.692L178.86 165.494C176.169 166.463 174.792 169.378 175.785 172.005L179.438 181.679C180.43 184.307 183.415 185.651 186.106 184.682L202.221 178.88C204.911 177.912 206.288 174.996 205.296 172.369L201.643 162.695C200.651 160.068 197.665 158.723 194.975 159.692Z" fill="#FDD756" stroke="#FDD756" stroke-width="3" stroke-linecap="round" stroke-linejoin="round"/>
<path d="M122.685 133.139C105.724 114.879 89.7746 97.7045 73.8193 80.5304L75.8929 77.7664C75.8929 77.7664 116.549 96.3749 137.386 106.835C137.934 103.939 138.527 101.964 138.663 99.9388C140.522 71.1903 141.985 42.3921 144.437 13.7264C144.895 8.35292 156.777 9.03147 157.409 14.2173C160.675 41.0625 162.974 67.974 165.85 97.3349L239.999 58.6283L242.197 61.9109C242.197 61.9109 200.546 97.2631 180.89 116.225C180.89 116.225 199.247 145.724 215.015 166.186L211.484 170.086L166.144 150.352C162.494 175.322 151.697 231.859 147.827 234.799L136.697 148.421L70.9831 182.725C69.8023 181.076 70.1808 181.605 69 179.956C86.8932 164.354 104.786 148.747 122.679 133.145L122.685 133.139Z" fill="#00A6E8" stroke="#00A6E8" stroke-width="3" stroke-linecap="round" stroke-linejoin="round"/>
<path d="M313.838 68.437L157.114 121.34C151.198 123.337 148.06 129.639 150.105 135.416L180.155 220.296C182.201 226.073 188.654 229.137 194.57 227.14L351.294 174.237C357.21 172.24 360.347 165.938 358.302 160.162L328.252 75.2807C326.207 69.5041 319.753 66.44 313.838 68.437Z" stroke="#FEFEFE" stroke-width="3" stroke-linecap="round" stroke-linejoin="round"/>
<path d="M263.465 102.599C259.454 103.951 257.205 108.1 258.341 112.044C258.369 112.143 258.437 112.226 258.533 112.27C258.629 112.32 258.742 112.326 258.838 112.292L261.51 111.393C261.703 111.327 261.81 111.134 261.759 110.941C261.222 108.789 262.46 106.61 264.624 105.882C266.793 105.154 269.138 106.125 270.076 108.144C270.16 108.326 270.364 108.414 270.556 108.348L273.228 107.449C273.33 107.415 273.415 107.338 273.46 107.244C273.505 107.151 273.505 107.046 273.466 106.952C271.872 103.162 267.482 101.248 263.471 102.599" fill="#FEFEFE"/>
<path d="M264.878 106.6C262.985 107.24 261.968 109.248 262.618 111.08C263.268 112.911 265.336 113.888 267.228 113.248C269.121 112.608 270.138 110.6 269.488 108.768C268.844 106.937 266.776 105.966 264.878 106.6Z" fill="#FEFEFE"/>
<path d="M262.054 98.6068C259.003 99.6329 256.517 101.735 255.048 104.521C253.585 107.301 253.286 110.468 254.212 113.436C254.24 113.535 254.314 113.618 254.404 113.662C254.5 113.712 254.608 113.718 254.709 113.684L257.359 112.791C257.557 112.725 257.664 112.52 257.602 112.333C256.297 107.969 258.76 103.379 263.207 101.878C267.653 100.378 272.49 102.518 274.213 106.739C274.286 106.926 274.501 107.02 274.699 106.954L277.354 106.06C277.456 106.027 277.535 105.955 277.58 105.861C277.625 105.768 277.631 105.663 277.591 105.564C276.444 102.667 274.213 100.356 271.303 99.0481C268.388 97.7351 265.105 97.5806 262.054 98.6068Z" fill="#FEFEFE"/>
<path d="M288.037 91.4624L284.992 92.4885C284.946 92.5051 284.918 92.5437 284.924 92.5934L285.579 100.471L285.551 100.483L281.161 93.8623C281.133 93.8237 281.088 93.8071 281.042 93.8236L277.867 94.8939C277.816 94.9105 277.788 94.9656 277.799 95.0153L280.517 104.786C280.517 104.786 280.545 104.835 280.568 104.846C280.59 104.857 280.624 104.863 280.647 104.846L282.291 104.295C282.342 104.278 282.37 104.223 282.359 104.173L280.031 96.058H280.048L285.031 103.296C285.059 103.335 285.105 103.351 285.15 103.335L287.415 102.573C287.461 102.557 287.489 102.518 287.483 102.474L286.907 93.7464H286.924L290.082 101.575C290.105 101.625 290.161 101.652 290.212 101.63L292.127 100.985C292.127 100.985 292.178 100.957 292.19 100.929C292.201 100.902 292.201 100.874 292.19 100.852L288.161 91.5231C288.139 91.4734 288.082 91.4514 288.031 91.4679" fill="#FEFEFE"/>
<path d="M296.911 95.9046L297.527 97.659C297.165 97.8355 296.854 97.9624 296.493 98.0838C295.634 98.3706 295.001 98.5141 294.702 97.6645C294.402 96.8149 294.984 96.5445 295.843 96.2522C296.352 96.0811 296.707 95.9653 296.905 95.9046M293.73 92.0483C292.945 92.3131 291.781 92.8372 291.193 93.1958C291.154 93.2179 291.137 93.2675 291.148 93.3117L291.623 94.6633C291.634 94.6909 291.656 94.713 291.685 94.724C291.713 94.735 291.747 94.7295 291.775 94.713C292.182 94.4702 293.137 93.9627 294.159 93.6206C295.843 93.0524 296.029 93.4275 296.402 94.4702L296.255 94.5198C294.73 95.0329 293.007 95.6067 292.425 96.7487C292.182 97.2231 292.171 97.7638 292.38 98.3596C293.114 100.434 294.911 100.18 296.741 99.5899C296.911 99.5402 297.075 99.4851 297.244 99.4299C298.097 99.143 298.962 98.7899 300.103 98.2603C300.148 98.2382 300.171 98.1886 300.154 98.139L298.425 93.24C298.171 92.5117 297.758 92.0152 297.199 91.7559C296.216 91.298 294.95 91.629 293.73 92.0428" fill="#FEFEFE"/>
<path d="M307.039 94.209L306.915 94.2697C306.57 94.4352 306.248 94.5952 305.666 94.7938C303.74 95.4393 302.728 95.0531 302.163 93.4532C301.598 91.8533 302.141 90.9872 304.09 90.3307C304.531 90.1817 304.932 90.0879 305.48 89.9665C305.508 89.961 305.531 89.9445 305.548 89.9169C305.565 89.8948 305.565 89.8617 305.553 89.8341L305.101 88.5542C305.084 88.5101 305.039 88.4825 304.994 88.488C304.316 88.5652 303.559 88.7363 302.757 89.0121C299.836 89.9941 299.186 92.2947 299.836 94.1318C300.711 96.6089 302.841 97.5412 305.542 96.6365C306.35 96.3661 307 96.0627 307.599 95.6821C307.638 95.66 307.655 95.6103 307.638 95.5662L307.181 94.2697C307.181 94.2697 307.152 94.2201 307.124 94.209C307.096 94.198 307.068 94.198 307.039 94.209Z" fill="#FEFEFE"/>
<path d="M311.083 86.4171C311.066 86.3674 311.004 86.3398 310.953 86.3564L310.824 86.4005C310.162 86.6212 309.343 86.8915 308.388 87.9397L308.213 87.4487C308.196 87.3991 308.134 87.3715 308.083 87.388L306.309 87.9839C306.258 88.0004 306.23 88.0611 306.247 88.1107L308.778 95.2717C308.795 95.3213 308.857 95.3489 308.908 95.3324L310.908 94.6593C310.965 94.6427 310.993 94.5821 310.97 94.5324L309.162 89.4127C309.677 88.7672 310.756 88.4087 311.468 88.1659L311.581 88.1273C311.631 88.1108 311.665 88.0556 311.643 88.0004L311.083 86.4171Z" fill="#FEFEFE"/>
<path d="M318.146 88.1296C318.722 89.7681 318.457 90.6067 317.214 91.026C315.96 91.4508 315.214 90.9487 314.632 89.3102C314.05 87.6607 314.321 86.8166 315.575 86.3973C316.83 85.978 317.558 86.4801 318.14 88.1296M315.044 84.8526C312.547 85.6911 311.519 87.6827 312.349 90.0495C313.185 92.4107 315.253 93.3596 317.751 92.521C320.112 91.7266 321.208 89.5916 320.412 87.3352C319.575 84.9684 317.519 84.0195 315.044 84.8526Z" fill="#FEFEFE"/>
<path d="M222.053 168.531C221.94 168.575 221.793 168.591 221.658 168.569C221.223 168.514 220.912 168.117 220.974 167.686C221.302 165.413 221.036 163.069 220.183 160.912C219.251 158.545 217.663 156.476 215.595 154.959C215.251 154.705 215.172 154.22 215.448 153.872C215.708 153.536 216.206 153.458 216.562 153.729C218.872 155.433 220.641 157.723 221.686 160.366C222.635 162.765 222.952 165.38 222.579 167.913C222.545 168.2 222.33 168.431 222.07 168.525L222.053 168.531Z" fill="#FF8CC5"/>
<path d="M218.692 168.18C218.562 168.23 218.432 168.241 218.296 168.219C217.861 168.164 217.567 167.755 217.624 167.33C217.889 165.576 217.697 163.756 217.042 162.095C216.302 160.225 215.025 158.608 213.358 157.439C212.997 157.19 212.918 156.705 213.172 156.352C213.426 155.999 213.923 155.922 214.285 156.17C216.211 157.521 217.675 159.375 218.528 161.538C219.285 163.458 219.522 165.537 219.212 167.562C219.144 167.866 218.929 168.092 218.686 168.186L218.692 168.18Z" fill="#FF8CC5"/>
<path d="M215.166 167.819C215.036 167.869 214.889 167.885 214.753 167.863C214.313 167.791 214.019 167.389 214.098 166.969C214.313 165.75 214.183 164.514 213.725 163.361C213.188 162.004 212.251 160.868 210.996 160.073C210.623 159.847 210.522 159.35 210.765 159.003C210.996 158.639 211.505 158.539 211.861 158.777C213.392 159.742 214.561 161.138 215.217 162.804C215.77 164.211 215.929 165.75 215.669 167.245C215.612 167.527 215.409 167.731 215.16 167.819H215.166Z" fill="#FF8CC5"/>
<path d="M218.692 168.18C218.562 168.23 218.432 168.241 218.296 168.219C217.861 168.164 217.567 167.755 217.624 167.33C217.889 165.576 217.697 163.756 217.042 162.095C216.302 160.225 215.025 158.608 213.358 157.439C212.997 157.19 212.918 156.705 213.172 156.352C213.426 155.999 213.923 155.922 214.285 156.17C216.211 157.521 217.675 159.375 218.528 161.538C219.285 163.458 219.522 165.537 219.212 167.562C219.144 167.866 218.929 168.092 218.686 168.186L218.692 168.18Z" fill="#FF8CC5"/>
<path d="M215.166 167.819C215.036 167.869 214.889 167.885 214.753 167.863C214.313 167.791 214.019 167.389 214.098 166.969C214.313 165.75 214.183 164.514 213.725 163.361C213.188 162.004 212.251 160.868 210.996 160.073C210.623 159.847 210.522 159.35 210.765 159.003C210.996 158.639 211.505 158.539 211.861 158.777C213.392 159.742 214.561 161.138 215.217 162.804C215.77 164.211 215.929 165.75 215.669 167.245C215.612 167.527 215.409 167.731 215.16 167.819H215.166Z" fill="#FF8CC5"/>
<path d="M211.976 167.508C211.829 167.563 211.682 167.58 211.524 167.552C211.089 167.458 210.818 167.045 210.914 166.625C211.078 165.903 211.01 165.158 210.744 164.485C210.406 163.619 209.739 162.896 208.88 162.482C208.49 162.3 208.321 161.831 208.524 161.439C208.727 161.048 209.208 160.888 209.609 161.086C210.818 161.677 211.761 162.681 212.247 163.917C212.632 164.893 212.705 165.93 212.485 166.951C212.411 167.199 212.219 167.42 211.971 167.514L211.976 167.508Z" fill="#FF8CC5"/>
<path d="M211.976 167.508C211.829 167.563 211.682 167.58 211.524 167.552C211.089 167.458 210.818 167.045 210.914 166.625C211.078 165.903 211.01 165.158 210.744 164.485C210.406 163.619 209.739 162.896 208.88 162.482C208.49 162.3 208.321 161.831 208.524 161.439C208.727 161.048 209.208 160.888 209.609 161.086C210.818 161.677 211.761 162.681 212.247 163.917C212.632 164.893 212.705 165.93 212.485 166.951C212.411 167.199 212.219 167.42 211.971 167.514L211.976 167.508Z" fill="#FF8CC5"/>
<path d="M324.137 119.592L236.445 148.625L240.535 160.402L328.227 131.369L324.137 119.592Z" fill="#A9ACAC"/>
</svg>
