<svg width="432" height="432" viewBox="0 0 432 432" fill="none" xmlns="http://www.w3.org/2000/svg">
<path d="M132.508 77.9009C142.93 54.8501 142.977 40.3589 146.821 36.7821C150.665 33.2052 154.681 39.0776 153.032 45.8102C152.118 53.3435 151.317 54.9984 151.317 54.9984" stroke="#FEFEFE" stroke-width="3" stroke-linecap="round" stroke-linejoin="round"/>
<path d="M134.423 73.6836C134.298 73.9683 134.174 74.253 134.049 74.5496C122.34 105.187 116.284 130.272 121.047 158.08C127.607 196.376 160.279 216.532 193.408 220.144" stroke="#FEFEFE" stroke-width="3" stroke-linecap="round" stroke-linejoin="round"/>
<path d="M150.582 36.0999C150.582 36.0999 152.32 31.1528 154.61 32.0604C156.905 32.968 159.592 34.4094 158.839 41.0648" stroke="#FEFEFE" stroke-width="3" stroke-linecap="round" stroke-linejoin="round"/>
<path d="M156.057 42.7801C156.057 42.7801 161.9 38.0999 166.408 40.354C170.916 42.608 175.519 49.3584 173.526 52.1345C172.838 53.0954 171.995 53.5937 171.106 53.7598C169.421 54.0742 166.159 52.0336 166.159 52.0336L162.683 49.5304C162.683 49.5304 158.542 53.2496 162.066 60.7473C165.589 68.251 169.065 63.7429 169.308 62.432C169.552 61.1211 169.943 55.5037 169.943 55.5037C169.943 55.5037 171.07 52.0989 174.872 52.8522C178.675 53.6055 180.069 60.3143 178.758 66.3232C176.504 76.6859 169.385 86.9063 164.966 96.4505C157.012 113.641 150.475 142.267 162.487 158.74C169.012 167.685 179.523 173.99 190.597 174.109" stroke="#FEFEFE" stroke-width="3" stroke-linecap="round" stroke-linejoin="round"/>
<path d="M315.553 77.9009C305.131 54.8501 305.083 40.3589 301.239 36.7821C297.396 33.2052 293.38 39.0776 295.029 45.8102C295.942 53.3435 296.743 54.9984 296.743 54.9984" stroke="#FEFEFE" stroke-width="3" stroke-linecap="round" stroke-linejoin="round"/>
<path d="M313.634 73.6836C313.758 73.9683 313.883 74.253 314.007 74.5496C325.717 105.187 331.773 130.272 327.01 158.08C320.449 196.376 287.777 216.532 254.648 220.144" stroke="#FEFEFE" stroke-width="3" stroke-linecap="round" stroke-linejoin="round"/>
<path d="M297.48 36.0999C297.48 36.0999 295.742 31.1528 293.452 32.0604C291.157 32.968 288.47 34.4094 289.223 41.0648" stroke="#FEFEFE" stroke-width="3" stroke-linecap="round" stroke-linejoin="round"/>
<path d="M292.005 42.7801C292.005 42.7801 286.163 38.0999 281.654 40.354C277.146 42.608 272.543 49.3584 274.536 52.1345C275.224 53.0954 276.067 53.5937 276.957 53.7598C278.641 54.0742 281.904 52.0336 281.904 52.0336L285.38 49.5304C285.38 49.5304 289.52 53.2496 285.997 60.7473C282.473 68.251 278.997 63.7429 278.754 62.432C278.511 61.1211 278.119 55.5037 278.119 55.5037C278.119 55.5037 276.992 52.0989 273.19 52.8522C269.388 53.6055 267.994 60.3143 269.305 66.3232C271.559 76.6859 278.677 86.9063 283.096 96.4505C291.05 113.641 297.587 142.267 285.575 158.74C279.05 167.685 268.539 173.99 257.465 174.109" stroke="#FEFEFE" stroke-width="3" stroke-linecap="round" stroke-linejoin="round"/>
<path d="M215.896 39.0774C226.034 30.162 235.566 21.7864 245.098 13.4048L246.593 14.5378C246.593 14.5378 236.076 36.1115 230.174 47.1624C231.758 47.4827 232.831 47.8149 233.94 47.9039C249.66 49.1436 265.414 50.1639 281.086 51.718C284.022 52.0086 283.554 58.3556 280.712 58.6463C265.99 60.1648 251.243 61.1672 235.145 62.4604L255.722 102.417L253.907 103.567C253.907 103.567 234.901 81.0089 224.681 70.3437C224.681 70.3437 208.381 79.9056 197.057 88.1626L194.951 86.2407L206.127 62.1697C192.489 60.0106 161.633 53.7644 160.055 51.6705L207.426 46.4506L189.191 11.0381C190.105 10.4212 189.808 10.6169 190.722 10C199.115 19.6984 207.509 29.3909 215.902 39.0834L215.896 39.0774Z" fill="#FF8CC5"/>
<path d="M209.455 132.246C209.455 132.246 206.714 147.117 205.641 149.519C204.567 151.922 214.883 147.034 214.883 147.034" stroke="#FEFEFE" stroke-width="3" stroke-linecap="round" stroke-linejoin="round"/>
<path d="M198.941 152.382C198.941 152.382 204.233 158.557 212.187 156.682C220.141 154.808 223.979 145.258 223.979 145.258" stroke="#FEFEFE" stroke-width="3" stroke-linecap="round" stroke-linejoin="round"/>
<path d="M202.186 135.27C201.972 137.334 200.578 139.001 198.716 139.232C197.049 139.434 195.471 138.425 194.652 136.812" stroke="#FEFEFE" stroke-width="3" stroke-linecap="round" stroke-linejoin="round"/>
<path d="M224.408 131.211C224.195 133.275 222.801 134.942 220.938 135.173C219.271 135.375 217.694 134.367 216.875 132.753" stroke="#FEFEFE" stroke-width="3" stroke-linecap="round" stroke-linejoin="round"/>
<path d="M242.807 134.255C242.807 134.255 242.807 134.291 242.807 134.303L244.604 134.35C244.604 134.297 244.604 134.243 244.604 134.19C244.005 134.196 243.4 134.19 242.801 134.16C242.801 134.19 242.801 134.225 242.801 134.255H242.807Z" fill="#00A6E8"/>
<path d="M215.542 104.975C215.156 104.957 214.776 104.945 214.385 104.945C214.231 104.945 214.082 104.957 213.928 104.957C213.756 104.957 213.584 104.963 213.412 104.969C213.044 104.981 212.677 105.005 212.309 105.034C212.143 105.046 211.971 105.058 211.805 105.07C211.253 105.123 210.701 105.189 210.162 105.278C198.15 107.164 188.795 116.88 187.633 128.951C187.686 128.945 187.746 128.945 187.799 128.933C188.297 128.874 188.79 128.791 189.282 128.702C189.223 129.254 189.169 129.811 189.145 130.375C189.128 130.76 189.116 131.146 189.116 131.531C189.116 131.543 189.116 131.561 189.116 131.573L191.097 131.62C196.204 130.458 201.074 127.883 205.054 123.891C209.129 119.804 211.716 114.792 212.819 109.548C212.926 110.088 213.038 110.622 213.181 111.162C215.061 118.493 219.688 124.686 226.219 128.613C230.454 131.158 235.087 132.486 239.69 132.694C239.708 132.285 239.719 131.87 239.719 131.454C239.719 131.336 239.714 131.211 239.708 131.092C239.702 130.547 239.672 130.001 239.625 129.461C240.164 129.491 240.704 129.503 241.244 129.497C240.236 116.127 229.197 105.521 215.524 104.975H215.542Z" fill="#FEFEFE" stroke="#FEFEFE" stroke-width="3" stroke-linecap="round" stroke-linejoin="round"/>
<path d="M239.539 121.785C239.539 121.785 246.313 146.681 243.258 157.595C248.804 157.014 260.532 148.775 260.532 148.775C248.538 139.776 239.539 121.785 239.539 121.785Z" fill="#FEFEFE" stroke="#FEFEFE" stroke-width="3" stroke-linecap="round" stroke-linejoin="round"/>
<path d="M187.647 128.529C187.647 128.529 183.821 149.439 187.843 162.999C187.843 162.999 172.598 158.069 173.559 154.771C183.56 143.56 187.647 128.529 187.647 128.529Z" fill="#FEFEFE" stroke="#FEFEFE" stroke-width="3" stroke-linecap="round" stroke-linejoin="round"/>
<path d="M145.753 318.207C141.713 344.319 132.145 373.087 125.953 390.017C122.518 399.401 115.536 407.059 106.52 411.365L88.2623 420.085C87.2776 420.553 87.6395 422.036 88.7309 422.001L152.533 421.336L160.232 404.36L162.64 421.68L168.809 421.2C169.806 417.629 196.588 328.487 196.588 328.487" stroke="#FEFEFE" stroke-width="3" stroke-linecap="round" stroke-linejoin="round"/>
<path d="M286.808 318.207C290.847 344.319 300.415 373.087 306.608 390.017C310.042 399.401 317.024 407.059 326.04 411.365L344.298 420.085C345.283 420.553 344.921 422.036 343.83 422.001L280.028 421.336L272.328 404.36L269.92 421.68L263.751 421.2C262.754 417.629 235.973 328.487 235.973 328.487" stroke="#FEFEFE" stroke-width="3" stroke-linecap="round" stroke-linejoin="round"/>
<path d="M336.425 286.995L325.083 270.95C295.383 291.485 259.455 303.527 220.78 303.527C182.105 303.527 143.72 290.655 113.451 268.82L102.121 284.99C100.567 287.209 101.107 290.287 103.343 291.818C136.845 314.78 177.288 328.215 220.786 328.215C264.283 328.215 302.264 315.586 335.156 293.882C337.451 292.369 338.021 289.237 336.431 286.995H336.425Z" fill="#203AE9"/>
<path d="M325.078 270.948L310.866 250.833C285.181 268.492 254.158 278.831 220.774 278.831C187.39 278.831 153.852 267.638 127.581 248.645L113.445 268.812C143.715 290.647 180.782 303.519 220.774 303.519C260.766 303.519 295.378 291.484 325.078 270.942V270.948Z" fill="#203AE9"/>
<path d="M310.871 250.841L296.659 230.727C274.99 245.503 248.866 254.139 220.786 254.139C191.305 254.139 164.001 244.619 141.721 228.479L127.586 248.646C153.858 267.634 186.043 278.833 220.78 278.833C255.516 278.833 285.181 268.494 310.871 250.835V250.841Z" fill="#FF8CC5"/>
<path d="M296.658 230.727L282.434 210.606C264.781 222.505 243.575 229.451 220.779 229.451C196.56 229.451 174.126 221.604 155.85 208.311L141.715 228.478C163.989 244.619 191.298 254.139 220.779 254.139C250.26 254.139 274.983 245.503 296.652 230.727H296.658Z" fill="#FF8CC5"/>
<path d="M282.431 210.602L268.207 190.476C254.576 199.498 238.275 204.754 220.777 204.754C201.813 204.754 184.261 198.585 169.983 188.133L155.848 208.301C174.123 221.594 196.557 229.442 220.777 229.442C243.566 229.442 264.778 222.495 282.431 210.596V210.602Z" fill="#00A6E8" stroke="#00A6E8" stroke-width="3" stroke-linecap="round" stroke-linejoin="round"/>
<path d="M268.216 190.479L256.335 173.668C255.042 171.835 252.58 171.295 250.622 172.381C241.766 177.275 231.599 180.062 220.786 180.062C208.572 180.062 197.177 176.509 187.574 170.37C185.593 169.107 182.971 169.611 181.624 171.533L169.992 188.136C184.27 198.581 201.828 204.756 220.786 204.756C238.284 204.756 254.585 199.501 268.216 190.479Z" fill="#00A6E8" stroke="#00A6E8" stroke-width="3" stroke-linecap="round" stroke-linejoin="round"/>
</svg>
