<svg width="432" height="432" viewBox="0 0 432 432" fill="none" xmlns="http://www.w3.org/2000/svg">
<path d="M228.867 410.996V376.387" stroke="#FEFEFE" stroke-width="3" stroke-miterlimit="10"/>
<path d="M200.195 410.996V376.387" stroke="#FEFEFE" stroke-width="3" stroke-miterlimit="10"/>
<path d="M216.016 410.995V382.319" stroke="#FEFEFE" stroke-width="3" stroke-miterlimit="10"/>
<path d="M229.416 417.008L230.426 407.528L215.07 404.461V414.222L229.416 417.008Z" fill="#FEFEFE" stroke="#FEFEFE" stroke-width="3" stroke-miterlimit="10"/>
<path d="M199.051 407.528V417.288L215.071 416.419V404.461L199.051 407.528Z" fill="#FEFEFE" stroke="#FEFEFE" stroke-width="3" stroke-miterlimit="10"/>
<path d="M200.377 417.288L215.059 414.222L227.077 417.288C227.077 417.288 215.751 419.999 214.751 419.999C213.75 419.999 200.367 417.288 200.367 417.288H200.377Z" fill="#FEFEFE" stroke="#FEFEFE" stroke-width="3" stroke-miterlimit="10"/>
<path d="M374.288 170.092C374.288 82.7813 303.483 12 216.144 12C128.805 12 58 82.7813 58 170.092C58 193.502 63.0969 215.724 72.2339 235.712C74.6561 242.649 77.8077 249.343 81.6328 255.71L81.3335 255.682L82.6428 257.365C86.8419 264.096 91.7985 270.463 97.4004 276.39L199.31 391.121L230.013 390.541L321.486 287.983C353.882 259.029 374.288 216.94 374.288 170.082V170.092Z" fill="#00A6E8"/>
<mask id="mask0_221_40802" style="mask-type:luminance" maskUnits="userSpaceOnUse" x="58" y="12" width="317" height="380">
<path d="M374.292 170.093C374.292 82.7823 303.487 12.001 216.148 12.001C128.809 12.001 58.0039 82.7823 58.0039 170.093C58.0039 193.503 63.1008 215.725 72.2378 235.713C74.66 242.65 77.8117 249.344 81.6367 255.711L81.3374 255.683L82.6467 257.366C86.8458 264.097 91.8024 270.464 97.4043 276.391L199.314 391.122L230.017 390.542L321.49 287.984C353.886 259.03 374.292 216.941 374.292 170.083V170.093Z" fill="white"/>
</mask>
<g mask="url(#mask0_221_40802)">
<mask id="mask1_221_40802" style="mask-type:luminance" maskUnits="userSpaceOnUse" x="58" y="12" width="317" height="380">
<path d="M374.296 170.093C374.296 82.7828 303.491 12.0015 216.152 12.0015C128.813 12.0015 58.0078 82.7828 58.0078 170.093C58.0078 193.503 63.1047 215.726 72.2417 235.714C74.6639 242.651 77.8156 249.345 81.6406 255.711L81.3413 255.683L82.6506 257.366C86.8497 264.097 91.8063 270.464 97.4082 276.391L199.318 391.122L230.021 390.543L321.494 287.984C353.889 259.03 374.296 216.941 374.296 170.084V170.093Z" fill="white"/>
</mask>
<g mask="url(#mask1_221_40802)">
<path d="M374.296 170.093C374.296 82.7828 303.491 12.0015 216.152 12.0015C128.813 12.0015 58.0078 82.7828 58.0078 170.093C58.0078 193.503 63.1047 215.726 72.2417 235.714C74.6639 242.651 77.8156 249.345 81.6406 255.711L81.3413 255.683L82.6506 257.366C86.8497 264.097 91.8063 270.464 97.4082 276.391L199.318 391.122L230.021 390.543L321.494 287.984C353.889 259.03 374.296 216.941 374.296 170.084V170.093Z" fill="#00A6E8"/>
</g>
</g>
<mask id="mask2_221_40802" style="mask-type:luminance" maskUnits="userSpaceOnUse" x="58" y="12" width="317" height="380">
<path d="M374.288 170.092C374.288 82.7813 303.483 12 216.144 12C128.805 12 58 82.7813 58 170.092C58 193.502 63.0969 215.724 72.2339 235.712C74.6561 242.649 77.8077 249.343 81.6328 255.71L81.3335 255.682L82.6428 257.365C86.8419 264.096 91.7985 270.463 97.4004 276.39L199.31 391.121L230.013 390.541L321.486 287.983C353.882 259.029 374.288 216.94 374.288 170.082V170.092Z" fill="white"/>
</mask>
<g mask="url(#mask2_221_40802)">
<path d="M478.98 168.515C457.204 172.036 438.292 188.413 431.635 209.417L422.346 208.396C420.457 188.496 403.066 170.93 383.145 168.965L383.145 168.965C363.198 167.006 342.683 180.886 336.971 200.072L327.681 200.168C320.473 177.305 297.402 160.387 273.422 160.387H273.42H273.419H273.418H273.416H273.415H273.413H273.412H273.41H273.409H273.408H273.406H273.405H273.403H273.402H273.4H273.399H273.398H273.396H273.395H273.393H273.392H273.39H273.389H273.388H273.386H273.385H273.383H273.382H273.38H273.379H273.378H273.376H273.375H273.373H273.372H273.37H273.369H273.368H273.366H273.365H273.363H273.362H273.36H273.359H273.358H273.356H273.355H273.353H273.352H273.35H273.349H273.348H273.346H273.345H273.343H273.342H273.34H273.339H273.337H273.336H273.335H273.333H273.332H273.33H273.329H273.327H273.326H273.325H273.323H273.322H273.32H273.319H273.317H273.316H273.314H273.313H273.312H273.31H273.309H273.307H273.306H273.304H273.303H273.302H273.3H273.299H273.297H273.296H273.294H273.293H273.291H273.29H273.289H273.287H273.286H273.284H273.283H273.281H273.28H273.278H273.277H273.276H273.274H273.273H273.271H273.27H273.268H273.267H273.265H273.264H273.263H273.261H273.26H273.258H273.257H273.255H273.254H273.253H273.251H273.25H273.248H273.247H273.245H273.244H273.242H273.241H273.24H273.238H273.237H273.235H273.234H273.232H273.231H273.229H273.228H273.226H273.225H273.224H273.222H273.221H273.219H273.218H273.216H273.215H273.213H273.212H273.211H273.209H273.208H273.206H273.205H273.203H273.202H273.2H273.199H273.198H273.196H273.195H273.193H273.192H273.19H273.189H273.187H273.186H273.185H273.183H273.182H273.18H273.179H273.177H273.176H273.174H273.173H273.171H273.17H273.169H273.167H273.166H273.164H273.163H273.161H273.16H273.158H273.157H273.156H273.154H273.153H273.151H273.15H273.148H273.147H273.145H273.144H273.142H273.141H273.14H273.138H273.137H273.135H273.134H273.132H273.131H273.129H273.128H273.126H273.125H273.124H273.122H273.121H273.119H273.118H273.116H273.115H273.113H273.112H273.111H273.109H273.108H273.106H273.105H273.103H273.102H273.1H273.099H273.097H273.096H273.095H273.093H273.092H273.09H273.089H273.087H273.086H273.084H273.083H273.082H273.08H273.079H273.077H273.076H273.074H273.073H273.071H273.07H273.068H273.067H273.066H273.064H273.063H273.061H273.06H273.058H273.057H273.055H273.054H273.052H273.051H273.05H273.048H273.047H273.045H273.044H273.042H273.041H273.039H273.038H273.036H273.035H273.034H273.032H273.031H273.029H273.028H273.026H273.025H273.023H273.022H273.021H273.019H273.018H273.016H273.015H273.013H273.012H273.01H273.009H273.007H273.006H273.005H273.003H273.002H273H272.999H272.997H272.996H272.994H272.993H272.991H272.99H272.989H272.987H272.986H272.984H272.983H272.981H272.98H272.978H272.977H272.976H272.974H272.973H272.971H272.97H272.968H272.967H272.965H272.964H272.962H272.961H272.96H272.958H272.957H272.955H272.954H272.952H272.951H272.949H272.948H272.947H272.945H272.944H272.942H272.941H272.939H272.938H272.936H272.935H272.933H272.932H272.931H272.929H272.928H272.926H272.925H272.923H272.922H272.92H272.919H272.918H272.916H272.915H272.913H272.912H272.91H272.909H272.907H272.906H272.904H272.903H272.902H272.9H272.899H272.897H272.896H272.894H272.893H272.891H272.89H272.889H272.887H272.886H272.884H272.883H272.881H272.88H272.878H272.877H272.876H272.874H272.873H272.871H272.87H272.868H272.867H272.865H272.864H272.863H272.861H272.86H272.858H272.857H272.855H272.854H272.852H272.851H272.85H272.848H272.847H272.845H272.844H272.842H272.841H272.839H272.838H272.837H272.835H272.834H272.832H272.831H272.829H272.828H272.826H272.825H272.824H272.822H272.821H272.819H272.818H272.816H272.815H272.813H272.812H272.811H272.809H272.808H272.806H272.805H272.803H272.802H272.801H272.799H272.798H272.796H272.795H272.793H272.792H272.79H272.789H272.788H272.786H272.785H272.783H272.782H272.78H272.779H272.777H272.776H272.775H272.773H272.772H272.77H272.769H272.767H272.766H272.765H272.763H272.762H272.76H272.759H272.757H272.756H272.755H272.753H272.752H272.75H272.749H272.747H272.746H272.745H272.743H272.742H272.74H272.739H272.737H272.736H272.734H272.733H272.732H272.73H272.729H272.727H272.726H272.724H272.723H272.722H272.72H272.719H272.717H272.716H272.714H272.713H272.712H272.71H272.709H272.707H272.706H272.704H272.703H272.702H272.7H272.699H272.697H272.696H272.694H272.693H272.692H272.69H272.689H272.687H272.686H272.684H272.683H272.676L272.668 160.387C248.455 160.745 225.506 178.434 218.884 201.702L209.526 200.947C206.346 173.877 181.052 151.271 153.752 151.271H153.752H153.752H153.751H153.751H153.751H153.75H153.75H153.75H153.749H153.749H153.749H153.748H153.748H153.748H153.747H153.747H153.747H153.746H153.746H153.746H153.745H153.745H153.745H153.744H153.744H153.744H153.743H153.743H153.743H153.742H153.742H153.742H153.741H153.741H153.741H153.74H153.74H153.74H153.739H153.739H153.739H153.738H153.738H153.738H153.737H153.737H153.737H153.736H153.736H153.736H153.735H153.735H153.735H153.734H153.734H153.734H153.733H153.733H153.733H153.732H153.732H153.732H153.731H153.731H153.731H153.73H153.73H153.73H153.729H153.729H153.729H153.728H153.728H153.728H153.727H153.727H153.727H153.726H153.726H153.725H153.725H153.725H153.724H153.724H153.724H153.723H153.723H153.723H153.722H153.722H153.722H153.721H153.721H153.721H153.72H153.72H153.72H153.719H153.719H153.719H153.718H153.718H153.718H153.717H153.717H153.717H153.716H153.716H153.715H153.715H153.715H153.714H153.714H153.714H153.713H153.713H153.713H153.712H153.712H153.712H153.711H153.711H153.711H153.71H153.71H153.71H153.709H153.709H153.709H153.708H153.708H153.707H153.707H153.707H153.706H153.706H153.706H153.705H153.705H153.705H153.704H153.704H153.704H153.703H153.703H153.703H153.702H153.702H153.702H153.701H153.701H153.7H153.7H153.7H153.699H153.699H153.699H153.698H153.698H153.698H153.697H153.697H153.697H153.696H153.696H153.696H153.695H153.695H153.694H153.694H153.694H153.693H153.693H153.693H153.692H153.692H153.692H153.691H153.691H153.691H153.69H153.69H153.69H153.689H153.689H153.688H153.688H153.688H153.687H153.687H153.687H153.686H153.686H153.686H153.685H153.685H153.685H153.684H153.684H153.683H153.683H153.683H153.682H153.682H153.682H153.681H153.681H153.681H153.68H153.68H153.68H153.679H153.679H153.679H153.678H153.678H153.677H153.677H153.677H153.676H153.676H153.676H153.675H153.675H153.675H153.674H153.674H153.674H153.673H153.673H153.672H153.672H153.672H153.671H153.671H153.671H153.67H153.67H153.67H153.669H153.669H153.669H153.668H153.668H153.667H153.667H153.667H153.666H153.666H153.666H153.665H153.665H153.665H153.664H153.664H153.664H153.663H153.663H153.662H153.662H153.662H153.661H153.661H153.661H153.66H153.66H153.66H153.659H153.659H153.659H153.658H153.658H153.658H153.657H153.657H153.656H153.656H153.656H153.655H153.655H153.655H153.654H153.654H153.654H153.653H153.653H153.653H153.652H153.652H153.651H153.651H153.651H153.65H153.65H153.65H153.649H153.649H153.649H153.648H153.648H153.648H153.647H153.647H153.646H153.646H153.646H153.645H153.645H153.645H153.644H153.644H153.644H153.643H153.643H153.643H153.642H153.642H153.642H153.641H153.641H153.64H153.64H153.64H153.639H153.639H153.639H153.638H153.638H153.638H153.637H153.637H153.637H153.636H153.636H153.635H153.635H153.635H153.634H153.634H153.634H153.633H153.633H153.633H153.632H153.632H153.632H153.631H153.631H153.631H153.63H153.63H153.63H153.629H153.629H153.628H153.628H153.628H153.627H153.627H153.627H153.626H153.626H153.626H153.625H153.625H153.625H153.624H153.624H153.624H153.623H153.623H153.622H153.622H153.622H153.621H153.621H153.621H153.62H153.62H153.62H153.619H153.619H153.619H153.618H153.618H153.618H153.617H153.617H153.617H153.616H153.616H153.615H153.615H153.615H153.614H153.614H153.614H153.613H153.613H153.613H153.612H153.612H153.612H153.611H153.611H153.611H153.61H153.61H153.61H153.609H153.609H153.609H153.608H153.608H153.607H153.607H153.607H153.606H153.606H153.606H153.605H153.605H153.605H153.604H153.604H153.604H153.603H153.603H153.603H153.602H153.602H153.602H153.601H153.601H153.601H153.6H153.6H153.6H153.599H153.599H153.599H153.598H153.598H153.598H153.597H153.597H153.597H153.596H153.596H153.595H153.595H153.595H153.594H153.594H153.594H153.593H153.593H153.593H153.592H153.592H153.592H153.591H153.591H153.591H153.59H153.59H153.59H153.589H153.589H153.589H153.588H153.588H153.588H153.587H153.587H153.587H153.586H153.586H153.586H153.585H153.585H153.585H153.584H153.584H153.584H153.583H153.583H153.583H153.582H153.582H153.582H153.581H153.581H153.581H153.58H153.58H153.58H153.579H153.579H153.579H153.578H153.578H153.578H153.577H153.577H153.577H153.576H153.576H153.576H153.575H153.575L153.575 151.271L153.571 151.271C126.17 151.375 100.901 174.255 97.9703 201.459L88.9486 203.447C78.2776 185.624 58.2341 173.008 35.204 169.551C11.9037 166.043 -11.232 172.404 -26.682 186.642L-26.6821 186.642C-28.5566 188.37 -31.4692 188.249 -33.2004 186.38C-34.928 184.507 -34.807 181.597 -32.9389 179.866C-15.522 163.81 10.4517 156.516 36.5622 160.44L36.7109 159.452L36.5623 160.44C57.8717 163.642 76.9143 173.976 89.6713 188.805L90.8293 190.151L91.38 188.463C99.8967 162.36 125.823 142.164 153.511 142.062H153.511H153.512H153.512H153.513H153.513H153.514H153.514H153.514H153.515H153.515H153.516H153.516H153.517H153.517H153.518H153.518H153.518H153.519H153.519H153.52H153.52H153.521H153.521H153.521H153.522H153.522H153.523H153.523H153.524H153.524H153.524H153.525H153.525H153.526H153.526H153.527H153.527H153.527H153.528H153.528H153.529H153.529H153.53H153.53H153.53H153.531H153.531H153.532H153.532H153.533H153.533H153.533H153.534H153.534H153.535H153.535H153.536H153.536H153.536H153.537H153.537H153.538H153.538H153.539H153.539H153.539H153.54H153.54H153.541H153.541H153.542H153.542H153.542H153.543H153.543H153.544H153.544H153.545H153.545H153.545H153.546H153.546H153.547H153.547H153.548H153.548H153.548H153.549H153.549H153.55H153.55H153.55H153.551H153.551H153.552H153.552H153.553H153.553H153.553H153.554H153.554H153.555H153.555H153.556H153.556H153.556H153.557H153.557H153.558H153.558H153.558H153.559H153.559H153.56H153.56H153.561H153.561H153.561H153.562H153.562H153.563H153.563H153.563H153.564H153.564H153.565H153.565H153.566H153.566H153.566H153.567H153.567H153.568H153.568H153.568H153.569H153.569H153.57H153.57H153.571H153.571H153.571H153.572H153.572H153.573H153.573H153.573H153.574H153.574H153.575H153.575H153.576H153.576H153.576H153.577H153.577H153.578H153.578H153.578H153.579H153.579H153.58H153.58H153.581H153.581H153.581H153.582H153.582H153.583H153.583H153.583H153.584H153.584H153.585H153.585H153.585H153.586H153.586H153.587H153.587H153.588H153.588H153.588H153.589H153.589H153.59H153.59H153.59H153.591H153.591H153.592H153.592H153.593H153.593H153.593H153.594H153.594H153.595H153.595H153.595H153.596H153.596H153.597H153.597H153.597H153.598H153.598H153.599H153.599H153.6H153.6H153.6H153.601H153.601H153.602H153.602H153.602H153.603H153.603H153.604H153.604H153.604H153.605H153.605H153.606H153.606H153.607H153.607H153.607H153.608H153.608H153.609H153.609H153.609H153.61H153.61H153.611H153.611H153.611H153.612H153.612H153.613H153.613H153.614H153.614H153.614H153.615H153.615H153.616H153.616H153.616H153.617H153.617H153.618H153.618H153.618H153.619H153.619H153.62H153.62H153.62H153.621H153.621H153.622H153.622H153.623H153.623H153.623H153.624H153.624H153.625H153.625H153.625H153.626H153.626H153.627H153.627H153.627H153.628H153.628H153.629H153.629H153.63H153.63H153.63H153.631H153.631H153.632H153.632H153.632H153.633H153.633H153.634H153.634H153.634H153.635H153.635H153.636H153.636H153.637H153.637H153.637H153.638H153.638H153.639H153.639H153.639H153.64H153.64H153.641H153.641H153.641H153.642H153.642H153.643H153.643H153.644H153.644H153.644H153.645H153.645H153.646H153.646H153.646H153.647H153.647H153.648H153.648H153.649H153.649H153.649H153.65H153.65H153.651H153.651H153.651H153.652H153.652H153.653H153.653H153.653H153.654H153.654H153.655H153.655H153.656H153.656H153.656H153.657H153.657H153.658H153.658H153.658H153.659H153.659H153.66H153.66H153.661H153.661H153.661H153.662H153.662H153.663H153.663H153.663H153.664H153.664H153.665H153.665H153.666H153.666H153.666H153.667H153.667H153.668H153.668H153.668H153.669H153.669H153.67H153.67H153.671H153.671H153.671H153.672H153.672H153.673H153.673H153.673H153.674H153.674H153.675H153.675H153.676H153.676H153.676H153.677H153.677H153.678H153.678H153.679H153.679H153.679H153.68H153.68H153.681H153.681H153.681H153.682H153.682H153.683H153.683H153.684H153.684H153.684H153.685H153.685H153.686H153.686H153.687H153.687H153.687H153.688H153.688H153.689H153.689H153.689H153.69H153.69H153.691H153.691H153.692H153.692H153.692H153.693H153.693H153.694H153.694H153.695H153.695H153.695H153.696H153.696H153.697H153.697H153.698H153.698H153.698H153.699H153.699H153.7H153.7H153.701H153.701H153.701H153.702H153.702H153.703H153.703H153.704H153.704H153.704H153.705H153.705H153.706H153.706H153.707H153.707H153.707H153.708H153.708H153.709H153.709H153.71H153.71H153.71H153.711H153.711H153.712H153.712H153.713H153.713H153.713H153.714H153.714H153.715H153.715H153.716H153.716H153.717H153.717H153.717H153.718H153.718H153.719H153.719H153.72H153.72H153.72H153.721H153.721H153.722H153.722H153.723H153.723H153.723H153.724H153.724C180.003 142.062 204.796 160.145 214.615 184.295L215.371 186.154L216.4 184.43C228.001 164.999 249.81 151.518 272.5 151.177C296.447 150.846 319.806 165.112 331.458 185.912L332.3 187.415L333.188 185.938C343.532 168.728 363.746 157.794 384.015 159.792L384.113 158.797L384.015 159.792C403.182 161.68 420.026 174.882 427.543 192.28L428.313 194.063L429.317 192.4C439.694 175.213 457.579 162.633 477.513 159.41L477.354 158.423L477.514 159.41C502.966 155.292 530.044 166.707 544.852 187.802C546.312 189.884 545.813 192.758 543.729 194.226C541.646 195.684 538.772 195.184 537.304 193.102C524.468 174.82 501.045 164.948 478.98 168.515Z" fill="#FEFEFE" stroke="#00A6E8" stroke-width="2"/>
<path d="M348.816 335.693C327.04 339.215 308.128 355.592 301.47 376.596L292.182 375.575C290.293 355.675 272.902 338.109 252.981 336.144C233.033 334.176 212.519 348.065 206.807 367.251L197.517 367.347C190.309 344.484 167.229 327.566 143.258 327.566H143.256H143.255H143.254H143.252H143.251H143.249H143.248H143.246H143.245H143.244H143.242H143.241H143.239H143.238H143.236H143.235H143.234H143.232H143.231H143.229H143.228H143.227H143.225H143.224H143.222H143.221H143.219H143.218H143.217H143.215H143.214H143.212H143.211H143.209H143.208H143.207H143.205H143.204H143.202H143.201H143.199H143.198H143.197H143.195H143.194H143.192H143.191H143.189H143.188H143.187H143.185H143.184H143.182H143.181H143.179H143.178H143.177H143.175H143.174H143.172H143.171H143.169H143.168H143.167H143.165H143.164H143.162H143.161H143.16H143.158H143.157H143.155H143.154H143.152H143.151H143.15H143.148H143.147H143.145H143.144H143.142H143.141H143.14H143.138H143.137H143.135H143.134H143.132H143.131H143.13H143.128H143.127H143.125H143.124H143.122H143.121H143.12H143.118H143.117H143.115H143.114H143.112H143.111H143.11H143.108H143.107H143.105H143.104H143.102H143.101H143.1H143.098H143.097H143.095H143.094H143.092H143.091H143.09H143.088H143.087H143.085H143.084H143.082H143.081H143.08H143.078H143.077H143.075H143.074H143.072H143.071H143.07H143.068H143.067H143.065H143.064H143.062H143.061H143.06H143.058H143.057H143.055H143.054H143.052H143.051H143.05H143.048H143.047H143.045H143.044H143.042H143.041H143.04H143.038H143.037H143.035H143.034H143.032H143.031H143.03H143.028H143.027H143.025H143.024H143.022H143.021H143.02H143.018H143.017H143.015H143.014H143.012H143.011H143.01H143.008H143.007H143.005H143.004H143.002H143.001H143H142.998H142.997H142.995H142.994H142.992H142.991H142.99H142.988H142.987H142.985H142.984H142.982H142.981H142.979H142.978H142.977H142.975H142.974H142.972H142.971H142.969H142.968H142.967H142.965H142.964H142.962H142.961H142.959H142.958H142.957H142.955H142.954H142.952H142.951H142.949H142.948H142.947H142.945H142.944H142.942H142.941H142.939H142.938H142.936H142.935H142.934H142.932H142.931H142.929H142.928H142.926H142.925H142.924H142.922H142.921H142.919H142.918H142.916H142.915H142.913H142.912H142.911H142.909H142.908H142.906H142.905H142.903H142.902H142.901H142.899H142.898H142.896H142.895H142.893H142.892H142.891H142.889H142.888H142.886H142.885H142.883H142.882H142.88H142.879H142.878H142.876H142.875H142.873H142.872H142.87H142.869H142.867H142.866H142.865H142.863H142.862H142.86H142.859H142.857H142.856H142.854H142.853H142.852H142.85H142.849H142.847H142.846H142.844H142.843H142.842H142.84H142.839H142.837H142.836H142.834H142.833H142.831H142.83H142.829H142.827H142.826H142.824H142.823H142.821H142.82H142.818H142.817H142.816H142.814H142.813H142.811H142.81H142.808H142.807H142.805H142.804H142.803H142.801H142.8H142.798H142.797H142.795H142.794H142.792H142.791H142.789H142.788H142.787H142.785H142.784H142.782H142.781H142.779H142.778H142.776H142.775H142.774H142.772H142.771H142.769H142.768H142.766H142.765H142.763H142.762H142.761H142.759H142.758H142.756H142.755H142.753H142.752H142.75H142.749H142.747H142.746H142.745H142.743H142.742H142.74H142.739H142.737H142.736H142.734H142.733H142.732H142.73H142.729H142.727H142.726H142.724H142.723H142.721H142.72H142.718H142.717H142.716H142.714H142.713H142.711H142.71H142.708H142.707H142.705H142.704H142.702H142.701H142.699H142.698H142.697H142.695H142.694H142.692H142.691H142.689H142.688H142.686H142.685H142.683H142.682H142.681H142.679H142.678H142.676H142.675H142.673H142.672H142.67H142.669H142.667H142.666H142.664H142.663H142.662H142.66H142.659H142.657H142.656H142.654H142.653H142.651H142.65H142.648H142.647H142.646H142.644H142.643H142.641H142.64H142.638H142.637H142.635H142.634H142.632H142.631H142.629H142.628H142.626H142.625H142.624H142.622H142.621H142.619H142.618H142.616H142.615H142.613H142.612H142.61H142.609H142.607H142.606H142.604H142.603H142.602H142.6H142.599H142.597H142.596H142.594H142.593H142.591H142.59H142.588H142.587H142.585H142.584H142.582H142.581H142.579H142.578H142.577H142.575H142.574H142.572H142.571H142.569H142.568H142.566H142.565H142.563H142.562H142.56H142.559H142.557H142.556H142.554H142.553H142.552H142.55H142.549H142.547H142.546H142.544H142.543H142.541H142.54H142.538H142.537H142.535H142.534H142.532H142.531H142.529H142.528H142.526H142.525H142.523H142.522H142.52H142.519H142.512L142.504 327.566C118.291 327.924 95.3422 345.613 88.7204 368.881L79.3617 368.126C76.1818 341.056 50.8875 318.45 23.5883 318.45H23.588H23.5877H23.5873H23.587H23.5867H23.5863H23.586H23.5857H23.5854H23.585H23.5847H23.5844H23.584H23.5837H23.5834H23.5831H23.5827H23.5824H23.582H23.5817H23.5814H23.5811H23.5807H23.5804H23.58H23.5797H23.5794H23.579H23.5787H23.5784H23.578H23.5777H23.5774H23.577H23.5767H23.5764H23.576H23.5757H23.5754H23.575H23.5747H23.5743H23.574H23.5737H23.5733H23.573H23.5727H23.5723H23.572H23.5716H23.5713H23.571H23.5706H23.5703H23.5699H23.5696H23.5693H23.5689H23.5686H23.5683H23.5679H23.5676H23.5672H23.5669H23.5665H23.5662H23.5659H23.5655H23.5652H23.5648H23.5645H23.5642H23.5638H23.5635H23.5631H23.5628H23.5625H23.5621H23.5618H23.5614H23.5611H23.5607H23.5604H23.56H23.5597H23.5594H23.559H23.5587H23.5583H23.558H23.5576H23.5573H23.5569H23.5566H23.5563H23.5559H23.5556H23.5552H23.5549H23.5545H23.5542H23.5538H23.5535H23.5531H23.5528H23.5524H23.5521H23.5518H23.5514H23.5511H23.5507H23.5504H23.55H23.5497H23.5493H23.549H23.5486H23.5483H23.5479H23.5476H23.5472H23.5469H23.5465H23.5462H23.5458H23.5455H23.5451H23.5448H23.5444H23.5441H23.5437H23.5434H23.543H23.5427H23.5423H23.542H23.5416H23.5413H23.5409H23.5406H23.5402H23.5399H23.5395H23.5392H23.5388H23.5385H23.5381H23.5378H23.5374H23.5371H23.5367H23.5364H23.536H23.5357H23.5353H23.535H23.5346H23.5343H23.5339H23.5336H23.5332H23.5329H23.5325H23.5322H23.5318H23.5314H23.5311H23.5307H23.5304H23.53H23.5297H23.5293H23.529H23.5286H23.5283H23.5279H23.5276H23.5272H23.5269H23.5265H23.5262H23.5258H23.5254H23.5251H23.5247H23.5244H23.524H23.5237H23.5233H23.523H23.5226H23.5222H23.5219H23.5215H23.5212H23.5208H23.5205H23.5201H23.5198H23.5194H23.5191H23.5187H23.5184H23.518H23.5176H23.5173H23.5169H23.5166H23.5162H23.5159H23.5155H23.5152H23.5148H23.5145H23.5141H23.5137H23.5134H23.513H23.5127H23.5123H23.512H23.5116H23.5112H23.5109H23.5105H23.5102H23.5098H23.5095H23.5091H23.5088H23.5084H23.508H23.5077H23.5073H23.507H23.5066H23.5063H23.5059H23.5056H23.5052H23.5048H23.5045H23.5041H23.5038H23.5034H23.5031H23.5027H23.5023H23.502H23.5016H23.5013H23.5009H23.5006H23.5002H23.4998H23.4995H23.4991H23.4988H23.4984H23.4981H23.4977H23.4974H23.497H23.4966H23.4963H23.4959H23.4956H23.4952H23.4949H23.4945H23.4942H23.4938H23.4934H23.4931H23.4927H23.4924H23.492H23.4917H23.4913H23.491H23.4906H23.4902H23.4899H23.4895H23.4892H23.4888H23.4885H23.4881H23.4877H23.4874H23.487H23.4867H23.4863H23.486H23.4856H23.4853H23.4849H23.4845H23.4842H23.4838H23.4835H23.4831H23.4828H23.4824H23.4821H23.4817H23.4814H23.481H23.4806H23.4803H23.4799H23.4796H23.4792H23.4789H23.4785H23.4782H23.4778H23.4774H23.4771H23.4767H23.4764H23.476H23.4757H23.4753H23.475H23.4746H23.4743H23.4739H23.4736H23.4732H23.4728H23.4725H23.4721H23.4718H23.4714H23.4711H23.4707H23.4704H23.47H23.4697H23.4693H23.4689H23.4686H23.4682H23.4679H23.4675H23.4672H23.4668H23.4665H23.4661H23.4658H23.4654H23.4651H23.4647H23.4644H23.464H23.4637H23.4633H23.463H23.4626H23.4623H23.4619H23.4616H23.4612H23.4609H23.4605H23.4602H23.4598H23.4595H23.4591H23.4588H23.4584H23.4581H23.4577H23.4574H23.457H23.4566H23.4563H23.4559H23.4556H23.4552H23.4549H23.4545H23.4542H23.4539H23.4535H23.4532H23.4528H23.4525H23.4521H23.4518H23.4514H23.4511H23.4507H23.4504H23.45H23.4497H23.4493H23.449H23.4486H23.4483H23.4479H23.4476H23.4472H23.4469H23.4465H23.4462H23.4458H23.4455H23.4452H23.4448H23.4445H23.4441H23.4438H23.4434H23.4431H23.4427H23.4424H23.442H23.4417H23.4414H23.441H23.4407H23.4403H23.44H23.4396H23.4393H23.4389H23.4386H23.4383H23.4379H23.4376H23.4372H23.4369H23.4365H23.4362H23.4359H23.4355H23.4352H23.4348H23.4345H23.4341H23.4338H23.4335H23.4331H23.4328H23.4324H23.4321H23.4318H23.4314H23.4311H23.4307H23.4304H23.4301H23.4297H23.4294H23.429H23.4287H23.4284H23.428H23.4277H23.4274H23.427H23.4267H23.4263H23.426H23.4257H23.4253H23.425H23.4247H23.4243H23.424H23.4236H23.4233H23.423H23.4226H23.4223H23.422H23.4216H23.4213H23.4209H23.4206H23.4203H23.42H23.4196H23.4193H23.4189H23.4186H23.4183H23.4179H23.4176H23.4173H23.4169H23.4166H23.4163H23.4159H23.4156H23.4153H23.4149H23.4146H23.4143H23.414H23.4136H23.4133H23.413H23.4126H23.4123H23.412H23.4117H23.4113H23.411L23.4107 318.45L23.4069 318.45C-3.9939 318.554 -29.2626 341.434 -32.1938 368.638L-41.2155 370.626C-51.8865 352.803 -71.93 340.187 -94.9601 336.729C-118.26 333.222 -141.396 339.583 -156.846 353.821L-156.846 353.821C-158.721 355.549 -161.633 355.428 -163.365 353.559C-165.092 351.686 -164.971 348.776 -163.103 347.045C-145.686 330.989 -119.703 323.695 -93.6019 327.619L-93.6018 327.619C-72.2924 330.821 -53.2498 341.155 -40.4928 355.984L-39.3348 357.33L-38.784 355.642C-30.2674 329.539 -4.34149 309.343 23.3469 309.241H23.3474H23.3478H23.3483H23.3487H23.3491H23.3496H23.35H23.3504H23.3509H23.3513H23.3518H23.3522H23.3526H23.3531H23.3535H23.354H23.3544H23.3548H23.3553H23.3557H23.3561H23.3566H23.357H23.3575H23.3579H23.3583H23.3588H23.3592H23.3596H23.3601H23.3605H23.361H23.3614H23.3618H23.3623H23.3627H23.3632H23.3636H23.364H23.3645H23.3649H23.3653H23.3658H23.3662H23.3667H23.3671H23.3675H23.368H23.3684H23.3689H23.3693H23.3697H23.3702H23.3706H23.371H23.3715H23.3719H23.3723H23.3728H23.3732H23.3737H23.3741H23.3745H23.375H23.3754H23.3758H23.3763H23.3767H23.3772H23.3776H23.378H23.3785H23.3789H23.3793H23.3798H23.3802H23.3807H23.3811H23.3815H23.382H23.3824H23.3828H23.3833H23.3837H23.3842H23.3846H23.385H23.3855H23.3859H23.3863H23.3868H23.3872H23.3876H23.3881H23.3885H23.3889H23.3894H23.3898H23.3903H23.3907H23.3911H23.3916H23.392H23.3924H23.3929H23.3933H23.3938H23.3942H23.3946H23.3951H23.3955H23.3959H23.3964H23.3968H23.3972H23.3977H23.3981H23.3985H23.399H23.3994H23.3998H23.4003H23.4007H23.4012H23.4016H23.402H23.4025H23.4029H23.4033H23.4038H23.4042H23.4046H23.4051H23.4055H23.4059H23.4064H23.4068H23.4072H23.4077H23.4081H23.4085H23.409H23.4094H23.4098H23.4103H23.4107H23.4111H23.4116H23.412H23.4124H23.4129H23.4133H23.4137H23.4142H23.4146H23.415H23.4155H23.4159H23.4163H23.4168H23.4172H23.4176H23.4181H23.4185H23.4189H23.4194H23.4198H23.4202H23.4207H23.4211H23.4215H23.422H23.4224H23.4228H23.4232H23.4237H23.4241H23.4245H23.425H23.4254H23.4258H23.4263H23.4267H23.4271H23.4276H23.428H23.4284H23.4289H23.4293H23.4297H23.4301H23.4306H23.431H23.4314H23.4319H23.4323H23.4327H23.4332H23.4336H23.434H23.4344H23.4349H23.4353H23.4357H23.4362H23.4366H23.437H23.4375H23.4379H23.4383H23.4387H23.4392H23.4396H23.44H23.4405H23.4409H23.4413H23.4417H23.4422H23.4426H23.443H23.4435H23.4439H23.4443H23.4447H23.4452H23.4456H23.446H23.4464H23.4469H23.4473H23.4477H23.4482H23.4486H23.449H23.4494H23.4499H23.4503H23.4507H23.4511H23.4516H23.452H23.4524H23.4528H23.4533H23.4537H23.4541H23.4545H23.455H23.4554H23.4558H23.4562H23.4567H23.4571H23.4575H23.4579H23.4584H23.4588H23.4592H23.4596H23.4601H23.4605H23.4609H23.4613H23.4617H23.4622H23.4626H23.463H23.4634H23.4639H23.4643H23.4647H23.4651H23.4656H23.466H23.4664H23.4668H23.4672H23.4677H23.4681H23.4685H23.4689H23.4693H23.4698H23.4702H23.4706H23.471H23.4715H23.4719H23.4723H23.4727H23.4731H23.4736H23.474H23.4744H23.4748H23.4752H23.4756H23.4761H23.4765H23.4769H23.4773H23.4778H23.4782H23.4786H23.479H23.4794H23.4798H23.4803H23.4807H23.4811H23.4815H23.4819H23.4823H23.4828H23.4832H23.4836H23.484H23.4844H23.4848H23.4853H23.4857H23.4861H23.4865H23.4869H23.4874H23.4878H23.4882H23.4886H23.489H23.4894H23.4898H23.4902H23.4907H23.4911H23.4915H23.4919H23.4923H23.4927H23.4931H23.4936H23.494H23.4944H23.4948H23.4952H23.4956H23.496H23.4965H23.4969H23.4973H23.4977H23.4981H23.4985H23.4989H23.4993H23.4998H23.5002H23.5006H23.501H23.5014H23.5018H23.5022H23.5026H23.503H23.5034H23.5039H23.5043H23.5047H23.5051H23.5055H23.5059H23.5063H23.5067H23.5071H23.5075H23.5079H23.5083H23.5088H23.5092H23.5096H23.51H23.5104H23.5108H23.5112H23.5116H23.512H23.5124H23.5128H23.5132H23.5136H23.5141H23.5145H23.5149H23.5153H23.5157H23.5161H23.5165H23.5169H23.5173H23.5177H23.5181H23.5185H23.5189H23.5193H23.5197H23.5201H23.5205H23.5209H23.5213H23.5217H23.5221H23.5225H23.5229H23.5233H23.5237H23.5241H23.5245H23.5249H23.5253H23.5257H23.5262H23.5266H23.5269H23.5273H23.5278H23.5282H23.5285H23.5289H23.5293H23.5297H23.5302H23.5305H23.5309H23.5313H23.5317H23.5321H23.5325H23.5329H23.5333H23.5337H23.5341H23.5345H23.5349H23.5353H23.5357H23.5361H23.5365H23.5369H23.5373H23.5377H23.5381H23.5385H23.5389H23.5393H23.5397H23.5401H23.5405H23.5408H23.5412H23.5416H23.542H23.5424H23.5428H23.5432H23.5436H23.544H23.5444H23.5448H23.5452H23.5456H23.5459H23.5463H23.5467H23.5471H23.5475H23.5479H23.5483H23.5487H23.5491H23.5495H23.5499H23.5502H23.5506H23.551H23.5514H23.5518H23.5522H23.5526H23.553H23.5533H23.5537H23.5541H23.5545H23.5549H23.5553H23.5557H23.5561H23.5564H23.5568H23.5572H23.5576H23.558H23.5584H23.5587H23.5591H23.5595H23.5599H23.5603C49.8388 309.241 74.6223 327.324 84.4514 351.474L85.2078 353.332L86.2363 351.609C97.8365 332.178 119.646 318.697 142.337 318.356C166.255 318.034 189.642 332.292 201.294 353.091L202.136 354.594L203.024 353.117C213.368 335.907 233.572 324.983 253.851 326.971C273.018 328.859 289.862 342.061 297.379 359.459L298.149 361.242L299.153 359.579C309.53 342.392 327.415 329.812 347.349 326.589L347.19 325.602L347.35 326.589C372.793 322.471 399.88 333.886 414.688 354.981C416.148 357.063 415.649 359.937 413.565 361.405C411.482 362.863 408.608 362.363 407.14 360.281C394.295 342 370.872 332.127 348.816 335.693Z" fill="#053575" stroke="#00A6E8" stroke-width="2"/>
</g>
</svg>
