<svg width="illustrationWidth" height="illustrationHeight" viewBox="0 0 432 432" fill="none" xmlns="http://www.w3.org/2000/svg">
<path d="M215.997 115.454C329.584 115.454 422 207.863 422 321.458H292.115C292.115 279.488 257.972 245.339 215.997 245.339C174.028 245.339 139.885 279.482 139.885 321.458H10C10 207.863 102.409 115.454 216.003 115.454H215.997Z" fill="#00A6E8"/>
<path d="M173.459 226.796C172.013 226.796 170.547 226.443 169.196 225.696C164.906 223.334 163.345 217.951 165.707 213.661L228.098 100.589C230.46 96.3062 235.85 94.7382 240.133 97.1003C244.416 99.4625 245.984 104.845 243.622 109.135L181.231 222.207C179.615 225.139 176.588 226.796 173.459 226.796Z" fill="colorPrimary"/>
<path d="M143.477 302.88C143.477 302.88 124.566 299.011 116.136 283.412C107.705 267.807 99.3901 235.517 117.554 237.846C117.554 237.846 112.083 225.641 117.045 217.957C122.007 210.274 129.82 212.785 134.117 217.374C134.117 217.374 130.438 208.468 134.599 198.089C138.76 187.711 150.333 187.209 155.267 200.92C155.267 200.92 153.028 186.408 163.107 182.036C173.187 177.665 177.966 198.823 178.129 209.812C178.129 209.812 215.211 217.591 211.206 250.512C207.201 283.439 157.935 308.588 143.484 302.88H143.477Z" fill="#FF8CC5"/>
<path d="M136.696 293.575C135.244 293.575 133.771 293.215 132.407 292.461C128.13 290.086 126.583 284.696 128.958 280.413L151.983 238.899C154.358 234.622 159.748 233.075 164.031 235.451C168.307 237.826 169.855 243.216 167.479 247.499L144.455 289.013C142.84 291.932 139.812 293.575 136.696 293.575Z" fill="colorPrimary"/>
<path d="M111.875 257.426C111.875 257.426 118.303 275 128.6 273.669C138.897 272.339 135.829 259.109 120.17 240.646" fill="#FF8CC5"/>
<path d="M127.47 275.108C117.01 275.108 110.86 258.627 110.595 257.894C110.337 257.188 110.697 256.408 111.41 256.15C112.116 255.892 112.896 256.252 113.161 256.958C113.222 257.121 119.338 273.493 128.427 272.318C130.762 272.013 132.208 271.069 132.846 269.42C134.352 265.531 131.542 256.163 119.134 241.536C118.645 240.959 118.72 240.103 119.29 239.615C119.867 239.126 120.723 239.201 121.211 239.771C132.574 253.163 137.74 264.329 135.391 270.404C134.692 272.21 132.975 274.477 128.78 275.027C128.338 275.081 127.904 275.108 127.476 275.108H127.47Z" fill="colorPrimary"/>
<path d="M177.449 209.805C177.449 209.805 151.105 208.102 144.182 226.463C138.039 242.76 163.751 243.398 177.883 227.128" fill="#FF8CC5"/>
<path d="M153.835 240.349C150.828 240.349 148.16 239.745 146.124 238.53C142.004 236.073 140.836 231.498 142.913 225.979C150.108 206.899 176.425 208.372 177.538 208.446C178.291 208.494 178.855 209.146 178.807 209.892C178.76 210.639 178.115 211.209 177.361 211.168C177.11 211.155 151.941 209.757 145.459 226.943C144.332 229.93 143.775 233.962 147.515 236.188C153.815 239.949 168.008 236.419 176.859 226.237C177.355 225.667 178.217 225.606 178.78 226.102C179.35 226.597 179.411 227.459 178.916 228.023C171.795 236.222 161.668 240.349 153.828 240.349H153.835Z" fill="colorPrimary"/>
<path d="M126.547 248.759C126.547 248.759 139.193 263.455 147.189 255.561C155.192 247.667 146.924 237.424 146.924 237.424" fill="#FF8CC5"/>
<path d="M141.651 259.254C141.508 259.254 141.372 259.254 141.23 259.247C133.58 258.935 125.835 250.03 125.509 249.649C125.02 249.079 125.082 248.217 125.652 247.728C126.222 247.24 127.084 247.301 127.573 247.871C127.647 247.952 134.876 256.261 141.338 256.526C143.225 256.6 144.827 255.969 146.226 254.591C153.244 247.667 146.164 238.653 145.859 238.273C145.391 237.689 145.479 236.827 146.069 236.359C146.653 235.891 147.508 235.979 147.984 236.563C151.113 240.438 155.165 249.595 148.14 256.526C146.307 258.331 144.121 259.247 141.644 259.247L141.651 259.254Z" fill="colorPrimary"/>
<path d="M143.271 231.472C143.271 231.472 138.255 225.058 136.191 221.209L143.271 231.472Z" fill="#FF8CC5"/>
<path d="M143.274 232.836C142.866 232.836 142.466 232.66 142.201 232.313C141.991 232.049 137.09 225.763 134.992 221.86C134.633 221.195 134.884 220.374 135.549 220.014C136.214 219.654 137.036 219.905 137.395 220.57C139.384 224.27 144.299 230.576 144.353 230.637C144.814 231.227 144.713 232.089 144.115 232.551C143.864 232.748 143.572 232.843 143.274 232.843V232.836Z" fill="colorPrimary"/>
<path d="M166.1 276.848C166.1 276.848 154.31 254.624 164.139 236.888C164.139 236.888 167.756 244.816 177.836 237.763" fill="#FF8CC5"/>
<path d="M166.101 278.205C165.612 278.205 165.144 277.941 164.899 277.479C164.404 276.542 152.878 254.394 162.951 236.223C163.202 235.775 163.684 235.503 164.2 235.524C164.716 235.544 165.171 235.849 165.388 236.318C165.429 236.399 166.447 238.503 168.843 239.135C171.083 239.725 173.852 238.89 177.063 236.637C177.681 236.202 178.529 236.358 178.964 236.969C179.398 237.587 179.249 238.435 178.631 238.87C174.708 241.619 171.158 242.59 168.096 241.755C166.413 241.3 165.191 240.37 164.363 239.494C156.842 256.023 167.207 275.992 167.316 276.203C167.669 276.868 167.418 277.696 166.752 278.042C166.549 278.151 166.331 278.199 166.114 278.199L166.101 278.205Z" fill="colorPrimary"/>
<path d="M157.403 212.702C157.403 212.702 155.108 207.34 155.244 204.883L157.403 212.702Z" fill="#FF8CC5"/>
<path d="M157.405 214.067C156.876 214.067 156.374 213.755 156.15 213.239C155.905 212.662 153.733 207.503 153.882 204.809C153.923 204.055 154.568 203.485 155.315 203.519C156.068 203.56 156.645 204.205 156.604 204.951C156.523 206.506 157.819 210.198 158.654 212.16C158.953 212.852 158.627 213.653 157.935 213.952C157.758 214.027 157.575 214.061 157.398 214.061L157.405 214.067Z" fill="colorPrimary"/>
<path d="M121.477 271.575C121.477 271.575 121.28 259.16 133.444 261.386L121.477 271.575Z" fill="#FF8CC5"/>
<path d="M121.478 272.939C120.738 272.939 120.127 272.342 120.113 271.602C120.113 271.351 120.066 265.384 124.071 261.997C126.453 259.975 129.691 259.323 133.696 260.056C134.436 260.192 134.924 260.904 134.789 261.644C134.653 262.384 133.94 262.88 133.2 262.737C130.051 262.16 127.573 262.608 125.842 264.068C122.822 266.613 122.842 271.514 122.842 271.561C122.849 272.315 122.251 272.932 121.498 272.939H121.478Z" fill="colorPrimary"/>
<path d="M152.468 238.958C152.468 238.958 157.233 227.642 145.32 223.902L152.468 238.958Z" fill="#FF8CC5"/>
<path d="M152.466 240.323C152.29 240.323 152.114 240.289 151.937 240.214C151.245 239.922 150.919 239.121 151.211 238.429C151.245 238.341 153.037 233.908 151.258 230.1C150.206 227.84 148.068 226.197 144.912 225.206C144.192 224.982 143.792 224.215 144.022 223.496C144.246 222.776 145.013 222.376 145.733 222.606C149.663 223.842 152.358 225.98 153.749 228.973C156.037 233.901 153.831 239.264 153.736 239.488C153.519 240.01 153.009 240.323 152.48 240.323H152.466Z" fill="colorPrimary"/>
<path d="M136.621 256.655C136.621 256.655 136.58 243.846 149.986 243.33L136.621 256.655Z" fill="#FF8CC5"/>
<path d="M136.622 258.018C135.869 258.018 135.265 257.414 135.258 256.66C135.258 256.518 135.38 242.528 149.933 241.972C150.7 241.944 151.318 242.528 151.345 243.282C151.372 244.035 150.788 244.666 150.035 244.694C138.075 245.155 137.98 256.179 137.98 256.654C137.98 257.407 137.376 258.018 136.622 258.025V258.018Z" fill="colorPrimary"/>
<path d="M209.489 258.021L269.921 321.955H169.027L149.355 301.395" fill="#FF8CC5"/>
<path d="M348.538 170.244L243.883 112.519L200.451 191.26L305.107 248.985L348.538 170.244Z" fill="colorPrimary"/>
<path d="M274.994 172.246C264.562 166.49 251.475 169.803 245.203 179.774C245.047 180.025 244.999 180.324 245.074 180.609C245.148 180.894 245.345 181.145 245.603 181.288L252.547 185.116C253.043 185.388 253.654 185.238 253.979 184.763C257.57 179.496 264.528 177.873 270.168 180.982C275.809 184.091 278.144 190.845 275.605 196.689C275.381 197.212 275.578 197.816 276.074 198.088L283.018 201.916C283.282 202.058 283.595 202.092 283.88 202.004C284.165 201.916 284.389 201.719 284.518 201.454C289.609 190.825 285.427 177.989 274.994 172.24" fill="#FEFEFE"/>
<path d="M269.119 182.904C264.191 180.188 257.993 181.946 255.305 186.827C252.611 191.707 254.43 197.891 259.358 200.606C264.286 203.321 270.483 201.563 273.171 196.683C275.859 191.802 274.047 185.626 269.119 182.91" fill="#FEFEFE"/>
<path d="M280.853 161.617C272.925 157.245 263.768 156.112 255.059 158.42C246.371 160.721 239.06 166.205 234.465 173.855C234.309 174.113 234.268 174.412 234.35 174.697C234.431 174.982 234.614 175.219 234.879 175.362L241.775 179.163C242.285 179.441 242.916 179.278 243.221 178.79C250.077 167.665 264.501 163.938 276.061 170.319C287.62 176.692 292.168 190.879 286.412 202.615C286.161 203.131 286.358 203.755 286.867 204.034L293.763 207.842C294.021 207.984 294.32 208.018 294.605 207.93C294.89 207.842 295.121 207.645 295.257 207.38C299.275 199.411 300.008 190.302 297.327 181.722C294.632 173.122 288.788 165.981 280.867 161.61" fill="#FEFEFE"/>
</svg>
