<svg width="432" height="432" viewBox="0 0 432 432" fill="none" xmlns="http://www.w3.org/2000/svg">
<path d="M427.686 406.034C371.543 380.491 295.398 366.141 216.001 366.141C136.604 366.141 60.4587 380.491 4.31641 406.034" stroke="#053575" stroke-width="2"/>
<path d="M138.098 205.283C141.258 205.562 149.084 205.618 155.107 203.61" stroke="#053575" stroke-width="2" stroke-linecap="round"/>
<path d="M182.198 161.023C163.181 164.124 120.15 178.047 112.441 191.34C102.806 207.957 125.84 239.572 128.276 241.35" stroke="#053575" stroke-width="2" stroke-linecap="round"/>
<path d="M295.129 205.283C291.969 205.562 284.142 205.618 278.119 203.61" stroke="#053575" stroke-width="2" stroke-linecap="round"/>
<path d="M251.029 161.023C270.046 164.124 313.077 178.047 320.785 191.34C330.421 207.957 307.387 239.572 304.95 241.35" stroke="#053575" stroke-width="2" stroke-linecap="round"/>
<path d="M208.493 122.516C208.493 122.516 205.552 135.78 204.4 137.923C203.249 140.066 214.316 135.711 214.316 135.711" stroke="#053575" stroke-width="2" stroke-linecap="round" stroke-linejoin="round"/>
<path d="M214.345 94.5289C213.986 94.5289 213.626 94.499 213.267 94.5289H212.841H212.36C212.017 94.5289 211.674 94.5648 211.336 94.5947C211.181 94.5947 211.021 94.5947 210.866 94.6306C210.352 94.6845 209.837 94.7504 209.334 94.8402C203.881 95.7376 198.857 98.57 195.053 102.893C191.248 107.215 188.879 112.783 188.316 118.721H188.471C188.936 118.661 189.395 118.577 189.854 118.488C189.799 119.044 189.754 119.607 189.727 120.175C189.727 120.564 189.727 120.948 189.727 121.343C189.727 121.343 189.727 121.342 189.727 121.384L191.574 121.432C196.563 120.199 201.121 117.447 204.71 113.501C208.299 109.554 210.769 104.579 211.829 99.1614C211.928 99.7061 212.039 100.245 212.166 100.789C213.604 106.791 216.778 112.138 221.226 116.048C225.673 119.957 231.16 122.223 236.884 122.516C236.884 122.103 236.884 121.684 236.884 121.265C236.884 121.139 236.884 121.019 236.884 120.9C236.884 120.343 236.845 119.798 236.806 119.254C237.31 119.254 237.813 119.29 238.316 119.29C237.382 105.781 227.088 95.0855 214.345 94.5289Z" fill="#053575" stroke="#053575" stroke-width="4" stroke-linecap="round" stroke-linejoin="round"/>
<path d="M236.316 110.516C236.316 110.516 242.77 134.17 239.86 144.516C245.144 143.952 256.316 136.141 256.316 136.141C244.889 127.603 236.316 110.516 236.316 110.516Z" fill="#053575" stroke="#053575" stroke-width="4" stroke-linecap="round" stroke-linejoin="round"/>
<path d="M188.152 118.516C188.152 118.516 184.943 137.933 188.316 150.516C188.316 150.516 175.548 145.945 176.353 142.883C184.729 132.492 188.152 118.516 188.152 118.516Z" fill="#053575" stroke="#053575" stroke-width="4" stroke-linecap="round" stroke-linejoin="round"/>
<path d="M150.316 289.516C146.532 313.653 135.963 347.269 130.156 362.926C126.936 371.604 120.4 378.693 111.95 382.674L94.8499 390.743C94.6556 390.836 94.4994 390.992 94.4071 391.184C94.3149 391.377 94.2921 391.595 94.3428 391.802C94.3935 392.009 94.5144 392.193 94.6855 392.323C94.8566 392.452 95.0676 392.52 95.2834 392.515L155.064 391.901L162.289 376.195L164.512 392.214L170.291 391.769C171.225 388.478 197.316 302.516 197.316 302.516" fill="#EFF1F1"/>
<path d="M150.316 289.516C146.532 313.653 135.963 347.269 130.156 362.926C126.936 371.604 120.4 378.693 111.95 382.674L94.8499 390.743C94.6556 390.836 94.4994 390.992 94.4071 391.184C94.3149 391.377 94.2921 391.595 94.3428 391.802C94.3935 392.009 94.5144 392.193 94.6855 392.323C94.8566 392.452 95.0676 392.52 95.2834 392.515L155.064 391.901L162.289 376.195L164.512 392.214L170.291 391.769C171.225 388.478 197.316 302.516 197.316 302.516" stroke="#053575" stroke-width="2" stroke-linecap="round" stroke-linejoin="round"/>
<path d="M280.316 292.516C284.174 316.653 293.863 347.269 299.782 362.925C303.064 371.604 309.725 378.693 318.338 382.674L335.772 390.743C335.971 390.836 336.131 390.992 336.225 391.185C336.319 391.379 336.341 391.597 336.289 391.805C336.236 392.012 336.112 392.196 335.937 392.325C335.761 392.455 335.545 392.522 335.325 392.515L274.395 391.901L267.032 376.195L264.732 392.213L258.842 391.769C257.89 388.478 231.316 302.516 231.316 302.516" fill="#EFF1F1"/>
<path d="M280.316 292.516C284.174 316.653 293.863 347.269 299.782 362.925C303.064 371.604 309.725 378.693 318.338 382.674L335.772 390.743C335.971 390.836 336.131 390.992 336.225 391.185C336.319 391.379 336.341 391.597 336.289 391.805C336.236 392.012 336.112 392.196 335.937 392.325C335.761 392.455 335.545 392.522 335.325 392.515L274.395 391.901L267.032 376.195L264.732 392.213L258.842 391.769C257.89 388.478 231.316 302.516 231.316 302.516" stroke="#053575" stroke-width="2" stroke-linecap="round" stroke-linejoin="round"/>
<path fill-rule="evenodd" clip-rule="evenodd" d="M304.125 232.566L317.51 251.472H317.482C288.179 271.752 253.311 282.449 217.677 282.091C217.571 282.09 217.465 282.088 217.36 282.087C217.475 282.089 217.59 282.09 217.705 282.091C253.339 282.45 288.208 271.752 317.51 251.472L328.174 266.563C328.529 267.064 328.781 267.631 328.914 268.23C329.046 268.83 329.057 269.45 328.945 270.054C328.833 270.658 328.601 271.234 328.263 271.746C327.924 272.259 327.486 272.698 326.975 273.038C294.571 294.42 256.528 305.655 217.707 305.309C178.886 304.962 141.05 293.049 109.033 271.092C108.534 270.748 108.107 270.308 107.778 269.799C107.45 269.289 107.225 268.719 107.119 268.122C107.012 267.525 107.024 266.912 107.156 266.32C107.287 265.728 107.535 265.168 107.885 264.672L118.527 249.483C118.521 249.479 118.514 249.474 118.508 249.469L131.798 230.508C156.796 248.598 186.78 258.507 217.635 258.875C248.49 259.244 278.702 250.053 304.125 232.566Z" fill="#203AE9"/>
<path fill-rule="evenodd" clip-rule="evenodd" d="M277.401 194.732L290.786 213.649H290.775C290.772 213.651 290.77 213.653 290.767 213.655L304.149 232.561L304.132 232.556C278.709 250.043 248.497 259.234 217.642 258.865C186.787 258.497 156.803 248.588 131.805 230.498L145.094 211.536C166.2 226.852 191.52 235.276 217.595 235.654C219.29 235.679 220.983 235.669 222.673 235.626C220.986 235.669 219.297 235.678 217.606 235.654C191.531 235.275 166.21 226.852 145.105 211.536L158.395 192.574C175.609 205.113 196.265 212.047 217.558 212.433C238.85 212.819 259.745 206.639 277.401 194.732Z" fill="#FF8CC5"/>
<path fill-rule="evenodd" clip-rule="evenodd" d="M252.893 160.015L264.047 175.814L264.081 175.842C264.073 175.847 264.066 175.852 264.059 175.856L277.414 194.736H277.397C259.74 206.642 238.845 212.823 217.553 212.436C196.261 212.05 175.604 205.116 158.391 192.578L171.675 173.616C174.481 175.672 177.405 177.536 180.428 179.202C177.423 177.543 174.516 175.689 171.727 173.645L182.669 158.029C183.276 157.161 184.195 156.561 185.233 156.353C186.272 156.146 187.351 156.346 188.246 156.914C197.044 162.528 207.193 165.666 217.625 165.998C228.057 166.329 238.385 163.843 247.523 158.799C248.411 158.305 249.449 158.156 250.44 158.38C251.431 158.604 252.305 159.186 252.893 160.015Z" fill="#00A6E8"/>
<path d="M192.266 127.868C194.477 125.583 197.436 124.602 199.645 124.289C201.854 123.976 203.429 125.162 202.835 126.935C202.242 128.709 200.083 128.977 199.048 128.035C198.261 127.245 197.907 125.943 198.303 124.76" stroke="#053575" stroke-width="2" stroke-linecap="round"/>
<path d="M213.457 123.407C215.668 121.122 218.627 120.141 220.836 119.828C223.045 119.516 224.621 120.701 224.027 122.474C223.433 124.248 221.274 124.516 220.24 123.574C219.452 122.784 219.099 121.482 219.495 120.299" stroke="#053575" stroke-width="2" stroke-linecap="round"/>
<path d="M212.878 142.689C211.818 142.313 210.689 142.169 209.568 142.268C208.47 142.465 207.366 143.229 207.239 144.385C207.216 144.831 207.306 145.275 207.501 145.677C207.696 146.079 207.989 146.425 208.353 146.684C209.086 147.193 209.899 147.574 210.759 147.811C210.292 147.574 209.766 147.48 209.245 147.54C208.725 147.6 208.234 147.812 207.833 148.149C207.432 148.486 207.139 148.933 206.99 149.435C206.841 149.938 206.844 150.473 206.997 150.973C207.15 151.474 207.446 151.919 207.85 152.253C208.254 152.587 208.747 152.794 209.268 152.85C209.788 152.906 210.314 152.807 210.779 152.566C211.244 152.326 211.629 151.953 211.884 151.496" stroke="#053575" stroke-width="2" stroke-linecap="round" stroke-linejoin="round"/>
<path d="M234.438 49.6814C234.438 56.3212 238.594 62.4673 245.593 67.0016C252.583 71.5296 262.299 74.3628 273.082 74.3628C283.866 74.3628 293.582 71.5296 300.571 67.0016C307.571 62.4673 311.727 56.3212 311.727 49.6814C311.727 43.0416 307.571 36.8955 300.571 32.3612C293.582 27.8333 283.866 25 273.082 25C262.299 25 252.583 27.8333 245.593 32.3612C238.594 36.8955 234.438 43.0416 234.438 49.6814Z" stroke="#053575" stroke-width="2"/>
<path d="M293.001 95.7463C293.001 97.2886 293.973 98.8221 295.829 100.019C297.676 101.208 300.286 101.977 303.221 101.977C306.156 101.977 308.767 101.208 310.613 100.019C312.47 98.8221 313.441 97.2886 313.441 95.7463C313.441 94.204 312.47 92.6705 310.613 91.474C308.767 90.2842 306.156 89.5156 303.221 89.5156C300.286 89.5156 297.676 90.2842 295.829 91.474C293.973 92.6705 293.001 94.204 293.001 95.7463Z" stroke="#053575" stroke-width="2"/>
<path d="M276.171 120.55C276.171 123.306 278.817 125.783 282.402 125.783C285.988 125.783 288.633 123.306 288.633 120.55C288.633 117.794 285.988 115.316 282.402 115.316C278.817 115.316 276.171 117.794 276.171 120.55Z" stroke="#053575" stroke-width="2"/>
<path d="M270.52 53.724V53.5864C270.534 52.1256 270.67 50.963 270.929 50.0988C271.187 49.2346 271.555 48.5347 272.031 47.9994C272.507 47.464 273.078 46.9707 273.745 46.5194C274.146 46.2441 274.507 45.9191 274.827 45.5443C275.146 45.1619 275.398 44.7221 275.582 44.225C275.772 43.7279 275.867 43.1772 275.867 42.573C275.867 41.8235 275.711 41.1734 275.398 40.6227C275.085 40.072 274.667 39.6476 274.143 39.3493C273.619 39.051 273.037 38.9019 272.398 38.9019C271.84 38.9019 271.303 39.0319 270.786 39.2919C270.269 39.552 269.837 39.9611 269.49 40.5194C269.143 41.0778 268.942 41.8082 268.888 42.7107H266.316C266.371 41.4105 266.67 40.2977 267.214 39.3722C267.765 38.4468 268.49 37.7393 269.388 37.2498C270.293 36.7604 271.296 36.5156 272.398 36.5156C273.595 36.5156 274.636 36.7833 275.52 37.3187C276.412 37.8541 277.099 38.5883 277.582 39.5214C278.072 40.4544 278.316 41.5175 278.316 42.7107C278.316 43.552 278.201 44.3129 277.969 44.9936C277.745 45.6743 277.418 46.2824 276.99 46.8177C276.568 47.3531 276.058 47.8273 275.459 48.2403C274.861 48.6609 274.381 49.1045 274.02 49.5711C273.66 50.03 273.398 50.5768 273.235 51.2116C273.072 51.8464 272.983 52.638 272.969 53.5864V53.724H270.52ZM271.827 60.5156C271.323 60.5156 270.891 60.3129 270.531 59.9076C270.17 59.5022 269.99 59.0166 269.99 58.4506C269.99 57.8846 270.17 57.399 270.531 56.9936C270.891 56.5883 271.323 56.3856 271.827 56.3856C272.33 56.3856 272.762 56.5883 273.123 56.9936C273.483 57.399 273.663 57.8846 273.663 58.4506C273.663 58.8254 273.578 59.1695 273.408 59.4831C273.245 59.7967 273.024 60.0491 272.745 60.2403C272.473 60.4238 272.167 60.5156 271.827 60.5156Z" fill="#053575"/>
<path d="M174.442 74.4649C173.201 75.2841 171.683 77.2483 175.537 78.552" stroke="#FF8CC5" stroke-width="2" stroke-linecap="round"/>
<path d="M163.805 77.3114C165.289 77.4004 167.585 78.3426 164.9 81.3985" stroke="#FF8CC5" stroke-width="2" stroke-linecap="round"/>
<path d="M173.031 82.6385C172.212 81.3978 170.248 79.8798 168.944 83.7337" stroke="#FF8CC5" stroke-width="2" stroke-linecap="round"/>
<path d="M170.195 72.0048C170.106 73.4889 169.164 75.7856 166.108 73.1" stroke="#FF8CC5" stroke-width="2" stroke-linecap="round"/>
<path d="M142.442 142.464C141.201 143.283 139.683 145.247 143.537 146.551" stroke="#FF8CC5" stroke-width="2" stroke-linecap="round"/>
<path d="M131.805 145.311C133.289 145.4 135.585 146.342 132.9 149.398" stroke="#FF8CC5" stroke-width="2" stroke-linecap="round"/>
<path d="M141.031 150.639C140.212 149.398 138.248 147.88 136.944 151.734" stroke="#FF8CC5" stroke-width="2" stroke-linecap="round"/>
<path d="M138.191 140.005C138.102 141.489 137.16 143.786 134.104 141.1" stroke="#FF8CC5" stroke-width="2" stroke-linecap="round"/>
<path d="M310.442 142.465C309.201 143.284 307.683 145.248 311.537 146.552" stroke="#FF8CC5" stroke-width="2" stroke-linecap="round"/>
<path d="M299.805 145.311C301.289 145.4 303.585 146.343 300.9 149.399" stroke="#FF8CC5" stroke-width="2" stroke-linecap="round"/>
<path d="M309.031 150.639C308.212 149.398 306.248 147.88 304.944 151.734" stroke="#FF8CC5" stroke-width="2" stroke-linecap="round"/>
<path d="M306.195 140.005C306.106 141.489 305.164 143.786 302.108 141.1" stroke="#FF8CC5" stroke-width="2" stroke-linecap="round"/>
<path d="M63.793 85.5898H85.0562" stroke="#00A6E8" stroke-width="3" stroke-linecap="round"/>
<path d="M94.8827 70.8746C94.8827 70.3294 93.7933 60.5156 80.1631 60.5156C69.7811 60.5156 67.4716 69.412 67.588 74.4992C67.5963 74.8641 67.2594 75.1469 66.9026 75.0696C65.1402 74.6876 61.9109 74.1459 58.8988 74.1459C54.5372 74.1459 48.5398 77.4172 48.5398 84.5049C48.5398 91.5926 47.9946 97.0447 36 97.0447" stroke="#00A6E8" stroke-width="3" stroke-linecap="round"/>
<path d="M94.8772 70.8692C95.9676 69.7788 100.438 67.0527 105.236 67.0527C111.234 67.0527 117.776 71.4144 117.776 81.2282C117.776 91.042 109.053 97.0393 99.7841 97.0393C92.3692 97.0393 73.4323 97.0393 64.8906 97.0393" stroke="#00A6E8" stroke-width="3" stroke-linecap="round"/>
</svg>
