<svg width="432" height="432" viewBox="0 0 432 432" fill="none" xmlns="http://www.w3.org/2000/svg">
<path d="M74.2153 318.233C86.4196 287.565 101.43 258.401 118.261 229.986C126.877 215.445 146.67 169.961 167.817 178C172.787 179.89 176.005 185.141 176.9 190.513C179.802 207.957 165.863 229.689 159.249 245.061C154.692 255.657 151.211 268.963 144.94 278.617C145.021 278.496 159.902 255.646 183.904 263.15C191.385 265.487 197.485 275.504 195.921 291.549C195.921 291.549 202.941 277.107 222.043 284.325C241.15 291.549 233.899 331.287 230.231 349.315C225.599 372.093 226.386 364.456 220.474 386.744C172.476 382.986 122.759 385.466 74.4456 384.893C62.2627 384.75 50.0852 384.606 37.9023 384.463L38.8395 378.771" fill="#FF8CC5"/>
<path d="M220.474 387.951C220.447 387.951 220.415 387.951 220.383 387.951C188.183 385.427 154.718 385.725 122.352 386.011C106.592 386.149 90.2965 386.292 74.4293 386.105L37.8861 385.67C37.5434 385.67 37.2221 385.51 37.0025 385.24C36.7829 384.97 36.6919 384.617 36.7454 384.27L37.6826 378.578C37.7897 377.923 38.3948 377.482 39.0321 377.592C39.6693 377.702 40.0977 378.325 39.9906 378.981L39.2838 383.284L74.4561 383.703C90.2965 383.89 106.581 383.747 122.331 383.609C154.419 383.328 187.599 383.036 219.601 385.482C221.77 377.355 223.028 373.311 223.96 370.324C225.459 365.509 226.284 362.853 229.09 349.078C231.928 335.116 240.577 292.623 221.647 285.466C214.085 282.606 207.627 282.871 202.454 286.254C198.63 288.755 196.992 292.061 196.976 292.094C196.724 292.612 196.151 292.877 195.605 292.711C195.064 292.552 194.71 292.012 194.764 291.433C196.306 275.592 190.25 266.396 183.572 264.307C160.679 257.156 146.514 278.385 145.92 279.295C145.561 279.846 144.833 279.994 144.297 279.625C143.762 279.256 143.617 278.507 143.976 277.956C148.073 271.647 150.991 263.663 153.808 255.938C155.27 251.938 156.646 248.158 158.183 244.587C159.661 241.149 161.493 237.419 163.431 233.474C170.232 219.616 177.944 203.913 175.753 190.728C174.843 185.267 171.576 180.722 167.421 179.14C150.434 172.677 133.876 203.599 123.98 222.074C122.165 225.462 120.596 228.388 119.273 230.625C101.007 261.459 86.6283 290.27 75.3129 318.702C75.0666 319.319 74.3865 319.611 73.7867 319.357C73.187 319.104 72.9031 318.404 73.1495 317.787C84.513 289.235 98.945 260.313 117.281 229.369C118.582 227.176 120.135 224.272 121.94 220.906C132.2 201.753 149.369 169.702 168.24 176.881C173.242 178.782 177.006 183.934 178.067 190.32C180.391 204.282 172.492 220.366 165.53 234.559C163.608 238.477 161.793 242.18 160.336 245.563C158.826 249.072 157.46 252.819 156.009 256.786C154.354 261.321 152.667 265.944 150.718 270.302C157.482 264.148 169.065 257.26 184.263 262.01C191.24 264.192 197.64 272.881 197.345 287.604C200.971 283.581 208.843 278.06 222.466 283.207C231.211 286.513 235.72 296.458 235.864 312.768C235.977 325.358 233.535 339.05 231.393 349.574C228.565 363.47 227.725 366.17 226.204 371.063C225.192 374.308 223.933 378.353 221.62 387.075C221.481 387.604 221.015 387.962 220.49 387.962L220.474 387.951Z" fill="#FF8CC5"/>
<path d="M188.455 350.645C186.43 350.645 184.358 350.226 182.248 349.306C178.435 347.636 175.833 344.865 174.505 341.069C170.14 328.583 180.749 307.524 187.089 294.945C188.412 292.322 189.552 290.057 190.307 288.36C190.618 287.672 191.411 287.369 192.085 287.683C192.755 288.002 193.049 288.818 192.744 289.512C191.957 291.27 190.806 293.562 189.467 296.212C183.33 308.394 173.059 328.776 177.027 340.132C178.109 343.223 180.16 345.394 183.298 346.766C196.294 352.452 208.129 335.256 216.762 322.704C218.577 320.07 220.285 317.58 221.779 315.673C222.245 315.084 223.086 314.984 223.659 315.464C224.237 315.943 224.328 316.808 223.863 317.403C222.422 319.244 220.735 321.701 218.947 324.296C211.514 335.096 200.825 350.645 188.449 350.645H188.455Z" fill="#021B4D"/>
<path d="M146.149 343.804C139.402 343.804 131.947 341.688 128.317 334.8C122.26 323.318 133.516 297.977 133.998 296.909C134.014 296.875 134.03 296.842 134.047 296.809L144.607 277.569C144.971 276.907 145.79 276.67 146.433 277.045C147.076 277.42 147.306 278.257 146.942 278.924L136.408 298.115C135.857 299.36 125.366 323.433 130.673 333.489C135.98 343.55 151.129 341.627 156.554 339.131C167.687 334.007 174.51 320.508 179.993 309.664L180.695 308.27C181.038 307.598 181.846 307.333 182.5 307.686C183.153 308.039 183.41 308.871 183.067 309.543L182.366 310.931C176.695 322.155 169.631 336.128 157.646 341.644C155.156 342.79 150.824 343.804 146.154 343.804H146.149Z" fill="#021B4D"/>
<path d="M94.6084 348.802C94.6084 348.802 123.44 346.262 135.816 341.248C148.192 336.233 154.762 324.707 150.591 311.306C146.424 297.906 114.213 292.303 80.3692 309.576C46.5249 326.85 38.8135 367.574 36.543 387.035L218.135 388.236" fill="#FF8CC5"/>
<path d="M218.139 389.436H218.133L36.5418 388.235C36.2098 388.235 35.8938 388.086 35.6743 387.827C35.4547 387.568 35.3529 387.227 35.3904 386.891C39.9101 348.145 55.2847 321.036 79.8592 308.501C104.873 295.734 128.794 295.563 141.411 301.057C146.878 303.437 150.445 306.859 151.714 310.947C155.875 324.314 149.658 336.943 136.254 342.376C123.862 347.395 95.9031 349.908 94.7197 350.013C94.0717 350.068 93.5094 349.577 93.4559 348.916C93.4023 348.255 93.8789 347.671 94.5215 347.616C94.8107 347.588 123.327 345.032 135.402 340.139C147.778 335.125 153.31 323.956 149.492 311.685C148.437 308.286 145.325 305.376 140.506 303.277C128.382 297.999 105.253 298.235 80.9088 310.66C51.3058 325.769 41.1472 359.594 37.8859 385.844L218.16 387.039C218.808 387.039 219.328 387.585 219.322 388.252C219.322 388.913 218.797 389.447 218.155 389.447L218.139 389.436Z" fill="#FF8CC5"/>
<path d="M190.976 350.966C190.713 350.966 190.451 350.889 190.215 350.724C189.605 350.294 189.455 349.434 189.872 348.806L192.753 344.503C192.775 344.47 192.796 344.442 192.823 344.409C195.479 341.087 195.565 335.814 193.021 332.403C190.478 328.992 185.503 327.714 181.7 329.499C179.81 330.387 178.225 332.017 177.234 334.095C176.908 334.778 176.11 335.059 175.446 334.728C174.782 334.392 174.509 333.571 174.83 332.888C176.088 330.238 178.134 328.149 180.592 326.998C185.567 324.667 191.822 326.276 195.147 330.734C198.462 335.175 198.366 341.776 194.933 346.117L192.079 350.371C191.822 350.757 191.399 350.966 190.976 350.966Z" fill="#021B4D"/>
<path d="M137.616 371.254H137.6C136.861 371.243 136.266 370.62 136.277 369.86C136.454 354.884 126.804 341.935 112.8 338.37C112.083 338.189 111.644 337.439 111.82 336.701C111.997 335.963 112.725 335.511 113.443 335.693C128.657 339.566 139.147 353.633 138.955 369.893C138.944 370.648 138.35 371.254 137.616 371.254Z" fill="#021B4D"/>
<path d="M92.6023 358.913C108.073 352.047 124.931 348.339 140.134 341.292C151.878 335.848 163.461 326.9 161.656 313.07C159.263 294.694 138.276 295.862 124.99 297.306C109.316 299.008 94.0321 303.945 79.75 310.711" fill="#FF8CC5"/>
<path d="M92.6037 360.519C91.9986 360.519 91.4256 360.155 91.1739 359.549C90.8311 358.734 91.1953 357.792 91.9878 357.439C99.5118 354.1 107.448 351.472 115.127 348.932C123.278 346.232 131.701 343.444 139.498 339.829C154.568 332.848 161.502 323.911 160.116 313.282C158.054 297.485 141.292 297.144 125.157 298.901C110.736 300.466 95.6775 304.929 80.4048 312.164C79.6229 312.533 78.6965 312.18 78.3377 311.376C77.9789 310.571 78.3216 309.618 79.1035 309.249C94.6868 301.866 110.072 297.314 124.831 295.706C135.493 294.548 160.464 291.832 163.205 312.853C164.774 324.886 157.02 335.223 140.778 342.755C132.821 346.441 124.311 349.262 116.08 351.984C108.476 354.502 100.615 357.103 93.2249 360.387C93.0214 360.475 92.8125 360.519 92.609 360.519H92.6037Z" fill="#021B4D"/>
<path d="M149.685 325.149C148.26 325.149 146.831 325.067 145.39 324.879C139.205 324.064 133.946 321.061 131.317 316.846C127.37 310.515 129.582 301.484 136.238 296.712C136.843 296.277 137.679 296.431 138.102 297.054C138.525 297.677 138.375 298.536 137.77 298.971C132.275 302.911 130.39 310.261 133.571 315.358C135.778 318.895 140.324 321.436 145.727 322.146C150.783 322.813 155.945 321.998 160.936 321.204C161.67 321.088 162.35 321.606 162.462 322.356C162.575 323.105 162.071 323.81 161.343 323.926C157.541 324.527 153.637 325.144 149.685 325.144V325.149Z" fill="#021B4D"/>
<path d="M303.764 174.838C322.443 159.443 340.007 144.969 357.572 130.494L360.132 132.681C360.132 132.681 339.745 171.119 328.398 190.762C331.177 191.473 333.051 192.172 335.006 192.426C362.751 195.996 390.565 199.181 418.197 203.324C423.376 204.101 422.032 215.623 416.966 215.92C390.769 217.458 364.561 218.047 335.948 219.05L369.145 293.594L365.841 295.534C365.841 295.534 334.01 252.826 316.777 232.533C316.777 232.533 287.131 248.6 266.391 262.694L262.819 259.014L284.571 216.086C260.591 211.005 206.44 197.038 203.816 193.092L288.149 187.538L258.728 121.474C260.398 120.427 259.858 120.763 261.528 119.711C275.607 138.081 289.686 156.457 303.764 174.827V174.838Z" fill="#00A6E8"/>
<path d="M202.305 193.008C202.316 192.809 202.37 192.605 202.455 192.418C202.696 191.917 203.178 191.58 203.719 191.547L285.856 186.142L257.356 122.138C257.034 121.422 257.286 120.568 257.945 120.16L260.746 118.397C261.399 117.984 262.25 118.144 262.727 118.761L304.015 172.643L356.634 129.279C357.196 128.817 358 128.822 358.551 129.296L361.111 131.483C361.668 131.957 361.818 132.773 361.47 133.428C361.272 133.803 342.127 169.877 330.726 189.784C330.951 189.85 331.171 189.911 331.385 189.972C332.863 190.396 334.025 190.726 335.198 190.881C343.171 191.906 351.29 192.919 359.14 193.895C378.595 196.319 398.715 198.826 418.421 201.779C421.372 202.22 423.166 205.129 422.989 209.19C422.802 213.124 420.729 217.257 417.056 217.477C397.729 218.612 378.488 219.229 358.118 219.88C351.616 220.089 345.014 220.298 338.282 220.53L370.531 292.947C370.857 293.68 370.584 294.55 369.904 294.953L366.595 296.892C365.936 297.278 365.101 297.107 364.64 296.484C364.329 296.066 333.602 254.868 316.423 234.492C310.95 237.489 285.47 251.595 267.225 263.998C266.626 264.405 265.828 264.323 265.319 263.799L261.747 260.119C261.281 259.639 261.169 258.901 261.474 258.295L282.3 217.191C269.598 214.436 250.86 209.796 235.791 205.669C204.672 197.14 203.141 194.837 202.562 193.972C202.37 193.68 202.279 193.338 202.3 192.996L202.305 193.008ZM289.663 187.646C289.647 187.894 289.577 188.131 289.454 188.352C289.197 188.792 288.747 189.073 288.249 189.106L209.294 194.302C222.441 199.377 261.843 209.692 284.876 214.568C285.342 214.667 285.733 214.981 285.936 215.428C286.14 215.868 286.129 216.381 285.909 216.816L264.671 258.73L266.588 260.703C287.093 246.889 315.775 231.318 316.069 231.158C316.69 230.822 317.456 230.966 317.917 231.511C333.457 249.81 361.165 286.732 366.236 293.509L367.189 292.947L334.571 219.698C334.362 219.224 334.394 218.673 334.662 218.227C334.93 217.78 335.39 217.505 335.899 217.488C343.423 217.224 350.781 216.987 358.021 216.755C378.371 216.105 397.595 215.488 416.884 214.359C418.652 214.254 419.846 211.543 419.964 209.052C420.039 207.267 419.567 205.102 417.982 204.865C398.313 201.917 378.215 199.41 358.776 196.991C350.926 196.01 342.802 195.002 334.823 193.972C333.425 193.79 332.102 193.415 330.571 192.974C329.784 192.749 328.964 192.517 328.038 192.275C327.572 192.153 327.192 191.817 327.004 191.36C326.822 190.903 326.854 190.385 327.101 189.966C337.222 172.444 354.76 139.544 358.209 133.059L357.561 132.503L304.716 176.053C304.4 176.312 303.999 176.434 303.597 176.384C303.196 176.334 302.831 176.125 302.58 175.8L261.179 121.775L260.676 122.094L289.535 186.897C289.642 187.134 289.685 187.387 289.669 187.641L289.663 187.646Z" fill="#00A6E8"/>
<path d="M76.1237 161.463L117.872 144.079C118.247 143.925 118.333 143.396 118.027 143.109L69.1031 97.6522C68.6533 97.2335 69.0763 96.4566 69.6386 96.6825L116.603 115.361C116.983 115.51 117.369 115.179 117.32 114.75L108.549 42.6464C108.49 42.1505 109.009 41.8144 109.39 42.1119L162.261 82.6596C162.769 83.0453 162.357 83.8884 161.773 83.668" stroke="#00A6E8" stroke-width="3" stroke-linecap="round" stroke-linejoin="round"/>
<path d="M79.7463 310.699C79.7463 310.699 15.4261 339.924 9 388.23" stroke="#021B4D" stroke-width="3" stroke-linecap="round" stroke-linejoin="round"/>
<path d="M234.581 151.52C234.581 151.52 347.606 234.218 310.538 298.767C276.002 358.903 209.926 335.48 209.926 335.48" stroke="#021B4D" stroke-width="3" stroke-linecap="round" stroke-linejoin="round"/>
<path d="M176.064 115.726L162.703 101.973" stroke="#021B4D" stroke-width="3" stroke-linecap="round" stroke-linejoin="round"/>
<path d="M199.689 91.4114L186.328 77.6641" stroke="#021B4D" stroke-width="3" stroke-linecap="round" stroke-linejoin="round"/>
<path d="M234.578 103.517L211.251 79.5156L164.598 127.518L187.925 151.52C200.809 164.777 221.694 164.777 234.578 151.52C247.463 138.263 247.463 116.774 234.578 103.517Z" fill="#FF4351"/>
<path d="M211.251 163.926C202.185 163.926 193.124 160.377 186.221 153.275L162.894 129.273C162.445 128.811 162.188 128.177 162.188 127.521C162.188 126.866 162.439 126.232 162.894 125.769L209.548 77.7664C210.491 76.7966 212.017 76.7966 212.954 77.7664L236.281 101.768C242.969 108.65 246.648 117.796 246.648 127.521C246.648 137.246 242.964 146.398 236.281 153.275C229.598 160.151 220.312 163.926 211.251 163.926ZM168.003 127.521L189.627 149.77C201.548 162.036 220.949 162.036 232.875 149.77C238.653 143.825 241.834 135.929 241.834 127.521C241.834 119.113 238.653 111.217 232.875 105.272L211.251 83.0229L168.003 127.521Z" fill="#FF4351"/>
<path d="M205.707 112.195C207.148 113.126 208.931 113.071 210.018 111.952C210.993 110.949 211.137 109.379 210.511 107.996" stroke="#053575" stroke-width="3" stroke-linecap="round" stroke-linejoin="round"/>
<path d="M191.844 124.847C193.284 125.778 195.068 125.723 196.155 124.605C197.129 123.602 197.274 122.031 196.647 120.648" stroke="#053575" stroke-width="3" stroke-linecap="round" stroke-linejoin="round"/>
<path d="M226.487 126.716C226.487 126.716 221.004 123.641 215.809 127.256C210.615 130.87 210.465 139.003 210.465 139.003" stroke="#053575" stroke-width="3" stroke-linecap="round" stroke-linejoin="round"/>
</svg>
