<svg width="432" height="432" viewBox="0 0 432 432" fill="none" xmlns="http://www.w3.org/2000/svg">
<path d="M219.067 42.3417C230.319 43.065 240.896 43.7438 251.474 44.4225L251.687 45.9732C251.687 45.9732 232.731 52.503 222.724 55.5449C223.472 56.6695 223.908 57.5018 224.512 58.2054C233.068 68.218 241.763 78.1266 250.101 88.2978C251.662 90.2052 247.639 93.6732 245.786 92.1671C236.194 84.369 226.89 76.2539 216.625 67.5095L205.181 103.26L203.432 102.868C203.432 102.868 205.527 78.3198 205.795 65.9836C205.795 65.9836 190.521 62.0053 178.952 60.192L178.843 57.814L199.656 50.1992C192.879 40.8653 178.343 18.9524 178.645 16.7874L209.709 41.6828L219.855 10C220.762 10.1734 220.469 10.1189 221.371 10.2923C220.603 20.9738 219.835 31.6602 219.067 42.3417Z" fill="#FF4351"/>
<path d="M150.258 134.599C158.963 115.347 159.002 103.243 162.213 100.256C165.423 97.2685 168.777 102.173 167.4 107.796C166.637 114.088 165.968 115.471 165.968 115.471" stroke="#021B4D" stroke-width="3" stroke-linecap="round" stroke-linejoin="round"/>
<path d="M151.856 131.082C151.752 131.32 151.648 131.558 151.544 131.805C141.764 157.394 136.706 178.346 140.684 201.572C146.163 233.557 173.452 250.392 201.121 253.409" stroke="#021B4D" stroke-width="3" stroke-linecap="round" stroke-linejoin="round"/>
<path d="M165.355 99.6894C165.355 99.6894 166.807 95.5575 168.719 96.3155C170.637 97.0735 172.881 98.2774 172.252 103.836" stroke="#021B4D" stroke-width="3" stroke-linecap="round" stroke-linejoin="round"/>
<path d="M169.93 105.269C169.93 105.269 174.81 101.36 178.575 103.243C182.34 105.126 186.185 110.764 184.52 113.082C183.945 113.885 183.242 114.301 182.499 114.44C181.092 114.702 178.367 112.998 178.367 112.998L175.464 110.907C175.464 110.907 172.005 114.014 174.948 120.276C177.891 126.543 180.794 122.778 180.998 121.683C181.201 120.588 181.528 115.896 181.528 115.896C181.528 115.896 182.469 113.053 185.645 113.682C188.82 114.311 189.985 119.914 188.89 124.933C187.007 133.588 181.062 142.124 177.371 150.096C170.727 164.453 165.268 188.363 175.3 202.121C180.75 209.592 189.529 214.859 198.779 214.958" stroke="#021B4D" stroke-width="3" stroke-linecap="round" stroke-linejoin="round"/>
<path d="M303.143 134.599C294.438 115.347 294.399 103.243 291.188 100.256C287.978 97.2685 284.624 102.173 286.001 107.796C286.764 114.088 287.433 115.471 287.433 115.471" stroke="#021B4D" stroke-width="3" stroke-linecap="round" stroke-linejoin="round"/>
<path d="M301.547 131.082C301.651 131.32 301.755 131.558 301.859 131.805C311.639 157.394 316.697 178.346 312.719 201.572C307.239 233.557 279.951 250.392 252.281 253.409" stroke="#021B4D" stroke-width="3" stroke-linecap="round" stroke-linejoin="round"/>
<path d="M288.043 99.6894C288.043 99.6894 286.592 95.5575 284.679 96.3155C282.762 97.0735 280.518 98.2774 281.147 103.836" stroke="#021B4D" stroke-width="3" stroke-linecap="round" stroke-linejoin="round"/>
<path d="M283.474 105.269C283.474 105.269 278.594 101.36 274.829 103.243C271.063 105.126 267.219 110.764 268.883 113.082C269.458 113.885 270.162 114.301 270.905 114.44C272.312 114.702 275.037 112.998 275.037 112.998L277.94 110.907C277.94 110.907 281.398 114.014 278.455 120.276C275.512 126.543 272.609 122.778 272.406 121.683C272.203 120.588 271.876 115.896 271.876 115.896C271.876 115.896 270.935 113.053 267.759 113.682C264.583 114.311 263.419 119.914 264.514 124.933C266.396 133.588 272.342 142.124 276.033 150.096C282.676 164.453 288.136 188.363 278.103 202.121C272.654 209.592 263.875 214.859 254.625 214.958" stroke="#021B4D" stroke-width="3" stroke-linecap="round" stroke-linejoin="round"/>
<path d="M214.528 180.004C214.528 180.004 212.24 192.424 211.343 194.431C210.446 196.437 219.062 192.355 219.062 192.355" stroke="#021B4D" stroke-width="3" stroke-linecap="round" stroke-linejoin="round"/>
<path d="M210.816 205.716C210.816 205.716 212.734 199.202 219.437 197.904C226.14 196.606 232.333 202.571 232.333 202.571" stroke="#021B4D" stroke-width="3" stroke-linecap="round" stroke-linejoin="round"/>
<path d="M208.452 182.523C208.274 184.248 207.11 185.64 205.554 185.833C204.162 186.001 202.844 185.159 202.16 183.812" stroke="#021B4D" stroke-width="3" stroke-linecap="round" stroke-linejoin="round"/>
<path d="M227.015 179.137C226.836 180.861 225.672 182.253 224.116 182.446C222.724 182.615 221.406 181.772 220.723 180.425" stroke="#021B4D" stroke-width="3" stroke-linecap="round" stroke-linejoin="round"/>
<path d="M242.384 181.673C242.384 181.673 242.384 181.703 242.384 181.713L243.885 181.752C243.885 181.708 243.885 181.663 243.885 181.619C243.385 181.623 242.879 181.619 242.379 181.594C242.379 181.619 242.379 181.648 242.379 181.673H242.384Z" fill="#00A6E8"/>
<path d="M219.607 157.22C219.285 157.205 218.968 157.195 218.641 157.195C218.512 157.195 218.388 157.205 218.259 157.205C218.116 157.205 217.972 157.21 217.828 157.215C217.521 157.225 217.214 157.245 216.907 157.27C216.768 157.28 216.624 157.289 216.486 157.299C216.025 157.344 215.564 157.398 215.113 157.473C205.081 159.048 197.268 167.163 196.297 177.245C196.341 177.24 196.391 177.24 196.436 177.231C196.852 177.181 197.263 177.112 197.674 177.037C197.625 177.498 197.58 177.964 197.56 178.434C197.545 178.756 197.535 179.078 197.535 179.4C197.535 179.41 197.535 179.425 197.535 179.435L199.19 179.475C203.456 178.504 207.523 176.354 210.848 173.019C214.251 169.606 216.411 165.419 217.333 161.04C217.422 161.491 217.516 161.937 217.635 162.387C219.206 168.511 223.07 173.683 228.525 176.963C232.062 179.088 235.931 180.198 239.776 180.372C239.791 180.03 239.801 179.683 239.801 179.336C239.801 179.237 239.796 179.133 239.791 179.034C239.786 178.578 239.761 178.122 239.721 177.671C240.172 177.696 240.623 177.706 241.074 177.701C240.232 166.534 231.012 157.676 219.592 157.22H219.607Z" fill="#021B4D" stroke="#021B4D" stroke-width="3" stroke-linecap="round" stroke-linejoin="round"/>
<path d="M239.648 171.266C239.648 171.266 245.306 192.059 242.755 201.175C247.387 200.689 257.182 193.808 257.182 193.808C247.164 186.292 239.648 171.266 239.648 171.266Z" fill="#021B4D" stroke="#021B4D" stroke-width="3" stroke-linecap="round" stroke-linejoin="round"/>
<path d="M196.311 176.895C196.311 176.895 193.115 194.358 196.474 205.684C196.474 205.684 183.742 201.567 184.544 198.812C192.897 189.449 196.311 176.895 196.311 176.895Z" fill="#021B4D" stroke="#021B4D" stroke-width="3" stroke-linecap="round" stroke-linejoin="round"/>
<path d="M161.321 335.312C157.948 357.121 149.956 381.15 144.784 395.289C141.915 403.127 136.084 409.523 128.554 413.12L113.304 420.403C112.482 420.794 112.784 422.033 113.696 422.003L166.984 421.448L173.415 407.269L175.426 421.735L180.579 421.334C181.411 418.352 203.78 343.898 203.78 343.898" stroke="#021B4D" stroke-width="3" stroke-linecap="round" stroke-linejoin="round"/>
<path d="M279.134 335.312C282.508 357.121 290.499 381.15 295.672 395.289C298.54 403.127 304.371 409.523 311.902 413.12L327.151 420.403C327.974 420.794 327.671 422.033 326.76 422.003L273.471 421.448L267.041 407.269L265.029 421.735L259.877 421.334C259.044 418.352 236.676 343.898 236.676 343.898" stroke="#021B4D" stroke-width="3" stroke-linecap="round" stroke-linejoin="round"/>
<path d="M320.576 309.246L311.103 295.845C286.297 312.997 256.289 323.054 223.987 323.054C191.685 323.054 159.626 312.303 134.344 294.066L124.881 307.572C123.583 309.425 124.034 311.996 125.902 313.274C153.884 332.452 187.662 343.674 223.992 343.674C260.322 343.674 292.044 333.126 319.516 314.998C321.433 313.735 321.909 311.119 320.581 309.246H320.576Z" fill="#203AE9"/>
<path d="M311.103 295.843L299.233 279.043C277.781 293.792 251.87 302.427 223.987 302.427C196.104 302.427 168.092 293.079 146.15 277.215L134.344 294.059C159.626 312.296 190.585 323.047 223.987 323.047C257.389 323.047 286.297 312.995 311.103 295.838V295.843Z" fill="#203AE9"/>
<path d="M299.235 279.049L287.365 262.249C269.267 274.59 247.448 281.803 223.994 281.803C199.371 281.803 176.567 273.852 157.958 260.371L146.152 277.216C168.095 293.074 194.977 302.428 223.989 302.428C253.002 302.428 277.778 293.793 299.235 279.044V279.049Z" fill="#FF8CC5"/>
<path d="M287.357 262.246L275.476 245.441C260.732 255.379 243.021 261.181 223.981 261.181C203.753 261.181 185.016 254.626 169.751 243.523L157.945 260.368C176.549 273.849 199.358 281.8 223.981 281.8C248.604 281.8 269.254 274.587 287.352 262.246H287.357Z" fill="#FF8CC5"/>
<path d="M275.479 245.439L263.598 228.629C252.213 236.164 238.599 240.554 223.984 240.554C208.145 240.554 193.485 235.401 181.56 226.672L169.754 243.517C185.018 254.619 203.755 261.174 223.984 261.174C243.018 261.174 260.735 255.372 275.479 245.434V245.439Z" fill="#00A6E8"/>
<path d="M223.984 262.9C204.023 262.9 184.92 256.682 168.744 244.916C167.986 244.361 167.807 243.306 168.347 242.533L180.154 225.688C180.421 225.312 180.827 225.054 181.283 224.98C181.739 224.905 182.21 225.014 182.581 225.287C194.694 234.15 209.012 238.832 223.989 238.832C237.777 238.832 251.144 234.809 262.653 227.194C263.43 226.679 264.471 226.877 265.011 227.635L276.891 244.445C277.159 244.822 277.263 245.292 277.179 245.748C277.094 246.204 276.832 246.605 276.445 246.868C260.879 257.356 242.741 262.9 223.989 262.9H223.984ZM172.147 243.113C187.436 253.814 205.321 259.457 223.984 259.457C241.463 259.457 258.387 254.458 273.047 244.98L263.148 230.975C251.396 238.376 237.896 242.28 223.984 242.28C208.859 242.28 194.372 237.722 181.972 229.087L172.142 243.113H172.147Z" fill="#00A6E8"/>
<path d="M263.601 228.633L253.677 214.592C252.597 213.061 250.541 212.61 248.906 213.517C241.51 217.604 233.018 219.933 223.986 219.933C213.785 219.933 204.268 216.965 196.247 211.838C194.592 210.782 192.403 211.203 191.278 212.809L181.562 226.676C193.488 235.4 208.152 240.558 223.986 240.558C238.601 240.558 252.216 236.168 263.601 228.633Z" fill="#00A6E8"/>
<path d="M223.988 242.283C208.278 242.283 193.257 237.369 180.549 228.069C179.791 227.514 179.618 226.459 180.158 225.691L189.873 211.824C191.533 209.461 194.738 208.832 197.181 210.387C205.192 215.505 214.461 218.21 223.993 218.21C232.416 218.21 240.744 216.065 248.081 212.008C250.494 210.67 253.511 211.358 255.092 213.598L265.015 227.638C265.283 228.02 265.387 228.49 265.302 228.951C265.218 229.407 264.951 229.813 264.559 230.071C252.486 238.057 238.46 242.283 223.993 242.283H223.988ZM183.953 226.271C195.769 234.5 209.576 238.84 223.988 238.84C237.182 238.84 249.994 235.154 261.161 228.163L252.277 215.594C251.708 214.792 250.618 214.544 249.746 215.03C241.898 219.37 232.995 221.663 223.993 221.663C213.807 221.663 203.894 218.77 195.328 213.296C194.446 212.731 193.292 212.959 192.697 213.806L183.963 226.271H183.953Z" fill="#00A6E8"/>
<path d="M241.377 43.7089L233.668 36" stroke="#021B4D" stroke-width="3" stroke-linecap="round" stroke-linejoin="round"/>
<path d="M275.13 36.8621L261.675 23.4062L234.758 50.323L248.214 63.7789C255.645 71.2103 267.699 71.2103 275.13 63.7789C282.562 56.3474 282.562 44.2936 275.13 36.8621Z" stroke="#021B4D" stroke-width="3" stroke-linecap="round" stroke-linejoin="round"/>
<path d="M255.007 30.0761L247.293 22.3672" stroke="#021B4D" stroke-width="3" stroke-linecap="round" stroke-linejoin="round"/>
<path d="M248.217 36.8651L240.508 29.1562" stroke="#021B4D" stroke-width="3" stroke-linecap="round" stroke-linejoin="round"/>
<path d="M148.985 38.8516L140.909 46.9271C132.348 55.4881 132.348 69.3701 140.909 77.9311C149.47 86.4921 163.352 86.4921 171.913 77.9311L179.989 69.8556" stroke="#021B4D" stroke-width="3" stroke-linecap="round" stroke-linejoin="round"/>
<path d="M174.778 58.1269C172.797 56.1452 169.581 56.1452 167.6 58.1269C165.618 60.1086 165.618 63.324 167.6 65.3057L174.778 58.1269Z" stroke="#021B4D" stroke-width="3" stroke-linecap="round" stroke-linejoin="round"/>
<path d="M164.161 76.6034C176.269 76.6034 186.084 66.7882 186.084 54.6806C186.084 42.573 176.269 32.7578 164.161 32.7578C152.053 32.7578 142.238 42.573 142.238 54.6806C142.238 66.7882 152.053 76.6034 164.161 76.6034Z" stroke="#021B4D" stroke-width="3" stroke-linecap="round" stroke-linejoin="round"/>
<path d="M154.233 57.6071C155.087 57.6071 155.779 56.9151 155.779 56.0614C155.779 55.2077 155.087 54.5156 154.233 54.5156C153.38 54.5156 152.688 55.2077 152.688 56.0614C152.688 56.9151 153.38 57.6071 154.233 57.6071Z" fill="#021B4D"/>
<path d="M165.534 46.3063C166.388 46.3063 167.08 45.6143 167.08 44.7606C167.08 43.9069 166.388 43.2148 165.534 43.2148C164.68 43.2148 163.988 43.9069 163.988 44.7606C163.988 45.6143 164.68 46.3063 165.534 46.3063Z" fill="#021B4D"/>
<path d="M151.483 131.013C137.17 133.757 123.343 124.379 120.598 110.061C117.853 95.7479 127.232 81.9205 141.55 79.1758" stroke="#021B4D" stroke-width="3" stroke-linecap="round" stroke-linejoin="round"/>
<path d="M275.131 63.7773C285.366 88.4894 331.907 79.4428 326.621 110.804C322.415 132.786 270.905 114.435 270.905 114.435C270.905 114.435 247.342 105.062 239.648 122.684C231.954 140.306 251.147 165.742 283.177 181.591" stroke="#021B4D" stroke-width="3" stroke-linecap="round" stroke-linejoin="round"/>
<path d="M185.637 113.685C185.637 113.685 212.098 98.2626 219.059 119.868C226.014 141.474 193.366 156.263 173.553 159.973C150.442 164.308 103.336 167.484 105.045 201.585C106.859 237.726 152.691 229.269 152.691 229.269" stroke="#021B4D" stroke-width="3" stroke-linecap="round" stroke-linejoin="round"/>
</svg>
