<svg width="432" height="432" viewBox="0 0 432 432" fill="none" xmlns="http://www.w3.org/2000/svg">
<path d="M170.516 98.5962C181.201 108.002 192.745 121.629 198.707 128.952C200.717 131.424 199.666 135.136 196.657 136.188L178.173 142.626C178.173 142.626 189.958 167.133 185.509 188.036" stroke="#053575" stroke-width="3.04848" stroke-linecap="round" stroke-linejoin="round"/>
<path d="M157.512 127.712C156.882 124.577 158.765 120.664 161.659 120.771C164.5 120.878 166.101 124.362 167.086 127.323C166.932 126.486 166.771 125.642 166.617 124.804" stroke="#053575" stroke-width="3.04848" stroke-linecap="round" stroke-linejoin="round"/>
<path d="M73.6077 65.5066C49.0738 83.4012 42.7226 122.935 57.9775 150.766C60.711 155.75 63.2501 160.346 67.1761 164.681C69.9899 167.783 74.8337 167.903 77.8552 165.002L102.496 141.353" fill="#053575"/>
<path d="M73.6077 65.5066C49.0738 83.4012 42.7226 122.935 57.9775 150.766C60.711 155.75 63.2501 160.346 67.1761 164.681C69.9899 167.783 74.8337 167.903 77.8552 165.002L102.496 141.353" stroke="#053575" stroke-width="8.56467" stroke-linecap="round" stroke-linejoin="round"/>
<path d="M95.5906 145.373C99.8248 124.189 96.5688 108.244 115.562 125.629L115.2 94.1011C117.733 94.7777 120.319 95.3003 122.932 95.6487C124.426 95.8496 125.973 95.9903 127.414 95.5682C128.854 95.1462 130.154 94.0206 130.261 92.6271C130.388 91.0125 128.968 89.6927 127.668 88.6141C126.161 87.368 124.653 86.1218 123.139 84.869C123.675 84.6144 124.184 84.3598 124.66 84.1053C130 87.0732 135.627 89.686 141.094 92.1515C145.174 93.9872 149.623 95.6553 154.132 95.0926C155.84 94.8782 157.79 94.0407 158.011 92.4529C158.232 90.8383 156.564 89.6056 155.083 88.7347C149.797 85.6194 144.504 82.4974 139.218 79.3821C149.053 84.6412 150.38 85.3447 161.709 86.2692C166.667 86.6712 172.984 85.807 174.431 81.3919C175.778 77.2784 171.738 73.4596 167.939 71.0076C144.565 55.9067 112.031 50.1115 85.4876 59.6518C80.8046 61.3334 76.5236 63.5844 72.6445 66.2978" fill="#053575"/>
<path d="M95.5906 145.373C99.8248 124.189 96.5688 108.244 115.562 125.629L115.2 94.1011C117.733 94.7777 120.319 95.3003 122.932 95.6487C124.426 95.8496 125.973 95.9903 127.414 95.5682C128.854 95.1462 130.154 94.0207 130.261 92.6271C130.388 91.0125 128.968 89.6927 127.668 88.6141C126.161 87.368 124.653 86.1218 123.139 84.869C123.675 84.6144 124.184 84.3598 124.66 84.1053C130 87.0732 135.627 89.686 141.094 92.1515C145.174 93.9872 149.623 95.6553 154.132 95.0926C155.84 94.8782 157.79 94.0407 158.011 92.4529C158.232 90.8383 156.564 89.6056 155.083 88.7347C149.797 85.6194 144.504 82.4974 139.218 79.3821C149.053 84.6412 150.38 85.3447 161.709 86.2692C166.667 86.6712 172.984 85.807 174.431 81.3919C175.778 77.2784 171.738 73.4596 167.939 71.0076C144.565 55.9067 112.031 50.1115 85.4876 59.6518C80.8046 61.3334 76.5236 63.5844 72.6445 66.2978" stroke="#053575" stroke-width="8.56467" stroke-linecap="round" stroke-linejoin="round"/>
<path d="M117.025 131.29C117.025 131.29 108.992 117.73 98.8489 120.872C88.7058 124.014 90.5146 134.546 92.8729 139.202C95.2311 143.859 104.798 148.863 104.798 148.863" fill="#EAE8E5"/>
<path d="M117.025 131.29C117.025 131.29 108.992 117.73 98.8489 120.872C88.7058 124.014 90.5146 134.546 92.8729 139.202C95.2311 143.859 104.798 148.863 104.798 148.863" stroke="#EAE8E5" stroke-width="7.1222" stroke-linecap="round" stroke-linejoin="round"/>
<path d="M110.111 139.625C110.111 139.625 104.316 129.046 101.562 126.956" stroke="#053575" stroke-width="3.04848" stroke-linecap="round" stroke-linejoin="round"/>
<path d="M96.0938 137.031C96.0938 137.031 101.668 132.703 104.214 132.911" stroke="#053575" stroke-width="3.04848" stroke-linecap="round" stroke-linejoin="round"/>
<path d="M179.301 161.619C179.301 161.619 160.643 159.823 150.594 150.404L179.301 161.619Z" fill="#EAE8E5"/>
<path d="M179.301 161.619C179.301 161.619 160.643 159.823 150.594 150.404" stroke="#053575" stroke-width="3.04848" stroke-linecap="round" stroke-linejoin="round"/>
<path d="M202.356 375.929L196.213 332.924C196.213 332.924 180.114 337.614 167.069 339.242C100.127 347.61 80.6715 298.18 76.5781 284.379C76.0019 282.436 77.0672 280.38 78.9832 279.716L165.553 254.664C166.142 254.457 166.672 254.115 167.094 253.659L180.341 234.635C181.567 233.315 181.654 231.071 180.522 229.67C178.7 227.426 175.893 226.327 173.039 227.647C156.37 235.378 145.497 229.235 127.046 224.317C106.204 218.763 88.5838 206.811 75.3186 190.752C72.7526 187.65 68.4381 187.255 65.2089 189.734C64.7734 190.069 64.4585 190.525 64.224 191.014L4.00143 375.942C3.38507 377.249 202.363 375.942 202.363 375.942L202.356 375.929Z" fill="#053575"/>
<path d="M226.02 311.85C235.975 311.884 245.087 311.676 252.67 311.401C345.178 308.098 344.08 365.366 344.08 365.366" stroke="#053575" stroke-width="3.04848" stroke-linecap="round" stroke-linejoin="round"/>
<path d="M306.637 332.331C307.97 332.773 327.56 343.345 328.223 363.564" stroke="#053575" stroke-width="3.04848" stroke-linecap="round" stroke-linejoin="round"/>
<path d="M293.422 337.838C293.422 337.838 312.007 348.008 311.243 364.107" stroke="#053575" stroke-width="3.04848" stroke-linecap="round" stroke-linejoin="round"/>
<path d="M200.039 364.261C203.054 364.261 206.095 364.241 209.13 364.221C221.853 364.134 259.819 364.288 269.956 363.464C279.617 362.68 295.354 365.239 292.594 353.133C291.723 349.321 288.521 346.862 284.595 347.104C278.163 347.499 255.639 348.872 255.639 348.872" stroke="#053575" stroke-width="3.04848" stroke-linecap="round" stroke-linejoin="round"/>
<path d="M406.398 374.956C413.868 375.345 420.555 363.62 421.332 348.761L427.978 206.629C428.206 202.294 426.624 198.69 424.447 198.576L418.813 198.281C416.635 198.167 414.686 201.591 414.458 205.919L406.398 374.956Z" fill="#FF8CC5" stroke="#FF8CC5" stroke-width="4.50772" stroke-miterlimit="10"/>
<path d="M231.668 365.336C231.742 373.603 243.868 380.196 258.748 380.062L401.02 377.864C405.362 377.824 408.859 375.834 408.839 373.429L408.778 367.192C408.758 364.78 405.221 362.857 400.879 362.897L231.668 365.343V365.336Z" fill="#FF8CC5"/>
<path d="M137.863 229.473C137.863 229.473 152.314 264.646 165.204 254.971C178.101 245.304 184.546 216.288 190.991 209.843C197.436 203.398 210.333 200.175 220 209.843C229.668 219.51 223.223 248.526 223.223 248.526C223.223 248.526 223.209 252.131 216.778 251.749C206.045 251.112 207.11 229.185 207.11 229.185C207.11 229.185 207.11 238.852 200.665 238.852" stroke="#053575" stroke-width="3.04848" stroke-linecap="round" stroke-linejoin="round"/>
<path d="M220.359 209.267C225.217 208.001 229.565 208.161 236.117 213.072C249.014 222.74 242.562 248.526 242.562 254.978C242.562 261.423 225.759 266.729 221.458 252.218" stroke="#053575" stroke-width="3.04848" stroke-linecap="round" stroke-linejoin="round"/>
<path d="M233.582 210.365C233.582 210.365 258.685 219.516 258.685 225.961C258.685 232.406 255.463 238.858 245.789 235.629" stroke="#053575" stroke-width="3.04848" stroke-linecap="round" stroke-linejoin="round"/>
<path d="M245.781 213.065C245.781 213.065 255.449 200.169 268.346 200.169C281.242 200.169 287.687 206.614 284.465 213.065C281.242 219.51 268.345 213.065 258.678 229.185" stroke="#053575" stroke-width="3.04848" stroke-linecap="round" stroke-linejoin="round"/>
<path d="M260.828 227.034C260.828 227.034 262.094 256.217 246.866 282.868C231.638 309.519 193.571 351.391 144.081 343.781C94.5908 336.17 79.3626 298.096 79.3626 298.096L54.8086 248.184" stroke="#053575" stroke-width="3.04848" stroke-linecap="round" stroke-linejoin="round"/>
</svg>
