<svg width="432" height="432" viewBox="0 0 432 432" fill="none" xmlns="http://www.w3.org/2000/svg">
<path d="M119.74 112.663C119.74 112.663 123.841 116.595 124.677 115.83C125.512 115.065 126.704 112.441 127.259 111.933C127.814 111.425 146.808 93.5589 146.808 93.5589L139.645 86.2852L120.908 104.432C120.908 104.432 118.168 105.916 117.608 106.424C117.047 106.932 115.656 108.206 116.164 108.767C116.673 109.327 118.688 112.091 119.734 112.669L119.74 112.663Z" fill="#FDD756" stroke="#FDD756" stroke-width="3" stroke-linecap="round" stroke-linejoin="round"/>
<path d="M140.209 85.7696L142.16 83.9877L144.959 75.2884C144.959 75.2884 147.389 62.8266 147.489 60.6941C147.588 58.5617 148.862 42.0336 153.775 33.9653C158.683 25.897 167.756 14.5335 179.896 12.1382C192.037 9.74279 202.179 10.1985 214.717 22.8005C227.255 35.4025 227.944 55.7573 220.01 65.5608C212.076 75.3643 203.459 82.7374 190.249 85.0802C177.039 87.423 163.088 88.4045 158.233 89.2575C153.378 90.1105 150.433 90.2449 149.598 91.0102L147.085 93.3063L140.203 85.7755L140.209 85.7696Z" fill="#FF8CC5"/>
<path d="M151.951 74.5313C151.951 74.5313 149.222 81.6298 150.245 82.7457C151.267 83.8615 164.477 81.5129 165.312 80.7476C166.148 79.9822 167.013 78.6852 163.396 75.8458C159.984 74.356 159.219 73.5205 157.764 70.243C156.309 66.9654 153.966 65.5282 152.331 72.1359C152.003 73.4563 151.957 74.5254 151.957 74.5254L151.951 74.5313Z" fill="#FEFEFE"/>
<path d="M195.039 22.1882C196.082 22.1882 196.927 21.3434 196.927 20.3012C196.927 19.2589 196.082 18.4141 195.039 18.4141C193.997 18.4141 193.152 19.2589 193.152 20.3012C193.152 21.3434 193.997 22.1882 195.039 22.1882Z" fill="#FEFEFE"/>
<path d="M198.864 26.3718C199.906 26.3718 200.751 25.527 200.751 24.4847C200.751 23.4425 199.906 22.5977 198.864 22.5977C197.821 22.5977 196.977 23.4425 196.977 24.4847C196.977 25.527 197.821 26.3718 198.864 26.3718Z" fill="#FEFEFE"/>
<path d="M202.938 30.8367C203.98 30.8367 204.825 29.9918 204.825 28.9496C204.825 27.9074 203.98 27.0625 202.938 27.0625C201.896 27.0625 201.051 27.9074 201.051 28.9496C201.051 29.9918 201.896 30.8367 202.938 30.8367Z" fill="#FEFEFE"/>
<path d="M206.762 35.0203C207.804 35.0203 208.649 34.1754 208.649 33.1332C208.649 32.091 207.804 31.2461 206.762 31.2461C205.72 31.2461 204.875 32.091 204.875 33.1332C204.875 34.1754 205.72 35.0203 206.762 35.0203Z" fill="#FEFEFE"/>
<path d="M211.102 39.7625C212.144 39.7625 212.989 38.9176 212.989 37.8754C212.989 36.8332 212.144 35.9883 211.102 35.9883C210.06 35.9883 209.215 36.8332 209.215 37.8754C209.215 38.9176 210.06 39.7625 211.102 39.7625Z" fill="#FEFEFE"/>
<path d="M214.922 43.9421C215.964 43.9421 216.809 43.0973 216.809 42.0551C216.809 41.0128 215.964 40.168 214.922 40.168C213.88 40.168 213.035 41.0128 213.035 42.0551C213.035 43.0973 213.88 43.9421 214.922 43.9421Z" fill="#FEFEFE"/>
<path d="M186.473 22.3406C187.515 22.3406 188.36 21.4957 188.36 20.4535C188.36 19.4113 187.515 18.5664 186.473 18.5664C185.431 18.5664 184.586 19.4113 184.586 20.4535C184.586 21.4957 185.431 22.3406 186.473 22.3406Z" fill="#FEFEFE"/>
<path d="M190.293 26.5203C191.336 26.5203 192.18 25.6754 192.18 24.6332C192.18 23.591 191.336 22.7461 190.293 22.7461C189.251 22.7461 188.406 23.591 188.406 24.6332C188.406 25.6754 189.251 26.5203 190.293 26.5203Z" fill="#FEFEFE"/>
<path d="M194.375 30.989C195.418 30.989 196.262 30.1441 196.262 29.1019C196.262 28.0597 195.418 27.2148 194.375 27.2148C193.333 27.2148 192.488 28.0597 192.488 29.1019C192.488 30.1441 193.333 30.989 194.375 30.989Z" fill="#FEFEFE"/>
<path d="M198.2 35.1726C199.242 35.1726 200.087 34.3277 200.087 33.2855C200.087 32.2433 199.242 31.3984 198.2 31.3984C197.157 31.3984 196.312 32.2433 196.312 33.2855C196.312 34.3277 197.157 35.1726 198.2 35.1726Z" fill="#FEFEFE"/>
<path d="M202.528 39.9148C203.57 39.9148 204.415 39.0699 204.415 38.0277C204.415 36.9855 203.57 36.1406 202.528 36.1406C201.486 36.1406 200.641 36.9855 200.641 38.0277C200.641 39.0699 201.486 39.9148 202.528 39.9148Z" fill="#FEFEFE"/>
<path d="M206.352 44.0945C207.394 44.0945 208.239 43.2496 208.239 42.2074C208.239 41.1652 207.394 40.3203 206.352 40.3203C205.31 40.3203 204.465 41.1652 204.465 42.2074C204.465 43.2496 205.31 44.0945 206.352 44.0945Z" fill="#FEFEFE"/>
<path d="M210.434 48.5593C211.476 48.5593 212.321 47.7145 212.321 46.6722C212.321 45.63 211.476 44.7852 210.434 44.7852C209.392 44.7852 208.547 45.63 208.547 46.6722C208.547 47.7145 209.392 48.5593 210.434 48.5593Z" fill="#FEFEFE"/>
<path d="M214.254 52.7468C215.296 52.7468 216.141 51.902 216.141 50.8597C216.141 49.8175 215.296 48.9727 214.254 48.9727C213.212 48.9727 212.367 49.8175 212.367 50.8597C212.367 51.902 213.212 52.7468 214.254 52.7468Z" fill="#FEFEFE"/>
<path d="M181.731 26.6687C182.773 26.6687 183.618 25.8238 183.618 24.7816C183.618 23.7394 182.773 22.8945 181.731 22.8945C180.689 22.8945 179.844 23.7394 179.844 24.7816C179.844 25.8238 180.689 26.6687 181.731 26.6687Z" fill="#FEFEFE"/>
<path d="M185.555 30.8601C186.597 30.8601 187.442 30.0152 187.442 28.973C187.442 27.9308 186.597 27.0859 185.555 27.0859C184.513 27.0859 183.668 27.9308 183.668 28.973C183.668 30.0152 184.513 30.8601 185.555 30.8601Z" fill="#FEFEFE"/>
<path d="M189.633 35.3171C190.675 35.3171 191.52 34.4723 191.52 33.4301C191.52 32.3878 190.675 31.543 189.633 31.543C188.591 31.543 187.746 32.3878 187.746 33.4301C187.746 34.4723 188.591 35.3171 189.633 35.3171Z" fill="#FEFEFE"/>
<path d="M193.457 39.5085C194.5 39.5085 195.344 38.6637 195.344 37.6215C195.344 36.5793 194.5 35.7344 193.457 35.7344C192.415 35.7344 191.57 36.5793 191.57 37.6215C191.57 38.6637 192.415 39.5085 193.457 39.5085Z" fill="#FEFEFE"/>
<path d="M197.793 44.2429C198.836 44.2429 199.68 43.398 199.68 42.3558C199.68 41.3136 198.836 40.4688 197.793 40.4688C196.751 40.4688 195.906 41.3136 195.906 42.3558C195.906 43.398 196.751 44.2429 197.793 44.2429Z" fill="#FEFEFE"/>
<path d="M201.614 48.4265C202.656 48.4265 203.501 47.5816 203.501 46.5394C203.501 45.4972 202.656 44.6523 201.614 44.6523C200.571 44.6523 199.727 45.4972 199.727 46.5394C199.727 47.5816 200.571 48.4265 201.614 48.4265Z" fill="#FEFEFE"/>
<path d="M205.688 52.8914C206.73 52.8914 207.575 52.0465 207.575 51.0043C207.575 49.9621 206.73 49.1172 205.688 49.1172C204.646 49.1172 203.801 49.9621 203.801 51.0043C203.801 52.0465 204.646 52.8914 205.688 52.8914Z" fill="#FEFEFE"/>
<path d="M209.516 57.075C210.558 57.075 211.403 56.2301 211.403 55.1879C211.403 54.1457 210.558 53.3008 209.516 53.3008C208.474 53.3008 207.629 54.1457 207.629 55.1879C207.629 56.2301 208.474 57.075 209.516 57.075Z" fill="#FEFEFE"/>
<path d="M177.27 30.7585C178.312 30.7585 179.157 29.9137 179.157 28.8715C179.157 27.8293 178.312 26.9844 177.27 26.9844C176.228 26.9844 175.383 27.8293 175.383 28.8715C175.383 29.9137 176.228 30.7585 177.27 30.7585Z" fill="#FEFEFE"/>
<path d="M181.094 34.9343C182.136 34.9343 182.981 34.0895 182.981 33.0472C182.981 32.005 182.136 31.1602 181.094 31.1602C180.052 31.1602 179.207 32.005 179.207 33.0472C179.207 34.0895 180.052 34.9343 181.094 34.9343Z" fill="#FEFEFE"/>
<path d="M185.172 39.3992C186.214 39.3992 187.059 38.5543 187.059 37.5121C187.059 36.4699 186.214 35.625 185.172 35.625C184.13 35.625 183.285 36.4699 183.285 37.5121C183.285 38.5543 184.13 39.3992 185.172 39.3992Z" fill="#FEFEFE"/>
<path d="M188.993 43.5828C190.035 43.5828 190.88 42.7379 190.88 41.6957C190.88 40.6535 190.035 39.8086 188.993 39.8086C187.95 39.8086 187.105 40.6535 187.105 41.6957C187.105 42.7379 187.95 43.5828 188.993 43.5828Z" fill="#FEFEFE"/>
<path d="M193.325 48.321C194.367 48.321 195.212 47.4762 195.212 46.434C195.212 45.3918 194.367 44.5469 193.325 44.5469C192.282 44.5469 191.438 45.3918 191.438 46.434C191.438 47.4762 192.282 48.321 193.325 48.321Z" fill="#FEFEFE"/>
<path d="M197.153 52.5086C198.195 52.5086 199.04 51.6637 199.04 50.6215C199.04 49.5793 198.195 48.7344 197.153 48.7344C196.111 48.7344 195.266 49.5793 195.266 50.6215C195.266 51.6637 196.111 52.5086 197.153 52.5086Z" fill="#FEFEFE"/>
<path d="M201.223 56.9656C202.265 56.9656 203.11 56.1207 203.11 55.0785C203.11 54.0363 202.265 53.1914 201.223 53.1914C200.181 53.1914 199.336 54.0363 199.336 55.0785C199.336 56.1207 200.181 56.9656 201.223 56.9656Z" fill="#FEFEFE"/>
<path d="M205.051 61.1492C206.093 61.1492 206.938 60.3043 206.938 59.2621C206.938 58.2199 206.093 57.375 205.051 57.375C204.009 57.375 203.164 58.2199 203.164 59.2621C203.164 60.3043 204.009 61.1492 205.051 61.1492Z" fill="#FEFEFE"/>
<path d="M172.528 35.0789C173.57 35.0789 174.415 34.234 174.415 33.1918C174.415 32.1496 173.57 31.3047 172.528 31.3047C171.486 31.3047 170.641 32.1496 170.641 33.1918C170.641 34.234 171.486 35.0789 172.528 35.0789Z" fill="#FEFEFE"/>
<path d="M176.348 39.2664C177.39 39.2664 178.235 38.4215 178.235 37.3793C178.235 36.3371 177.39 35.4922 176.348 35.4922C175.306 35.4922 174.461 36.3371 174.461 37.3793C174.461 38.4215 175.306 39.2664 176.348 39.2664Z" fill="#FEFEFE"/>
<path d="M180.422 43.7312C181.464 43.7312 182.309 42.8863 182.309 41.8441C182.309 40.8019 181.464 39.957 180.422 39.957C179.38 39.957 178.535 40.8019 178.535 41.8441C178.535 42.8863 179.38 43.7312 180.422 43.7312Z" fill="#FEFEFE"/>
<path d="M184.254 47.9109C185.296 47.9109 186.141 47.066 186.141 46.0238C186.141 44.9816 185.296 44.1367 184.254 44.1367C183.212 44.1367 182.367 44.9816 182.367 46.0238C182.367 47.066 183.212 47.9109 184.254 47.9109Z" fill="#FEFEFE"/>
<path d="M188.582 52.657C189.625 52.657 190.469 51.8121 190.469 50.7699C190.469 49.7277 189.625 48.8828 188.582 48.8828C187.54 48.8828 186.695 49.7277 186.695 50.7699C186.695 51.8121 187.54 52.657 188.582 52.657Z" fill="#FEFEFE"/>
<path d="M192.407 56.8406C193.449 56.8406 194.294 55.9957 194.294 54.9535C194.294 53.9113 193.449 53.0664 192.407 53.0664C191.364 53.0664 190.52 53.9113 190.52 54.9535C190.52 55.9957 191.364 56.8406 192.407 56.8406Z" fill="#FEFEFE"/>
<path d="M196.489 61.2976C197.531 61.2976 198.376 60.4527 198.376 59.4105C198.376 58.3683 197.531 57.5234 196.489 57.5234C195.446 57.5234 194.602 58.3683 194.602 59.4105C194.602 60.4527 195.446 61.2976 196.489 61.2976Z" fill="#FEFEFE"/>
<path d="M200.309 65.4851C201.351 65.4851 202.196 64.6402 202.196 63.598C202.196 62.5558 201.351 61.7109 200.309 61.7109C199.267 61.7109 198.422 62.5558 198.422 63.598C198.422 64.6402 199.267 65.4851 200.309 65.4851Z" fill="#FEFEFE"/>
<path d="M167.786 39.4148C168.828 39.4148 169.673 38.5699 169.673 37.5277C169.673 36.4855 168.828 35.6406 167.786 35.6406C166.743 35.6406 165.898 36.4855 165.898 37.5277C165.898 38.5699 166.743 39.4148 167.786 39.4148Z" fill="#FEFEFE"/>
<path d="M171.61 43.5984C172.652 43.5984 173.497 42.7535 173.497 41.7113C173.497 40.6691 172.652 39.8242 171.61 39.8242C170.568 39.8242 169.723 40.6691 169.723 41.7113C169.723 42.7535 170.568 43.5984 171.61 43.5984Z" fill="#FEFEFE"/>
<path d="M175.692 48.0632C176.734 48.0632 177.579 47.2184 177.579 46.1761C177.579 45.1339 176.734 44.2891 175.692 44.2891C174.65 44.2891 173.805 45.1339 173.805 46.1761C173.805 47.2184 174.65 48.0632 175.692 48.0632Z" fill="#FEFEFE"/>
<path d="M179.512 52.2468C180.554 52.2468 181.399 51.402 181.399 50.3597C181.399 49.3175 180.554 48.4727 179.512 48.4727C178.47 48.4727 177.625 49.3175 177.625 50.3597C177.625 51.402 178.47 52.2468 179.512 52.2468Z" fill="#FEFEFE"/>
<path d="M183.844 56.9929C184.886 56.9929 185.731 56.148 185.731 55.1058C185.731 54.0636 184.886 53.2188 183.844 53.2188C182.802 53.2188 181.957 54.0636 181.957 55.1058C181.957 56.148 182.802 56.9929 183.844 56.9929Z" fill="#FEFEFE"/>
<path d="M187.664 61.1765C188.707 61.1765 189.552 60.3316 189.552 59.2894C189.552 58.2472 188.707 57.4023 187.664 57.4023C186.622 57.4023 185.777 58.2472 185.777 59.2894C185.777 60.3316 186.622 61.1765 187.664 61.1765Z" fill="#FEFEFE"/>
<path d="M191.746 65.6375C192.789 65.6375 193.634 64.7926 193.634 63.7504C193.634 62.7082 192.789 61.8633 191.746 61.8633C190.704 61.8633 189.859 62.7082 189.859 63.7504C189.859 64.7926 190.704 65.6375 191.746 65.6375Z" fill="#FEFEFE"/>
<path d="M195.571 69.8171C196.613 69.8171 197.458 68.9723 197.458 67.9301C197.458 66.8878 196.613 66.043 195.571 66.043C194.528 66.043 193.684 66.8878 193.684 67.9301C193.684 68.9723 194.528 69.8171 195.571 69.8171Z" fill="#FEFEFE"/>
<path d="M163.325 43.4968C164.367 43.4968 165.212 42.652 165.212 41.6097C165.212 40.5675 164.367 39.7227 163.325 39.7227C162.282 39.7227 161.438 40.5675 161.438 41.6097C161.438 42.652 162.282 43.4968 163.325 43.4968Z" fill="#FEFEFE"/>
<path d="M167.149 47.6804C168.191 47.6804 169.036 46.8355 169.036 45.7933C169.036 44.7511 168.191 43.9062 167.149 43.9062C166.107 43.9062 165.262 44.7511 165.262 45.7933C165.262 46.8355 166.107 47.6804 167.149 47.6804Z" fill="#FEFEFE"/>
<path d="M171.227 52.1414C172.269 52.1414 173.114 51.2965 173.114 50.2543C173.114 49.2121 172.269 48.3672 171.227 48.3672C170.185 48.3672 169.34 49.2121 169.34 50.2543C169.34 51.2965 170.185 52.1414 171.227 52.1414Z" fill="#FEFEFE"/>
<path d="M175.047 56.3289C176.089 56.3289 176.934 55.484 176.934 54.4418C176.934 53.3996 176.089 52.5547 175.047 52.5547C174.005 52.5547 173.16 53.3996 173.16 54.4418C173.16 55.484 174.005 56.3289 175.047 56.3289Z" fill="#FEFEFE"/>
<path d="M179.379 61.0671C180.421 61.0671 181.266 60.2223 181.266 59.1801C181.266 58.1378 180.421 57.293 179.379 57.293C178.337 57.293 177.492 58.1378 177.492 59.1801C177.492 60.2223 178.337 61.0671 179.379 61.0671Z" fill="#FEFEFE"/>
<path d="M183.203 65.2507C184.246 65.2507 185.091 64.4059 185.091 63.3636C185.091 62.3214 184.246 61.4766 183.203 61.4766C182.161 61.4766 181.316 62.3214 181.316 63.3636C181.316 64.4059 182.161 65.2507 183.203 65.2507Z" fill="#FEFEFE"/>
<path d="M187.282 69.7156C188.324 69.7156 189.169 68.8707 189.169 67.8285C189.169 66.7863 188.324 65.9414 187.282 65.9414C186.239 65.9414 185.395 66.7863 185.395 67.8285C185.395 68.8707 186.239 69.7156 187.282 69.7156Z" fill="#FEFEFE"/>
<path d="M191.11 73.9031C192.152 73.9031 192.997 73.0582 192.997 72.016C192.997 70.9738 192.152 70.1289 191.11 70.1289C190.068 70.1289 189.223 70.9738 189.223 72.016C189.223 73.0582 190.068 73.9031 191.11 73.9031Z" fill="#FEFEFE"/>
<path d="M158.582 47.8289C159.625 47.8289 160.469 46.984 160.469 45.9418C160.469 44.8996 159.625 44.0547 158.582 44.0547C157.54 44.0547 156.695 44.8996 156.695 45.9418C156.695 46.984 157.54 47.8289 158.582 47.8289Z" fill="#FEFEFE"/>
<path d="M162.403 52.0164C163.445 52.0164 164.29 51.1715 164.29 50.1293C164.29 49.0871 163.445 48.2422 162.403 48.2422C161.361 48.2422 160.516 49.0871 160.516 50.1293C160.516 51.1715 161.361 52.0164 162.403 52.0164Z" fill="#FEFEFE"/>
<path d="M166.477 56.4812C167.519 56.4812 168.364 55.6363 168.364 54.5941C168.364 53.5519 167.519 52.707 166.477 52.707C165.435 52.707 164.59 53.5519 164.59 54.5941C164.59 55.6363 165.435 56.4812 166.477 56.4812Z" fill="#FEFEFE"/>
<path d="M170.305 60.657C171.347 60.657 172.192 59.8121 172.192 58.7699C172.192 57.7277 171.347 56.8828 170.305 56.8828C169.263 56.8828 168.418 57.7277 168.418 58.7699C168.418 59.8121 169.263 60.657 170.305 60.657Z" fill="#FEFEFE"/>
<path d="M174.637 65.3992C175.679 65.3992 176.524 64.5543 176.524 63.5121C176.524 62.4699 175.679 61.625 174.637 61.625C173.595 61.625 172.75 62.4699 172.75 63.5121C172.75 64.5543 173.595 65.3992 174.637 65.3992Z" fill="#FEFEFE"/>
<path d="M178.465 69.5789C179.507 69.5789 180.352 68.734 180.352 67.6918C180.352 66.6496 179.507 65.8047 178.465 65.8047C177.423 65.8047 176.578 66.6496 176.578 67.6918C176.578 68.734 177.423 69.5789 178.465 69.5789Z" fill="#FEFEFE"/>
<path d="M182.543 74.0437C183.586 74.0437 184.43 73.1988 184.43 72.1566C184.43 71.1144 183.586 70.2695 182.543 70.2695C181.501 70.2695 180.656 71.1144 180.656 72.1566C180.656 73.1988 181.501 74.0437 182.543 74.0437Z" fill="#FEFEFE"/>
<path d="M186.364 78.2312C187.406 78.2312 188.251 77.3863 188.251 76.3441C188.251 75.3019 187.406 74.457 186.364 74.457C185.321 74.457 184.477 75.3019 184.477 76.3441C184.477 77.3863 185.321 78.2312 186.364 78.2312Z" fill="#FEFEFE"/>
<path d="M86.1101 43.8466C86.0458 38.3899 90.5386 33.9204 96.1414 33.8562C101.744 33.7919 106.336 38.162 106.395 43.6188" fill="#FDD756"/>
<path d="M86.1101 43.8466C86.0458 38.3899 90.5386 33.9204 96.1414 33.8562C101.744 33.7919 106.336 38.162 106.395 43.6188" stroke="#FDD756" stroke-width="3" stroke-linecap="round" stroke-linejoin="round"/>
<path d="M106.394 43.6133C106.458 49.0701 101.966 53.5395 96.3627 53.6037C90.7599 53.668 86.1678 49.2979 86.1094 43.8411" fill="#FDD756"/>
<path d="M106.394 43.6133C106.458 49.0701 101.966 53.5395 96.3627 53.6037C90.7599 53.668 86.1678 49.2979 86.1094 43.8411" stroke="#FDD756" stroke-width="3" stroke-linecap="round" stroke-linejoin="round"/>
<path d="M243.499 315.265L131.127 404.11L79.7844 374.011C78.2888 373.134 79.1009 370.891 80.801 371.2L93.6192 373.543C97.0194 374.162 100.472 373.122 102.879 370.75L175.979 298.708L205.144 269.543" fill="#203AE9"/>
<path d="M243.499 315.265L131.127 404.11L79.7844 374.011C78.2888 373.134 79.1009 370.891 80.801 371.2L93.6192 373.543C97.0194 374.162 100.472 373.122 102.879 370.75L175.979 298.708L205.144 269.543" stroke="#053575" stroke-width="3" stroke-linecap="round" stroke-linejoin="round"/>
<path d="M193.37 296.475L238.848 403.186C246.004 419.983 266.114 426.182 281.111 416.215L332.881 381.821C335.819 379.869 339.74 380.699 341.679 383.69L350.489 397.285C351.57 398.95 354.106 398.022 353.913 396.023L346.721 321.919L273.534 364.089C273.534 364.089 268.392 309.883 248.16 283.92C227.928 257.951 190.812 281.928 193.376 296.464L193.37 296.475Z" fill="#203AE9" stroke="#203AE9" stroke-width="3" stroke-linecap="round" stroke-linejoin="round"/>
<path d="M150.507 128.675C146.465 119.076 142.533 107.777 142.994 100.959C143.491 93.6326 143.736 86.1544 138.25 84.3666C132.682 81.1883 125.631 83.0637 121.185 87.1709C117.703 90.3901 112.532 95.917 112.439 101.047C112.374 104.377 115.284 106.69 116.756 109.384C118.322 112.252 118.123 114.437 118.234 117.668C118.667 130.527 120.793 142.522 124.556 153.973" fill="#FEFEFE"/>
<path d="M150.507 128.675C146.465 119.076 142.533 107.777 142.994 100.959C143.491 93.6326 143.736 86.1544 138.25 84.3666C132.682 81.1883 125.631 83.0637 121.185 87.1709C117.703 90.3901 112.532 95.917 112.439 101.047C112.374 104.377 115.284 106.69 116.756 109.384C118.322 112.252 118.123 114.437 118.234 117.668C118.667 130.527 120.793 142.522 124.556 153.973" stroke="#053575" stroke-width="3" stroke-linecap="round" stroke-linejoin="round"/>
<path d="M150.508 128.676C154.551 138.275 158.711 146.168 158.711 146.168C158.711 146.168 170.256 173.084 201.238 191.481L204.726 242.97C168.521 225.776 156.275 209.78 142.966 190.412C134.874 178.634 128.711 166.634 124.551 153.985" fill="#FEFEFE"/>
<path d="M150.508 128.676C154.551 138.275 158.711 146.168 158.711 146.168C158.711 146.168 170.256 173.084 201.238 191.481L204.726 242.97C168.521 225.776 156.275 209.78 142.966 190.412C134.874 178.634 128.711 166.634 124.551 153.985" stroke="#053575" stroke-width="3" stroke-linecap="round" stroke-linejoin="round"/>
<path d="M129.332 96.9588C129.332 96.9588 122.689 91.8701 115.223 95.0308L129.332 96.9588Z" fill="#FEFEFE"/>
<path d="M129.332 96.9588C129.332 96.9588 122.689 91.8701 115.223 95.0308" stroke="#053575" stroke-width="3" stroke-linecap="round" stroke-linejoin="round"/>
<path d="M133.928 88.7259C133.928 88.7259 129.949 85.4424 122.5 86.1669L133.928 88.7259Z" fill="#FEFEFE"/>
<path d="M133.928 88.7259C133.928 88.7259 129.949 85.4424 122.5 86.1669" stroke="#053575" stroke-width="3" stroke-linecap="round" stroke-linejoin="round"/>
<path d="M172.985 210.775C164.631 209.992 156.527 203.846 155.914 195.749C155.114 185.174 162.568 174.003 162.568 174.003L152.046 168.278C150.632 167.547 150.358 165.649 151.515 164.579C154.944 161.419 163.381 156.797 169.281 152.953L178.425 147.578L211.142 159.847L218.153 194.901C218.153 194.901 173.973 210.863 172.985 210.769V210.775Z" fill="#FEFEFE" stroke="#053575" stroke-width="3" stroke-linecap="round" stroke-linejoin="round"/>
<path d="M173.754 168.183C174.274 166.687 173.608 164.637 172.171 164.479C170.763 164.327 169.734 165.922 169.051 167.301C169.185 166.898 169.314 166.5 169.448 166.097" stroke="#053575" stroke-width="3" stroke-linecap="round" stroke-linejoin="round"/>
<path d="M223.818 156.656C232.009 169.416 227.855 188.789 215.767 198.78C213.605 200.568 211.596 202.215 208.99 203.489C207.126 204.4 204.848 203.559 203.965 201.666L196.762 186.236" fill="#053575"/>
<path d="M223.818 156.656C232.009 169.416 227.855 188.789 215.767 198.78C213.605 200.568 211.596 202.215 208.99 203.489C207.126 204.4 204.848 203.559 203.965 201.666L196.762 186.236" stroke="#053575" stroke-width="3" stroke-linecap="round" stroke-linejoin="round"/>
<path d="M199.247 189.362C201.087 178.834 205.463 172.092 193.51 176.59L199.341 162.142C198.044 161.985 196.747 161.751 195.467 161.43C194.737 161.248 193.989 161.026 193.399 160.565C192.803 160.103 192.4 159.35 192.604 158.689C192.838 157.924 193.732 157.574 194.532 157.322C195.455 157.024 196.384 156.732 197.307 156.434C197.103 156.218 196.916 156.008 196.735 155.803C193.72 156.183 190.635 156.353 187.65 156.475C185.424 156.569 183.052 156.516 181.06 155.424C180.3 155.009 179.547 154.261 179.734 153.496C179.921 152.713 180.92 152.456 181.761 152.327C184.781 151.866 187.796 151.41 190.817 150.948C185.301 151.556 184.559 151.632 179.126 149.967C176.748 149.236 173.967 147.677 174.09 145.375C174.201 143.231 176.766 142.22 178.974 141.793C192.552 139.153 208.718 142.489 219.339 151.778C221.214 153.414 222.804 155.242 224.118 157.205" fill="#053575"/>
<path d="M199.247 189.362C201.087 178.834 205.463 172.092 193.51 176.59L199.341 162.142C198.044 161.985 196.747 161.751 195.467 161.43C194.737 161.248 193.989 161.026 193.399 160.565C192.803 160.103 192.4 159.35 192.604 158.689C192.838 157.924 193.732 157.574 194.532 157.322C195.455 157.024 196.384 156.732 197.307 156.434C197.103 156.218 196.916 156.008 196.735 155.803C193.72 156.183 190.635 156.353 187.65 156.475C185.424 156.569 183.052 156.516 181.06 155.424C180.3 155.009 179.547 154.261 179.734 153.496C179.921 152.713 180.92 152.456 181.761 152.327C184.781 151.866 187.796 151.41 190.817 150.948C185.301 151.556 184.559 151.632 179.126 149.967C176.748 149.236 173.967 147.677 174.09 145.375C174.201 143.231 176.766 142.22 178.974 141.793C192.552 139.153 208.718 142.489 219.339 151.778C221.214 153.414 222.804 155.242 224.118 157.205" stroke="#053575" stroke-width="3" stroke-linecap="round" stroke-linejoin="round"/>
<path d="M191.816 178.931C191.816 178.931 197.986 174.17 202.14 177.488C206.288 180.806 203.554 185.317 201.626 187.029C199.692 188.735 194.346 189.278 194.346 189.278" fill="#FEFEFE"/>
<path d="M191.816 178.931C191.816 178.931 197.986 174.17 202.14 177.488C206.288 180.806 203.554 185.317 201.626 187.029C199.692 188.735 194.346 189.278 194.346 189.278" stroke="#FEFEFE" stroke-width="3" stroke-linecap="round" stroke-linejoin="round"/>
<path d="M193.531 184.038C193.531 184.038 198.123 180.241 199.783 179.785" stroke="#053575" stroke-width="3" stroke-linecap="round" stroke-linejoin="round"/>
<path d="M200.513 185.43C200.513 185.43 198.702 182.409 197.48 182.035" stroke="#053575" stroke-width="3" stroke-linecap="round" stroke-linejoin="round"/>
<path d="M160.734 183.24C160.734 183.24 170.07 183.707 175.662 179.816L160.734 183.24Z" fill="#FEFEFE"/>
<path d="M160.734 183.24C160.734 183.24 170.07 183.707 175.662 179.816" stroke="#053575" stroke-width="3" stroke-linecap="round" stroke-linejoin="round"/>
<path d="M169.476 210.48C169.476 210.48 144.88 279.391 200.505 298.788C256.13 318.185 256.709 232.886 256.709 232.886L200.937 199.035L169.476 210.475V210.48Z" fill="#FEFEFE" stroke="#053575" stroke-width="3" stroke-linecap="round" stroke-linejoin="round"/>
<path d="M298.083 292.538C293.719 279.954 287.362 268.059 279.078 256.415C265.453 237.27 252.945 221.472 216.465 204.874L200.948 199.031L201.684 235.324L200.387 241.973L220.794 256.298C252.08 274.188 264.057 300.911 264.057 300.911C264.057 300.911 268.345 308.734 272.546 318.262" fill="#FEFEFE"/>
<path d="M298.083 292.538C293.719 279.954 287.362 268.059 279.078 256.415C265.453 237.27 252.945 221.472 216.465 204.874L200.948 199.031L201.684 235.324L200.387 241.973L220.794 256.298C252.08 274.188 264.057 300.911 264.057 300.911C264.057 300.911 268.345 308.734 272.546 318.262" stroke="#053575" stroke-width="3" stroke-linecap="round" stroke-linejoin="round"/>
<path d="M272.539 318.261C276.74 327.79 280.853 339.025 280.502 345.849C280.128 353.181 280 360.665 285.515 362.365C291.135 365.45 298.152 363.464 302.534 359.28C305.963 356.009 311.04 350.394 311.052 345.265C311.058 341.934 308.113 339.668 306.6 336.998C304.988 334.158 305.151 331.967 304.988 328.742C304.345 315.895 302.026 303.936 298.07 292.543" fill="#FEFEFE"/>
<path d="M272.539 318.261C276.74 327.79 280.853 339.025 280.502 345.849C280.128 353.181 280 360.665 285.515 362.365C291.135 365.45 298.152 363.464 302.534 359.28C305.963 356.009 311.04 350.394 311.052 345.265C311.058 341.934 308.113 339.668 306.6 336.998C304.988 334.158 305.151 331.967 304.988 328.742C304.345 315.895 302.026 303.936 298.07 292.543" stroke="#053575" stroke-width="3" stroke-linecap="round" stroke-linejoin="round"/>
<path d="M294.238 349.633C294.238 349.633 300.963 354.611 308.377 351.333L294.238 349.633Z" fill="#FEFEFE"/>
<path d="M294.238 349.633C294.238 349.633 300.963 354.611 308.377 351.333" stroke="#053575" stroke-width="3" stroke-linecap="round" stroke-linejoin="round"/>
<path d="M289.77 357.934C289.77 357.934 293.801 361.153 301.238 360.306L289.77 357.934Z" fill="#FEFEFE"/>
<path d="M289.77 357.934C289.77 357.934 293.801 361.153 301.238 360.306" stroke="#053575" stroke-width="3" stroke-linecap="round" stroke-linejoin="round"/>
<path d="M193.611 241.646L201.206 247.488L207.632 230.545L205.003 202.21L200.914 200.457L192.734 204.547L193.611 241.646Z" fill="#FEFEFE"/>
</svg>
