<svg width="432" height="432" viewBox="0 0 432 432" fill="none" xmlns="http://www.w3.org/2000/svg">
<path d="M127.098 216.779C99.4649 205.999 66.1423 211.482 43.4228 230.551C49.6923 224.984 56.1288 219.201 59.6714 211.6C63.2139 203.999 63.1009 194.04 57.141 188.144C50.2917 181.368 39.1678 182.435 29.6801 184.115C44.6757 167.38 43.9633 138.917 28.1471 122.953C23.116 117.877 16.8074 114.316 10 112.297" stroke="#00CE7C" stroke-width="3" stroke-linecap="round" stroke-linejoin="round"/>
<path d="M245 75.3289C260.455 64.9055 280.638 61.8237 298.499 67.1532C306.636 69.5862 314.229 73.7455 320.756 79.1715C323.864 81.7551 340 92 336 99C331 103.5 330.37 94.3952 330.042 91.7961C329.98 91.302 329.951 90.7763 329.949 90.2282C329.931 82.7315 333.605 75.582 338.979 70.3555C344.957 64.5422 352.85 59.8969 360 59.5C370.919 58.8932 383.953 60.5154 392.27 67.1465C398.692 72.2666 392.276 80.7476 385.954 75.5043C380.992 71.3891 377.274 65.2253 373.286 60.3098C366.261 51.6514 362.905 39.046 368.076 29.1711C373.502 18.8095 386.123 14.6502 397.708 13.0591C405.42 11.9991 413.227 11.6682 421 12.044" stroke="#A9ACAC" stroke-width="3" stroke-linecap="round" stroke-linejoin="round"/>
<path d="M104.508 285.645C107.102 283.213 107.672 279.076 107.284 275.715" stroke="#053575" stroke-width="3" stroke-linecap="round" stroke-linejoin="round"/>
<path d="M127.568 423.003H64.8784C61.2474 423.003 58.3584 420.571 57.7737 417.072L46.0503 347.16C45.5541 344.207 49.1114 341.293 53.106 341.293H139.346C143.34 341.293 146.898 344.202 146.401 347.16L134.678 417.072C134.093 420.566 131.204 423.003 127.573 423.003H127.568Z" fill="#EFF1F1"/>
<path d="M149.093 334.07H43.3568C41.7639 334.07 40.4727 335.362 40.4727 336.954V346.536C40.4727 348.128 41.7639 349.42 43.3568 349.42H149.093C150.686 349.42 151.977 348.128 151.977 346.536V336.954C151.977 335.362 150.686 334.07 149.093 334.07Z" fill="#A9ACAC"/>
<path d="M115.396 387.578C116.221 387.116 117.268 387.411 117.734 388.236L120.103 392.471C121.739 395.306 121.68 398.741 119.916 401.566C118.265 404.21 115.263 405.703 112.148 405.703H99.7416C99.6876 405.703 99.6581 405.772 99.6925 405.811L103.009 409.516C103.643 410.224 103.584 411.309 102.876 411.943L102.1 412.641C101.393 413.275 100.307 413.216 99.6729 412.508L92.5386 404.544C91.9883 403.929 91.9539 403.011 92.4551 402.352L99.0046 393.813C99.5795 393.061 100.66 392.919 101.412 393.493L102.243 394.127C102.994 394.702 103.137 395.783 102.562 396.535L99.044 401.124C99.0096 401.168 99.0439 401.227 99.0931 401.227H112.227C113.828 401.227 115.386 400.461 116.197 399.08C117.007 397.699 117.007 396.063 116.216 394.692L113.833 390.432C113.371 389.607 113.666 388.56 114.492 388.094L115.401 387.583L115.396 387.578Z" fill="#00CE7C" stroke="#00CE7C" stroke-width="3" stroke-miterlimit="10"/>
<path d="M72.4435 392.214L79.7595 379.548C79.789 379.498 79.7448 379.439 79.6907 379.449L74.7823 380.402C73.8536 380.584 72.9496 379.975 72.7678 379.046L72.5663 378.024C72.3845 377.096 72.9938 376.192 73.9224 376.01L84.2553 374C85.12 373.833 85.97 374.344 86.2255 375.189L89.3505 385.547C89.6256 386.456 89.1097 387.414 88.2007 387.689L87.2033 387.989C86.2943 388.264 85.3362 387.748 85.0611 386.839L83.6067 382.029C83.592 381.975 83.5183 381.965 83.4888 382.014L76.1727 394.691C75.3768 396.066 75.3866 397.707 76.1924 399.078C76.9982 400.449 78.5606 401.225 80.1624 401.225H85.12C86.0683 401.225 86.8397 401.992 86.8397 402.945V403.987C86.8397 404.935 86.0732 405.706 85.12 405.706H80.2951C78.2265 405.706 76.1728 405.092 74.5366 403.825C70.7582 400.911 70.2816 395.948 72.4386 392.214H72.4435Z" fill="#00CE7C" stroke="#00CE7C" stroke-width="3" stroke-miterlimit="10"/>
<path d="M88.3852 369.998L87.486 369.463C86.6704 368.976 86.4002 367.925 86.8866 367.109L88.5571 364.299C90.1393 361.557 93.0038 359.906 96.1975 359.906C99.3912 359.906 102.251 361.557 103.848 364.323L110.476 375.801C110.505 375.85 110.574 375.84 110.594 375.791L112.279 370.667C112.574 369.767 113.547 369.276 114.446 369.571L115.438 369.895C116.337 370.19 116.829 371.163 116.534 372.062L113.085 382.537C112.805 383.392 111.91 383.884 111.036 383.667L99.8923 380.872C98.9735 380.641 98.4134 379.707 98.6443 378.788L98.8998 377.776C99.1307 376.857 100.064 376.297 100.983 376.528L106.383 377.884C106.437 377.899 106.486 377.84 106.457 377.791L99.9759 366.564C99.1897 365.198 97.7747 364.387 96.2024 364.382C94.6252 364.382 93.215 365.198 92.424 366.564L90.7387 369.399C90.2523 370.215 89.2008 370.485 88.3852 369.998Z" fill="#00CE7C" stroke="#00CE7C" stroke-width="3" stroke-miterlimit="10"/>
<path d="M121.688 273.73C111.185 269.413 77.9032 261.295 77.9032 261.295C74.8209 260.432 71.4353 263.147 70.7646 266.277L69.2581 271.074C68.6512 273.911 69.9767 276.961 72.7715 277.925C72.7715 277.925 106.436 287.267 117.354 290.807C119.649 291.553 122.092 291.585 124.312 290.238C128.23 287.858 129.955 281.582 127.575 277.664C126.33 275.615 123.476 274.465 121.682 273.73H121.688Z" fill="#6BC4E8" stroke="#6BC4E8" stroke-width="3" stroke-miterlimit="10"/>
<path d="M100.612 266.336C100.942 270.845 97.8547 282.082 94.9961 284.872" stroke="#053575" stroke-width="3" stroke-linecap="round" stroke-linejoin="round"/>
<path d="M110.424 269.348C110.903 273.266 108.087 284.801 105.223 287.591" stroke="#053575" stroke-width="3" stroke-linecap="round" stroke-linejoin="round"/>
<path d="M133.585 282.002L130.758 281.166C130.338 281.044 129.89 281.315 129.741 281.778L127.463 288.949C127.309 289.428 127.532 289.934 127.958 290.077L130.918 291.073C131.349 291.217 131.823 290.934 131.967 290.445L134.112 283.114C134.256 282.63 134.016 282.13 133.585 282.002Z" fill="#EFEFEF" stroke="#EFEFEF" stroke-width="3" stroke-linecap="round" stroke-linejoin="round"/>
<path d="M167.961 311.013C146.721 313.042 136.09 319.073 131.863 317.758C127.636 316.443 130.25 311.045 135.872 309.432C141.77 306.946 143.319 306.84 143.319 306.84" stroke="#053575" stroke-width="3" stroke-linecap="round" stroke-linejoin="round"/>
<path d="M164.074 311.38C164.335 311.354 164.596 311.322 164.862 311.295C192.197 307.037 213.73 299.611 232.091 284.476C239.783 278.136 245.048 269.544 248.593 261.586" stroke="#053575" stroke-width="3" stroke-linecap="round" stroke-linejoin="round"/>
<path d="M129.787 315.287C129.787 315.287 125.534 316.085 124.293 314.414C122.707 312.284 123.5 310.4 128.69 308.164" stroke="#053575" stroke-width="3" stroke-linecap="round" stroke-linejoin="round"/>
<path d="M132.902 309.522C132.902 309.522 125.38 308.256 124.885 302.453C124.523 298.221 125.886 291.53 128.76 291.828C129.756 291.929 131.683 292.509 131.683 295.293C131.683 297.673 134.084 300.281 136.612 300.185C139.141 300.09 142.489 298.892 143.038 296.555C144.629 289.746 139.466 287.58 136.58 284.146C131.55 278.168 135.154 272.935 140.589 276.805C150.182 283.64 159.125 280.239 167.962 279.472C183.878 278.099 207.573 270.896 214.605 255.203" stroke="#053575" stroke-width="3" stroke-linecap="round" stroke-linejoin="round"/>
<path d="M299.699 222.191C299.699 222.191 352.975 250.091 355.594 263.181C359.321 281.813 343.351 316.947 343.351 316.947" fill="#EFF1F1"/>
<path d="M299.699 222.191C299.699 222.191 352.975 250.091 355.594 263.181C359.321 281.813 343.351 316.947 343.351 316.947" stroke="#053575" stroke-width="3" stroke-linecap="round" stroke-linejoin="round"/>
<path d="M221.84 342.809C218.779 362.606 211.523 384.416 206.828 397.25C204.225 404.362 198.928 410.17 192.093 413.439L178.252 420.05C177.507 420.407 177.778 421.53 178.609 421.504L229.675 421.003L235.51 408.131L237.336 421.264L242.015 420.897C242.771 418.192 265.326 344.012 264.426 350.607" fill="#EFF1F1"/>
<path d="M221.84 342.809C218.779 362.606 211.523 384.416 206.828 397.25C204.225 404.362 198.928 410.17 192.093 413.439L178.252 420.05C177.507 420.407 177.778 421.53 178.609 421.504L229.675 421.003L235.51 408.131L237.336 421.264L242.015 420.897C242.771 418.192 265.326 344.012 264.426 350.607" stroke="#053575" stroke-width="3" stroke-linecap="round" stroke-linejoin="round"/>
<path d="M356.546 323.008C368.465 356.944 385.137 387.766 392.851 401.256C395.502 405.892 399.494 409.619 404.307 411.95L421.038 420.042C421.783 420.398 421.512 421.522 420.681 421.495L369.913 420.691L364.078 408.117L361.954 421.25L357.578 420.883L320.262 347.596" fill="#EFF1F1"/>
<path d="M356.546 323.008C368.465 356.944 385.137 387.766 392.851 401.256C395.502 405.892 399.494 409.619 404.307 411.95L421.038 420.042C421.783 420.398 421.512 421.522 420.681 421.495L369.913 420.691L364.078 408.117L361.954 421.25L357.578 420.883L320.262 347.596" stroke="#053575" stroke-width="3" stroke-linecap="round" stroke-linejoin="round"/>
<path d="M250.093 141.976C248.289 140.938 260.692 131.76 275.076 134.513C296.071 138.532 303.38 164.978 309.736 199.069L263.508 201.379L268.283 175.795C268.283 175.795 273.878 177.158 271.397 170.376C270.466 167.831 272.521 169.551 271.03 169.242C267.964 168.609 264.913 168.364 264.913 168.364C264.913 168.364 281.048 180.426 264.94 169.072C249.119 165.228 247.096 148.758 250.099 141.976H250.093Z" fill="#053575" stroke="#053575" stroke-width="3" stroke-linecap="round" stroke-linejoin="round"/>
<path d="M239.771 204.025C237.178 200.459 238.413 191.143 238.264 191.297C238.264 191.297 251.44 188.534 251.44 178.42C242.688 182.955 236.241 183.754 236.241 183.754L235.81 177.361L225.148 173.176C224.248 172.825 223.918 171.728 224.466 170.935C227.319 166.852 235.203 154.885 244.439 146.086" stroke="#053575" stroke-width="3" stroke-linecap="round" stroke-linejoin="round"/>
<path d="M245.865 168.974C246.125 166.983 245.13 164.561 243.693 164.688C242.282 164.816 241.547 167.041 241.105 168.931" stroke="#053575" stroke-width="3" stroke-linecap="round" stroke-linejoin="round"/>
<path d="M262.078 170.012C262.078 170.012 267.657 164.348 272.006 167.398C276.355 170.448 274.109 175.49 272.379 177.491C270.654 179.493 265.49 180.627 265.49 180.627" fill="#FEFEFE"/>
<path d="M262.078 170.012C262.078 170.012 267.657 164.348 272.006 167.398C276.355 170.448 274.109 175.49 272.379 177.491C270.654 179.493 265.49 180.627 265.49 180.627" stroke="#FEFEFE" stroke-width="3" stroke-linecap="round" stroke-linejoin="round"/>
<path d="M264.285 176.104C264.285 176.104 268.145 171.899 269.619 171.281" stroke="#053575" stroke-width="3" stroke-linecap="round" stroke-linejoin="round"/>
<path d="M270.821 175.015C270.821 175.015 268.606 173.472 267.664 173.642" stroke="#053575" stroke-width="3" stroke-linecap="round" stroke-linejoin="round"/>
<path d="M299.841 206.047C273.751 229.14 238.968 212.334 238.968 212.334C238.968 212.334 238.756 211.69 238.537 212.185C238.276 212.089 209.871 247.436 209.871 247.436L233.863 277.428L220.869 343.219C285.345 378.007 358.52 327.025 358.52 327.025L299.836 206.052L299.841 206.047Z" fill="#FF4351" stroke="#FF4351" stroke-width="3" stroke-linecap="round" stroke-linejoin="round"/>
</svg>
