<svg width="432" height="432" viewBox="0 0 432 432" fill="none" xmlns="http://www.w3.org/2000/svg">
<path d="M19.4757 227.881L8.00089 121.562C7.98329 121.334 8.22969 121.193 8.40568 121.334L69.7749 170.577" stroke="#203AE9" stroke-width="3" stroke-miterlimit="10"/>
<path d="M423.114 210.402L402.698 95.7773C402.716 95.5485 402.47 95.4077 402.294 95.5485L332.336 154.102" stroke="#203AE9" stroke-width="3" stroke-miterlimit="10"/>
<path d="M325.616 161.336L421.322 216.369C421.322 216.369 359.477 336.961 215.496 336.961C71.5156 336.961 18.2422 237.207 18.2422 237.207L85.0496 189.671C85.0496 189.671 215.479 336.961 325.616 161.336Z" fill="#FF8CC5"/>
<path d="M356.487 220.666C344.889 210.001 334.682 201.184 334.682 201.184C334.682 201.184 315.093 224.978 276.093 238.565C274.859 209.92 264.143 201.184 254.939 201.184C227.501 201.184 207.825 247.435 207.825 247.435C197.476 265.492 192.742 303.278 192.742 303.278C192.742 303.278 225.336 309.385 264.178 297.417C270.373 296.924 276.023 296.713 279.279 297.083C279.367 295.323 279.455 293.563 279.507 291.821C306.575 280.293 334.946 259.068 356.505 220.666H356.487Z" fill="#EFF1F1"/>
<path d="M231.953 235.605L234.681 298.541L264.16 297.415" fill="#EFF1F1"/>
<path d="M356.487 220.666C344.889 210.001 334.682 201.184 334.682 201.184C334.682 201.184 315.093 224.978 276.093 238.565C274.368 216.298 268.482 201.184 254.939 201.184C227.501 201.184 207.825 247.435 207.825 247.435C197.476 265.492 192.742 303.278 192.742 303.278C192.742 303.278 225.336 309.385 264.178 297.417C270.373 296.924 276.023 296.713 279.279 297.083C279.367 295.323 279.455 293.563 279.507 291.821C306.575 280.293 334.946 259.068 356.505 220.666H356.487Z" stroke="#111111" stroke-width="3" stroke-miterlimit="10"/>
<path d="M276.07 238.562L279.485 291.818" stroke="#111111" stroke-width="3" stroke-miterlimit="10"/>
<path d="M231.953 235.605L234.681 298.541L264.16 297.415" stroke="#111111" stroke-width="3" stroke-miterlimit="10"/>
<path d="M356.488 220.665L334.682 201.183C334.682 201.183 333.697 197.663 331.162 194.178C328.628 190.694 321.606 181.102 332.289 169.539C333.116 168.642 334.594 168.782 335.228 169.821C344.96 185.854 356.488 204.685 356.488 204.685L361.486 201.183L369.547 210.423L356.488 220.683V220.665Z" fill="#053575"/>
<path d="M236.828 298.541V315.419H248.057V308.467L287.004 312.673C287.321 312.708 287.602 312.462 287.602 312.145C287.55 310.262 286.775 304.173 279.26 297.098C268.296 297.15 236.828 298.558 236.828 298.558V298.541Z" fill="#053575"/>
<path d="M86.1029 253.576C86.1029 253.576 45.325 218.729 51.6608 190.059C52.9808 184.093 58.5598 179.94 64.6316 180.591C76.9688 181.911 94.5154 191.819 94.5154 191.819L115.652 180.52C115.652 180.52 128.113 162.428 138.972 165.93C149.83 169.433 157.615 195.694 150.499 234.463L86.1029 253.593V253.576Z" fill="#EFF1F1"/>
<path d="M115.672 180.52C115.672 180.52 128.132 162.428 138.991 165.93C149.85 169.433 157.617 194.713 150.519 234.463" stroke="#111111" stroke-width="3" stroke-miterlimit="10"/>
<path d="M77.4648 209.719L95.909 220.349" stroke="#111111" stroke-width="3" stroke-miterlimit="10"/>
<path d="M86.1029 253.575C86.1029 253.575 45.325 218.729 51.6608 190.059C52.9808 184.093 58.5598 179.939 64.6316 180.591C76.9688 181.911 94.5154 191.819 94.5154 191.819" stroke="#111111" stroke-width="3" stroke-miterlimit="10"/>
<path d="M135.152 194.793L148.296 205.504L142.351 210.439C142.351 210.439 148.088 216.176 147.542 227.88" stroke="#111111" stroke-width="3" stroke-miterlimit="10"/>
<path d="M130.965 214.82C130.965 214.82 137.318 219.819 146.065 217.055" stroke="#111111" stroke-width="3" stroke-miterlimit="10"/>
<path d="M132.304 207.306C132.304 207.306 131.371 204.014 133.765 203.17C136.158 202.325 137.795 205.229 137.795 205.229" stroke="#111111" stroke-width="3" stroke-miterlimit="10"/>
<path d="M111.535 209.082L116.991 214.819" stroke="#111111" stroke-width="3" stroke-miterlimit="10"/>
<path d="M110.566 214.471L114.262 211.338" stroke="#111111" stroke-width="3" stroke-miterlimit="10"/>
<path d="M105.078 228.636C108.141 225.345 112.928 219.449 112.928 219.449C112.928 219.449 104.814 214.856 109.232 208.344C112.224 203.944 118.014 207.552 118.683 207.992C118.718 208.01 118.735 207.992 118.735 207.957L116.993 198.084C116.993 198.084 120.953 198.524 122.097 195.356C125.793 197.644 131.477 196.94 132.111 192.188C137.69 192.452 139.907 185.676 133.114 182.843C126.321 180.009 106.011 176.278 94.5186 191.836C94.5186 191.836 81.8822 207.623 102.984 229.2L103.934 227.897L105.061 228.636H105.078Z" fill="#053575"/>
<path d="M62.875 136.085C62.875 136.085 126.427 63.4525 177.764 77.9017C199.728 84.079 211.484 107.68 203.547 129.063C196.701 147.49 184.98 164.438 179.313 160.355C172.801 155.656 190.084 115.177 236.388 119.665C282.692 124.153 282.569 163.928 272.238 162.097C253.723 158.806 259.091 67.694 361.273 84.4134" stroke="#00A6E8" stroke-width="3" stroke-miterlimit="10"/>
<path d="M192.509 305.512C192.509 305.512 123.765 304.016 83.5859 255.319C92.632 241.257 103.209 227.617 103.209 227.617C103.209 227.617 123.977 242.7 149.619 234.147C164.455 236.839 206.131 250.813 206.131 250.813L192.491 305.512H192.509Z" fill="#203AE9"/>
</svg>
