<svg width="432" height="432" viewBox="0 0 432 432" fill="none" xmlns="http://www.w3.org/2000/svg">
<path d="M115.642 361.314C150.278 361.314 178.355 333.237 178.355 298.601C178.355 263.966 150.278 235.889 115.642 235.889C81.0071 235.889 52.9297 263.966 52.9297 298.601C52.9297 333.237 81.0071 361.314 115.642 361.314Z" fill="#FF8CC5"/>
<path d="M306.67 361.314C341.305 361.314 369.382 333.237 369.382 298.601C369.382 263.966 341.305 235.889 306.67 235.889C272.034 235.889 243.957 263.966 243.957 298.601C243.957 333.237 272.034 361.314 306.67 361.314Z" fill="#FF8CC5"/>
<path d="M243.93 298.601H306.67L276.411 233.055" stroke="#053575" stroke-width="3" stroke-linecap="round" stroke-linejoin="round"/>
<path d="M115.645 298.603L140.735 214.189" stroke="#053575" stroke-width="3" stroke-linecap="round" stroke-linejoin="round"/>
<path d="M206.055 269.651L137.508 225.055" stroke="#053575" stroke-width="3" stroke-linecap="round" stroke-linejoin="round"/>
<path d="M233.732 211.97L209.809 293.771L193.082 302.524C192.887 302.635 192.971 302.913 193.193 302.913H249.348L293.111 189.824L233.732 211.942V211.97Z" fill="#053575"/>
<path d="M278.605 141.92C278.605 141.92 219.838 166.705 183.05 184.404C146.261 202.104 206.056 269.679 206.056 269.679L189.052 281.377C188.746 281.599 188.885 282.1 189.274 282.072L256.182 279.96L220.783 213.246C220.783 213.246 307.53 208.884 299.222 168.261C295.11 148.172 278.605 141.92 278.605 141.92Z" fill="#203AE9"/>
<path d="M278.609 141.918C278.609 141.918 258.575 113.826 206.06 124.023C216.785 110.547 215.174 80.1219 189.472 75.6206C179.886 74.398 171.911 78.9271 166.326 84.7343C161.547 89.7358 157.963 95.7375 155.462 102.184L147.793 121.967L161.658 120.328C161.658 120.328 161.825 156.338 192.945 139.111C184.526 158.283 151.461 185.236 123.314 192.988C105.364 191.765 99.2236 200.74 102.086 209.298C102.502 214.189 109.532 216.912 109.532 216.912C109.532 216.912 111.977 223.497 120.73 221.079C127.315 214.772 140.124 216.217 140.124 216.217C140.124 216.217 186.916 203.547 215.146 169.564L278.609 141.918Z" fill="#D8D7D6"/>
<path d="M278.608 141.918C278.608 141.918 258.575 113.826 206.059 124.023C216.785 110.547 215.173 80.1219 189.471 75.6206C179.885 74.398 171.91 78.9271 166.326 84.7343C161.546 89.7358 157.962 95.7375 155.461 102.184L148.015 121.439C147.931 121.662 148.126 121.912 148.376 121.884L161.713 120.328C161.713 120.328 161.88 156.338 193 139.111C184.581 158.283 151.516 185.236 123.369 192.988C105.419 191.765 99.2783 200.74 102.14 209.298C102.557 214.189 109.587 216.912 109.587 216.912C109.587 216.912 112.032 223.497 120.785 221.079C127.37 214.772 140.179 216.217 140.179 216.217C140.179 216.217 186.97 203.547 215.201 169.564L278.664 141.918H278.608Z" stroke="#D8D7D6" stroke-width="3" stroke-linecap="round" stroke-linejoin="round"/>
<path d="M215.145 169.565C223.314 159.756 229.927 148.142 233.4 134.555" stroke="#053575" stroke-width="3" stroke-linecap="round" stroke-linejoin="round"/>
<path d="M120.727 221.082C120.727 221.082 123.144 224.666 130.063 223.472" stroke="#053575" stroke-width="3" stroke-linecap="round" stroke-linejoin="round"/>
<path d="M141.291 185.876L102.446 183.348L102.391 200.964" stroke="#053575" stroke-width="3" stroke-linecap="round" stroke-linejoin="round"/>
<path d="M109.56 216.914C109.56 216.914 108.171 210.384 113.534 206.967" stroke="#053575" stroke-width="3" stroke-linecap="round" stroke-linejoin="round"/>
<path d="M102.641 211.245C102.641 211.245 102.641 203.909 107.892 202.242" stroke="#053575" stroke-width="3" stroke-linecap="round" stroke-linejoin="round"/>
<path d="M186.664 113.409L189.165 107.074" stroke="#053575" stroke-width="3" stroke-linecap="round" stroke-linejoin="round"/>
<path d="M193.804 110.242C193.804 110.242 190.859 111.354 187.941 110.242" stroke="#053575" stroke-width="3" stroke-linecap="round" stroke-linejoin="round"/>
<path d="M163.297 130.499C163.297 130.499 173.077 129.082 174.411 118.162" stroke="#053575" stroke-width="3" stroke-linecap="round" stroke-linejoin="round"/>
<path d="M163.295 115.551C163.295 115.551 160.878 111.327 162.74 109.577C164.601 107.826 167.936 111.105 167.936 111.105" stroke="#053575" stroke-width="3" stroke-linecap="round" stroke-linejoin="round"/>
<path d="M8 361.191H423" stroke="#00CE7C" stroke-width="3" stroke-linecap="round" stroke-linejoin="round"/>
<path d="M8.05469 252.338C8.05469 252.338 18.1965 223.969 45.7323 219.106C23.448 211.798 14.112 169.258 76.9358 171.287C26.6712 162.367 36.563 98.7377 76.9358 92.6526C111.585 87.4567 140.149 112.103 115.641 150.197C130.84 138.86 149.485 148.169 152.319 159.922" stroke="#00A6E8" stroke-width="3" stroke-linecap="round" stroke-linejoin="round"/>
<path d="M258.934 110.741C258.934 110.741 309.337 88.096 328.648 126.718C343.236 155.893 320.535 178.595 320.535 178.595C320.535 178.595 349.71 171.287 355.378 186.291C361.047 201.296 337.151 228.026 337.151 228.026C337.151 228.026 386.193 188.625 421.036 214.188" stroke="#00A6E8" stroke-width="3" stroke-linecap="round" stroke-linejoin="round"/>
<path d="M183.774 105.323L181.69 93.0699C181.69 93.0699 178.022 96.5709 174.549 93.0699C172.048 99.2384 163.907 97.9046 161.406 94.0702C149.597 96.0708 152.765 86.2624 156.238 83.0948C159.711 79.9272 170.715 67.2846 192.193 70.2577C213.144 73.0919 223.619 102.184 206.808 125.135C195.333 125.135 195.389 116.716 195.389 116.716C195.389 116.716 199.167 110.325 198.389 105.657C197.834 102.35 194.416 100.183 191.137 100.989C187.859 101.795 185.136 104.434 184.219 105.435C184.08 105.601 183.83 105.49 183.774 105.296V105.323Z" fill="#053575"/>
</svg>
