<svg width="432" height="432" viewBox="0 0 432 432" fill="none" xmlns="http://www.w3.org/2000/svg">
<path d="M153.428 61.8795L174.55 86.1101C174.55 86.1101 181.201 90.8765 169.955 93.9096L165.588 95.2439C165.588 95.2439 169.006 101.599 169.412 106.902C169.818 112.205 170.877 121.82 168.229 124.647C165.581 127.474 169.288 143.877 166.111 139.916C164.522 143.306 172.459 146.704 172.459 146.704C172.459 146.704 110.847 129.764 112.161 123.519C113.474 117.274 111.102 95.8079 111.102 95.8079C111.102 95.8079 112.161 61.3086 118.509 61.3086C124.857 61.3086 153.414 61.8726 153.414 61.8726L153.428 61.8795Z" fill="#053575"/>
<path d="M161.992 72.3789C167.123 77.2072 172.667 84.2088 175.528 87.9642C176.491 89.2297 175.989 91.1417 174.544 91.6782L165.665 94.9864C165.665 94.9864 171.325 107.573 169.186 118.302" stroke="#FEFEFE" stroke-width="3" stroke-linecap="round" stroke-linejoin="round"/>
<path d="M154.056 89.113C153.974 88.6739 153.937 88.2324 153.96 87.7892C154.097 85.1977 157.421 84.0524 159.363 85.7737C159.828 86.1856 160.181 86.6501 160.33 87.1286" stroke="#FEFEFE" stroke-width="3" stroke-linecap="round" stroke-linejoin="round"/>
<path d="M115.439 55.3867C103.658 64.5755 100.611 84.879 107.936 99.1643C109.249 101.723 110.467 104.082 112.351 106.31C113.699 107.906 116.031 107.968 117.482 106.475L129.319 94.3292" fill="#FEFEFE"/>
<path d="M115.439 55.3867C103.658 64.5755 100.611 84.879 107.936 99.1643C109.249 101.723 110.467 104.082 112.351 106.31C113.699 107.906 116.031 107.968 117.482 106.475L129.319 94.3292" stroke="#FEFEFE" stroke-width="3" stroke-linecap="round" stroke-linejoin="round"/>
<path d="M126.01 96.3914C128.045 85.5175 126.477 77.326 135.604 86.2534L135.432 70.063C136.65 70.4069 137.888 70.682 139.146 70.8608C139.862 70.9639 140.611 71.0327 141.299 70.8195C141.987 70.5994 142.613 70.0286 142.668 69.3133C142.73 68.481 142.049 67.807 141.423 67.2499C140.701 66.6103 139.972 65.9706 139.249 65.331C139.511 65.2003 139.752 65.0696 139.979 64.939C142.544 66.4658 145.247 67.807 147.874 69.0726C149.834 70.0148 151.973 70.8746 154.133 70.5857C154.958 70.4756 155.887 70.0423 155.997 69.2307C156.107 68.3985 155.302 67.7726 154.587 67.3187C152.049 65.7162 149.504 64.1136 146.966 62.518C151.691 65.221 152.324 65.5786 157.765 66.0532C160.144 66.2595 163.178 65.8125 163.872 63.5497C164.519 61.4382 162.579 59.478 160.756 58.2193C149.532 50.468 133.905 47.4898 121.154 52.3869C118.905 53.2535 116.848 54.409 114.984 55.7983" fill="#FEFEFE"/>
<path d="M126.01 96.3914C128.045 85.5175 126.477 77.326 135.604 86.2534L135.432 70.063C136.65 70.4069 137.888 70.682 139.146 70.8608C139.862 70.9639 140.611 71.0327 141.299 70.8195C141.987 70.5994 142.613 70.0286 142.668 69.3133C142.73 68.481 142.049 67.807 141.423 67.2499C140.701 66.6103 139.972 65.9706 139.249 65.331C139.511 65.2003 139.752 65.0696 139.978 64.939C142.544 66.4658 145.247 67.807 147.874 69.0726C149.834 70.0148 151.973 70.8746 154.133 70.5857C154.958 70.4756 155.887 70.0423 155.997 69.2307C156.107 68.3985 155.302 67.7726 154.587 67.3187C152.049 65.7162 149.504 64.1136 146.966 62.518C151.691 65.221 152.324 65.5786 157.765 66.0532C160.144 66.2595 163.178 65.8125 163.872 63.5497C164.519 61.4382 162.579 59.478 160.756 58.2193C149.532 50.468 133.905 47.4898 121.154 52.3869C118.905 53.2535 116.848 54.409 114.984 55.7983" stroke="#FEFEFE" stroke-width="3" stroke-linecap="round" stroke-linejoin="round"/>
<path d="M136.292 89.1667C136.292 89.1667 132.434 82.2063 127.564 83.8158C122.695 85.4321 123.561 90.838 124.696 93.2247C125.824 95.6181 130.425 98.1836 130.425 98.1836" fill="#053575"/>
<path d="M136.292 89.1667C136.292 89.1667 132.434 82.2063 127.564 83.8158C122.695 85.4321 123.561 90.838 124.696 93.2247C125.824 95.6181 130.425 98.1836 130.425 98.1836" stroke="#053575" stroke-width="3" stroke-linecap="round" stroke-linejoin="round"/>
<path d="M132.962 93.4375C132.962 93.4375 131.114 89.8329 130.238 89.1211" stroke="#FEFEFE" stroke-width="3" stroke-linecap="round" stroke-linejoin="round"/>
<path d="M128.508 92.5522C128.508 92.5522 130.283 91.0784 131.095 91.1468" stroke="#FEFEFE" stroke-width="3" stroke-linecap="round" stroke-linejoin="round"/>
<path d="M166.196 104.737C166.196 104.737 157.235 103.816 152.406 98.9805L166.196 104.737Z" fill="#053575"/>
<path d="M166.196 104.737C166.196 104.737 157.235 103.816 152.406 98.9805" stroke="#FEFEFE" stroke-width="3" stroke-linecap="round" stroke-linejoin="round"/>
<path d="M182.078 270.872L174.506 358.172C174.457 358.736 174.684 359.273 175.09 359.555C178.412 361.845 193.234 372.279 198.53 379.583C199.197 380.505 198.681 381.942 197.663 381.956L155.021 382.534C154.704 382.534 154.402 382.389 154.175 382.114L149.491 376.447C148.466 375.209 147.083 374.514 145.632 374.514H145.185C142.173 374.514 139.731 377.465 139.731 381.11C139.731 381.894 139.201 382.534 138.555 382.534H128.788C128.094 382.534 127.55 381.812 127.619 380.972L136.677 269.008" fill="#053575"/>
<path d="M182.078 270.872L174.506 358.172C174.457 358.736 174.684 359.273 175.09 359.555C178.412 361.845 193.234 372.279 198.53 379.583C199.197 380.505 198.681 381.942 197.663 381.956L155.021 382.534C154.704 382.534 154.402 382.389 154.175 382.114L149.491 376.447C148.466 375.209 147.083 374.514 145.632 374.514H145.185C142.173 374.514 139.731 377.465 139.731 381.11C139.731 381.894 139.201 382.534 138.555 382.534H128.788C128.094 382.534 127.55 381.812 127.619 380.972L136.677 269.008" stroke="#FEFEFE" stroke-width="3" stroke-linecap="round" stroke-linejoin="round"/>
<path d="M144.989 270.88L137.417 358.181C137.368 358.745 137.595 359.281 138.001 359.563C141.323 361.854 156.145 372.886 161.441 380.197C162.108 381.119 161.592 382.556 160.574 382.57L121.432 382.714C118.688 382.721 116.095 381.394 114.383 379.103L112.409 376.462C111.384 375.224 110.001 374.53 108.55 374.53H108.103C105.091 374.53 102.649 377.48 102.649 381.126C102.649 381.91 102.119 382.549 101.473 382.549H91.7064C91.0117 382.549 90.4684 381.827 90.5371 380.988L99.5953 269.023" fill="#053575"/>
<path d="M144.989 270.88L137.417 358.181C137.368 358.745 137.595 359.281 138.001 359.563C141.323 361.854 156.145 372.886 161.441 380.197C162.108 381.119 161.592 382.556 160.574 382.57L121.432 382.714C118.688 382.721 116.095 381.394 114.383 379.103L112.409 376.462C111.384 375.224 110.001 374.53 108.55 374.53H108.103C105.091 374.53 102.649 377.48 102.649 381.126C102.649 381.91 102.119 382.549 101.473 382.549H91.7064C91.0117 382.549 90.4684 381.827 90.5371 380.988L99.5953 269.023" stroke="#FEFEFE" stroke-width="3" stroke-linecap="round" stroke-linejoin="round"/>
<path d="M192.812 203.116C192.812 203.116 209.959 205.64 222.332 205.069C234.706 204.498 248.626 194.725 252.932 186.245C257.237 177.764 262.265 165.363 261.337 142.213C260.408 119.062 245.167 119.027 245.167 119.027L242.292 146.16L236.473 150.686C236.473 150.686 233.825 169.346 230.125 172.173C226.425 174.999 192.819 203.109 192.819 203.109L192.812 203.116Z" fill="#053575"/>
<path d="M256.814 138.817C256.601 138.136 254.166 126.939 246.766 126.375L256.814 138.817Z" fill="#053575"/>
<path d="M254.806 150.829C254.806 150.829 255.886 139.185 249.496 134.508L254.806 150.829Z" fill="#053575"/>
<path d="M239.537 148.958C239.537 148.958 240.197 137.397 240.389 134.088C240.506 132.073 239.323 130.429 237.494 129.982C231.675 128.565 231.964 139.068 231.826 142.328C231.957 149.577 232.122 168.216 223.621 170.981C218.091 172.783 208.965 165.775 203.779 164.034L191.522 158.615L183.062 181.236C183.062 181.236 190.504 201.821 202.382 204.256C214.267 206.684 232.095 203.101 232.095 203.101L239.537 148.965V148.958Z" fill="#053575"/>
<path d="M240.663 149.608C244.625 149.869 248.036 146.643 248.277 142.407L250.168 101.855C250.237 100.617 249.357 99.5577 248.201 99.482L245.209 99.2894C244.054 99.2138 243.057 100.156 242.988 101.387L240.656 149.615L240.663 149.608Z" fill="#00A6E8"/>
<path d="M192.82 203.116C192.82 203.116 209.967 205.64 222.34 205.069C234.713 204.498 248.634 194.725 252.94 186.245C257.245 177.764 262.273 165.363 261.344 142.213C260.416 119.062 245.175 119.027 245.175 119.027" stroke="#FEFEFE" stroke-width="3" stroke-linecap="round" stroke-linejoin="round"/>
<path d="M256.814 138.833C256.601 138.152 254.166 126.955 246.766 126.391" stroke="#FEFEFE" stroke-width="3" stroke-linecap="round" stroke-linejoin="round"/>
<path d="M254.798 150.829C254.798 150.829 255.878 139.185 249.488 134.508" stroke="#FEFEFE" stroke-width="3" stroke-linecap="round" stroke-linejoin="round"/>
<path d="M239.516 148.958C239.516 148.958 240.176 137.397 240.369 134.088C240.486 132.073 239.303 130.429 237.473 129.982C231.654 128.565 231.943 139.068 231.806 142.328C231.936 149.577 232.101 168.216 223.6 170.981C218.071 172.783 208.944 165.775 203.758 164.034" stroke="#FEFEFE" stroke-width="3" stroke-linecap="round" stroke-linejoin="round"/>
<path d="M225.159 271.142L218.515 252.559C186.45 265.269 150.658 268.082 115.168 258.391C78.4681 248.37 47.4696 226.457 24.807 197.453L10.618 210.48C8.67159 212.268 8.44463 215.418 10.1366 217.488C35.5021 248.411 69.465 271.727 109.377 282.622C148.079 293.186 187.104 290.641 222.373 277.587C224.836 276.679 226.087 273.749 225.159 271.149V271.142Z" fill="#00A6E8"/>
<path d="M218.497 252.549L210.168 229.254C182.457 240.141 151.569 242.514 120.935 234.151C89.0557 225.45 62.1427 206.399 42.4858 181.191L24.7891 197.437C47.4516 226.448 78.4501 248.361 115.15 258.375C150.64 268.066 186.432 265.253 218.497 252.542V252.549Z" fill="#00A6E8"/>
<path d="M210.187 229.272L201.858 205.977C178.508 215.048 152.516 216.981 126.745 209.945C99.6942 202.558 76.8666 186.375 60.2084 164.957L42.5117 181.203C62.1755 206.417 89.0817 225.462 120.961 234.162C151.594 242.525 182.483 240.153 210.194 229.265L210.187 229.272Z" fill="#00A6E8"/>
<path d="M201.844 205.964L193.508 182.662C174.518 189.911 153.431 191.418 132.515 185.709C110.293 179.643 91.5436 166.32 77.8842 148.699L60.1875 164.945C76.8457 186.362 99.6733 202.546 126.724 209.933C152.495 216.969 178.487 215.036 201.837 205.964H201.844Z" fill="#00A6E8"/>
<path d="M193.506 182.653L185.17 159.344C170.548 164.777 154.358 165.85 138.298 161.469C120.897 156.716 106.233 146.269 95.5795 132.438L77.8828 148.69C91.5422 166.311 110.284 179.626 132.514 185.7C153.429 191.408 174.517 189.902 193.506 182.653Z" fill="#00A6E8"/>
<path d="M185.173 159.357L178.213 139.893C177.456 137.774 175.324 136.626 173.274 137.197C164.003 139.783 154.016 139.969 144.092 137.259C132.881 134.198 123.265 127.857 115.885 119.431C114.365 117.691 111.841 117.533 110.149 119.08L95.582 132.451C106.236 146.276 120.899 156.73 138.3 161.482C154.36 165.864 170.544 164.791 185.173 159.357Z" fill="#00A6E8"/>
<path d="M146.305 139.561C146.305 139.561 153.244 157.622 159.435 152.656C165.625 147.691 168.72 132.793 171.822 129.485C174.917 126.177 181.107 124.519 185.756 129.485C190.399 134.451 187.304 149.348 187.304 149.348C187.304 149.348 187.304 151.198 184.209 151.006C179.057 150.682 179.566 139.416 179.566 139.416C179.566 139.416 179.566 144.382 176.471 144.382" fill="#053575"/>
<path d="M185.926 129.189C188.257 128.536 190.348 128.618 193.491 131.142C199.681 136.108 196.586 149.348 196.586 152.663C196.586 155.971 188.519 158.695 186.455 151.246" fill="#053575"/>
<path d="M192.266 129.762C192.266 129.762 204.323 134.459 204.323 137.768C204.323 141.076 202.775 144.391 198.132 142.733" fill="#053575"/>
<path d="M198.145 131.135C198.145 131.135 202.787 124.512 208.984 124.512C215.174 124.512 218.269 127.82 216.722 131.135C215.174 134.443 208.984 131.135 204.335 139.409" fill="#053575"/>
<path d="M205.363 138.32C205.363 138.32 205.975 153.307 198.657 166.994C191.346 180.681 173.058 202.181 149.295 198.275C125.525 194.368 118.213 174.814 118.213 174.814L106.418 149.187" fill="#053575"/>
<path d="M146.285 138.504C146.285 138.504 152.331 153.855 156.182 153.25C160.034 152.645 164.924 144.921 166.444 142.28L146.285 138.511V138.504Z" fill="#00A6E8"/>
<path d="M146.305 139.561C146.305 139.561 153.244 157.622 159.435 152.656C165.625 147.691 168.72 132.793 171.822 129.485C174.917 126.177 181.107 124.519 185.756 129.485C190.399 134.451 187.304 149.348 187.304 149.348C187.304 149.348 187.304 151.198 184.209 151.006C179.057 150.682 179.566 139.416 179.566 139.416C179.566 139.416 179.566 144.382 176.471 144.382" stroke="#FEFEFE" stroke-width="3" stroke-linecap="round" stroke-linejoin="round"/>
<path d="M185.926 129.189C188.257 128.536 190.348 128.618 193.491 131.142C199.681 136.108 196.586 149.348 196.586 152.663C196.586 155.971 188.519 158.695 186.455 151.246" stroke="#FEFEFE" stroke-width="3" stroke-linecap="round" stroke-linejoin="round"/>
<path d="M192.266 129.762C192.266 129.762 204.323 134.459 204.323 137.768C204.323 141.076 202.775 144.391 198.132 142.733" stroke="#FEFEFE" stroke-width="3" stroke-linecap="round" stroke-linejoin="round"/>
<path d="M198.145 131.135C198.145 131.135 202.787 124.512 208.984 124.512C215.174 124.512 218.269 127.82 216.722 131.135C215.174 134.443 208.984 131.135 204.335 139.409" stroke="#FEFEFE" stroke-width="3" stroke-linecap="round" stroke-linejoin="round"/>
<path d="M205.363 138.32C205.363 138.32 205.975 153.307 198.657 166.994C191.346 180.681 173.058 202.181 149.295 198.275C125.525 194.368 118.213 174.814 118.213 174.814L106.418 149.187" stroke="#FEFEFE" stroke-width="3" stroke-linecap="round" stroke-linejoin="round"/>
<path d="M408.545 183.254H319.82V382.712H408.545V183.254Z" fill="#FEFEFE"/>
<path d="M385.163 70.4648H340.457C335.898 70.4648 332.203 74.16 332.203 78.7183V150.936C332.203 155.494 335.898 159.189 340.457 159.189H385.163C389.721 159.189 393.416 155.494 393.416 150.936V78.7183C393.416 74.16 389.721 70.4648 385.163 70.4648Z" fill="#EFF1F1"/>
<path d="M350.268 85.0234H342.207V93.0843H350.268V85.0234Z" fill="#111111"/>
<path d="M349.317 85.9841H343.168V92.1329H349.317V85.9841Z" fill="#111111"/>
<path d="M348.095 87.1836H344.367V90.9114H348.095V87.1836Z" fill="#EFF1F1"/>
<path d="M350.268 118.746H342.207V126.807H350.268V118.746Z" fill="#111111"/>
<path d="M349.317 119.707H343.168V125.856H349.317V119.707Z" fill="#111111"/>
<path d="M348.095 120.926H344.367V124.654H348.095V120.926Z" fill="#EFF1F1"/>
<path d="M383.963 85.0234H375.902V93.0843H383.963V85.0234Z" fill="#111111"/>
<path d="M383.012 85.9841H376.863V92.1329H383.012V85.9841Z" fill="#111111"/>
<path d="M381.782 87.1836H378.055V90.9114H381.782V87.1836Z" fill="#EFF1F1"/>
<path d="M343.249 95.293H342.203V99.2821H343.249V95.293Z" fill="#111111"/>
<path d="M374.741 88.082H373.695V92.0712H374.741V88.082Z" fill="#111111"/>
<path d="M352.588 117.344H351.543V121.333H352.588V117.344Z" fill="#111111"/>
<path d="M364.069 118.223H363.023V122.356H364.069V118.223Z" fill="#111111"/>
<path d="M382.862 105.332H381.816V108.737H382.862V105.332Z" fill="#111111"/>
<path d="M352.655 113.461H351.609V116.322H352.655V113.461Z" fill="#111111"/>
<path d="M349.198 96.2539H348.152V100.387H349.198V96.2539Z" fill="#111111"/>
<path d="M346.299 112.195H345.254V116.81H346.299V112.195Z" fill="#111111"/>
<path d="M362.202 110.25H361.156V114.384H362.202V110.25Z" fill="#111111"/>
<path d="M377.049 100.23H376.004V104.364H377.049V100.23Z" fill="#111111"/>
<path d="M381.854 101.293H380.809V105.427H381.854V101.293Z" fill="#111111"/>
<path d="M356.135 113.305H355.09V117.438H356.135V113.305Z" fill="#111111"/>
<path d="M383.983 97.3477H382.938V101.337H383.983V97.3477Z" fill="#111111"/>
<path d="M343.249 100.266H342.203V101.311H343.249V100.266Z" fill="#111111"/>
<path d="M344.276 116.789H343.23V117.834H344.276V116.789Z" fill="#111111"/>
<path d="M345.307 115.758H344.262V116.803H345.307V115.758Z" fill="#111111"/>
<path d="M347.331 116.785H346.285V117.831H347.331V116.785Z" fill="#111111"/>
<path d="M383.983 103.32H382.938V104.366H383.983V103.32Z" fill="#111111"/>
<path d="M383.983 94.3047H382.938V95.3501H383.983V94.3047Z" fill="#111111"/>
<path d="M380.795 95.3242H379.75V96.3697H380.795V95.3242Z" fill="#111111"/>
<path d="M378.057 98.2383H377.012V99.2837H378.057V98.2383Z" fill="#111111"/>
<path d="M378.057 102.301H377.012V103.346H378.057V102.301Z" fill="#111111"/>
<path d="M383.983 117.73H382.938V118.776H383.983V117.73Z" fill="#111111"/>
<path d="M383.981 122.76H382.943L382.922 120.759L383.981 120.738V122.76Z" fill="#111111"/>
<path d="M383.97 125.793H382.719V126.838H383.97V125.793Z" fill="#111111"/>
<path d="M381.944 123.785H380.898V124.831H381.944V123.785Z" fill="#111111"/>
<path d="M376.979 122.984H375.934V123.989H376.979V122.984Z" fill="#111111"/>
<path d="M382.956 122.781H381.91V123.827H382.956V122.781Z" fill="#111111"/>
<path d="M382.914 120.819H381.848V119.773H382.893L382.914 120.819Z" fill="#111111"/>
<path d="M378.917 121.73H377.871V122.776H378.917V121.73Z" fill="#111111"/>
<path d="M365.342 123.883H364.297V125.836H365.342V123.883Z" fill="#111111"/>
<path d="M382.956 115.699H381.91V116.745H382.956V115.699Z" fill="#111111"/>
<path d="M382.956 113.699H381.91V114.745H382.956V113.699Z" fill="#111111"/>
<path d="M352.432 85.0312H351.387V86.1317H352.432V85.0312Z" fill="#111111"/>
<path d="M362.338 85.0312H361.293V86.1248H362.338V85.0312Z" fill="#111111"/>
<path d="M367.682 85.0312H366.637V86.118H367.682V85.0312Z" fill="#111111"/>
<path d="M374.741 86.0391H373.695V87.0845H374.741V86.0391Z" fill="#111111"/>
<path d="M364.307 125.812H363.262V126.858H364.307V125.812Z" fill="#111111"/>
<path d="M355.756 125.812H354.711V126.858H355.756V125.812Z" fill="#111111"/>
<path d="M362.518 123.848H361.473V124.893H362.518V123.848Z" fill="#111111"/>
<path d="M366.31 114.348H365.203V115.393H366.31V114.348Z" fill="#111111"/>
<path d="M356.854 119.637H355.809V120.682H356.854V119.637Z" fill="#111111"/>
<path d="M354.694 119.637H353.648V120.682H354.694V119.637Z" fill="#111111"/>
<path d="M369.37 116.609H368.324V117.655H369.37V116.609Z" fill="#111111"/>
<path d="M353.686 108.859H352.641V109.905H353.686V108.859Z" fill="#111111"/>
<path d="M356.096 107.469H355.051V108.514H356.096V107.469Z" fill="#111111"/>
<path d="M380.916 113.676H379.871V114.948H380.916V113.676Z" fill="#111111"/>
<path d="M381.856 118.641H380.562V119.769H381.856V118.641Z" fill="#111111"/>
<path d="M360.745 104.91H359.699V105.956H360.745V104.91Z" fill="#111111"/>
<path d="M367.303 102.582H366.258V103.627H367.303V102.582Z" fill="#111111"/>
<path d="M377.831 117.215H376.785V118.26H377.831V117.215Z" fill="#111111"/>
<path d="M377.096 115.352H376.051V116.397H377.096V115.352Z" fill="#111111"/>
<path d="M377.987 113.406H376.941V114.452H377.987V113.406Z" fill="#111111"/>
<path d="M367.3 106.285H366.145V107.475H367.3V106.285Z" fill="#111111"/>
<path d="M366.292 104.414H365.137V105.604H366.292V104.414Z" fill="#111111"/>
<path d="M378.081 104.324H377.035V105.37H378.081V104.324Z" fill="#111111"/>
<path d="M372.897 101.09H371.852V102.135H372.897V101.09Z" fill="#111111"/>
<path d="M379.026 99.293H377.98V100.338H379.026V99.293Z" fill="#111111"/>
<path d="M375.995 105.332H374.949V106.377H375.995V105.332Z" fill="#111111"/>
<path d="M366.225 112.23H365.18V113.276H366.225V112.23Z" fill="#111111"/>
<path d="M361.213 108.68H360.168V109.725H361.213V108.68Z" fill="#111111"/>
<path d="M359.709 103.23H358.664V104.276H359.709V103.23Z" fill="#111111"/>
<path d="M358.674 103.23H357.629V104.276H358.674V103.23Z" fill="#111111"/>
<path d="M350.452 109.406H349.406V110.452H350.452V109.406Z" fill="#111111"/>
<path d="M351.334 100.344H350.289V101.389H351.334V100.344Z" fill="#111111"/>
<path d="M363.616 98.1484H362.57V99.1938H363.616V98.1484Z" fill="#111111"/>
<path d="M368.717 95.0547H367.672V96.1001H368.717V95.0547Z" fill="#111111"/>
<path d="M376.368 103.293H374.883V104.338H376.368V103.293Z" fill="#111111"/>
<path d="M353.264 101.332H352.219V102.377H353.264V101.332Z" fill="#111111"/>
<path d="M356.352 100.059H354.887V101.104H356.352V100.059Z" fill="#111111"/>
<path d="M356.352 98.0586H354.887V99.104H356.352V98.0586Z" fill="#111111"/>
<path d="M351.311 98.125H350.266V99.1704H351.311V98.125Z" fill="#111111"/>
<path d="M358.409 115.328H357.363V116.374H358.409V115.328Z" fill="#111111"/>
<path d="M353.663 115.281H352.617V116.327H353.663V115.281Z" fill="#111111"/>
<path d="M354.366 86.2422H353.32V87.2876H354.366V86.2422Z" fill="#111111"/>
<path d="M357.397 87.2852H356.352V89.266H357.397V87.2852Z" fill="#111111"/>
<path d="M369.639 119.988H368.594V121.969H369.639V119.988Z" fill="#111111"/>
<path d="M360.408 91.2031H359.383V92.1867H360.408V91.2031Z" fill="#111111"/>
<path d="M365.37 90.1406H364.324V91.1861H365.37V90.1406Z" fill="#111111"/>
<path d="M363.366 86.0859H362.32V87.1314H363.366V86.0859Z" fill="#111111"/>
<path d="M363.254 110.25H361.645V111.295H363.254V110.25Z" fill="#111111"/>
<path d="M360.292 121.773H359.246V122.819H360.292V121.773Z" fill="#111111"/>
<path d="M362.186 121.785H361.141V122.831H362.186V121.785Z" fill="#111111"/>
<path d="M371.678 120.93H370.633V121.975H371.678V120.93Z" fill="#111111"/>
<path d="M370.686 118.969H369.641V120.014H370.686V118.969Z" fill="#111111"/>
<path d="M372.733 118.945H371.688V119.991H372.733V118.945Z" fill="#111111"/>
<path d="M352.67 122.871V123.827H351.652V124.873H352.67V126.86H353.716V122.871H352.67Z" fill="#111111"/>
<path d="M345.861 96.2383V97.2012H344.691V98.2466H345.861V100.461H346.906V96.2383H345.861Z" fill="#111111"/>
<path d="M375.044 115.344V116.369H373.875V117.414H375.044V119.629H376.09V115.344H375.044Z" fill="#111111"/>
<path d="M368.29 110.43V111.393H367.293V112.438H368.29V114.653H369.336V110.43H368.29Z" fill="#111111"/>
<path d="M367.324 114.371V115.334H366.32V116.379H367.324V118.594H368.37V114.371H367.324Z" fill="#111111"/>
<path d="M379.68 116.719V117.675H378.676V118.72H379.68V120.997H380.725V116.719H379.68Z" fill="#111111"/>
<path d="M364.156 107.105V108.068H363.09V109.114H364.156V111.328H365.201V107.105H364.156Z" fill="#111111"/>
<path d="M358.185 105.984V106.947H357.16V107.993H358.185V110.207H359.23V105.984H358.185Z" fill="#111111"/>
<path d="M370.697 114.473V115.491H369.672V116.619H370.697V118.964H371.742V114.473H370.697Z" fill="#111111"/>
<path d="M365.719 95.0447H364.715V93.1602H363.669V94.123H362.5V95.1685H363.669V97.1768H364.715V96.0901H365.719V95.0447Z" fill="#111111"/>
<path d="M356.114 109.129V110.092H354.938V111.137H356.114V113.352H357.152V109.129H356.114Z" fill="#111111"/>
<path d="M373.931 105.172V106.403H372.762V107.448H373.931V109.498H374.976V105.172H373.931Z" fill="#111111"/>
<path d="M373.941 101.113V102.069H372.902V103.115H373.941V105.329H374.986V101.113H373.941Z" fill="#111111"/>
<path d="M350.367 115.339H349.37V113.461L348.304 113.502V114.465H347.32V115.504H348.304V117.698H349.37V116.384H350.367V115.339Z" fill="#111111"/>
<path d="M372.086 97.4597H371.082V95.582L370.016 95.6233V96.5862H369.039V97.6248H370.016V99.8188H371.082V98.5051H372.086V97.4597Z" fill="#111111"/>
<path d="M367.055 120.042H366.051V118.199H364.984V119.162H364.008V120.208H364.984V122.402H366.051V121.081H367.055V120.042Z" fill="#111111"/>
<path d="M379.011 108.098H378.007V106.262H376.941V107.225H375.957V108.27H376.941V110.457H378.007V109.144H379.011V108.098Z" fill="#111111"/>
<path d="M367.709 98.0316H366.753V96.0508L365.687 96.0714V97.0962H364.703V98.0316H365.687V99.978H366.753V98.9739H367.709V98.0316Z" fill="#111111"/>
<path d="M365.585 101.805H364.581V99.9688H363.515V100.925H362.531V101.97H363.515V104.164H364.581V102.851H365.585V101.805Z" fill="#111111"/>
<path d="M365.37 85.0312H364.324V87.0602H365.37V85.0312Z" fill="#111111"/>
<path d="M371.838 85.0312H370.793V87.1084H371.838V85.0312Z" fill="#111111"/>
<path d="M367.569 124.84H366.523V126.848H367.569V124.84Z" fill="#111111"/>
<path d="M359.333 85.0312H355.289V86.1592H359.333V85.0312Z" fill="#111111"/>
<path d="M359.216 125.805V124.842H360.282V123.797H355.832V124.842H358.17V125.805H356.816V126.851H361.266V125.805H359.216Z" fill="#111111"/>
<path d="M351.712 112.438V111.475H352.778V110.43H348.328V111.475H350.667V112.438H349.305V113.483H353.755V112.438H351.712Z" fill="#111111"/>
<path d="M358.135 121.812H353.699V122.858H358.135V121.812Z" fill="#111111"/>
<path d="M361.377 93.0273H358.262V94.0727H361.377V93.0273Z" fill="#111111"/>
<path d="M381.988 114.719H378.852V115.764H381.988V114.719Z" fill="#111111"/>
<path d="M372.042 93.5654V92.6094H370.996V93.5654V93.6479V94.6109H374.738V93.5654H372.042Z" fill="#111111"/>
<path d="M360.448 96.1855V95.2227H359.402V96.1855V96.2681V97.231H362.621V96.1855H360.448Z" fill="#111111"/>
<path d="M374.079 114.372V113.375L373.055 113.396V115.418H376.102V114.372H374.079Z" fill="#111111"/>
<path d="M371.074 99.7602H368.735V98.8867H367.648V101.769H368.694V100.806H371.074V99.7602Z" fill="#111111"/>
<path d="M362.627 105.099V104.301H361.582V106.144H364.512V105.099H362.627Z" fill="#111111"/>
<path d="M368.514 105.122V104.324H367.469V106.167H370.392V105.122H368.514Z" fill="#111111"/>
<path d="M380.007 106.263V105.465H378.969V107.308H381.892V106.263H380.007Z" fill="#111111"/>
<path d="M365.194 112.23H362.141V113.269H364.149V114.314H365.194V112.23Z" fill="#111111"/>
<path d="M379.797 103.254H378.07V104.361H379.797V103.254Z" fill="#111111"/>
<path d="M366.721 91.1484H363.316V92.1939H366.721V91.1484Z" fill="#111111"/>
<path d="M363.101 117.301H359.359V118.346H363.101V117.301Z" fill="#111111"/>
<path d="M361.436 119.516H358.031V120.561H361.436V119.516Z" fill="#111111"/>
<path d="M352.373 107.32H349.34V108.366H352.373V107.32Z" fill="#111111"/>
<path d="M355.254 88.1055H352.4H352.379H351.348V92.0809H352.393V89.1509H355.254V88.1055Z" fill="#111111"/>
<path d="M374.254 104.301H371.4H371.379H370.348V108.751H371.558V105.346H374.254V104.301Z" fill="#111111"/>
<path d="M366.71 92.1133H365.699V96.0818H366.745V93.1518H368.664V94.1354H369.812V92.1133H366.71Z" fill="#111111"/>
<path d="M382.959 96.3281H378.832V97.3736H382.959V96.3281Z" fill="#111111"/>
<path d="M376.969 123.91V124.949H378.159V125.912H379.204V124.949V124.866V123.91H376.969Z" fill="#111111"/>
<path d="M368.234 122.383H365.992V123.428H368.234V122.383Z" fill="#111111"/>
<path d="M349.184 101.332H346.941V102.377H349.184V101.332Z" fill="#111111"/>
<path d="M379.946 119.953H376.988V120.999H379.946V119.953Z" fill="#111111"/>
<path d="M371.91 102.141H369.668V103.186H371.91V102.141Z" fill="#111111"/>
<path d="M363.148 107.129H360.906V108.174H363.148V107.129Z" fill="#111111"/>
<path d="M347.023 94.2031H344.781V95.2485H347.023V94.2031Z" fill="#111111"/>
<path d="M372.033 112.426H370.293V113.471H372.033V112.426Z" fill="#111111"/>
<path d="M374.605 95.4961H372.363V96.5415H374.605V95.4961Z" fill="#111111"/>
<path d="M360.146 111.34H358.262V112.385H360.146V111.34Z" fill="#111111"/>
<path d="M357.24 104.961H355.355V106.006H357.24V104.961Z" fill="#111111"/>
<path d="M366.566 88.082H364.324V89.1275H366.566V88.082Z" fill="#111111"/>
<path d="M358.36 96.125H356.379V97.1704H358.36V96.125Z" fill="#111111"/>
<path d="M369.867 89.4648H367.625V90.5102H369.867V89.4648Z" fill="#111111"/>
<path d="M372.027 90.4609H369.785V91.5064H372.027V90.4609Z" fill="#111111"/>
<path d="M381.922 121.762H379.914V122.807H381.922V121.762Z" fill="#111111"/>
<path d="M365.208 115.352H363.199V116.397H365.208V115.352Z" fill="#111111"/>
<path d="M357.371 117.344H352.309V118.389H357.371V117.344Z" fill="#111111"/>
<path d="M381.849 94.3281H377.048H376.78H375.996V98.2966H377.042V95.3666H381.849V94.3281Z" fill="#111111"/>
<path d="M375.069 99.1973V98.3032H376.073V97.2578H375.083H375.041H374.03V99.1973L372.902 99.2386V101.144H373.941V100.284H377.077V99.2386L375.069 99.1973Z" fill="#111111"/>
<path d="M374.84 120.986V120.05H376.092V118.984H373.794V120.986H372.77V123.097H373.815V122.052H376.972V120.986H374.84Z" fill="#111111"/>
<path d="M382.93 109.743V110.665H380.859V109.722H381.863V108.656H380.866H380.825H379.814V110.665H378.789V112.776H379.835V111.731H380.88V112.687H381.925V111.731H382.93V113.732H383.968V109.743H382.93Z" fill="#111111"/>
<path d="M353.354 103.434V104.356H351.345V103.414H352.308V102.348H350.321V104.356H349.316V106.461H350.444V105.415H351.325V106.378H352.37V105.415H353.354V107.424H354.372V103.434H353.354Z" fill="#111111"/>
<path d="M375.987 110.458V111.379H373.986V110.437H374.963V109.371H372.961V111.379H371.957V113.491H373.085V112.445H373.965L374.007 113.408H375.004V112.445H375.987V114.454H377.012V110.458H375.987Z" fill="#111111"/>
<path d="M361.573 99.1843V100.106H359.571V99.1637H360.534V98.0977H358.546V100.106H357.542V102.217H355.266V103.263H358.67V101.172H359.551V102.135H360.596V101.172H361.573V103.174H362.597V99.1843H361.573Z" fill="#111111"/>
<path d="M362.355 88.2469V89.1616H360.346V88.2262H361.309V87.1602H359.322V89.1616H358.324V91.2112H359.404V90.2277H360.388V91.2112H361.433V90.2277H362.355V92.1948H363.379V88.2469H362.355Z" fill="#111111"/>
<path d="M357.307 91.2V92.1216H355.319V91.1793H356.282V90.1133H354.294V92.1216H353.27V94.2262H354.315V93.1877H355.257V94.2056H356.303V93.1877H357.307V95.1891H358.352V91.2H357.307Z" fill="#111111"/>
<path d="M380.859 100.279V99.3434H381.863V98.2773H380.866H380.825H379.814V100.279H378.789V102.39H379.835V101.345H382.991V100.279H380.859Z" fill="#111111"/>
<path d="M381.898 124.781V125.785H378.156V126.831H382.964V125.827V125.785V124.781H381.898Z" fill="#111111"/>
<path d="M343.887 112.223H345.303V111.177H344.237V110.276H343.171V108.543H342.133V115.792H343.171V114.245H344.217V113.261H343.171V112.223H343.887Z" fill="#111111"/>
<path d="M374.66 124.959V123.06H370.63V121.953H369.626V123.941H368.684V124.938H369.626V126.864H370.63V124.065H373.574V124.959H371.627V125.942H372.549V126.864H373.532V125.942H376.015V126.864H376.999V125.949V125.867V124.959H374.66Z" fill="#111111"/>
<path d="M345.432 103.383V102.379H344.393V103.383H342.199V104.429H343.41V105.364H344.455V104.429H346.292V105.405H347.337V104.429H349.338V103.383H345.432Z" fill="#111111"/>
<path d="M369.408 108.449V107.445H368.259V108.449H366.258V109.495H367.283V110.43H368.321V109.495H370.35V110.472H371.54V109.495H374.009V108.449H369.408Z" fill="#111111"/>
<path d="M356.283 94.1643H352.376V93.1602H351.331V94.1643H349.137V95.2097H353.229V96.1933H354.274V95.2097H356.283V94.1643Z" fill="#111111"/>
<path d="M373.697 87.055H369.79V86.0508H368.745V87.055H366.551V88.0935H370.774V89.0771H371.819V88.0935H373.697V87.055Z" fill="#111111"/>
<path d="M363.202 114.345H359.295V113.348H358.25V114.345H356.062V115.39H360.155V116.374H361.2V115.39H363.202V114.345Z" fill="#111111"/>
<path d="M347.316 105.375V106.379H346.312V105.375H345.267V106.379H342.199V107.425H347.316V108.511H345.246V109.495H347.316V111.476H348.362V107.425V107.349V106.42V106.379V105.375H347.316Z" fill="#111111"/>
<path d="M354.254 96.1484V97.1526H353.25V96.1484H352.211V97.1526H349.137V98.1912H354.254V99.2779H352.19V100.261H354.254V102.249H355.299V98.1912V98.1224V97.187V97.1526V96.1484H354.254Z" fill="#111111"/>
<path d="M422.995 158.488H304.008V196.316H422.995V158.488Z" fill="#FEFEFE"/>
</svg>
