<svg width="432" height="432" viewBox="0 0 432 432" fill="none" xmlns="http://www.w3.org/2000/svg">
<path d="M153.731 61.8337L174.75 85.9469C174.75 85.9469 181.369 90.6902 170.178 93.7086L165.832 95.0365C165.832 95.0365 169.233 101.361 169.637 106.638C170.041 111.915 171.095 121.484 168.46 124.297C165.825 127.11 169.514 143.434 166.352 139.492C164.771 142.866 172.669 146.247 172.669 146.247C172.669 146.247 111.356 129.389 112.663 123.174C113.971 116.959 111.609 95.5977 111.609 95.5977C111.609 95.5977 112.663 61.2656 118.981 61.2656C125.298 61.2656 153.717 61.8269 153.717 61.8269L153.731 61.8337Z" fill="#EFF1F1"/>
<path d="M162.242 72.2656C167.348 77.0705 172.865 84.0382 175.712 87.7753C176.67 89.0347 176.171 90.9375 174.733 91.4713L165.897 94.7635C165.897 94.7635 171.53 107.289 169.402 117.966" stroke="#053575" stroke-width="3" stroke-linecap="round" stroke-linejoin="round"/>
<path d="M156.027 87.1481C155.726 85.5465 156.623 83.5479 158.005 83.6027C159.36 83.6574 160.127 85.437 160.599 86.9496C160.524 86.5184 160.449 86.0941 160.373 85.6629" stroke="#053575" stroke-width="3" stroke-linecap="round" stroke-linejoin="round"/>
<path d="M115.919 55.3594C104.194 64.5036 101.162 84.7087 108.452 98.9247C109.759 101.471 110.97 103.819 112.846 106.036C114.187 107.624 116.508 107.686 117.952 106.2L129.731 94.1131" fill="#053575"/>
<path d="M115.919 55.3594C104.194 64.5036 101.162 84.7087 108.452 98.9247C109.759 101.471 110.97 103.819 112.846 106.036C114.187 107.624 116.508 107.686 117.952 106.2L129.731 94.1131" stroke="#053575" stroke-width="3" stroke-linecap="round" stroke-linejoin="round"/>
<path d="M126.433 96.1665C128.459 85.3453 126.898 77.1935 135.981 86.0777L135.81 69.9657C137.021 70.3079 138.253 70.5817 139.506 70.7597C140.218 70.8623 140.964 70.9308 141.648 70.7186C142.332 70.4996 142.955 69.9315 143.01 69.2196C143.072 68.3915 142.394 67.7207 141.771 67.1663C141.053 66.5297 140.327 65.8932 139.608 65.2567C139.868 65.1266 140.108 64.9966 140.334 64.8665C142.887 66.386 145.577 67.7207 148.191 68.9801C150.142 69.9178 152.271 70.7734 154.42 70.4859C155.241 70.3764 156.165 69.9452 156.275 69.1375C156.384 68.3093 155.583 67.6865 154.872 67.2348C152.346 65.64 149.814 64.0452 147.288 62.4573C151.99 65.1472 152.62 65.5031 158.034 65.9753C160.402 66.1807 163.42 65.7358 164.112 63.484C164.755 61.3827 162.825 59.432 161.011 58.1795C149.841 50.4657 134.29 47.502 121.6 52.3753C119.362 53.2377 117.316 54.3876 115.461 55.7702" fill="#053575"/>
<path d="M126.433 96.1665C128.459 85.3453 126.898 77.1935 135.981 86.0777L135.81 69.9657C137.021 70.3079 138.253 70.5817 139.506 70.7597C140.218 70.8623 140.964 70.9308 141.648 70.7186C142.332 70.4996 142.955 69.9315 143.01 69.2196C143.072 68.3915 142.394 67.7207 141.771 67.1663C141.053 66.5297 140.327 65.8932 139.608 65.2567C139.868 65.1266 140.108 64.9966 140.334 64.8665C142.887 66.386 145.577 67.7207 148.191 68.9801C150.142 69.9178 152.271 70.7734 154.42 70.4859C155.241 70.3764 156.165 69.9452 156.275 69.1375C156.384 68.3093 155.583 67.6865 154.872 67.2348C152.346 65.64 149.814 64.0452 147.288 62.4573C151.99 65.1472 152.62 65.5031 158.034 65.9753C160.402 66.1807 163.42 65.7358 164.112 63.484C164.755 61.3827 162.825 59.432 161.011 58.1795C149.841 50.4657 134.29 47.502 121.6 52.3753C119.362 53.2377 117.316 54.3876 115.461 55.7702" stroke="#053575" stroke-width="3" stroke-linecap="round" stroke-linejoin="round"/>
<path d="M136.677 88.9678C136.677 88.9678 132.837 82.0411 127.991 83.6427C123.146 85.2512 124.008 90.631 125.137 93.006C126.26 95.3879 130.839 97.9409 130.839 97.9409" fill="#EFF1F1"/>
<path d="M136.677 88.9678C136.677 88.9678 132.837 82.0411 127.991 83.6427C123.146 85.2512 124.008 90.631 125.137 93.006C126.26 95.3879 130.839 97.9409 130.839 97.9409" stroke="#EFF1F1" stroke-width="3" stroke-linecap="round" stroke-linejoin="round"/>
<path d="M133.367 93.2327C133.367 93.2327 130.595 87.8256 129.281 86.7578" stroke="#053575" stroke-width="3" stroke-linecap="round" stroke-linejoin="round"/>
<path d="M126.672 91.9085C126.672 91.9085 129.334 89.6977 130.553 89.8003" stroke="#053575" stroke-width="3" stroke-linecap="round" stroke-linejoin="round"/>
<path d="M166.438 104.467C166.438 104.467 157.52 103.55 152.715 98.7383L166.438 104.467Z" fill="#EFF1F1"/>
<path d="M166.438 104.467C166.438 104.467 157.52 103.55 152.715 98.7383" stroke="#053575" stroke-width="3" stroke-linecap="round" stroke-linejoin="round"/>
<path d="M182.248 269.8L174.712 356.678C174.664 357.239 174.89 357.773 175.294 358.053C178.599 360.333 193.349 370.716 198.62 377.985C199.284 378.902 198.77 380.332 197.757 380.346L155.321 380.921C155.006 380.921 154.705 380.777 154.479 380.503L149.818 374.863C148.798 373.631 147.423 372.94 145.979 372.94H145.534C142.536 372.94 140.106 375.876 140.106 379.504C140.106 380.284 139.579 380.921 138.936 380.921H129.216C128.525 380.921 127.984 380.202 128.053 379.367L137.067 267.945" fill="#EFF1F1"/>
<path d="M182.248 269.8L174.712 356.678C174.664 357.239 174.89 357.773 175.294 358.053C178.599 360.333 193.349 370.716 198.62 377.985C199.284 378.902 198.77 380.332 197.757 380.346L155.321 380.921C155.006 380.921 154.705 380.777 154.479 380.503L149.818 374.863C148.798 373.631 147.423 372.94 145.979 372.94H145.534C142.536 372.94 140.106 375.876 140.106 379.504C140.106 380.284 139.579 380.921 138.936 380.921H129.216C128.525 380.921 127.984 380.202 128.053 379.367L137.067 267.945" stroke="#053575" stroke-width="3" stroke-linecap="round" stroke-linejoin="round"/>
<path d="M145.342 269.801L137.806 356.679C137.759 357.24 137.984 357.774 138.388 358.054C141.694 360.333 156.444 371.312 161.714 378.588C162.378 379.505 161.865 380.935 160.852 380.949L121.9 381.093C119.169 381.1 116.589 379.779 114.884 377.5L112.92 374.871C111.9 373.639 110.524 372.948 109.08 372.948H108.635C105.637 372.948 103.207 375.884 103.207 379.512C103.207 380.292 102.68 380.929 102.037 380.929H92.3179C91.6266 380.929 91.0858 380.21 91.1543 379.375L100.169 267.953" fill="#EFF1F1"/>
<path d="M145.342 269.801L137.807 356.679C137.759 357.24 137.984 357.774 138.388 358.054C141.694 360.333 156.444 371.312 161.714 378.588C162.378 379.505 161.865 380.935 160.852 380.949L121.9 381.093C119.169 381.1 116.589 379.779 114.884 377.5L112.92 374.871C111.9 373.639 110.524 372.948 109.08 372.948H108.635C105.637 372.948 103.207 375.884 103.207 379.512C103.207 380.292 102.68 380.929 102.037 380.929H92.3179C91.6266 380.929 91.0858 380.21 91.1543 379.375L100.169 267.953" stroke="#053575" stroke-width="3" stroke-linecap="round" stroke-linejoin="round"/>
<path d="M192.93 202.365C192.93 202.365 209.993 204.877 222.306 204.309C234.62 203.74 248.473 194.014 252.758 185.575C257.042 177.136 262.046 164.795 261.122 141.756C260.198 118.718 245.03 118.684 245.03 118.684L242.169 145.685L236.379 150.189C236.379 150.189 233.744 168.758 230.061 171.571C226.379 174.384 192.937 202.358 192.937 202.358L192.93 202.365Z" fill="#EFF1F1"/>
<path d="M256.609 138.382C256.397 137.704 253.974 126.561 246.609 126L256.609 138.382Z" fill="#EFF1F1"/>
<path d="M254.608 150.336C254.608 150.336 255.683 138.748 249.324 134.094L254.608 150.336Z" fill="#EFF1F1"/>
<path d="M239.411 148.467C239.411 148.467 240.068 136.962 240.26 133.669C240.376 131.664 239.199 130.028 237.378 129.583C231.588 128.173 231.875 138.625 231.739 141.869C231.869 149.083 232.033 167.632 223.573 170.383C218.07 172.177 208.987 165.202 203.827 163.47L191.63 158.077L183.211 180.588C183.211 180.588 190.617 201.074 202.437 203.497C214.265 205.913 232.005 202.347 232.005 202.347L239.411 148.474V148.467Z" fill="#EFF1F1"/>
<path d="M240.542 149.122C244.484 149.382 247.879 146.172 248.119 141.955L250.001 101.6C250.07 100.368 249.193 99.3142 248.044 99.2389L245.066 99.0472C243.916 98.9719 242.924 99.9096 242.855 101.135L240.535 149.129L240.542 149.122Z" fill="#00A6E8"/>
<path d="M192.93 202.369C192.93 202.369 209.993 204.881 222.306 204.312C234.62 203.744 248.473 194.018 252.758 185.579C257.042 177.14 262.046 164.799 261.122 141.76C260.198 118.722 245.03 118.688 245.03 118.688" stroke="#053575" stroke-width="3" stroke-linecap="round" stroke-linejoin="round"/>
<path d="M256.609 138.39C256.397 137.712 253.974 126.569 246.609 126.008" stroke="#053575" stroke-width="3" stroke-linecap="round" stroke-linejoin="round"/>
<path d="M254.608 150.34C254.608 150.34 255.683 138.752 249.324 134.098" stroke="#053575" stroke-width="3" stroke-linecap="round" stroke-linejoin="round"/>
<path d="M239.409 148.467C239.409 148.467 240.066 136.962 240.258 133.669C240.374 131.664 239.197 130.028 237.376 129.583C231.586 128.173 231.873 138.625 231.736 141.869C231.866 149.083 232.03 167.632 223.571 170.383C218.068 172.177 208.985 165.202 203.824 163.47" stroke="#053575" stroke-width="3" stroke-linecap="round" stroke-linejoin="round"/>
<path d="M225.111 270.067L218.499 251.573C186.59 264.221 150.971 267.021 115.654 257.377C79.1313 247.404 48.2831 225.598 25.7304 196.734L11.6102 209.698C9.67319 211.477 9.44732 214.612 11.1311 216.672C36.3736 247.445 70.1719 270.648 109.891 281.49C148.405 292.003 187.24 289.471 222.339 276.48C224.789 275.576 226.035 272.661 225.111 270.073V270.067Z" fill="#00A6E8"/>
<path d="M218.488 251.57L210.199 228.388C182.622 239.223 151.884 241.584 121.398 233.261C89.6739 224.603 62.8913 205.644 43.3297 180.559L25.7188 196.725C48.2714 225.595 79.1197 247.402 115.642 257.368C150.96 267.012 186.579 264.212 218.488 251.564V251.57Z" fill="#00A6E8"/>
<path d="M210.206 228.394L201.917 205.211C178.68 214.239 152.815 216.163 127.169 209.161C100.249 201.81 77.5321 185.704 60.9547 164.391L43.3438 180.557C62.9122 205.649 89.688 224.602 121.412 233.26C151.898 241.583 182.636 239.222 210.213 228.387L210.206 228.394Z" fill="#00A6E8"/>
<path d="M201.907 205.21L193.612 182.021C174.714 189.235 153.729 190.734 132.914 185.053C110.8 179.016 92.1416 165.758 78.5484 148.223L60.9375 164.389C77.5149 185.703 100.232 201.808 127.151 209.159C152.798 216.161 178.663 214.238 201.9 205.21H201.907Z" fill="#00A6E8"/>
<path d="M193.61 182.011L185.314 158.815C170.763 164.222 154.651 165.29 138.669 160.93C121.352 156.2 106.76 145.803 96.1578 132.039L78.5469 148.213C92.1401 165.748 110.791 178.999 132.913 185.043C153.727 190.724 174.712 189.225 193.61 182.011Z" fill="#00A6E8"/>
<path d="M185.321 158.825L178.394 139.455C177.641 137.347 175.519 136.204 173.48 136.772C164.253 139.345 154.315 139.53 144.438 136.833C133.282 133.788 123.713 127.477 116.369 119.092C114.856 117.361 112.344 117.203 110.661 118.743L96.1641 132.049C106.766 145.806 121.359 156.21 138.675 160.94C154.657 165.3 170.762 164.232 185.321 158.825Z" fill="#00A6E8"/>
<path d="M146.625 139.138C146.625 139.138 153.531 157.111 159.691 152.169C165.851 147.228 168.931 132.403 172.018 129.11C175.098 125.818 181.258 124.169 185.885 129.11C190.505 134.052 187.425 148.877 187.425 148.877C187.425 148.877 187.425 150.718 184.345 150.527C179.219 150.205 179.725 138.994 179.725 138.994C179.725 138.994 179.725 143.936 176.645 143.936" fill="#EFF1F1"/>
<path d="M186.062 128.812C188.383 128.162 190.464 128.244 193.591 130.756C199.752 135.698 196.671 148.873 196.671 152.172C196.671 155.465 188.643 158.175 186.59 150.763" fill="#EFF1F1"/>
<path d="M192.375 129.383C192.375 129.383 204.373 134.058 204.373 137.35C204.373 140.642 202.833 143.941 198.213 142.292" fill="#EFF1F1"/>
<path d="M198.215 130.755C198.215 130.755 202.835 124.164 209.002 124.164C215.162 124.164 218.242 127.456 216.702 130.755C215.162 134.048 209.002 130.755 204.375 138.989" fill="#EFF1F1"/>
<path d="M205.403 137.898C205.403 137.898 206.012 152.813 198.729 166.433C191.454 180.054 173.254 201.45 149.606 197.562C125.952 193.674 118.676 174.215 118.676 174.215L106.938 148.713" fill="#EFF1F1"/>
<path d="M146.613 138.086C146.613 138.086 152.63 153.363 156.463 152.761C160.295 152.158 165.162 144.472 166.675 141.844L146.613 138.093V138.086Z" fill="#00A6E8"/>
<path d="M146.625 139.138C146.625 139.138 153.531 157.111 159.691 152.169C165.851 147.228 168.931 132.403 172.018 129.11C175.098 125.818 181.258 124.169 185.885 129.11C190.505 134.052 187.425 148.877 187.425 148.877C187.425 148.877 187.425 150.718 184.345 150.527C179.219 150.205 179.725 138.994 179.725 138.994C179.725 138.994 179.725 143.936 176.645 143.936" stroke="#053575" stroke-width="3" stroke-linecap="round" stroke-linejoin="round"/>
<path d="M186.062 128.812C188.383 128.162 190.464 128.244 193.591 130.756C199.752 135.698 196.671 148.873 196.671 152.172C196.671 155.465 188.643 158.175 186.59 150.763" stroke="#053575" stroke-width="3" stroke-linecap="round" stroke-linejoin="round"/>
<path d="M192.375 129.383C192.375 129.383 204.373 134.058 204.373 137.35C204.373 140.642 202.833 143.941 198.213 142.292" stroke="#053575" stroke-width="3" stroke-linecap="round" stroke-linejoin="round"/>
<path d="M198.215 130.755C198.215 130.755 202.835 124.164 209.002 124.164C215.162 124.164 218.242 127.456 216.702 130.755C215.162 134.048 209.002 130.755 204.375 138.989" stroke="#053575" stroke-width="3" stroke-linecap="round" stroke-linejoin="round"/>
<path d="M205.403 137.898C205.403 137.898 206.012 152.813 198.729 166.433C191.454 180.054 173.254 201.45 149.606 197.562C125.952 193.674 118.676 174.215 118.676 174.215L106.938 148.713" stroke="#053575" stroke-width="3" stroke-linecap="round" stroke-linejoin="round"/>
<path d="M407.626 182.602H319.332V381.092H407.626V182.602Z" fill="#053575"/>
<path d="M384.351 70.3555H339.862C335.326 70.3555 331.648 74.0327 331.648 78.5689V150.436C331.648 154.972 335.326 158.65 339.862 158.65H384.351C388.887 158.65 392.565 154.972 392.565 150.436V78.5689C392.565 74.0327 388.887 70.3555 384.351 70.3555Z" fill="#EFF1F1"/>
<path d="M349.612 84.8594H341.59V92.8811H349.612V84.8594Z" fill="#111111"/>
<path d="M348.658 85.8086H342.539V91.9276H348.658V85.8086Z" fill="#FEFEFE"/>
<path d="M347.456 87.0154H343.746V90.7251H347.456V87.0154Z" fill="#111111"/>
<path d="M349.612 118.41H341.59V126.432H349.612V118.41Z" fill="#111111"/>
<path d="M348.658 119.367H342.539V125.486H348.658V119.367Z" fill="#FEFEFE"/>
<path d="M347.456 120.574H343.746V124.284H347.456V120.574Z" fill="#111111"/>
<path d="M383.162 84.8594H375.141V92.8811H383.162V84.8594Z" fill="#111111"/>
<path d="M382.209 85.8086H376.09V91.9276H382.209V85.8086Z" fill="#FEFEFE"/>
<path d="M381.003 87.0154H377.293V90.7251H381.003V87.0154Z" fill="#111111"/>
<path d="M342.642 95.0781H341.602V99.0479H342.642V95.0781Z" fill="#111111"/>
<path d="M373.99 87.8867H372.949V91.8565H373.99V87.8867Z" fill="#111111"/>
<path d="M351.935 117.008H350.895V120.978H351.935V117.008Z" fill="#111111"/>
<path d="M363.361 117.883H362.32V121.996H363.361V117.883Z" fill="#111111"/>
<path d="M382.06 105.059H381.02V108.447H382.06V105.059Z" fill="#111111"/>
<path d="M351.997 113.152H350.957V116H351.997V113.152Z" fill="#111111"/>
<path d="M348.572 96.0352H347.531V100.149H348.572V96.0352Z" fill="#111111"/>
<path d="M345.677 111.895H344.637V116.487H345.677V111.895Z" fill="#111111"/>
<path d="M361.513 109.961H360.473V114.074H361.513V109.961Z" fill="#111111"/>
<path d="M376.279 99.9883H375.238V104.102H376.279V99.9883Z" fill="#111111"/>
<path d="M381.06 101.051H380.02V105.164H381.06V101.051Z" fill="#111111"/>
<path d="M355.466 112.996H354.426V117.11H355.466V112.996Z" fill="#111111"/>
<path d="M383.177 97.1211H382.137V101.091H383.177V97.1211Z" fill="#111111"/>
<path d="M342.642 100.031H341.602V101.072H342.642V100.031Z" fill="#111111"/>
<path d="M343.661 116.473H342.621V117.513H343.661V116.473Z" fill="#111111"/>
<path d="M344.685 115.445H343.645V116.486H344.685V115.445Z" fill="#111111"/>
<path d="M346.701 116.453H345.66V117.494H346.701V116.453Z" fill="#111111"/>
<path d="M383.177 103.066H382.137V104.107H383.177V103.066Z" fill="#111111"/>
<path d="M383.177 94.0898H382.137V95.1302H383.177V94.0898Z" fill="#111111"/>
<path d="M380.005 95.1094H378.965V96.1498H380.005V95.1094Z" fill="#111111"/>
<path d="M377.286 98H376.246V99.0403H377.286V98Z" fill="#111111"/>
<path d="M377.286 102.055H376.246V103.095H377.286V102.055Z" fill="#111111"/>
<path d="M383.177 117.414H382.137V118.454H383.177V117.414Z" fill="#111111"/>
<path d="M383.167 122.419H382.134L382.113 120.427L383.167 120.406V122.419Z" fill="#111111"/>
<path d="M383.164 125.422H381.918V126.462H383.164V125.422Z" fill="#111111"/>
<path d="M381.146 123.422H380.105V124.462H381.146V123.422Z" fill="#111111"/>
<path d="M376.208 122.617H375.168V123.617H376.208V122.617Z" fill="#111111"/>
<path d="M382.158 122.414H381.117V123.454H382.158V122.414Z" fill="#111111"/>
<path d="M382.112 120.47H381.051V119.43H382.091L382.112 120.47Z" fill="#111111"/>
<path d="M378.138 121.383H377.098V122.423H378.138V121.383Z" fill="#111111"/>
<path d="M364.622 123.52H363.582V125.463H364.622V123.52Z" fill="#111111"/>
<path d="M382.158 115.375H381.117V116.415H382.158V115.375Z" fill="#111111"/>
<path d="M382.158 113.383H381.117V114.423H382.158V113.383Z" fill="#111111"/>
<path d="M351.786 84.8594H350.746V85.9545H351.786V84.8594Z" fill="#111111"/>
<path d="M361.638 84.8594H360.598V85.9476H361.638V84.8594Z" fill="#111111"/>
<path d="M366.951 84.8594H365.91V85.9408H366.951V84.8594Z" fill="#111111"/>
<path d="M373.982 85.8594H372.941V86.8998H373.982V85.8594Z" fill="#111111"/>
<path d="M363.587 125.441H362.547V126.482H363.587V125.441Z" fill="#111111"/>
<path d="M355.099 125.441H354.059V126.482H355.099V125.441Z" fill="#111111"/>
<path d="M361.818 123.484H360.777V124.525H361.818V123.484Z" fill="#111111"/>
<path d="M365.594 114.023H364.492V115.064H365.594V114.023Z" fill="#111111"/>
<path d="M356.185 119.297H355.145V120.337H356.185V119.297Z" fill="#111111"/>
<path d="M354.021 119.297H352.98V120.337H354.021V119.297Z" fill="#111111"/>
<path d="M368.638 116.289H367.598V117.329H368.638V116.289Z" fill="#111111"/>
<path d="M353.021 108.566H351.98V109.607H353.021V108.566Z" fill="#111111"/>
<path d="M355.439 107.188H354.398V108.228H355.439V107.188Z" fill="#111111"/>
<path d="M380.134 113.363H379.094V114.629H380.134V113.363Z" fill="#111111"/>
<path d="M381.06 118.305H379.773V119.427H381.06V118.305Z" fill="#111111"/>
<path d="M360.052 104.652H359.012V105.693H360.052V104.652Z" fill="#111111"/>
<path d="M366.579 102.32H365.539V103.361H366.579V102.32Z" fill="#111111"/>
<path d="M377.06 116.883H376.02V117.923H377.06V116.883Z" fill="#111111"/>
<path d="M376.325 115.039H375.285V116.079H376.325V115.039Z" fill="#111111"/>
<path d="M377.208 113.094H376.168V114.134H377.208V113.094Z" fill="#111111"/>
<path d="M366.583 106.016H365.434V107.2H366.583V106.016Z" fill="#111111"/>
<path d="M365.587 104.148H364.438V105.333H365.587V104.148Z" fill="#111111"/>
<path d="M377.306 104.062H376.266V105.103H377.306V104.062Z" fill="#111111"/>
<path d="M372.154 100.844H371.113V101.884H372.154V100.844Z" fill="#111111"/>
<path d="M378.247 99.0547H377.207V100.095H378.247V99.0547Z" fill="#111111"/>
<path d="M375.224 105.066H374.184V106.107H375.224V105.066Z" fill="#111111"/>
<path d="M365.505 111.93H364.465V112.97H365.505V111.93Z" fill="#111111"/>
<path d="M360.513 108.391H359.473V109.431H360.513V108.391Z" fill="#111111"/>
<path d="M359.013 102.965H357.973V104.005H359.013V102.965Z" fill="#111111"/>
<path d="M357.993 102.965H356.953V104.005H357.993V102.965Z" fill="#111111"/>
<path d="M349.81 109.105H348.77V110.146H349.81V109.105Z" fill="#111111"/>
<path d="M350.693 100.094H349.652V101.134H350.693V100.094Z" fill="#111111"/>
<path d="M362.919 97.9102H361.879V98.9505H362.919V97.9102Z" fill="#111111"/>
<path d="M367.993 94.832H366.953V95.8724H367.993V94.832Z" fill="#111111"/>
<path d="M375.599 103.043H374.121V104.083H375.599V103.043Z" fill="#111111"/>
<path d="M352.615 101.078H351.574V102.118H352.615V101.078Z" fill="#111111"/>
<path d="M355.665 99.8242H354.207V100.865H355.665V99.8242Z" fill="#111111"/>
<path d="M355.665 97.8242H354.207V98.8646H355.665V97.8242Z" fill="#111111"/>
<path d="M350.669 97.8867H349.629V98.9271H350.669V97.8867Z" fill="#111111"/>
<path d="M357.736 115.004H356.695V116.044H357.736V115.004Z" fill="#111111"/>
<path d="M353.001 114.961H351.961V116.001H353.001V114.961Z" fill="#111111"/>
<path d="M353.712 86.0664H352.672V87.1067H353.712V86.0664Z" fill="#111111"/>
<path d="M356.724 87.1055H355.684V89.0767H356.724V87.1055Z" fill="#111111"/>
<path d="M368.911 119.648H367.871V121.62H368.911V119.648Z" fill="#111111"/>
<path d="M359.723 90.9922H358.703V91.971H359.723V90.9922Z" fill="#111111"/>
<path d="M364.654 89.9453H363.613V90.9857H364.654V89.9453Z" fill="#111111"/>
<path d="M362.654 85.9102H361.613V86.9505H362.654V85.9102Z" fill="#111111"/>
<path d="M362.547 109.961H360.945V111.001H362.547V109.961Z" fill="#111111"/>
<path d="M359.599 121.426H358.559V122.466H359.599V121.426Z" fill="#111111"/>
<path d="M361.486 121.434H360.445V122.474H361.486V121.434Z" fill="#111111"/>
<path d="M370.927 120.582H369.887V121.622H370.927V120.582Z" fill="#111111"/>
<path d="M369.95 118.625H368.91V119.665H369.95V118.625Z" fill="#111111"/>
<path d="M371.994 118.602H370.953V119.642H371.994V118.602Z" fill="#111111"/>
<path d="M352.009 122.516V123.467H350.996V124.507H352.009V126.485H353.049V122.516H352.009Z" fill="#111111"/>
<path d="M345.246 96.0195V96.9777H344.082V98.0181H345.246V100.222H346.286V96.0195H345.246Z" fill="#111111"/>
<path d="M374.285 115.027V116.047H373.121V117.088H374.285V119.291H375.325V115.027H374.285Z" fill="#111111"/>
<path d="M367.559 110.137V111.095H366.566V112.135H367.559V114.339H368.599V110.137H367.559Z" fill="#111111"/>
<path d="M366.601 114.062V115.021H365.602V116.061H366.601V118.265H367.641V114.062H366.601Z" fill="#111111"/>
<path d="M378.906 116.395V117.346H377.906V118.386H378.906V120.652H379.946V116.395H378.906Z" fill="#111111"/>
<path d="M363.455 106.828V107.786H362.395V108.827H363.455V111.031H364.496V106.828H363.455Z" fill="#111111"/>
<path d="M357.512 105.707V106.665H356.492V107.706H357.512V109.91H358.552V105.707H357.512Z" fill="#111111"/>
<path d="M369.969 114.156V115.169H368.949V116.292H369.969V118.626H371.009V114.156H369.969Z" fill="#111111"/>
<path d="M364.996 94.8207H363.997V92.9453H362.957V93.9035H361.793V94.9439H362.957V96.9425H363.997V95.8611H364.996V94.8207Z" fill="#111111"/>
<path d="M355.444 108.832V109.79H354.273V110.831H355.444V113.035H356.477V108.832H355.444Z" fill="#111111"/>
<path d="M373.164 104.898V106.124H372V107.164H373.164V109.204H374.204V104.898H373.164Z" fill="#111111"/>
<path d="M373.17 100.867V101.819H372.137V102.859H373.17V105.063H374.211V100.867H373.17Z" fill="#111111"/>
<path d="M349.72 115.025H348.727V113.156L347.666 113.197V114.156H346.688V115.189H347.666V117.372H348.727V116.065H349.72V115.025Z" fill="#111111"/>
<path d="M371.341 97.228H370.341V95.3594L369.281 95.4004V96.3587H368.309V97.3922H369.281V99.5756H370.341V98.2683H371.341V97.228Z" fill="#111111"/>
<path d="M366.333 119.705H365.334V117.871H364.273V118.829H363.301V119.87H364.273V122.053H365.334V120.739H366.333V119.705Z" fill="#111111"/>
<path d="M378.23 107.808H377.231V105.98H376.17V106.939H375.191V107.979H376.17V110.156H377.231V108.848H378.23V107.808Z" fill="#111111"/>
<path d="M366.972 97.7876H366.02V95.8164L364.959 95.8369V96.8567H363.98V97.7876H364.959V99.7246H366.02V98.7253H366.972V97.7876Z" fill="#111111"/>
<path d="M364.875 101.558H363.876V99.7305H362.815V100.682H361.836V101.722H362.815V103.906H363.876V102.598H364.875V101.558Z" fill="#111111"/>
<path d="M364.654 84.8594H363.613V86.8785H364.654V84.8594Z" fill="#111111"/>
<path d="M371.103 84.8594H370.062V86.9264H371.103V84.8594Z" fill="#111111"/>
<path d="M366.833 124.473H365.793V126.471H366.833V124.473Z" fill="#111111"/>
<path d="M358.646 84.8594H354.621V85.9819H358.646V84.8594Z" fill="#111111"/>
<path d="M358.535 125.436V124.478H359.596V123.438H355.168V124.478H357.495V125.436H356.147V126.476H360.575V125.436H358.535Z" fill="#111111"/>
<path d="M351.051 112.135V111.177H352.112V110.137H347.684V111.177H350.011V112.135H348.656V113.176H353.084V112.135H351.051Z" fill="#111111"/>
<path d="M357.45 121.469H353.035V122.509H357.45V121.469Z" fill="#111111"/>
<path d="M360.69 92.8203H357.59V93.8607H360.69V92.8203Z" fill="#111111"/>
<path d="M381.188 114.402H378.066V115.443H381.188V114.402Z" fill="#111111"/>
<path d="M371.294 93.3616V92.4102H370.254V93.3616V93.4437V94.4019H373.977V93.3616H371.294Z" fill="#111111"/>
<path d="M359.759 95.9582V95H358.719V95.9582V96.0403V96.9986H361.922V95.9582H359.759Z" fill="#111111"/>
<path d="M373.313 114.067V113.074L372.293 113.095V115.107H375.325V114.067H373.313Z" fill="#111111"/>
<path d="M370.334 99.5177H368.007V98.6484H366.926V101.516H367.966V100.558H370.334V99.5177Z" fill="#111111"/>
<path d="M361.923 104.821V104.027H360.883V105.862H363.799V104.821H361.923Z" fill="#111111"/>
<path d="M367.786 104.856V104.062H366.746V105.897H369.655V104.856H367.786Z" fill="#111111"/>
<path d="M379.233 105.981V105.188H378.199V107.022H381.108V105.981H379.233Z" fill="#111111"/>
<path d="M364.484 111.93H361.445V112.963H363.444V114.004H364.484V111.93Z" fill="#111111"/>
<path d="M379.007 102.996H377.289V104.098H379.007V102.996Z" fill="#111111"/>
<path d="M366.001 90.9492H362.613V91.9896H366.001V90.9492Z" fill="#111111"/>
<path d="M362.391 116.977H358.668V118.017H362.391V116.977Z" fill="#111111"/>
<path d="M360.728 119.184H357.34V120.224H360.728V119.184Z" fill="#111111"/>
<path d="M351.725 107.039H348.707V108.079H351.725V107.039Z" fill="#111111"/>
<path d="M354.587 87.9141H351.746H351.726H350.699V91.8702H351.74V88.9544H354.587V87.9141Z" fill="#111111"/>
<path d="M373.501 104.027H370.661H370.64H369.613V108.456H370.818V105.068H373.501V104.027Z" fill="#111111"/>
<path d="M365.99 91.9141H364.984V95.8634H366.025V92.9476H367.934V93.9264H369.077V91.9141H365.99Z" fill="#111111"/>
<path d="M382.157 96.1055H378.051V97.1458H382.157V96.1055Z" fill="#111111"/>
<path d="M376.207 123.555V124.588H377.391V125.546H378.431V124.588V124.506V123.555H376.207Z" fill="#111111"/>
<path d="M367.509 122.027H365.277V123.068H367.509V122.027Z" fill="#111111"/>
<path d="M348.556 101.094H346.324V102.134H348.556V101.094Z" fill="#111111"/>
<path d="M379.158 119.609H376.215V120.65H379.158V119.609Z" fill="#111111"/>
<path d="M371.165 101.883H368.934V102.923H371.165V101.883Z" fill="#111111"/>
<path d="M362.438 106.852H360.207V107.892H362.438V106.852Z" fill="#111111"/>
<path d="M346.391 93.9844H344.16V95.0247H346.391V93.9844Z" fill="#111111"/>
<path d="M371.275 112.125H369.543V113.165H371.275V112.125Z" fill="#111111"/>
<path d="M373.852 95.2773H371.621V96.3177H373.852V95.2773Z" fill="#111111"/>
<path d="M359.465 111.043H357.59V112.083H359.465V111.043Z" fill="#111111"/>
<path d="M356.559 104.696H354.684V105.736H356.559V104.696Z" fill="#111111"/>
<path d="M365.845 87.8945H363.613V88.9349H365.845V87.8945Z" fill="#111111"/>
<path d="M357.686 95.9023H355.715V96.9427H357.686V95.9023Z" fill="#111111"/>
<path d="M369.126 89.2695H366.895V90.3099H369.126V89.2695Z" fill="#111111"/>
<path d="M371.29 90.2656H369.059V91.306H371.29V90.2656Z" fill="#111111"/>
<path d="M381.127 121.406H379.129V122.447H381.127V121.406Z" fill="#111111"/>
<path d="M364.479 115.039H362.48V116.079H364.479V115.039Z" fill="#111111"/>
<path d="M356.698 117.008H351.66V118.048H356.698V117.008Z" fill="#111111"/>
<path d="M381.047 94.1133H376.27H376.003H375.223V98.0625H376.263V95.1468H381.047V94.1133Z" fill="#111111"/>
<path d="M374.293 98.9536V98.0638H375.292V97.0234H374.306H374.265H373.259V98.9536L372.137 98.9946V100.891H373.17V100.035H376.291V98.9946L374.293 98.9536Z" fill="#111111"/>
<path d="M374.08 120.636V119.705H375.325V118.645H373.039V120.636H372.02V122.738H373.06V121.697H376.202V120.636H374.08Z" fill="#111111"/>
<path d="M382.132 109.449V110.366H380.072V109.428H381.071V108.367H380.079H380.038H379.032V110.366H378.012V112.467H379.052V111.427H380.092V112.378H381.133V111.427H382.132V113.418H383.166V109.449H382.132Z" fill="#111111"/>
<path d="M352.694 103.175V104.092H350.695V103.155H351.653V102.094H349.675V104.092H348.676V106.187H349.798V105.146H350.674V106.105H351.715V105.146H352.694V107.145H353.707V103.175H352.694Z" fill="#111111"/>
<path d="M375.226 110.16V111.077H373.234V110.139H374.206V109.078H372.214V111.077H371.215V113.178H372.337V112.138H373.213L373.254 113.096H374.247V112.138H375.226V114.136H376.246V110.16H375.226Z" fill="#111111"/>
<path d="M360.882 98.9486V99.8658H358.89V98.9281H359.848V97.8672H357.87V99.8658H356.871V101.967H354.605V103.007H357.994V100.927H358.87V101.885H359.91V100.927H360.882V102.918H361.902V98.9486H360.882Z" fill="#111111"/>
<path d="M361.655 88.0619V88.9722H359.657V88.0414H360.615V86.9805H358.637V88.9722H357.645V91.0119H358.719V90.0331H359.698V91.0119H360.738V90.0331H361.655V91.9907H362.675V88.0619H361.655Z" fill="#111111"/>
<path d="M356.627 90.9916V91.9087H354.649V90.971H355.607V89.9102H353.629V91.9087H352.609V94.0032H353.65V92.9696H354.587V93.9827H355.628V92.9696H356.627V94.9614H357.667V90.9916H356.627Z" fill="#111111"/>
<path d="M380.072 100.035V99.1039H381.071V98.043H380.079H380.038H379.032V100.035H378.012V102.136H379.052V101.096H382.194V100.035H380.072Z" fill="#111111"/>
<path d="M381.11 124.422V125.421H377.387V126.462H382.171V125.462V125.421V124.422H381.11Z" fill="#111111"/>
<path d="M343.277 111.912H344.687V110.871H343.626V109.975H342.565V108.25H341.531V115.464H342.565V113.924H343.605V112.945H342.565V111.912H343.277Z" fill="#111111"/>
<path d="M373.901 124.585V122.696H369.89V121.594H368.891V123.572H367.953V124.564H368.891V126.481H369.89V123.695H372.82V124.585H370.883V125.564H371.8V126.481H372.778V125.564H375.249V126.481H376.228V125.57V125.488V124.585H373.901Z" fill="#111111"/>
<path d="M344.815 103.117V102.117H343.781V103.117H341.598V104.157H342.802V105.088H343.843V104.157H345.67V105.129H346.711V104.157H348.702V103.117H344.815Z" fill="#111111"/>
<path d="M368.674 108.167V107.168H367.531V108.167H365.539V109.208H366.559V110.139H367.592V109.208H369.612V110.18H370.796V109.208H373.253V108.167H368.674Z" fill="#111111"/>
<path d="M355.623 93.9446H351.735V92.9453H350.695V93.9446H348.512V94.985H352.584V95.9637H353.625V94.985H355.623V93.9446Z" fill="#111111"/>
<path d="M372.959 86.8782H369.071V85.8789H368.031V86.8782H365.848V87.9117H370.05V88.8905H371.091V87.9117H372.959V86.8782Z" fill="#111111"/>
<path d="M362.499 114.024H358.611V113.031H357.571V114.024H355.395V115.064H359.467V116.043H360.507V115.064H362.499V114.024Z" fill="#111111"/>
<path d="M346.69 105.109V106.109H345.691V105.109H344.65V106.109H341.598V107.149H346.69V108.23H344.63V109.209H346.69V111.18H347.73V107.149V107.074V106.15V106.109V105.109H346.69Z" fill="#111111"/>
<path d="M353.604 95.9219V96.9212H352.605V95.9219H351.571V96.9212H348.512V97.9547H353.604V99.0361H351.551V100.015H353.604V101.993H354.644V97.9547V97.8862V96.9554V96.9212V95.9219H353.604Z" fill="#111111"/>
<path d="M422 157.961H303.59V195.606H422V157.961Z" fill="#053575"/>
</svg>
