<svg width="432" height="432" viewBox="0 0 432 432" fill="none" xmlns="http://www.w3.org/2000/svg">
<path d="M219.116 178.533C237.563 178.533 252.517 162.086 252.517 141.797C252.517 121.509 237.563 105.062 219.116 105.062C200.669 105.062 185.715 121.509 185.715 141.797C185.715 162.086 200.669 178.533 219.116 178.533Z" fill="#053575"/>
<path d="M210.297 145.892C211.912 152.19 218.436 162.461 231.614 153.159" stroke="#FEFEFE" stroke-width="3" stroke-linecap="round"/>
<mask id="mask0_221_41765" style="mask-type:luminance" maskUnits="userSpaceOnUse" x="138" y="2" width="73" height="147">
<path d="M138.527 58.7594C138.527 58.7594 157.244 51.1117 162.316 54.188C167.388 57.2643 162.418 61.6166 159.373 62.2428C156.328 62.869 145.024 66.4542 145.024 66.4542L145.095 66.8456C149.142 65.0921 153.533 64.1293 157.94 64.0197C159.788 63.9727 162.05 64.3641 162.684 66.1019C163.083 67.19 162.614 68.4502 161.823 69.2956C161.032 70.141 159.96 70.6733 158.919 71.1821L147.733 74.008C150.942 72.3563 151.678 72.5912 155.122 71.5188C160.477 69.8514 164.023 76.1998 158.676 77.734C152.281 79.5657 145.831 84.9747 145.596 99.284C145.134 127.91 174.387 147.308 174.692 148.826L210.097 8.865L152.797 2L138.52 58.7516L138.527 58.7594Z" fill="white"/>
</mask>
<g mask="url(#mask0_221_41765)">
<path d="M139.469 53.089L152.729 13.6838C153.927 10.1222 157.582 8.0165 161.269 8.76015L188.698 14.3022C193.042 15.1789 195.665 19.6329 194.318 23.86L175.43 83.2887C174.514 86.1693 171.571 87.8914 168.612 87.2809L149.927 83.4296" fill="#00A6E8"/>
</g>
<path d="M147.267 72.5206C150.602 70.8142 151.369 71.0568 154.946 69.9453C160.504 68.2232 164.175 74.822 158.625 76.4032C151.98 78.2975 145.279 83.9022 145.013 98.7516C144.488 128.466 174.203 153.374 174.524 154.955L183.291 163.965L158.359 206C137.545 188.951 114.704 160.474 113.154 119.73C111.04 64.0666 144.809 41.4599 146.993 39.7378C146.993 39.7378 168.825 24.8258 139.322 57.9609C139.322 57.9609 157.741 50.4305 162.735 53.4677C167.729 56.4971 162.829 60.7789 159.839 61.3973C156.849 62.0157 145.717 65.5461 145.717 65.5461" fill="#053575"/>
<path d="M147.267 72.5206C150.602 70.8142 151.369 71.0568 154.946 69.9453C160.504 68.2232 164.175 74.822 158.625 76.4032C151.98 78.2975 145.279 83.9022 145.013 98.7516C144.488 128.466 174.203 153.374 174.524 154.955L183.291 163.965L158.359 206C137.545 188.951 114.704 160.474 113.154 119.73C111.04 64.0666 144.809 41.4599 146.993 39.7378C146.993 39.7378 168.825 24.8258 139.322 57.9609C139.322 57.9609 157.741 50.4305 162.735 53.4677C167.729 56.4971 162.829 60.7789 159.839 61.3973C156.849 62.0157 145.717 65.5461 145.717 65.5461" stroke="#FEFEFE" stroke-width="3" stroke-linecap="round" stroke-linejoin="round"/>
<path d="M144.543 65.0766C148.746 63.2605 153.31 62.2664 157.889 62.1647C159.807 62.1177 162.156 62.5247 162.813 64.3329C163.22 65.468 162.735 66.7674 161.913 67.652C161.091 68.5287 148.645 71.8398 147.557 72.3721" fill="#053575"/>
<path d="M144.543 65.0766C148.746 63.2605 153.31 62.2664 157.889 62.1647C159.807 62.1177 162.156 62.5247 162.813 64.3329C163.22 65.468 162.735 66.7674 161.913 67.652C161.091 68.5287 148.645 71.8398 147.557 72.3721" stroke="#FEFEFE" stroke-width="3" stroke-linecap="round" stroke-linejoin="round"/>
<path d="M208.168 421.907L201.491 421.884L200.912 415.199L196.027 422.463L158.344 422.314C156.411 422.314 155.683 419.778 157.319 418.745L166.696 412.827C169.804 410.862 171.503 407.293 171.064 403.637L159.44 307.543L210.18 298.94V300.177L209.24 421.9L215.918 421.923L216.552 415.246L221.381 422.549L259.064 422.698C260.998 422.698 261.742 420.185 260.113 419.136L250.783 413.148C247.691 411.16 246.015 407.575 246.485 403.927L258.869 307.927L210.008 301.79" fill="#053575"/>
<path d="M208.168 421.907L201.491 421.884L200.912 415.199L196.027 422.463L158.344 422.314C156.411 422.314 155.683 419.778 157.319 418.745L166.696 412.827C169.804 410.862 171.503 407.293 171.064 403.637L159.44 307.543L210.18 298.94V300.177L209.24 421.9L215.918 421.923L216.552 415.246L221.381 422.549L259.064 422.698C260.998 422.698 261.742 420.185 260.113 419.136L250.783 413.148C247.691 411.16 246.015 407.575 246.485 403.927L258.869 307.927L210.008 301.79" stroke="#FEFEFE" stroke-width="3" stroke-linecap="round" stroke-linejoin="round"/>
<path d="M223.45 128.341C223.45 128.341 227.888 144.137 229.289 146.627C230.683 149.116 219.059 144.865 219.059 144.865" stroke="#FEFEFE" stroke-width="3" stroke-linecap="round" stroke-linejoin="round"/>
<path d="M231.605 130.877C232.044 133.084 233.711 134.752 235.754 134.807C237.578 134.861 239.183 133.609 239.903 131.785" stroke="#FEFEFE" stroke-width="3" stroke-linecap="round" stroke-linejoin="round"/>
<path d="M207.18 128.707C207.618 130.914 209.285 132.582 211.328 132.637C213.152 132.691 214.757 131.439 215.477 129.615" stroke="#FEFEFE" stroke-width="3" stroke-linecap="round" stroke-linejoin="round"/>
<path d="M253.51 164.269C260.539 167.369 267.741 170.226 275.208 171.737C289.408 174.61 277.925 158.422 274.817 153.302C266.222 139.11 257.635 124.919 249.04 110.727C248.085 109.146 247.13 107.564 246.167 105.983C243.044 101.474 239.944 96.9499 236.868 92.4097C234.864 89.4587 232.68 86.5389 230.895 83.4547C228.703 79.6661 231.889 73.2003 236.523 76.488C239.96 78.9303 251.255 92.1123 251.255 92.1123C249.807 88.8011 248.406 85.4665 247.044 82.1162C245.635 78.6406 241.948 73.5917 242.911 69.6387C243.67 66.5232 247.005 65.3725 249.682 66.351C253.15 67.6269 260.836 84.214 260.836 84.214C260.836 84.214 262.175 78.4136 269.15 79.7835C279.075 81.7561 291.255 111.032 295.741 118.672C298.292 123.032 301.048 127.275 303.725 131.557C311.608 144.152 319.858 157.482 322.95 172.214C324.343 178.844 324.531 185.85 322.222 192.3C319.6 199.643 315.999 204.41 308.516 207.283C287.334 215.424 271.756 210.539 251.318 203.87" fill="#053575"/>
<path d="M253.51 164.269C260.539 167.369 267.741 170.226 275.208 171.737C289.408 174.61 277.925 158.422 274.817 153.302C266.222 139.11 257.635 124.919 249.04 110.727C248.085 109.146 247.13 107.564 246.167 105.983C243.044 101.474 239.944 96.9499 236.868 92.4097C234.864 89.4587 232.68 86.5389 230.895 83.4547C228.703 79.6661 231.889 73.2003 236.523 76.488C239.96 78.9303 251.255 92.1123 251.255 92.1123C249.807 88.8011 248.406 85.4665 247.044 82.1162C245.635 78.6406 241.948 73.5917 242.911 69.6387C243.67 66.5232 247.005 65.3725 249.682 66.351C253.15 67.6269 260.836 84.214 260.836 84.214C260.836 84.214 262.175 78.4136 269.15 79.7835C279.075 81.7561 291.255 111.032 295.741 118.672C298.292 123.032 301.048 127.275 303.725 131.557C311.608 144.152 319.858 157.482 322.95 172.214C324.343 178.844 324.531 185.85 322.222 192.3C319.6 199.643 315.999 204.41 308.516 207.283C287.334 215.424 271.756 210.539 251.318 203.87" stroke="#FEFEFE" stroke-width="3" stroke-linecap="round" stroke-linejoin="round"/>
<path d="M251.93 105.914C252.517 100.301 253.519 95.7455 258.599 91.6515C260.157 90.3991 262.38 90.4226 263.906 91.722C265.62 93.178 265.863 95.7298 264.462 97.4911L259.695 103.472C259.695 103.472 264.415 101.562 269.002 104.912" stroke="#FEFEFE" stroke-width="3" stroke-linecap="round" stroke-linejoin="round"/>
<path d="M270.52 89.7011L273.674 94.4134C274.895 96.3704 277.557 96.8166 279.349 95.3606C280.743 94.2334 281.111 92.2608 280.21 90.703L278.793 88.2451" stroke="#FEFEFE" stroke-width="3" stroke-linecap="round" stroke-linejoin="round"/>
<path d="M335.774 281.462L324.228 264.992C293.739 285.9 256.909 298.073 217.324 297.916C176.377 297.752 138.49 284.429 107.586 261.955L95.9225 278.464C94.3178 280.734 94.8579 283.881 97.1437 285.462C131.351 309.102 172.698 323.02 217.222 323.2C260.4 323.372 300.682 310.597 334.436 288.515C336.792 286.973 337.387 283.771 335.774 281.47V281.462Z" fill="#FF8CC5"/>
<path d="M324.228 264.992L309.755 244.343C283.391 262.315 251.586 272.773 217.418 272.64C181.856 272.499 148.956 260.906 122.13 241.368L107.578 261.963C138.482 284.437 176.369 297.767 217.316 297.924C256.909 298.081 293.739 285.901 324.22 265L324.228 264.992Z" fill="#FF8CC5"/>
<path d="M309.757 244.343L295.284 223.693C273.037 238.73 246.266 247.474 217.515 247.357C187.338 247.239 159.417 237.384 136.685 220.766L122.133 241.353C148.951 260.899 181.859 272.492 217.421 272.625C251.589 272.758 283.393 262.3 309.757 244.327V244.343Z" fill="#FF8CC5"/>
<path d="M295.291 223.7L280.809 203.043C262.688 215.152 240.95 222.182 217.615 222.088C192.825 221.994 169.889 213.869 151.236 200.186L136.684 220.773C159.423 237.383 187.337 247.246 217.513 247.364C246.265 247.473 273.036 238.738 295.283 223.7H295.291Z" fill="#FF8CC5"/>
<path d="M280.808 203.04L266.327 182.382C252.33 191.564 235.626 196.879 217.716 196.809C198.303 196.731 180.362 190.343 165.786 179.596L151.234 200.191C169.888 213.874 192.823 221.999 217.614 222.093C240.949 222.187 262.687 215.157 280.808 203.048V203.04Z" fill="#FF8CC5"/>
<path d="M262.251 176.561L254.243 165.132C252.928 163.253 250.408 162.69 248.396 163.793C239.316 168.772 228.889 171.582 217.82 171.535C205.312 171.488 193.672 167.801 183.863 161.476C181.844 160.169 179.159 160.678 177.766 162.643L165.789 179.59C180.364 190.345 198.306 196.733 217.719 196.803C235.629 196.874 252.341 191.559 266.329 182.377L262.243 176.553" fill="#FF8CC5"/>
<path d="M240.598 110.854C240.598 110.854 247.877 127.152 248.003 145.829C248.003 145.829 247.877 152.819 246.492 158.761" stroke="#FEFEFE" stroke-width="3" stroke-linecap="round" stroke-linejoin="round"/>
<path d="M218.521 108.183C219.781 112.05 226.122 127.792 246.599 129.522C247.147 129.569 247.601 129.968 247.688 130.508C248.243 134.062 249.942 147.127 246.427 155.385C245.84 156.763 247.054 158.227 248.502 157.859C253.48 156.606 262.099 154.015 268.971 149.749C271.829 147.972 271.797 143.816 268.964 142C262.952 138.164 254.177 131.526 252.94 124.81C251.03 114.469 238.294 93.3967 219.054 94.6726C199.813 95.9485 191.304 109.467 189.637 115.753C188.181 121.225 182.216 137.052 172.987 143.111C170.599 144.677 170.177 148.019 172.024 150.203C174.858 153.553 179.703 157.788 187.421 160.434C189.449 161.131 191.398 159.174 190.67 157.154C188.783 151.91 187.006 141.976 190.224 125.412C190.302 125.029 190.615 124.724 191.014 124.684C194.615 124.34 212.079 121.96 217.934 108.16C218.051 107.886 218.435 107.894 218.521 108.176V108.183Z" fill="#FEFEFE"/>
</svg>
