<svg width="432" height="432" viewBox="0 0 432 432" fill="none" xmlns="http://www.w3.org/2000/svg">
<path d="M191.464 159.156C191.233 158.745 190.944 158.376 190.627 158.029C190.598 157.995 190.552 157.977 190.523 157.943C190.223 157.544 189.876 157.169 189.593 156.764C189.201 156.198 188.802 155.621 188.375 155.089C187.983 154.593 187.619 154.067 187.197 153.588C186.863 153.206 186.626 152.739 186.326 152.323C186.014 151.889 185.633 151.497 185.356 151.046C184.853 150.22 184.201 149.516 183.624 148.747C183.046 147.979 182.452 147.211 181.591 146.72C180.552 146.131 179.513 146.05 178.428 146.581C178.075 146.755 177.718 146.899 177.406 147.153C176.88 147.581 176.442 148.077 176.245 148.747C175.957 149.735 175.922 150.705 176.419 151.67C176.782 152.38 177.354 152.843 177.96 153.299C179.219 154.246 180.57 155.049 181.851 155.956C182.787 156.614 183.704 157.29 184.628 157.96C185.425 158.538 186.268 159.063 187.105 159.583C188.023 160.155 188.918 160.761 189.79 161.402C190.471 161.899 191.117 162.442 191.851 162.864C192.053 162.979 192.197 163.164 192.376 163.303" fill="#FF4351"/>
<path d="M191.464 159.156C191.233 158.745 190.944 158.376 190.627 158.029C190.598 157.995 190.552 157.977 190.523 157.943C190.223 157.544 189.876 157.169 189.593 156.764C189.201 156.198 188.802 155.621 188.375 155.089C187.983 154.593 187.619 154.067 187.197 153.588C186.863 153.206 186.626 152.739 186.326 152.323C186.014 151.889 185.633 151.497 185.356 151.046C184.853 150.22 184.201 149.516 183.624 148.747C183.046 147.979 182.452 147.211 181.591 146.72C180.552 146.131 179.513 146.05 178.428 146.581C178.075 146.755 177.718 146.899 177.406 147.153C176.88 147.581 176.442 148.077 176.245 148.747C175.957 149.735 175.922 150.705 176.419 151.67C176.782 152.38 177.354 152.843 177.96 153.299C179.219 154.246 180.57 155.049 181.851 155.956C182.787 156.614 183.704 157.29 184.628 157.96C185.425 158.538 186.268 159.063 187.105 159.583C188.023 160.155 188.918 160.761 189.79 161.402C190.471 161.899 191.117 162.442 191.851 162.864C192.053 162.979 192.197 163.164 192.376 163.303" stroke="#FF4351" stroke-width="3" stroke-linecap="round" stroke-linejoin="round"/>
<path d="M187.535 143.53C187.795 143.362 187.679 143.056 187.789 142.825C188.118 142.103 188.499 141.451 189.192 140.994C190.37 140.215 191.617 140.284 192.876 140.653C193.349 140.792 193.776 141.127 194.123 141.497C194.325 141.71 194.469 142.005 194.579 142.277C194.913 143.085 195.058 143.946 195.104 144.829C195.185 146.279 195.092 147.723 195.087 149.173C195.087 150.357 195.162 151.535 195.162 152.719C195.162 154.186 195.277 155.653 195.185 157.115C195.11 158.299 195.133 159.477 195.121 160.661C195.121 160.8 195.098 160.944 195.185 161.077" fill="#FF4351"/>
<path d="M187.535 143.53C187.795 143.362 187.679 143.056 187.789 142.825C188.118 142.103 188.499 141.451 189.192 140.994C190.37 140.215 191.617 140.284 192.876 140.653C193.349 140.792 193.776 141.127 194.123 141.497C194.325 141.71 194.469 142.005 194.579 142.277C194.913 143.085 195.058 143.946 195.104 144.829C195.185 146.279 195.092 147.723 195.087 149.173C195.087 150.357 195.162 151.535 195.162 152.719C195.162 154.186 195.277 155.653 195.185 157.115C195.11 158.299 195.133 159.477 195.121 160.661C195.121 160.8 195.098 160.944 195.185 161.077" stroke="#FF4351" stroke-width="3" stroke-linecap="round" stroke-linejoin="round"/>
<path d="M176.496 151.98C176.081 152.119 175.654 152.188 175.238 152.333C174.476 152.593 173.91 153.136 173.344 153.667C173.125 153.875 173.021 154.222 172.911 154.522C172.721 155.042 172.438 155.55 172.501 156.128C172.553 156.619 172.617 157.092 172.871 157.56C173.321 158.386 173.841 159.033 174.562 159.431C174.978 159.662 175.446 159.761 175.896 159.888C177.386 160.304 178.887 160.644 180.393 160.991C181.756 161.303 183.165 161.424 184.504 161.834C186.19 162.348 187.91 162.695 189.614 163.128C190.324 163.307 191.045 163.48 191.721 163.792" fill="#FF4351"/>
<path d="M176.496 151.98C176.081 152.119 175.654 152.188 175.238 152.333C174.476 152.593 173.91 153.136 173.344 153.667C173.125 153.875 173.021 154.222 172.911 154.522C172.721 155.042 172.438 155.55 172.501 156.128C172.553 156.619 172.617 157.092 172.871 157.56C173.321 158.386 173.841 159.033 174.562 159.431C174.978 159.662 175.446 159.761 175.896 159.888C177.386 160.304 178.887 160.644 180.393 160.991C181.756 161.303 183.165 161.424 184.504 161.834C186.19 162.348 187.91 162.695 189.614 163.128C190.324 163.307 191.045 163.48 191.721 163.792" stroke="#FF4351" stroke-width="3" stroke-linecap="round" stroke-linejoin="round"/>
<path d="M196.705 160.867C196.416 160.428 196.341 159.989 196.532 159.475C196.722 158.96 196.838 158.412 196.953 157.869C197.34 156.049 197.721 154.23 198.091 152.405C198.31 151.342 198.506 150.268 198.731 149.205C198.783 148.945 198.778 148.656 198.997 148.454C198.997 148.454 199.805 144.446 199.089 142.355C198.985 142.309 198.957 142.21 198.91 142.112C198.749 141.777 198.489 141.517 198.195 141.315C197.225 140.662 196.168 140.368 195.013 140.622C194.621 140.709 194.194 140.778 193.945 141.171" fill="#FF4351"/>
<path d="M196.705 160.867C196.416 160.428 196.341 159.989 196.532 159.475C196.722 158.96 196.838 158.412 196.953 157.869C197.34 156.049 197.721 154.23 198.091 152.405C198.31 151.342 198.506 150.268 198.731 149.205C198.783 148.945 198.778 148.656 198.997 148.454C198.997 148.454 199.805 144.446 199.089 142.355C198.985 142.309 198.957 142.21 198.91 142.112C198.749 141.777 198.489 141.517 198.195 141.315C197.225 140.662 196.168 140.368 195.013 140.622C194.621 140.709 194.194 140.778 193.945 141.171" stroke="#FF4351" stroke-width="3" stroke-linecap="round" stroke-linejoin="round"/>
<path d="M196.357 160.33C195.872 160.498 195.509 160.861 195.122 161.162C194.706 161.485 194.325 161.861 193.898 162.178C193.632 162.38 193.372 162.577 193.124 162.796C192.778 163.102 192.426 163.409 192.033 163.657C191.577 163.946 191.231 164.35 190.746 164.673C190.595 164.662 190.376 164.61 190.162 164.627C188.667 164.743 187.178 164.552 185.682 164.552C184.251 164.552 182.813 164.448 181.381 164.419C180.18 164.39 178.979 164.437 177.779 164.338C177.403 164.31 176.982 164.246 176.624 164.483C176.624 164.483 170.764 165.482 173.021 159.516" fill="#FF4351"/>
<path d="M196.357 160.33C195.872 160.498 195.509 160.861 195.122 161.162C194.706 161.485 194.325 161.861 193.898 162.178C193.632 162.38 193.372 162.577 193.124 162.796C192.778 163.102 192.426 163.409 192.033 163.657C191.577 163.946 191.231 164.35 190.746 164.673C190.595 164.662 190.376 164.61 190.162 164.627C188.667 164.743 187.178 164.552 185.682 164.552C184.251 164.552 182.813 164.448 181.381 164.419C180.18 164.39 178.979 164.437 177.779 164.338C177.403 164.31 176.982 164.246 176.624 164.483C176.624 164.483 170.764 165.482 173.021 159.516" stroke="#FF4351" stroke-width="3" stroke-linecap="round" stroke-linejoin="round"/>
<path d="M180.875 146.324C181.002 145.561 181.158 144.793 181.568 144.14C182.111 143.28 182.792 142.604 183.906 142.46C184.772 142.35 185.575 142.379 186.383 142.714C186.654 142.824 186.845 143.049 187.099 143.182C187.566 143.436 187.745 143.956 188.092 144.32C188.248 144.481 188.3 144.747 188.386 144.972C188.773 146.018 189.142 147.063 189.57 148.097C189.818 148.703 190.008 149.339 190.211 149.968C190.413 150.598 190.73 151.193 190.978 151.811C191.307 152.643 191.613 153.48 191.931 154.318C192.231 155.103 192.462 155.923 192.785 156.691C193.236 157.777 193.588 158.898 194.015 159.984C194.177 160.394 194.281 160.827 194.483 161.226C194.529 161.318 194.593 161.399 194.639 161.485" fill="#FF4351"/>
<path d="M180.875 146.324C181.002 145.561 181.158 144.793 181.568 144.14C182.111 143.28 182.792 142.604 183.906 142.46C184.772 142.35 185.575 142.379 186.383 142.714C186.654 142.824 186.845 143.049 187.099 143.182C187.566 143.436 187.745 143.956 188.092 144.32C188.248 144.481 188.3 144.747 188.386 144.972C188.773 146.018 189.142 147.063 189.57 148.097C189.818 148.703 190.008 149.339 190.211 149.968C190.413 150.598 190.73 151.193 190.978 151.811C191.307 152.643 191.613 153.48 191.931 154.318C192.231 155.103 192.462 155.923 192.785 156.691C193.236 157.777 193.588 158.898 194.015 159.984C194.177 160.394 194.281 160.827 194.483 161.226C194.529 161.318 194.593 161.399 194.639 161.485" stroke="#FF4351" stroke-width="3" stroke-linecap="round" stroke-linejoin="round"/>
<path d="M191.383 159.229C191.423 159.189 191.498 159.154 191.521 159.206C191.902 160.026 192.589 160.604 193.098 161.326C193.311 161.626 193.507 161.938 193.698 162.256" fill="#FF4351"/>
<path d="M191.383 159.229C191.423 159.189 191.498 159.154 191.521 159.206C191.902 160.026 192.589 160.604 193.098 161.326C193.311 161.626 193.507 161.938 193.698 162.256" stroke="#FF4351" stroke-width="3" stroke-linecap="round" stroke-linejoin="round"/>
<path d="M196.955 183.738C197.059 183.639 197.093 183.518 197.105 183.38C197.192 182.311 197.232 181.231 197.394 180.174C197.665 178.389 197.809 176.599 197.884 174.802C197.919 174.023 197.931 173.249 197.931 172.469C197.931 171.678 197.809 170.886 197.567 170.147C197.226 169.113 196.701 168.16 196.008 167.311C195.535 166.733 194.963 166.341 194.195 166.283C193.808 166.254 193.416 166.214 193.035 166.144C192.099 165.977 191.424 165.428 190.91 164.643L196.776 160.859C197.18 161.477 197.197 162.147 197.076 162.841C197.013 163.199 196.926 163.551 196.88 163.909C196.793 164.591 196.972 165.22 197.255 165.832C197.509 166.375 197.815 166.884 198.11 167.403C198.364 167.848 198.491 168.351 198.658 168.83C198.929 169.621 199.068 170.447 199.189 171.273C199.368 172.469 199.403 173.653 199.316 174.854C199.258 175.703 199.172 176.552 199.126 177.407C199.056 178.661 198.82 179.897 198.756 181.156C198.704 182.265 198.652 183.385 198.554 184.494C198.543 184.65 198.554 184.795 198.687 184.899" fill="#00CE7C"/>
<path d="M196.955 183.738C197.059 183.639 197.093 183.518 197.105 183.38C197.192 182.311 197.232 181.231 197.394 180.174C197.665 178.389 197.809 176.599 197.884 174.802C197.919 174.023 197.931 173.249 197.931 172.469C197.931 171.678 197.809 170.886 197.567 170.147C197.226 169.113 196.701 168.16 196.008 167.311C195.535 166.733 194.963 166.341 194.195 166.283C193.808 166.254 193.416 166.214 193.035 166.144C192.099 165.977 191.424 165.428 190.91 164.643L196.776 160.859C197.18 161.477 197.197 162.147 197.076 162.841C197.013 163.199 196.926 163.551 196.88 163.909C196.793 164.591 196.972 165.22 197.255 165.832C197.509 166.375 197.815 166.884 198.11 167.403C198.364 167.848 198.491 168.351 198.658 168.83C198.929 169.621 199.068 170.447 199.189 171.273C199.368 172.469 199.403 173.653 199.316 174.854C199.258 175.703 199.172 176.552 199.126 177.407C199.056 178.661 198.82 179.897 198.756 181.156C198.704 182.265 198.652 183.385 198.554 184.494C198.543 184.65 198.554 184.795 198.687 184.899" stroke="#00CE7C" stroke-width="3" stroke-linecap="round" stroke-linejoin="round"/>
<path d="M176.402 151.66C176.766 152.371 177.338 152.833 177.944 153.289C179.202 154.236 180.553 155.039 181.835 155.946C182.77 156.604 183.688 157.28 184.612 157.95C185.409 158.528 186.252 159.053 187.089 159.573C188.007 160.145 188.902 160.751 189.773 161.393C190.455 161.889 191.101 162.432 191.835 162.854C192.037 162.969 192.181 163.154 192.36 163.293" stroke="#FEFEFE" stroke-width="3" stroke-linecap="round" stroke-linejoin="round"/>
<path d="M191.459 159.165C191.229 158.755 190.94 158.386 190.622 158.039C190.593 158.004 190.547 157.987 190.518 157.952C190.218 157.554 189.872 157.178 189.589 156.774C189.196 156.208 188.798 155.631 188.371 155.099C187.978 154.602 187.614 154.077 187.193 153.597C186.858 153.216 186.621 152.748 186.321 152.333C186.009 151.899 185.628 151.507 185.351 151.056C184.849 150.23 184.197 149.525 183.619 148.757C183.331 148.376 183.036 147.989 182.707 147.637" stroke="#FEFEFE" stroke-width="3" stroke-linecap="round" stroke-linejoin="round"/>
<path d="M195.127 144.84C195.202 146.29 195.104 147.734 195.093 149.183C195.081 150.367 195.162 151.546 195.15 152.73C195.145 154.197 195.248 155.664 195.15 157.125C195.069 158.309 195.087 159.487 195.069 160.672C195.069 160.81 195.046 160.955 195.127 161.087" stroke="#FEFEFE" stroke-width="3" stroke-linecap="round" stroke-linejoin="round"/>
<path d="M174.551 159.43C174.966 159.661 175.434 159.759 175.884 159.886C177.374 160.302 178.875 160.643 180.382 160.989C181.744 161.301 183.153 161.422 184.493 161.832C186.178 162.347 187.899 162.693 189.602 163.126C190.312 163.305 191.034 163.479 191.709 163.79" stroke="#FEFEFE" stroke-width="3" stroke-linecap="round" stroke-linejoin="round"/>
<path d="M188.363 144.996C188.75 146.042 189.12 147.087 189.547 148.121C189.795 148.727 189.986 149.363 190.188 149.992C190.39 150.622 190.707 151.217 190.956 151.835C191.285 152.666 191.591 153.504 191.908 154.341C192.208 155.127 192.439 155.947 192.763 156.715C193.213 157.801 193.565 158.922 193.992 160.008C194.154 160.418 194.258 160.851 194.46 161.249C194.506 161.342 194.57 161.423 194.616 161.509" stroke="#FEFEFE" stroke-width="3" stroke-linecap="round" stroke-linejoin="round"/>
<path d="M191.375 159.229C191.415 159.189 191.49 159.154 191.514 159.206C191.895 160.026 192.582 160.604 193.09 161.326C193.303 161.626 193.5 161.938 193.69 162.256" stroke="#FEFEFE" stroke-width="3" stroke-linecap="round" stroke-linejoin="round"/>
<path d="M227.968 185.04C226.906 180.541 226.334 175.88 226.178 171.265C226.057 167.695 226.161 164.056 227.073 160.585C228.228 156.184 229.948 152.279 230.33 147.647C230.866 141.149 229.515 135.419 226.825 129.615C225.572 126.912 224.562 124.081 223.702 121.228C222.94 118.716 221.721 115.348 222.322 112.68C223.136 109.058 217.576 107.516 216.756 111.143C215.388 117.202 218.413 124.347 220.688 129.851C221.554 131.948 222.784 133.97 223.459 136.13C224.608 139.832 224.891 143.789 224.562 147.641C224.175 152.187 222.074 156.091 221.179 160.481C220.411 164.27 220.267 168.174 220.44 172.021C220.665 176.884 221.288 181.823 222.408 186.565C223.257 190.181 228.828 188.65 227.974 185.029L227.968 185.04Z" fill="#00CE7C"/>
<path d="M224.049 170.88C224.049 170.88 228.304 161.523 238.222 159.738C246.692 158.219 247.997 156.48 247.997 156.48C247.997 156.48 243.759 179.844 224.043 170.88H224.049Z" fill="#00CE7C" stroke="#00CE7C" stroke-width="3" stroke-linecap="round" stroke-linejoin="round"/>
<path d="M217.668 112.802C217.668 112.802 218.557 102.561 227.315 97.5705C234.792 93.3079 235.444 91.2344 235.444 91.2344C235.444 91.2344 239.243 114.673 217.668 112.807V112.802Z" fill="#00CE7C" stroke="#00CE7C" stroke-width="3" stroke-linecap="round" stroke-linejoin="round"/>
<path d="M225.405 140.884C225.405 140.884 221.15 131.527 211.231 129.742C202.762 128.223 201.457 126.484 201.457 126.484C201.457 126.484 205.695 149.848 225.411 140.884H225.405Z" fill="#00CE7C" stroke="#00CE7C" stroke-width="3" stroke-linecap="round" stroke-linejoin="round"/>
<path d="M140.868 344.244L249.373 344.076C267.443 345.543 282.939 339.975 298.897 331.502C314.929 322.994 339.062 316.346 346.007 299.215C349.864 289.702 347.682 283.539 335.719 282.078C327.094 281.027 318.538 282.286 310.005 283.689C306.564 284.255 303.157 285.029 299.74 285.711C295.981 287.178 292.176 288.472 286.807 289.101C290.877 286.161 293.885 283.99 296.893 281.824C297.217 280.796 297.355 279.548 299.058 280.247L299.001 280.333C298.354 278.283 300.409 277.717 301.431 276.672C307.632 270.335 313.746 263.936 317.96 256.202C325.171 242.952 319.196 233.202 303.585 232.942C291.801 232.746 281.559 237.69 271.606 243.166C260.082 249.502 249.581 257.276 239.044 264.987C237.999 265.749 236.798 266.321 235.673 266.98C231.903 270.826 227.798 274.298 222.734 277.405C222.371 274.205 225.327 272.94 226.095 270.751C227.076 264.259 230.528 258.472 232.468 252.24C236.371 239.717 240.28 227.207 239.246 214.073C238.923 209.943 238.686 205.773 235.921 202.082C232.676 197.744 227.313 195.156 221.678 196.063C212.879 197.473 206.667 202.734 200.98 208.764C194.099 216.065 188.643 224.29 183.522 232.729C178.741 242.086 173.869 251.396 169.331 261.03C169.1 251.968 167.293 243.275 165.601 234.571L165.561 234.375C165.347 233.745 165.134 233.116 164.914 232.486L164.862 232.382C164.706 232.059 164.556 231.735 164.4 231.406C163.153 229.055 162.091 226.589 160.619 224.377C155.244 216.267 148.258 215.112 139.581 220.599C135.129 223.418 132.15 227.409 129.206 231.475C124.662 241.733 122.301 252.344 122.642 263.375C123.508 291.516 129.01 318.604 140.874 344.244H140.868Z" fill="#00CE7C"/>
<path d="M242.139 216.246H178.707V343.165H242.139V216.246Z" fill="#FEFEFE" stroke="#FEFEFE" stroke-width="3" stroke-linecap="round" stroke-linejoin="round"/>
<path d="M255.397 199.723H161.332V214.503H255.397V199.723Z" fill="#FEFEFE" stroke="#FEFEFE" stroke-width="3" stroke-linecap="round" stroke-linejoin="round"/>
<path d="M193.603 197.202H197.101C199.63 197.202 201.749 195.394 201.974 193.026L202.944 184.114C203.031 183.334 202.419 182.652 201.633 182.652H189.065C188.28 182.652 187.668 183.334 187.754 184.114L188.724 193.026C188.955 195.388 191.068 197.202 193.597 197.202H193.603Z" fill="#203AE9" stroke="#203AE9" stroke-width="3" stroke-linecap="round" stroke-linejoin="round"/>
<path d="M224.013 197.202H227.512C230.04 197.202 232.159 195.394 232.384 193.026L233.354 184.114C233.441 183.334 232.829 182.652 232.044 182.652H219.475C218.69 182.652 218.078 183.334 218.164 184.114L219.134 193.026C219.365 195.388 221.478 197.202 224.007 197.202H224.013Z" fill="#053575" stroke="#053575" stroke-width="3" stroke-linecap="round" stroke-linejoin="round"/>
<path d="M269.725 135.968C269.956 135.558 270.244 135.188 270.562 134.842C270.591 134.807 270.637 134.79 270.666 134.755C270.966 134.357 271.312 133.981 271.595 133.577C271.988 133.011 272.386 132.433 272.813 131.902C273.206 131.405 273.57 130.88 273.991 130.4C274.326 130.019 274.563 129.551 274.863 129.135C275.175 128.702 275.556 128.309 275.833 127.859C276.335 127.033 276.988 126.328 277.565 125.56C278.142 124.792 278.737 124.024 279.597 123.533C280.636 122.943 281.676 122.863 282.761 123.394C283.113 123.567 283.471 123.712 283.783 123.966C284.308 124.393 284.747 124.89 284.943 125.56C285.232 126.548 285.267 127.518 284.77 128.483C284.406 129.193 283.835 129.655 283.229 130.111C281.97 131.059 280.619 131.861 279.337 132.768C278.402 133.427 277.484 134.102 276.56 134.772C275.764 135.35 274.921 135.876 274.084 136.395C273.166 136.967 272.271 137.574 271.399 138.215C270.718 138.712 270.071 139.255 269.338 139.676C269.136 139.792 268.991 139.977 268.812 140.115" fill="#FF8CC5"/>
<path d="M269.725 135.968C269.956 135.558 270.244 135.188 270.562 134.842C270.591 134.807 270.637 134.79 270.666 134.755C270.966 134.357 271.312 133.981 271.595 133.577C271.988 133.011 272.386 132.433 272.813 131.902C273.206 131.405 273.57 130.88 273.991 130.4C274.326 130.019 274.563 129.551 274.863 129.135C275.175 128.702 275.556 128.309 275.833 127.859C276.335 127.033 276.988 126.328 277.565 125.56C278.142 124.792 278.737 124.024 279.597 123.533C280.636 122.943 281.676 122.863 282.761 123.394C283.113 123.567 283.471 123.712 283.783 123.966C284.308 124.393 284.747 124.89 284.943 125.56C285.232 126.548 285.267 127.518 284.77 128.483C284.406 129.193 283.835 129.655 283.229 130.111C281.97 131.059 280.619 131.861 279.337 132.768C278.402 133.427 277.484 134.102 276.56 134.772C275.764 135.35 274.921 135.876 274.084 136.395C273.166 136.967 272.271 137.574 271.399 138.215C270.718 138.712 270.071 139.255 269.338 139.676C269.136 139.792 268.991 139.977 268.812 140.115" stroke="#FF8CC5" stroke-width="3" stroke-linecap="round" stroke-linejoin="round"/>
<path d="M273.65 120.338C273.391 120.171 273.506 119.865 273.396 119.634C273.067 118.912 272.686 118.259 271.993 117.803C270.816 117.023 269.569 117.092 268.31 117.462C267.837 117.601 267.409 117.936 267.063 118.305C266.861 118.519 266.717 118.814 266.607 119.085C266.272 119.894 266.128 120.754 266.081 121.638C266.001 123.088 266.093 124.532 266.099 125.982C266.099 127.166 266.024 128.344 266.024 129.528C266.024 130.995 265.908 132.462 266.001 133.923C266.076 135.107 266.053 136.286 266.064 137.47C266.064 137.608 266.087 137.753 266.001 137.886" fill="#FF8CC5"/>
<path d="M273.65 120.338C273.391 120.171 273.506 119.865 273.396 119.634C273.067 118.912 272.686 118.259 271.993 117.803C270.816 117.023 269.569 117.092 268.31 117.462C267.837 117.601 267.409 117.936 267.063 118.305C266.861 118.519 266.717 118.814 266.607 119.085C266.272 119.894 266.128 120.754 266.081 121.638C266.001 123.088 266.093 124.532 266.099 125.982C266.099 127.166 266.024 128.344 266.024 129.528C266.024 130.995 265.908 132.462 266.001 133.923C266.076 135.107 266.053 136.286 266.064 137.47C266.064 137.608 266.087 137.753 266.001 137.886" stroke="#FF8CC5" stroke-width="3" stroke-linecap="round" stroke-linejoin="round"/>
<path d="M284.693 128.789C285.109 128.928 285.536 128.997 285.952 129.141C286.714 129.401 287.28 129.944 287.845 130.476C288.065 130.684 288.169 131.03 288.278 131.33C288.469 131.85 288.752 132.359 288.688 132.936C288.636 133.427 288.573 133.901 288.319 134.369C287.868 135.195 287.349 135.841 286.627 136.24C286.211 136.471 285.744 136.569 285.294 136.696C283.804 137.112 282.303 137.453 280.796 137.799C279.434 138.111 278.025 138.233 276.685 138.643C275 139.157 273.279 139.503 271.576 139.937C270.866 140.116 270.144 140.289 269.469 140.601" fill="#FF8CC5"/>
<path d="M284.693 128.789C285.109 128.928 285.536 128.997 285.952 129.141C286.714 129.401 287.28 129.944 287.845 130.476C288.065 130.684 288.169 131.03 288.278 131.33C288.469 131.85 288.752 132.359 288.688 132.936C288.636 133.427 288.573 133.901 288.319 134.369C287.868 135.195 287.349 135.841 286.627 136.24C286.211 136.471 285.744 136.569 285.294 136.696C283.804 137.112 282.303 137.453 280.796 137.799C279.434 138.111 278.025 138.233 276.685 138.643C275 139.157 273.279 139.503 271.576 139.937C270.866 140.116 270.144 140.289 269.469 140.601" stroke="#FF8CC5" stroke-width="3" stroke-linecap="round" stroke-linejoin="round"/>
<path d="M264.485 137.675C264.774 137.236 264.849 136.797 264.658 136.283C264.468 135.769 264.352 135.22 264.237 134.677C263.85 132.858 263.469 131.039 263.099 129.213C262.88 128.151 262.684 127.076 262.459 126.014C262.407 125.754 262.412 125.465 262.193 125.263C262.193 125.263 261.385 121.254 262.101 119.163C262.204 119.117 262.233 119.019 262.28 118.921C262.441 118.586 262.701 118.326 262.995 118.124C263.965 117.471 265.022 117.177 266.177 117.431C266.569 117.517 266.996 117.587 267.245 117.979" fill="#FF8CC5"/>
<path d="M264.485 137.675C264.774 137.236 264.849 136.797 264.658 136.283C264.468 135.769 264.352 135.22 264.237 134.677C263.85 132.858 263.469 131.039 263.099 129.213C262.88 128.151 262.684 127.076 262.459 126.014C262.407 125.754 262.412 125.465 262.193 125.263C262.193 125.263 261.385 121.254 262.101 119.163C262.204 119.117 262.233 119.019 262.28 118.921C262.441 118.586 262.701 118.326 262.995 118.124C263.965 117.471 265.022 117.177 266.177 117.431C266.569 117.517 266.996 117.587 267.245 117.979" stroke="#FF8CC5" stroke-width="3" stroke-linecap="round" stroke-linejoin="round"/>
<path d="M264.828 137.139C265.313 137.306 265.677 137.67 266.064 137.97C266.479 138.294 266.86 138.669 267.288 138.987C267.553 139.189 267.813 139.385 268.061 139.605C268.408 139.911 268.76 140.217 269.152 140.466C269.608 140.754 269.955 141.159 270.44 141.482C270.59 141.471 270.809 141.419 271.023 141.436C272.518 141.551 274.008 141.361 275.503 141.361C276.935 141.361 278.372 141.257 279.804 141.228C281.005 141.199 282.206 141.245 283.407 141.147C283.782 141.118 284.204 141.055 284.561 141.291C284.561 141.291 290.421 142.291 288.164 136.324" fill="#FF8CC5"/>
<path d="M264.828 137.139C265.313 137.306 265.677 137.67 266.064 137.97C266.479 138.294 266.86 138.669 267.288 138.987C267.553 139.189 267.813 139.385 268.061 139.605C268.408 139.911 268.76 140.217 269.152 140.466C269.608 140.754 269.955 141.159 270.44 141.482C270.59 141.471 270.809 141.419 271.023 141.436C272.518 141.551 274.008 141.361 275.503 141.361C276.935 141.361 278.372 141.257 279.804 141.228C281.005 141.199 282.206 141.245 283.407 141.147C283.782 141.118 284.204 141.055 284.561 141.291C284.561 141.291 290.421 142.291 288.164 136.324" stroke="#FF8CC5" stroke-width="3" stroke-linecap="round" stroke-linejoin="round"/>
<path d="M280.311 123.132C280.184 122.37 280.028 121.602 279.618 120.949C279.075 120.088 278.394 119.413 277.28 119.268C276.414 119.159 275.611 119.187 274.803 119.522C274.531 119.632 274.341 119.857 274.087 119.99C273.619 120.244 273.44 120.764 273.094 121.128C272.938 121.29 272.886 121.556 272.799 121.781C272.413 122.826 272.043 123.872 271.616 124.906C271.368 125.512 271.177 126.147 270.975 126.777C270.773 127.406 270.455 128.001 270.207 128.619C269.878 129.451 269.572 130.289 269.255 131.126C268.954 131.912 268.723 132.732 268.4 133.5C267.95 134.586 267.598 135.706 267.17 136.792C267.009 137.202 266.905 137.636 266.703 138.034C266.657 138.127 266.593 138.207 266.547 138.294" fill="#FF8CC5"/>
<path d="M280.311 123.132C280.184 122.37 280.028 121.602 279.618 120.949C279.075 120.088 278.394 119.413 277.28 119.268C276.414 119.159 275.611 119.187 274.803 119.522C274.531 119.632 274.341 119.857 274.087 119.99C273.619 120.244 273.44 120.764 273.094 121.128C272.938 121.29 272.886 121.556 272.799 121.781C272.413 122.826 272.043 123.872 271.616 124.906C271.368 125.512 271.177 126.147 270.975 126.777C270.773 127.406 270.455 128.001 270.207 128.619C269.878 129.451 269.572 130.289 269.255 131.126C268.954 131.912 268.723 132.732 268.4 133.5C267.95 134.586 267.598 135.706 267.17 136.792C267.009 137.202 266.905 137.636 266.703 138.034C266.657 138.127 266.593 138.207 266.547 138.294" stroke="#FF8CC5" stroke-width="3" stroke-linecap="round" stroke-linejoin="round"/>
<path d="M269.803 136.038C269.763 135.997 269.688 135.963 269.665 136.015C269.284 136.835 268.597 137.412 268.089 138.134C267.875 138.435 267.679 138.747 267.488 139.064" fill="#FF8CC5"/>
<path d="M269.803 136.038C269.763 135.997 269.688 135.963 269.665 136.015C269.284 136.835 268.597 137.412 268.089 138.134C267.875 138.435 267.679 138.747 267.488 139.064" stroke="#FF8CC5" stroke-width="3" stroke-linecap="round" stroke-linejoin="round"/>
<path d="M264.231 160.546C264.127 160.448 264.092 160.327 264.081 160.188C263.994 159.12 263.954 158.04 263.792 156.983C263.521 155.198 263.376 153.407 263.301 151.611C263.267 150.831 263.255 150.057 263.255 149.277C263.255 148.486 263.376 147.695 263.619 146.956C263.96 145.922 264.485 144.969 265.178 144.12C265.651 143.542 266.223 143.149 266.991 143.092C267.377 143.063 267.77 143.022 268.151 142.953C269.086 142.785 269.762 142.237 270.276 141.451L264.41 137.668C264.006 138.286 263.988 138.956 264.11 139.649C264.173 140.007 264.26 140.36 264.306 140.718C264.393 141.399 264.214 142.029 263.931 142.641C263.677 143.184 263.371 143.692 263.076 144.212C262.822 144.657 262.695 145.159 262.528 145.639C262.256 146.43 262.118 147.256 261.997 148.082C261.818 149.277 261.783 150.462 261.87 151.663C261.927 152.512 262.014 153.361 262.06 154.216C262.129 155.469 262.366 156.705 262.43 157.964C262.482 159.073 262.534 160.194 262.632 161.303C262.643 161.459 262.632 161.603 262.499 161.707" fill="#00CE7C"/>
<path d="M264.231 160.546C264.127 160.448 264.092 160.327 264.081 160.188C263.994 159.12 263.954 158.04 263.792 156.983C263.521 155.198 263.376 153.407 263.301 151.611C263.267 150.831 263.255 150.057 263.255 149.277C263.255 148.486 263.376 147.695 263.619 146.956C263.96 145.922 264.485 144.969 265.178 144.12C265.651 143.542 266.223 143.149 266.991 143.092C267.377 143.063 267.77 143.022 268.151 142.953C269.086 142.785 269.762 142.237 270.276 141.451L264.41 137.668C264.006 138.286 263.988 138.956 264.11 139.649C264.173 140.007 264.26 140.36 264.306 140.718C264.393 141.399 264.214 142.029 263.931 142.641C263.677 143.184 263.371 143.692 263.076 144.212C262.822 144.657 262.695 145.159 262.528 145.639C262.256 146.43 262.118 147.256 261.997 148.082C261.818 149.277 261.783 150.462 261.87 151.663C261.927 152.512 262.014 153.361 262.06 154.216C262.129 155.469 262.366 156.705 262.43 157.964C262.482 159.073 262.534 160.194 262.632 161.303C262.643 161.459 262.632 161.603 262.499 161.707" stroke="#00CE7C" stroke-width="3" stroke-linecap="round" stroke-linejoin="round"/>
<path d="M284.774 128.469C284.41 129.179 283.839 129.641 283.232 130.098C281.974 131.045 280.623 131.848 279.341 132.754C278.406 133.413 277.488 134.089 276.564 134.759C275.768 135.336 274.925 135.862 274.087 136.382C273.17 136.954 272.275 137.56 271.403 138.201C270.722 138.698 270.075 139.241 269.342 139.662C269.14 139.778 268.995 139.963 268.816 140.101" stroke="#FEFEFE" stroke-width="3" stroke-linecap="round" stroke-linejoin="round"/>
<path d="M269.73 135.982C269.961 135.572 270.25 135.202 270.568 134.855C270.596 134.821 270.643 134.804 270.672 134.769C270.972 134.37 271.318 133.995 271.601 133.591C271.994 133.025 272.392 132.447 272.819 131.916C273.212 131.419 273.576 130.893 273.997 130.414C274.332 130.033 274.569 129.565 274.869 129.149C275.181 128.716 275.562 128.323 275.839 127.872C276.341 127.046 276.993 126.342 277.571 125.574C277.859 125.192 278.154 124.805 278.483 124.453" stroke="#FEFEFE" stroke-width="3" stroke-linecap="round" stroke-linejoin="round"/>
<path d="M266.05 121.648C265.975 123.098 266.073 124.542 266.084 125.992C266.096 127.176 266.015 128.354 266.027 129.538C266.033 131.005 265.929 132.472 266.027 133.934C266.108 135.118 266.09 136.296 266.108 137.48C266.108 137.619 266.131 137.763 266.05 137.896" stroke="#FEFEFE" stroke-width="3" stroke-linecap="round" stroke-linejoin="round"/>
<path d="M286.627 136.238C286.211 136.469 285.744 136.568 285.294 136.695C283.804 137.11 282.303 137.451 280.796 137.798C279.434 138.11 278.025 138.231 276.685 138.641C275 139.155 273.279 139.502 271.576 139.935C270.866 140.114 270.144 140.287 269.469 140.599" stroke="#FEFEFE" stroke-width="3" stroke-linecap="round" stroke-linejoin="round"/>
<path d="M272.811 121.805C272.424 122.85 272.055 123.896 271.628 124.929C271.379 125.536 271.189 126.171 270.987 126.801C270.785 127.43 270.467 128.025 270.219 128.643C269.89 129.475 269.584 130.313 269.266 131.15C268.966 131.936 268.735 132.756 268.412 133.524C267.962 134.61 267.609 135.73 267.182 136.816C267.02 137.226 266.917 137.659 266.714 138.058C266.668 138.15 266.605 138.231 266.559 138.318" stroke="#FEFEFE" stroke-width="3" stroke-linecap="round" stroke-linejoin="round"/>
<path d="M269.799 136.03C269.759 135.989 269.684 135.955 269.661 136.007C269.28 136.827 268.593 137.404 268.085 138.126C267.871 138.427 267.675 138.739 267.484 139.056" stroke="#FEFEFE" stroke-width="3" stroke-linecap="round" stroke-linejoin="round"/>
<path d="M255.599 184.691L252.181 218.914L252.147 219.364C251.65 229.114 256.702 238.009 265.327 242.577C266.453 243.172 267.608 243.68 268.78 244.091C268.993 244.166 269.201 244.235 269.415 244.304C285.459 249.485 295.349 242.71 306.988 233.417L320.238 223.188" stroke="#FEFEFE" stroke-width="3" stroke-linecap="round" stroke-linejoin="round"/>
<path d="M277.673 183.23L277.459 188.446C276.709 195.949 274.7 204.393 275.762 211.873C275.975 213.38 276.593 214.882 277.742 215.876C283.313 220.693 291.269 210.608 294.341 207.275C300.062 201.066 315.956 183.109 320.632 176.086L318.185 224.805C318.185 224.805 297.962 250.533 275.762 247.052C260.197 244.612 255.001 233.157 255.001 233.157C255.001 233.157 250.382 223.916 252.692 212.364C255.001 200.812 256.918 184.605 255.093 181.157C253.269 177.709 245.914 168.935 247.282 165.527C248.65 162.119 251.111 163.112 251.111 163.112C251.111 163.112 252.087 159.208 254.424 159.809C256.479 160.184 257.943 163.6 257.943 163.6L260.197 166.74C260.197 166.74 277.829 176.623 277.673 183.23Z" fill="#053575" stroke="#FEFEFE" stroke-width="3" stroke-linecap="round" stroke-linejoin="round"/>
<path d="M277.681 183.244C277.103 178.738 273.605 174.493 271.088 172.16C268.57 169.826 258.629 161.139 256.729 161.526L258.439 163.613C258.439 163.613 254.455 159.412 252.249 160.914C250.044 162.416 252.583 166.045 252.064 164.911C250.944 162.462 248.237 161.324 247.33 164.68C246.424 168.036 249.339 171.669 253.334 177.398C257.33 183.128 255.142 190.134 255.142 190.134" stroke="#FEFEFE" stroke-width="3" stroke-linecap="round" stroke-linejoin="round"/>
<path d="M251.965 164.957C251.965 164.957 253.42 168.579 256.612 171.611C260.377 175.18 263.916 176.185 264.58 176.792" stroke="#FEFEFE" stroke-width="3" stroke-linecap="round" stroke-linejoin="round"/>
<path d="M258.906 167.086C259.795 167.929 260.777 168.669 261.833 169.292" stroke="#FEFEFE" stroke-width="3" stroke-linecap="round" stroke-linejoin="round"/>
<path d="M267.599 174.01H264.101C261.572 174.01 259.453 172.203 259.228 169.834L258.258 160.922C258.172 160.142 258.784 159.461 259.569 159.461H272.137C272.923 159.461 273.534 160.142 273.448 160.922L272.478 169.834C272.247 172.197 270.134 174.01 267.605 174.01H267.599Z" fill="#203AE9" stroke="#203AE9" stroke-width="3" stroke-linecap="round" stroke-linejoin="round"/>
<path d="M264.294 177.769C264.294 177.769 263.945 177.205 259.701 173.508C255.458 169.812 257.675 166.895 258.564 166.387C259.453 165.878 261.185 165.815 264.672 169.003C268.153 172.197 273.938 176.31 273.938 176.31C273.938 176.31 278.314 180.428 277.495 187.116" fill="#053575"/>
<path d="M264.294 177.769C264.294 177.769 263.945 177.205 259.701 173.508C255.458 169.812 257.675 166.895 258.564 166.387C259.453 165.878 261.185 165.815 264.672 169.003C268.153 172.197 273.938 176.31 273.938 176.31C273.938 176.31 278.314 180.428 277.495 187.116" stroke="#FEFEFE" stroke-width="3" stroke-linecap="round" stroke-linejoin="round"/>
<path d="M327.898 118.155C320.358 125.346 313.921 135.113 311.594 138.446C311.144 139.092 311.415 139.988 312.149 140.277L320.849 143.69L321.201 148.911C321.201 148.911 326.467 148.265 333.608 144.556C333.608 152.816 322.858 155.069 322.858 155.069C322.979 154.942 321.969 162.554 324.088 165.465C324.088 165.465 326.749 171.068 330.71 174.683C334.671 178.299 350.259 181.193 357.764 177.727C365.269 174.262 372.278 168.492 372.278 168.492C372.278 168.492 381.435 154.046 375.661 146.538C369.888 139.029 348.527 114.193 348.527 114.193C348.527 114.193 337.869 109.416 327.898 118.161V118.155Z" fill="#053575" stroke="#FEFEFE" stroke-width="3" stroke-linecap="round" stroke-linejoin="round"/>
<path d="M332.506 114.797C331.034 113.948 341.154 106.457 352.897 108.704C370.033 111.984 374.859 129.3 380.049 157.134L342.321 159.023L347.355 142.412C347.355 142.412 351.922 143.526 349.895 137.987C349.133 135.908 350.813 137.312 349.595 137.063C347.089 136.543 344.601 136.347 344.601 136.347C344.601 136.347 357.77 146.195 344.618 136.925C331.703 133.783 330.052 120.336 332.506 114.803V114.797Z" fill="#FEFEFE" stroke="#FEFEFE" stroke-width="3" stroke-linecap="round" stroke-linejoin="round"/>
<path d="M324.084 165.463C321.965 162.552 322.976 154.939 322.854 155.066C322.854 155.066 333.604 152.808 333.604 144.554C326.463 148.262 321.197 148.909 321.197 148.909L320.845 143.688L312.145 140.274C311.412 139.985 311.14 139.09 311.59 138.443C313.917 135.11 320.354 125.338 327.894 118.152" stroke="#FEFEFE" stroke-width="3" stroke-linecap="round" stroke-linejoin="round"/>
<path d="M325.195 133.336C325.198 135.201 326.838 136.807 328.365 136.807C329.895 136.807 330.964 135.482 330.964 133.336" stroke="#FEFEFE" stroke-width="3" stroke-linecap="round" stroke-linejoin="round"/>
<path d="M339.84 138.316C339.84 138.316 345.326 132.184 349.602 135.491C353.877 138.79 351.666 144.249 349.97 146.415C348.274 148.582 343.198 149.807 343.198 149.807" fill="#053575"/>
<path d="M342.898 143.04C342.898 143.04 345.6 140.095 346.63 139.664" stroke="#FEFEFE" stroke-width="3" stroke-linecap="round" stroke-linejoin="round"/>
<path d="M347.488 142.942C347.488 142.942 345.924 141.196 345.266 141.314" stroke="#FEFEFE" stroke-width="3" stroke-linecap="round" stroke-linejoin="round"/>
<path d="M323.109 258.274L329.327 325.373C329.367 325.806 329.182 326.222 328.848 326.435C326.123 328.197 313.947 336.214 309.593 341.828C309.045 342.533 309.472 343.642 310.304 343.653L345.331 344.098C345.59 344.098 345.839 343.988 346.023 343.78L349.868 339.425C350.711 338.472 351.849 337.941 353.038 337.941H353.407C355.884 337.941 357.888 340.211 357.888 343.012C357.888 343.619 358.321 344.104 358.852 344.104H366.877C367.448 344.104 367.893 343.544 367.841 342.903L360.405 256.848" fill="#053575"/>
<path d="M323.109 258.274L329.327 325.373C329.367 325.806 329.182 326.222 328.848 326.435C326.123 328.197 313.947 336.214 309.593 341.828C309.045 342.533 309.472 343.642 310.304 343.653L345.331 344.098C345.59 344.098 345.839 343.988 346.023 343.78L349.868 339.425C350.711 338.472 351.849 337.941 353.038 337.941H353.407C355.884 337.941 357.888 340.211 357.888 343.012C357.888 343.619 358.321 344.104 358.852 344.104H366.877C367.448 344.104 367.893 343.544 367.841 342.903L360.405 256.848" stroke="#FEFEFE" stroke-width="3" stroke-linecap="round" stroke-linejoin="round"/>
<path d="M353.574 258.274L359.792 325.373C359.832 325.806 359.647 326.222 359.312 326.435C356.587 328.197 344.411 336.676 340.058 342.29C339.51 342.995 339.937 344.104 340.768 344.115L372.926 344.225C375.178 344.231 377.314 343.209 378.717 341.453L380.339 339.425C381.182 338.472 382.319 337.941 383.509 337.941H383.878C386.355 337.941 388.358 340.211 388.358 343.012C388.358 343.619 388.791 344.104 389.322 344.104H397.347C397.919 344.104 398.363 343.544 398.312 342.903L390.875 256.848" fill="#053575"/>
<path d="M353.574 258.274L359.792 325.373C359.832 325.806 359.647 326.222 359.312 326.435C356.587 328.197 344.411 336.676 340.058 342.29C339.51 342.995 339.937 344.104 340.768 344.115L372.926 344.225C375.178 344.231 377.314 343.209 378.717 341.453L380.339 339.425C381.182 338.472 382.319 337.941 383.509 337.941H383.878C386.355 337.941 388.358 340.211 388.358 343.012C388.358 343.619 388.791 344.104 389.322 344.104H397.347C397.919 344.104 398.363 343.544 398.312 342.903L390.875 256.848" stroke="#FEFEFE" stroke-width="3" stroke-linecap="round" stroke-linejoin="round"/>
<path d="M373.105 167.117C351.813 185.97 323.426 172.252 323.426 172.252C323.426 172.252 323.252 171.726 323.073 172.131C322.86 172.056 299.68 200.912 299.68 200.912L319.263 225.402L308.657 279.117C361.281 307.523 421.001 265.896 421.001 265.896L373.105 167.123V167.117Z" fill="#203AE9" stroke="#203AE9" stroke-width="3" stroke-linecap="round" stroke-linejoin="round"/>
<path d="M63.3203 125.733L64.9369 141.397C64.9369 141.397 99.1152 159.233 111.239 141.906C110.662 128.043 107.775 122.268 107.775 122.268L110.662 112.449L99.6925 99.1641L68.5163 106.673L63.3203 125.733Z" fill="#053575" stroke="#053575" stroke-width="3" stroke-linecap="round" stroke-linejoin="round"/>
<path d="M105.031 105.828C109.246 109.542 113.801 114.919 116.151 117.807C116.942 118.783 116.526 120.251 115.342 120.661L108.051 123.202C108.051 123.202 112.698 132.877 110.943 141.125" fill="#053575"/>
<path d="M105.031 105.828C109.246 109.542 113.801 114.919 116.151 117.807C116.942 118.783 116.526 120.251 115.342 120.661L108.051 123.202C108.051 123.202 112.698 132.877 110.943 141.125" stroke="#FEFEFE" stroke-width="3" stroke-linecap="round" stroke-linejoin="round"/>
<path d="M99.7097 117.68C99.6803 117.533 99.6537 117.39 99.6327 117.249C99.3032 115.038 103.021 114.217 104.018 116.218C104.13 116.441 104.22 116.676 104.299 116.914" stroke="#FEFEFE" stroke-width="3" stroke-linecap="round" stroke-linejoin="round"/>
<path d="M66.7975 92.7773C57.1156 99.8412 54.6157 115.442 60.6315 126.428C61.7112 128.391 62.71 130.211 64.263 131.92C65.3715 133.145 67.2825 133.191 68.4775 132.048L78.1999 122.714" fill="#FEFEFE"/>
<path d="M66.7975 92.7773C57.1156 99.8412 54.6157 115.442 60.6315 126.428C61.7112 128.391 62.71 130.211 64.263 131.92C65.3715 133.145 67.2825 133.191 68.4775 132.048L78.1999 122.714" stroke="#FEFEFE" stroke-width="3" stroke-linecap="round" stroke-linejoin="round"/>
<path d="M75.4706 124.289C77.1391 115.931 75.8574 109.635 83.3512 116.497L83.2069 104.05C84.2057 104.316 85.2276 104.524 86.2552 104.662C86.8441 104.743 87.4561 104.795 88.0219 104.628C88.5877 104.46 89.1015 104.015 89.1477 103.467C89.1996 102.831 88.6396 102.306 88.1258 101.884C87.5311 101.393 86.9365 100.896 86.3418 100.405C86.5555 100.307 86.7517 100.203 86.9423 100.105C89.0495 101.277 91.2665 102.311 93.4257 103.282C95.0365 104.009 96.7916 104.668 98.5698 104.443C99.2453 104.356 100.013 104.027 100.1 103.403C100.186 102.768 99.5282 102.283 98.9451 101.936C96.8609 100.706 94.7709 99.4754 92.6868 98.2452C96.5665 100.319 97.0918 100.596 101.56 100.96C103.518 101.122 106.012 100.775 106.577 99.0365C107.109 97.4134 105.515 95.9059 104.02 94.9356C94.794 88.9749 81.9599 86.6876 71.487 90.4535C69.6395 91.1177 67.9479 92.0072 66.418 93.0757" fill="#FEFEFE"/>
<path d="M75.4706 124.289C77.1391 115.931 75.8574 109.635 83.3512 116.497L83.2069 104.05C84.2057 104.316 85.2276 104.524 86.2552 104.662C86.8441 104.743 87.4561 104.795 88.0219 104.628C88.5877 104.46 89.1015 104.015 89.1477 103.467C89.1996 102.831 88.6396 102.306 88.1258 101.884C87.5311 101.393 86.9365 100.896 86.3418 100.405C86.5555 100.307 86.7517 100.203 86.9423 100.105C89.0495 101.277 91.2665 102.311 93.4257 103.282C95.0365 104.009 96.7916 104.668 98.5698 104.443C99.2453 104.356 100.013 104.027 100.1 103.403C100.186 102.768 99.5282 102.282 98.9451 101.936C96.8609 100.706 94.7709 99.4754 92.6868 98.2452C96.5665 100.319 97.0918 100.596 101.56 100.96C103.518 101.122 106.012 100.775 106.577 99.0365C107.109 97.4134 105.515 95.9059 104.02 94.9356C94.794 88.9749 81.9599 86.6876 71.487 90.4535C69.6395 91.1177 67.9479 92.0072 66.418 93.0757" stroke="#FEFEFE" stroke-width="3" stroke-linecap="round" stroke-linejoin="round"/>
<path d="M83.927 118.729C83.927 118.729 80.7575 113.375 76.7565 114.617C72.7556 115.858 73.4715 120.011 74.401 121.848C75.3305 123.685 79.1063 125.66 79.1063 125.66" fill="#053575"/>
<path d="M83.927 118.729C83.927 118.729 80.7575 113.375 76.7565 114.617C72.7556 115.858 73.4715 120.011 74.401 121.848C75.3305 123.685 79.1063 125.66 79.1063 125.66" stroke="#053575" stroke-width="3" stroke-linecap="round" stroke-linejoin="round"/>
<path d="M81.2058 122.018C81.2058 122.018 79.2227 118.396 78.2812 117.68" stroke="#FEFEFE" stroke-width="3" stroke-linecap="round" stroke-linejoin="round"/>
<path d="M76.4023 121.134C76.4023 121.134 78.3103 119.651 79.1816 119.721" stroke="#FEFEFE" stroke-width="3" stroke-linecap="round" stroke-linejoin="round"/>
<path d="M108.491 130.702C108.491 130.702 101.13 129.991 97.1641 126.277L108.491 130.702Z" fill="#053575"/>
<path d="M108.491 130.702C108.491 130.702 101.13 129.991 97.1641 126.277" stroke="#FEFEFE" stroke-width="3" stroke-linecap="round" stroke-linejoin="round"/>
<path d="M121.549 258.391L115.331 325.49C115.29 325.923 115.475 326.339 115.81 326.553C118.535 328.314 130.711 336.331 135.064 341.945C135.613 342.65 135.185 343.759 134.354 343.771L99.327 344.215C99.0672 344.215 98.8189 344.106 98.6342 343.898L94.7891 339.543C93.9462 338.59 92.8088 338.058 91.6195 338.058H91.25C88.7733 338.058 86.7699 340.328 86.7699 343.129C86.7699 343.736 86.3369 344.221 85.8058 344.221H77.7808C77.2092 344.221 76.7647 343.661 76.8166 343.02L84.2527 256.965" fill="#053575"/>
<path d="M121.549 258.391L115.331 325.49C115.29 325.923 115.475 326.339 115.81 326.553C118.535 328.314 130.711 336.331 135.064 341.945C135.613 342.65 135.185 343.759 134.354 343.771L99.327 344.215C99.0672 344.215 98.8189 344.106 98.6342 343.898L94.7891 339.543C93.9462 338.59 92.8088 338.058 91.6195 338.058H91.25C88.7733 338.058 86.7699 340.328 86.7699 343.129C86.7699 343.736 86.3369 344.221 85.8058 344.221H77.7808C77.2092 344.221 76.7647 343.661 76.8166 343.02L84.2527 256.965" stroke="#FEFEFE" stroke-width="3" stroke-linecap="round" stroke-linejoin="round"/>
<path d="M91.0817 258.391L84.8638 325.49C84.8234 325.923 85.0082 326.339 85.343 326.553C88.0681 328.314 100.244 336.793 104.597 342.407C105.146 343.112 104.718 344.221 103.887 344.233L71.7294 344.342C69.4778 344.348 67.3417 343.326 65.9388 341.57L64.3164 339.543C63.4735 338.59 62.3362 338.058 61.1469 338.058H60.7774C58.3006 338.058 56.2973 340.328 56.2973 343.129C56.2973 343.736 55.8643 344.221 55.3331 344.221H47.3081C46.7366 344.221 46.292 343.661 46.344 343.02L53.7801 256.965" fill="#053575"/>
<path d="M91.0818 258.391L84.8638 325.49C84.8234 325.923 85.0082 326.339 85.343 326.553C88.0681 328.314 100.244 336.793 104.597 342.407C105.146 343.112 104.718 344.221 103.887 344.233L71.7294 344.342C69.4778 344.348 67.3417 343.326 65.9388 341.57L64.3164 339.543C63.4735 338.59 62.3362 338.058 61.1469 338.058H60.7774C58.3006 338.058 56.2973 340.328 56.2973 343.129C56.2973 343.736 55.8643 344.221 55.3331 344.221H47.3081C46.7366 344.221 46.292 343.661 46.344 343.02L53.7801 256.965" stroke="#FEFEFE" stroke-width="3" stroke-linecap="round" stroke-linejoin="round"/>
<path d="M111.358 143.668C111.358 143.668 91.3709 154.533 64.8712 139.758C47.0604 174.962 11 254.501 11 254.501L140.473 259.717L111.364 143.662L111.358 143.668Z" fill="#FF8CC5" stroke="#FF8CC5" stroke-width="3" stroke-linecap="round" stroke-linejoin="round"/>
<path d="M76.0156 167.89C76.0156 167.89 86.985 190.993 88.1397 192.726C89.2944 194.459 101.366 209.355 117.849 206.813C134.327 204.278 142.779 196.729 148.656 188.082C154.533 179.436 157.299 169.189 157.645 164.782C157.992 160.375 156.548 158.487 160.445 157.406C164.342 156.326 169.244 154.819 167.373 152.688C165.503 150.556 161.461 148.246 157.997 149.979C154.533 151.711 151.012 155.639 151.012 155.639C151.012 155.639 146.451 152.867 144.719 152.867C142.987 152.867 140.55 152.982 140.55 152.982C140.55 152.982 136.636 150.556 134.327 151.134C132.017 151.711 129.131 155.755 126.821 159.22C124.512 162.686 122.191 171.5 118.733 171.713C115.274 171.927 108.924 160.375 108.924 160.375L76.0156 167.884V167.89Z" fill="#053575"/>
<path d="M109.086 161.378C109.086 161.378 114.784 175.258 119.871 171.446C124.957 167.628 127.503 156.18 130.043 153.633C132.584 151.086 137.676 149.815 141.486 153.633C145.296 157.451 142.756 168.899 142.756 168.899C142.756 168.899 142.756 170.319 140.21 170.169C135.978 169.921 136.394 161.263 136.394 161.263C136.394 161.263 136.394 165.081 133.848 165.081" stroke="#FEFEFE" stroke-width="3" stroke-linecap="round" stroke-linejoin="round"/>
<path d="M141.633 153.406C143.55 152.904 145.264 152.967 147.851 154.908C152.937 158.726 150.397 168.903 150.397 171.444C150.397 173.991 143.769 176.082 142.072 170.358" stroke="#FEFEFE" stroke-width="3" stroke-linecap="round" stroke-linejoin="round"/>
<path d="M146.848 153.84C146.848 153.84 156.749 157.45 156.749 159.997C156.749 162.544 155.479 165.085 151.663 163.815" stroke="#FEFEFE" stroke-width="3" stroke-linecap="round" stroke-linejoin="round"/>
<path d="M151.66 154.905C151.66 154.905 155.476 149.816 160.563 149.816C165.649 149.816 168.195 152.364 166.919 154.905C165.649 157.452 160.563 154.905 156.746 161.264" stroke="#FEFEFE" stroke-width="3" stroke-linecap="round" stroke-linejoin="round"/>
<path d="M157.598 160.418C157.598 160.418 158.1 171.935 152.09 182.453C146.08 192.971 131.063 209.496 111.538 206.492C92.0123 203.489 86.008 188.46 86.008 188.46L76.3203 168.758" stroke="#FEFEFE" stroke-width="3" stroke-linecap="round" stroke-linejoin="round"/>
</svg>
