<svg width="432" height="432" viewBox="0 0 432 432" fill="none" xmlns="http://www.w3.org/2000/svg">
<path d="M191.322 158.876C191.09 158.464 190.8 158.093 190.48 157.745C190.451 157.71 190.405 157.693 190.376 157.658C190.074 157.257 189.726 156.88 189.442 156.474C189.048 155.905 188.648 155.325 188.218 154.791C187.824 154.292 187.458 153.764 187.035 153.282C186.699 152.899 186.461 152.429 186.159 152.012C185.846 151.576 185.463 151.182 185.185 150.729C184.68 149.899 184.025 149.191 183.445 148.419C182.864 147.648 182.267 146.876 181.403 146.383C180.359 145.791 179.315 145.709 178.224 146.243C177.87 146.417 177.511 146.562 177.197 146.818C176.67 147.247 176.229 147.746 176.031 148.419C175.741 149.412 175.707 150.387 176.205 151.356C176.571 152.07 177.145 152.534 177.754 152.992C179.019 153.944 180.376 154.751 181.664 155.662C182.603 156.323 183.526 157.002 184.454 157.675C185.254 158.256 186.101 158.784 186.942 159.306C187.864 159.88 188.764 160.49 189.639 161.134C190.324 161.633 190.974 162.178 191.71 162.602C191.913 162.718 192.058 162.904 192.238 163.043" fill="#FF4351"/>
<path d="M191.322 158.876C191.09 158.464 190.8 158.093 190.48 157.745C190.451 157.71 190.405 157.693 190.376 157.658C190.074 157.257 189.726 156.88 189.442 156.474C189.048 155.905 188.648 155.325 188.218 154.791C187.824 154.292 187.458 153.764 187.035 153.282C186.699 152.899 186.461 152.429 186.159 152.012C185.846 151.576 185.463 151.182 185.185 150.729C184.68 149.899 184.025 149.191 183.445 148.419C182.864 147.648 182.267 146.876 181.403 146.383C180.359 145.791 179.315 145.709 178.224 146.243C177.87 146.417 177.511 146.562 177.197 146.818C176.67 147.247 176.229 147.746 176.031 148.419C175.741 149.412 175.707 150.387 176.205 151.356C176.571 152.07 177.145 152.534 177.754 152.992C179.019 153.944 180.376 154.751 181.664 155.662C182.603 156.323 183.526 157.002 184.454 157.675C185.254 158.256 186.101 158.784 186.942 159.306C187.864 159.88 188.764 160.49 189.639 161.134C190.324 161.633 190.974 162.178 191.71 162.602C191.913 162.718 192.058 162.904 192.238 163.043" stroke="#FF4351" stroke-width="3" stroke-linecap="round" stroke-linejoin="round"/>
<path d="M187.375 143.177C187.636 143.009 187.52 142.702 187.63 142.469C187.961 141.744 188.344 141.088 189.04 140.63C190.223 139.847 191.476 139.916 192.74 140.288C193.216 140.427 193.645 140.763 193.993 141.135C194.196 141.35 194.341 141.645 194.452 141.918C194.788 142.731 194.933 143.595 194.979 144.483C195.061 145.94 194.968 147.39 194.962 148.847C194.962 150.037 195.037 151.22 195.037 152.41C195.037 153.884 195.153 155.358 195.061 156.826C194.985 158.016 195.008 159.2 194.997 160.389C194.997 160.529 194.974 160.674 195.061 160.807" fill="#FF4351"/>
<path d="M187.375 143.177C187.636 143.009 187.52 142.702 187.63 142.469C187.961 141.744 188.344 141.088 189.04 140.63C190.223 139.847 191.476 139.916 192.74 140.288C193.216 140.427 193.645 140.763 193.993 141.135C194.196 141.35 194.341 141.645 194.452 141.918C194.788 142.731 194.933 143.595 194.979 144.483C195.061 145.94 194.968 147.39 194.962 148.847C194.962 150.037 195.037 151.22 195.037 152.41C195.037 153.884 195.153 155.358 195.061 156.826C194.985 158.016 195.008 159.2 194.997 160.389C194.997 160.529 194.974 160.674 195.061 160.807" stroke="#FF4351" stroke-width="3" stroke-linecap="round" stroke-linejoin="round"/>
<path d="M176.281 151.664C175.863 151.803 175.434 151.873 175.016 152.018C174.251 152.279 173.682 152.825 173.114 153.359C172.893 153.567 172.789 153.916 172.679 154.217C172.487 154.74 172.203 155.25 172.267 155.831C172.319 156.324 172.383 156.8 172.638 157.27C173.091 158.1 173.613 158.75 174.338 159.15C174.755 159.382 175.225 159.481 175.678 159.608C177.174 160.026 178.682 160.369 180.196 160.717C181.565 161.03 182.98 161.152 184.326 161.564C186.02 162.081 187.749 162.429 189.46 162.864C190.173 163.044 190.898 163.218 191.577 163.531" fill="#FF4351"/>
<path d="M176.281 151.664C175.863 151.803 175.434 151.873 175.016 152.018C174.251 152.279 173.682 152.825 173.114 153.359C172.893 153.567 172.789 153.916 172.679 154.217C172.487 154.74 172.203 155.25 172.267 155.831C172.319 156.324 172.383 156.8 172.638 157.27C173.091 158.1 173.613 158.75 174.338 159.15C174.755 159.382 175.225 159.481 175.678 159.608C177.174 160.026 178.682 160.369 180.196 160.717C181.565 161.03 182.98 161.152 184.326 161.564C186.02 162.081 187.749 162.429 189.46 162.864C190.173 163.044 190.898 163.218 191.577 163.531" stroke="#FF4351" stroke-width="3" stroke-linecap="round" stroke-linejoin="round"/>
<path d="M196.589 160.595C196.299 160.154 196.224 159.713 196.415 159.196C196.606 158.68 196.722 158.129 196.838 157.583C197.227 155.755 197.61 153.927 197.981 152.093C198.202 151.026 198.399 149.946 198.625 148.879C198.677 148.617 198.671 148.327 198.892 148.124C198.892 148.124 199.704 144.097 198.985 141.996C198.88 141.95 198.851 141.851 198.805 141.752C198.642 141.416 198.381 141.155 198.086 140.952C197.111 140.296 196.05 140 194.89 140.255C194.495 140.342 194.066 140.412 193.816 140.807" fill="#FF4351"/>
<path d="M196.589 160.595C196.299 160.154 196.224 159.713 196.415 159.196C196.606 158.68 196.722 158.129 196.838 157.583C197.227 155.755 197.61 153.927 197.981 152.093C198.202 151.026 198.399 149.946 198.625 148.879C198.677 148.617 198.671 148.327 198.892 148.124C198.892 148.124 199.704 144.097 198.985 141.996C198.88 141.95 198.851 141.851 198.805 141.752C198.642 141.416 198.381 141.155 198.086 140.952C197.111 140.296 196.05 140 194.89 140.255C194.495 140.342 194.066 140.412 193.816 140.807" stroke="#FF4351" stroke-width="3" stroke-linecap="round" stroke-linejoin="round"/>
<path d="M196.235 160.06C195.748 160.229 195.382 160.594 194.994 160.896C194.576 161.221 194.193 161.598 193.764 161.917C193.497 162.12 193.236 162.318 192.987 162.538C192.639 162.846 192.285 163.153 191.89 163.403C191.432 163.693 191.084 164.099 190.597 164.424C190.446 164.413 190.226 164.36 190.011 164.378C188.509 164.494 187.012 164.302 185.51 164.302C184.071 164.302 182.627 164.198 181.189 164.169C179.982 164.14 178.776 164.186 177.569 164.088C177.192 164.059 176.769 163.995 176.409 164.233C176.409 164.233 170.521 165.237 172.789 159.242" fill="#FF4351"/>
<path d="M196.235 160.06C195.748 160.229 195.382 160.594 194.994 160.896C194.576 161.221 194.193 161.598 193.764 161.917C193.497 162.12 193.236 162.318 192.987 162.538C192.639 162.846 192.285 163.153 191.89 163.403C191.432 163.693 191.084 164.099 190.597 164.424C190.446 164.413 190.226 164.36 190.011 164.378C188.509 164.494 187.012 164.302 185.51 164.302C184.071 164.302 182.627 164.198 181.189 164.169C179.982 164.14 178.776 164.186 177.569 164.088C177.192 164.059 176.769 163.995 176.409 164.233C176.409 164.233 170.521 165.237 172.789 159.242" stroke="#FF4351" stroke-width="3" stroke-linecap="round" stroke-linejoin="round"/>
<path d="M180.676 145.991C180.803 145.225 180.96 144.453 181.372 143.797C181.917 142.932 182.602 142.253 183.721 142.108C184.591 141.998 185.397 142.027 186.209 142.364C186.482 142.474 186.673 142.7 186.929 142.834C187.399 143.089 187.578 143.611 187.926 143.977C188.083 144.139 188.135 144.406 188.222 144.633C188.611 145.683 188.982 146.733 189.411 147.772C189.661 148.381 189.852 149.02 190.055 149.652C190.258 150.285 190.577 150.883 190.827 151.504C191.157 152.339 191.465 153.181 191.784 154.022C192.085 154.811 192.317 155.635 192.642 156.407C193.095 157.498 193.448 158.624 193.878 159.715C194.04 160.127 194.145 160.562 194.348 160.962C194.394 161.055 194.458 161.137 194.504 161.224" fill="#FF4351"/>
<path d="M180.676 145.991C180.803 145.225 180.96 144.453 181.372 143.797C181.917 142.932 182.602 142.253 183.721 142.108C184.591 141.998 185.397 142.027 186.209 142.364C186.482 142.474 186.673 142.7 186.929 142.834C187.399 143.089 187.578 143.611 187.926 143.977C188.083 144.139 188.135 144.406 188.222 144.633C188.611 145.683 188.982 146.733 189.411 147.772C189.661 148.381 189.852 149.02 190.055 149.652C190.258 150.285 190.577 150.883 190.827 151.504C191.157 152.339 191.465 153.181 191.784 154.022C192.085 154.811 192.317 155.635 192.642 156.407C193.095 157.498 193.448 158.624 193.878 159.715C194.04 160.127 194.145 160.562 194.348 160.962C194.394 161.055 194.458 161.137 194.504 161.224" stroke="#FF4351" stroke-width="3" stroke-linecap="round" stroke-linejoin="round"/>
<path d="M191.238 158.948C191.279 158.907 191.354 158.873 191.378 158.925C191.76 159.749 192.451 160.329 192.961 161.055C193.176 161.356 193.373 161.67 193.564 161.989" fill="#FF4351"/>
<path d="M191.238 158.948C191.279 158.907 191.354 158.873 191.378 158.925C191.76 159.749 192.451 160.329 192.961 161.055C193.176 161.356 193.373 161.67 193.564 161.989" stroke="#FF4351" stroke-width="3" stroke-linecap="round" stroke-linejoin="round"/>
<path d="M196.835 183.576C196.939 183.477 196.974 183.355 196.986 183.216C197.073 182.142 197.113 181.057 197.276 179.995C197.548 178.202 197.693 176.403 197.769 174.598C197.804 173.815 197.815 173.037 197.815 172.254C197.815 171.459 197.693 170.664 197.45 169.921C197.107 168.882 196.58 167.925 195.884 167.072C195.408 166.492 194.834 166.097 194.062 166.039C193.674 166.01 193.279 165.969 192.896 165.9C191.957 165.731 191.278 165.18 190.762 164.391L196.655 160.59C197.061 161.211 197.078 161.884 196.957 162.58C196.893 162.94 196.806 163.294 196.759 163.654C196.672 164.339 196.852 164.971 197.136 165.586C197.392 166.132 197.699 166.642 197.995 167.165C198.25 167.612 198.378 168.116 198.546 168.598C198.819 169.393 198.958 170.223 199.08 171.053C199.259 172.254 199.294 173.444 199.207 174.651C199.149 175.504 199.062 176.357 199.016 177.216C198.946 178.475 198.708 179.717 198.645 180.982C198.592 182.096 198.54 183.222 198.442 184.336C198.43 184.493 198.442 184.638 198.575 184.742" fill="#00CE7C"/>
<path d="M196.835 183.576C196.939 183.477 196.974 183.355 196.986 183.216C197.073 182.142 197.113 181.057 197.276 179.995C197.548 178.202 197.693 176.403 197.769 174.598C197.804 173.815 197.815 173.037 197.815 172.254C197.815 171.459 197.693 170.664 197.45 169.921C197.107 168.882 196.58 167.925 195.884 167.072C195.408 166.492 194.834 166.097 194.062 166.039C193.674 166.01 193.279 165.969 192.896 165.9C191.957 165.731 191.278 165.18 190.762 164.391L196.655 160.59C197.061 161.211 197.078 161.884 196.957 162.58C196.893 162.94 196.806 163.294 196.759 163.654C196.672 164.339 196.852 164.971 197.136 165.586C197.392 166.132 197.699 166.642 197.995 167.165C198.25 167.612 198.378 168.116 198.546 168.598C198.819 169.393 198.958 170.223 199.08 171.053C199.259 172.254 199.294 173.444 199.207 174.651C199.149 175.504 199.062 176.357 199.016 177.216C198.946 178.475 198.708 179.717 198.645 180.982C198.592 182.096 198.54 183.222 198.442 184.336C198.43 184.493 198.442 184.638 198.575 184.742" stroke="#00CE7C" stroke-width="3" stroke-linecap="round" stroke-linejoin="round"/>
<path d="M176.199 151.336C176.565 152.05 177.139 152.514 177.748 152.972C179.012 153.924 180.37 154.731 181.657 155.642C182.597 156.303 183.519 156.982 184.448 157.655C185.248 158.236 186.095 158.764 186.936 159.286C187.858 159.861 188.757 160.47 189.633 161.114C190.318 161.613 190.967 162.159 191.704 162.582C191.907 162.698 192.052 162.884 192.232 163.023" stroke="#053575" stroke-width="3" stroke-linecap="round" stroke-linejoin="round"/>
<path d="M191.325 158.876C191.093 158.464 190.803 158.092 190.484 157.744C190.455 157.709 190.408 157.692 190.379 157.657C190.078 157.257 189.73 156.88 189.445 156.473C189.051 155.905 188.651 155.324 188.222 154.79C187.827 154.291 187.462 153.763 187.038 153.282C186.702 152.899 186.464 152.429 186.162 152.011C185.849 151.576 185.466 151.181 185.188 150.728C184.683 149.899 184.028 149.191 183.448 148.419C183.158 148.036 182.862 147.647 182.531 147.293" stroke="#053575" stroke-width="3" stroke-linecap="round" stroke-linejoin="round"/>
<path d="M195.014 144.484C195.09 145.941 194.991 147.392 194.979 148.848C194.968 150.038 195.049 151.222 195.037 152.411C195.032 153.885 195.136 155.359 195.037 156.827C194.956 158.017 194.974 159.201 194.956 160.39C194.956 160.53 194.933 160.675 195.014 160.808" stroke="#053575" stroke-width="3" stroke-linecap="round" stroke-linejoin="round"/>
<path d="M174.34 159.137C174.757 159.369 175.227 159.467 175.68 159.595C177.176 160.013 178.684 160.355 180.198 160.704C181.567 161.017 182.983 161.139 184.328 161.551C186.022 162.067 187.751 162.415 189.462 162.851C190.175 163.031 190.9 163.205 191.579 163.518" stroke="#053575" stroke-width="3" stroke-linecap="round" stroke-linejoin="round"/>
<path d="M188.219 144.641C188.607 145.691 188.979 146.741 189.408 147.78C189.657 148.389 189.849 149.028 190.052 149.66C190.255 150.293 190.574 150.89 190.823 151.511C191.154 152.347 191.461 153.188 191.78 154.03C192.082 154.819 192.314 155.643 192.639 156.415C193.091 157.506 193.445 158.632 193.874 159.723C194.037 160.135 194.141 160.57 194.344 160.97C194.39 161.063 194.454 161.144 194.501 161.232" stroke="#053575" stroke-width="3" stroke-linecap="round" stroke-linejoin="round"/>
<path d="M191.242 158.94C191.283 158.9 191.358 158.865 191.381 158.917C191.764 159.741 192.454 160.321 192.965 161.047C193.18 161.348 193.377 161.662 193.568 161.981" stroke="#053575" stroke-width="3" stroke-linecap="round" stroke-linejoin="round"/>
<path d="M227.991 184.885C226.924 180.365 226.35 175.682 226.193 171.045C226.071 167.459 226.176 163.803 227.092 160.315C228.252 155.893 229.981 151.971 230.364 147.317C230.903 140.788 229.546 135.032 226.843 129.2C225.584 126.484 224.569 123.64 223.705 120.774C222.939 118.249 221.715 114.866 222.318 112.185C223.136 108.547 217.55 106.997 216.727 110.641C215.352 116.729 218.391 123.907 220.677 129.437C221.547 131.544 222.782 133.575 223.461 135.745C224.615 139.465 224.9 143.44 224.569 147.311C224.18 151.878 222.069 155.801 221.17 160.211C220.398 164.018 220.253 167.941 220.427 171.805C220.654 176.692 221.28 181.653 222.405 186.417C223.258 190.05 228.856 188.512 227.997 184.874L227.991 184.885Z" fill="#00CE7C"/>
<path d="M224.053 170.654C224.053 170.654 228.328 161.254 238.293 159.46C246.802 157.934 248.113 156.188 248.113 156.188C248.113 156.188 243.856 179.661 224.047 170.654H224.053Z" fill="#00CE7C" stroke="#00CE7C" stroke-width="3" stroke-linecap="round" stroke-linejoin="round"/>
<path d="M217.645 112.305C217.645 112.305 218.538 102.016 227.337 97.0026C234.849 92.72 235.504 90.6367 235.504 90.6367C235.504 90.6367 239.321 114.185 217.645 112.311V112.305Z" fill="#00CE7C" stroke="#00CE7C" stroke-width="3" stroke-linecap="round" stroke-linejoin="round"/>
<path d="M225.416 140.522C225.416 140.522 221.141 131.121 211.176 129.328C202.666 127.801 201.355 126.055 201.355 126.055C201.355 126.055 205.613 149.528 225.422 140.522H225.416Z" fill="#00CE7C" stroke="#00CE7C" stroke-width="3" stroke-linecap="round" stroke-linejoin="round"/>
<path d="M140.477 344.839L249.492 344.671C267.648 346.145 283.216 340.551 299.249 332.038C315.357 323.49 339.603 316.811 346.581 299.599C350.456 290.041 348.263 283.85 336.244 282.381C327.578 281.325 318.982 282.59 310.409 284C306.952 284.569 303.53 285.347 300.096 286.032C296.32 287.505 292.497 288.805 287.103 289.438C291.192 286.484 294.214 284.302 297.236 282.126C297.561 281.093 297.7 279.84 299.411 280.542L299.353 280.629C298.704 278.569 300.769 278 301.795 276.95C308.025 270.584 314.168 264.154 318.402 256.384C325.647 243.072 319.643 233.276 303.959 233.015C292.12 232.818 281.83 237.785 271.83 243.286C260.252 249.652 249.701 257.463 239.115 265.21C238.065 265.976 236.859 266.551 235.728 267.212C231.94 271.077 227.816 274.565 222.729 277.687C222.363 274.472 225.333 273.201 226.104 271.002C227.091 264.479 230.559 258.664 232.508 252.403C236.429 239.822 240.356 227.253 239.318 214.056C238.993 209.907 238.755 205.718 235.977 202.009C232.717 197.651 227.328 195.052 221.667 195.963C212.827 197.379 206.586 202.665 200.872 208.723C193.958 216.059 188.477 224.322 183.332 232.8C178.529 242.201 173.633 251.556 169.074 261.235C168.842 252.13 167.026 243.397 165.327 234.651L165.286 234.454C165.072 233.822 164.857 233.189 164.637 232.557L164.584 232.452C164.428 232.127 164.277 231.802 164.12 231.471C162.867 229.11 161.8 226.632 160.321 224.409C154.921 216.262 147.902 215.101 139.184 220.614C134.712 223.446 131.719 227.456 128.76 231.541C124.195 241.847 121.823 252.507 122.165 263.591C123.035 291.864 128.563 319.08 140.483 344.839H140.477Z" fill="#00CE7C"/>
<path d="M242.222 216.234H178.492V343.75H242.222V216.234Z" fill="#053575" stroke="#053575" stroke-width="3" stroke-linecap="round" stroke-linejoin="round"/>
<path d="M255.543 199.637H161.035V214.487H255.543V199.637Z" fill="#053575" stroke="#053575" stroke-width="3" stroke-linecap="round" stroke-linejoin="round"/>
<path d="M193.458 197.102H196.973C199.514 197.102 201.643 195.286 201.869 192.907L202.843 183.953C202.93 183.169 202.316 182.484 201.527 182.484H188.899C188.11 182.484 187.495 183.169 187.582 183.953L188.557 192.907C188.789 195.28 190.912 197.102 193.452 197.102H193.458Z" fill="#203AE9" stroke="#203AE9" stroke-width="3" stroke-linecap="round" stroke-linejoin="round"/>
<path d="M224.017 197.102H227.532C230.073 197.102 232.201 195.286 232.428 192.907L233.402 183.953C233.489 183.169 232.874 182.484 232.085 182.484H219.458C218.669 182.484 218.054 183.169 218.141 183.953L219.116 192.907C219.348 195.28 221.471 197.102 224.011 197.102H224.017Z" fill="#EFF1F1" stroke="#EFF1F1" stroke-width="3" stroke-linecap="round" stroke-linejoin="round"/>
<path d="M269.944 135.576C270.176 135.164 270.466 134.792 270.785 134.444C270.814 134.409 270.86 134.392 270.889 134.357C271.191 133.957 271.539 133.579 271.823 133.173C272.218 132.605 272.618 132.024 273.047 131.49C273.442 130.991 273.807 130.463 274.23 129.982C274.567 129.599 274.805 129.129 275.106 128.711C275.42 128.275 275.802 127.881 276.081 127.428C276.585 126.598 277.241 125.89 277.821 125.119C278.401 124.347 278.998 123.575 279.863 123.082C280.907 122.49 281.951 122.409 283.041 122.943C283.395 123.117 283.755 123.262 284.068 123.517C284.596 123.946 285.037 124.445 285.234 125.119C285.524 126.111 285.559 127.086 285.06 128.055C284.695 128.769 284.12 129.233 283.511 129.691C282.247 130.643 280.889 131.45 279.602 132.361C278.662 133.022 277.74 133.701 276.812 134.374C276.011 134.955 275.164 135.483 274.323 136.005C273.401 136.58 272.502 137.189 271.626 137.833C270.942 138.332 270.292 138.878 269.555 139.301C269.352 139.417 269.207 139.603 269.027 139.742" fill="#FF8CC5"/>
<path d="M269.944 135.576C270.176 135.164 270.466 134.792 270.785 134.444C270.814 134.409 270.86 134.392 270.889 134.357C271.191 133.957 271.539 133.579 271.823 133.173C272.218 132.605 272.618 132.024 273.047 131.49C273.442 130.991 273.807 130.463 274.23 129.982C274.567 129.599 274.805 129.129 275.106 128.711C275.42 128.275 275.802 127.881 276.081 127.428C276.585 126.598 277.241 125.89 277.821 125.119C278.401 124.347 278.998 123.575 279.863 123.082C280.907 122.49 281.951 122.409 283.041 122.943C283.395 123.117 283.755 123.262 284.068 123.517C284.596 123.946 285.037 124.445 285.234 125.119C285.524 126.111 285.559 127.086 285.06 128.055C284.695 128.769 284.12 129.233 283.511 129.691C282.247 130.643 280.889 131.45 279.602 132.361C278.662 133.022 277.74 133.701 276.812 134.374C276.011 134.955 275.164 135.483 274.323 136.005C273.401 136.58 272.502 137.189 271.626 137.833C270.942 138.332 270.292 138.878 269.555 139.301C269.352 139.417 269.207 139.603 269.027 139.742" stroke="#FF8CC5" stroke-width="3" stroke-linecap="round" stroke-linejoin="round"/>
<path d="M273.882 119.869C273.621 119.701 273.737 119.393 273.627 119.161C273.296 118.436 272.913 117.78 272.217 117.321C271.034 116.538 269.781 116.608 268.516 116.979C268.041 117.118 267.611 117.455 267.263 117.826C267.06 118.041 266.915 118.337 266.805 118.61C266.469 119.422 266.324 120.287 266.277 121.175C266.196 122.631 266.289 124.082 266.295 125.538C266.295 126.728 266.219 127.912 266.219 129.101C266.219 130.575 266.103 132.049 266.196 133.518C266.272 134.707 266.248 135.891 266.26 137.081C266.26 137.22 266.283 137.365 266.196 137.498" fill="#FF8CC5"/>
<path d="M273.882 119.869C273.621 119.701 273.737 119.393 273.627 119.161C273.296 118.436 272.913 117.78 272.217 117.321C271.034 116.538 269.781 116.608 268.516 116.979C268.041 117.118 267.611 117.455 267.263 117.826C267.06 118.041 266.915 118.337 266.805 118.61C266.469 119.422 266.324 120.287 266.277 121.175C266.196 122.631 266.289 124.082 266.295 125.538C266.295 126.728 266.219 127.912 266.219 129.101C266.219 130.575 266.103 132.049 266.196 133.518C266.272 134.707 266.248 135.891 266.26 137.081C266.26 137.22 266.283 137.365 266.196 137.498" stroke="#FF8CC5" stroke-width="3" stroke-linecap="round" stroke-linejoin="round"/>
<path d="M284.98 128.355C285.397 128.495 285.826 128.564 286.244 128.709C287.01 128.971 287.578 129.516 288.147 130.05C288.367 130.259 288.471 130.607 288.582 130.909C288.773 131.431 289.057 131.942 288.993 132.522C288.941 133.015 288.877 133.491 288.622 133.961C288.17 134.791 287.648 135.441 286.923 135.841C286.505 136.074 286.035 136.172 285.583 136.3C284.086 136.718 282.578 137.06 281.064 137.408C279.695 137.722 278.28 137.843 276.934 138.255C275.24 138.772 273.512 139.12 271.801 139.555C271.087 139.735 270.362 139.909 269.684 140.223" fill="#FF8CC5"/>
<path d="M284.98 128.355C285.397 128.495 285.826 128.564 286.244 128.709C287.01 128.971 287.578 129.516 288.147 130.05C288.367 130.259 288.471 130.607 288.582 130.909C288.773 131.431 289.057 131.942 288.993 132.522C288.941 133.015 288.877 133.491 288.622 133.961C288.17 134.791 287.648 135.441 286.923 135.841C286.505 136.074 286.035 136.172 285.583 136.3C284.086 136.718 282.578 137.06 281.064 137.408C279.695 137.722 278.28 137.843 276.934 138.255C275.24 138.772 273.512 139.12 271.801 139.555C271.087 139.735 270.362 139.909 269.684 140.223" stroke="#FF8CC5" stroke-width="3" stroke-linecap="round" stroke-linejoin="round"/>
<path d="M264.677 137.286C264.967 136.845 265.043 136.404 264.851 135.888C264.66 135.371 264.544 134.82 264.428 134.275C264.039 132.447 263.656 130.619 263.285 128.785C263.065 127.717 262.868 126.638 262.641 125.57C262.589 125.309 262.595 125.019 262.374 124.816C262.374 124.816 261.562 120.788 262.282 118.688C262.386 118.641 262.415 118.543 262.461 118.444C262.624 118.107 262.885 117.846 263.181 117.643C264.155 116.987 265.217 116.691 266.377 116.947C266.771 117.034 267.2 117.103 267.45 117.498" fill="#FF8CC5"/>
<path d="M264.677 137.286C264.967 136.845 265.043 136.404 264.851 135.888C264.66 135.371 264.544 134.82 264.428 134.275C264.039 132.447 263.656 130.619 263.285 128.785C263.065 127.717 262.868 126.638 262.641 125.57C262.589 125.309 262.595 125.019 262.374 124.816C262.374 124.816 261.562 120.788 262.282 118.688C262.386 118.641 262.415 118.543 262.461 118.444C262.624 118.107 262.885 117.846 263.181 117.643C264.155 116.987 265.217 116.691 266.377 116.947C266.771 117.034 267.2 117.103 267.45 117.498" stroke="#FF8CC5" stroke-width="3" stroke-linecap="round" stroke-linejoin="round"/>
<path d="M265.023 136.752C265.511 136.92 265.876 137.286 266.265 137.587C266.682 137.912 267.065 138.29 267.494 138.609C267.761 138.812 268.022 139.009 268.272 139.23C268.62 139.537 268.974 139.845 269.368 140.094C269.826 140.385 270.174 140.791 270.662 141.116C270.812 141.104 271.033 141.052 271.247 141.069C272.75 141.185 274.246 140.994 275.749 140.994C277.187 140.994 278.631 140.889 280.07 140.86C281.276 140.831 282.483 140.878 283.689 140.779C284.066 140.75 284.49 140.686 284.85 140.924C284.85 140.924 290.737 141.928 288.469 135.934" fill="#FF8CC5"/>
<path d="M265.023 136.752C265.511 136.92 265.876 137.286 266.265 137.587C266.682 137.912 267.065 138.29 267.494 138.609C267.761 138.812 268.022 139.009 268.272 139.23C268.62 139.537 268.974 139.845 269.368 140.094C269.826 140.385 270.174 140.791 270.662 141.116C270.812 141.104 271.033 141.052 271.247 141.069C272.75 141.185 274.246 140.994 275.749 140.994C277.187 140.994 278.631 140.889 280.07 140.86C281.276 140.831 282.483 140.878 283.689 140.779C284.066 140.75 284.49 140.686 284.85 140.924C284.85 140.924 290.737 141.928 288.469 135.934" stroke="#FF8CC5" stroke-width="3" stroke-linecap="round" stroke-linejoin="round"/>
<path d="M280.582 122.682C280.455 121.916 280.298 121.144 279.886 120.488C279.341 119.624 278.657 118.945 277.537 118.8C276.667 118.69 275.861 118.719 275.049 119.055C274.776 119.165 274.585 119.392 274.329 119.525C273.86 119.781 273.68 120.303 273.332 120.668C273.175 120.831 273.123 121.098 273.036 121.324C272.647 122.374 272.276 123.425 271.847 124.464C271.597 125.073 271.406 125.711 271.203 126.344C271 126.976 270.681 127.574 270.431 128.195C270.101 129.031 269.793 129.872 269.474 130.713C269.173 131.503 268.941 132.327 268.616 133.098C268.163 134.189 267.81 135.315 267.38 136.406C267.218 136.818 267.114 137.253 266.911 137.654C266.864 137.747 266.8 137.828 266.754 137.915" fill="#FF8CC5"/>
<path d="M280.582 122.682C280.455 121.916 280.298 121.144 279.886 120.488C279.341 119.624 278.657 118.945 277.537 118.8C276.667 118.69 275.861 118.719 275.049 119.055C274.776 119.165 274.585 119.392 274.329 119.525C273.86 119.781 273.68 120.303 273.332 120.668C273.175 120.831 273.123 121.098 273.036 121.324C272.647 122.374 272.276 123.425 271.847 124.464C271.597 125.073 271.406 125.711 271.203 126.344C271 126.976 270.681 127.574 270.431 128.195C270.101 129.031 269.793 129.872 269.474 130.713C269.173 131.503 268.941 132.327 268.616 133.098C268.163 134.189 267.81 135.315 267.38 136.406C267.218 136.818 267.114 137.253 266.911 137.654C266.864 137.747 266.8 137.828 266.754 137.915" stroke="#FF8CC5" stroke-width="3" stroke-linecap="round" stroke-linejoin="round"/>
<path d="M270.017 135.639C269.977 135.599 269.901 135.564 269.878 135.616C269.495 136.44 268.805 137.021 268.295 137.746C268.08 138.048 267.883 138.361 267.691 138.68" fill="#FF8CC5"/>
<path d="M270.017 135.639C269.977 135.599 269.901 135.564 269.878 135.616C269.495 136.44 268.805 137.021 268.295 137.746C268.08 138.048 267.883 138.361 267.691 138.68" stroke="#FF8CC5" stroke-width="3" stroke-linecap="round" stroke-linejoin="round"/>
<path d="M264.422 160.267C264.318 160.168 264.283 160.047 264.271 159.907C264.184 158.834 264.144 157.749 263.981 156.687C263.708 154.893 263.563 153.095 263.488 151.29C263.453 150.506 263.442 149.729 263.442 148.945C263.442 148.15 263.563 147.355 263.807 146.613C264.149 145.574 264.677 144.616 265.373 143.763C265.849 143.183 266.423 142.788 267.195 142.73C267.583 142.701 267.978 142.661 268.36 142.591C269.3 142.423 269.979 141.871 270.495 141.082L264.602 137.281C264.196 137.902 264.178 138.575 264.3 139.272C264.364 139.631 264.451 139.985 264.497 140.345C264.584 141.03 264.405 141.663 264.12 142.278C263.865 142.823 263.558 143.334 263.262 143.856C263.007 144.303 262.879 144.808 262.711 145.289C262.438 146.084 262.299 146.914 262.177 147.744C261.997 148.945 261.963 150.135 262.05 151.342C262.108 152.195 262.195 153.048 262.241 153.907C262.311 155.166 262.548 156.408 262.612 157.673C262.664 158.787 262.717 159.913 262.815 161.027C262.827 161.184 262.815 161.329 262.682 161.433" fill="#00CE7C"/>
<path d="M264.422 160.267C264.318 160.168 264.283 160.047 264.271 159.907C264.184 158.834 264.144 157.749 263.981 156.687C263.708 154.893 263.563 153.095 263.488 151.29C263.453 150.506 263.442 149.729 263.442 148.945C263.442 148.15 263.563 147.355 263.807 146.613C264.149 145.574 264.677 144.616 265.373 143.763C265.849 143.183 266.423 142.788 267.195 142.73C267.583 142.701 267.978 142.661 268.36 142.591C269.3 142.423 269.979 141.871 270.495 141.082L264.602 137.281C264.196 137.902 264.178 138.575 264.3 139.272C264.364 139.631 264.451 139.985 264.497 140.345C264.584 141.03 264.405 141.663 264.12 142.278C263.865 142.823 263.558 143.334 263.262 143.856C263.007 144.303 262.879 144.808 262.711 145.289C262.438 146.084 262.299 146.914 262.177 147.744C261.997 148.945 261.963 150.135 262.05 151.342C262.108 152.195 262.195 153.048 262.241 153.907C262.311 155.166 262.548 156.408 262.612 157.673C262.664 158.787 262.717 159.913 262.815 161.027C262.827 161.184 262.815 161.329 262.682 161.433" stroke="#00CE7C" stroke-width="3" stroke-linecap="round" stroke-linejoin="round"/>
<path d="M285.06 128.031C284.695 128.745 284.12 129.209 283.511 129.668C282.247 130.619 280.889 131.426 279.602 132.337C278.662 132.999 277.74 133.678 276.812 134.351C276.011 134.931 275.164 135.459 274.323 135.981C273.401 136.556 272.502 137.165 271.626 137.809C270.942 138.308 270.292 138.854 269.555 139.278C269.352 139.394 269.207 139.579 269.027 139.719" stroke="#053575" stroke-width="3" stroke-linecap="round" stroke-linejoin="round"/>
<path d="M269.945 135.575C270.177 135.163 270.467 134.792 270.786 134.443C270.815 134.409 270.862 134.391 270.891 134.356C271.192 133.956 271.54 133.579 271.825 133.173C272.219 132.604 272.619 132.024 273.049 131.49C273.443 130.991 273.808 130.463 274.232 129.981C274.568 129.598 274.806 129.128 275.108 128.71C275.421 128.275 275.804 127.88 276.082 127.428C276.587 126.598 277.242 125.89 277.822 125.118C278.112 124.735 278.408 124.346 278.739 123.992" stroke="#053575" stroke-width="3" stroke-linecap="round" stroke-linejoin="round"/>
<path d="M266.249 121.176C266.174 122.632 266.273 124.083 266.284 125.54C266.296 126.729 266.215 127.913 266.226 129.103C266.232 130.577 266.128 132.051 266.226 133.519C266.307 134.708 266.29 135.892 266.307 137.082C266.307 137.221 266.331 137.366 266.249 137.5" stroke="#053575" stroke-width="3" stroke-linecap="round" stroke-linejoin="round"/>
<path d="M286.923 135.832C286.505 136.064 286.035 136.163 285.583 136.29C284.086 136.708 282.578 137.051 281.064 137.399C279.695 137.712 278.28 137.834 276.934 138.246C275.24 138.763 273.512 139.111 271.801 139.546C271.087 139.726 270.362 139.9 269.684 140.213" stroke="#053575" stroke-width="3" stroke-linecap="round" stroke-linejoin="round"/>
<path d="M273.044 121.328C272.655 122.378 272.284 123.429 271.855 124.468C271.605 125.077 271.414 125.715 271.211 126.348C271.008 126.98 270.689 127.578 270.439 128.199C270.109 129.035 269.801 129.876 269.482 130.717C269.181 131.507 268.949 132.331 268.624 133.102C268.171 134.193 267.817 135.319 267.388 136.41C267.226 136.822 267.121 137.257 266.918 137.658C266.872 137.751 266.808 137.832 266.762 137.919" stroke="#053575" stroke-width="3" stroke-linecap="round" stroke-linejoin="round"/>
<path d="M270.017 135.628C269.977 135.587 269.901 135.552 269.878 135.604C269.495 136.429 268.805 137.009 268.295 137.734C268.08 138.036 267.883 138.349 267.691 138.668" stroke="#053575" stroke-width="3" stroke-linecap="round" stroke-linejoin="round"/>
<path d="M255.745 184.523L252.311 218.906L252.276 219.359C251.777 229.155 256.852 238.091 265.518 242.681C266.65 243.279 267.81 243.79 268.987 244.202C269.202 244.277 269.411 244.347 269.625 244.417C285.745 249.622 295.681 242.815 307.375 233.478L320.687 223.201" stroke="#053575" stroke-width="3" stroke-linecap="round" stroke-linejoin="round"/>
<path d="M277.926 183.059L277.711 188.3C276.957 195.838 274.939 204.322 276.006 211.837C276.221 213.351 276.841 214.86 277.995 215.858C283.593 220.698 291.586 210.566 294.672 207.217C300.42 200.979 316.389 182.938 321.087 175.881L318.628 224.83C318.628 224.83 298.31 250.678 276.006 247.182C260.368 244.73 255.147 233.221 255.147 233.221C255.147 233.221 250.507 223.936 252.827 212.33C255.147 200.724 257.073 184.441 255.24 180.976C253.407 177.512 246.017 168.697 247.392 165.273C248.767 161.849 251.239 162.846 251.239 162.846C251.239 162.846 252.22 158.924 254.567 159.528C256.633 159.904 258.104 163.337 258.104 163.337L260.368 166.492C260.368 166.492 278.082 176.421 277.926 183.059Z" fill="#EFF1F1" stroke="#053575" stroke-width="3" stroke-linecap="round" stroke-linejoin="round"/>
<path d="M277.926 183.065C277.346 178.539 273.831 174.273 271.302 171.929C268.773 169.585 258.784 160.857 256.876 161.246L258.594 163.342C258.594 163.342 254.59 159.122 252.375 160.63C250.159 162.139 252.71 165.785 252.189 164.646C251.064 162.186 248.343 161.042 247.433 164.414C246.522 167.786 249.451 171.436 253.465 177.192C257.479 182.949 255.281 189.988 255.281 189.988" stroke="#053575" stroke-width="3" stroke-linecap="round" stroke-linejoin="round"/>
<path d="M252.098 164.699C252.098 164.699 253.559 168.338 256.767 171.384C260.549 174.971 264.105 175.98 264.772 176.59" stroke="#053575" stroke-width="3" stroke-linecap="round" stroke-linejoin="round"/>
<path d="M259.074 166.836C259.967 167.683 260.954 168.426 262.015 169.053" stroke="#053575" stroke-width="3" stroke-linecap="round" stroke-linejoin="round"/>
<path d="M267.807 173.794H264.292C261.752 173.794 259.623 171.977 259.397 169.598L258.422 160.644C258.335 159.861 258.95 159.176 259.739 159.176H272.367C273.156 159.176 273.77 159.861 273.683 160.644L272.709 169.598C272.477 171.971 270.354 173.794 267.813 173.794H267.807Z" fill="#203AE9" stroke="#203AE9" stroke-width="3" stroke-linecap="round" stroke-linejoin="round"/>
<path d="M264.48 177.566C264.48 177.566 264.129 176.999 259.865 173.285C255.602 169.571 257.829 166.641 258.723 166.13C259.616 165.619 261.356 165.556 264.86 168.759C268.357 171.968 274.169 176.1 274.169 176.1C274.169 176.1 278.566 180.237 277.742 186.957" fill="#EFF1F1"/>
<path d="M264.48 177.566C264.48 177.566 264.129 176.999 259.865 173.285C255.602 169.571 257.829 166.641 258.723 166.13C259.616 165.619 261.356 165.556 264.86 168.759C268.357 171.968 274.169 176.1 274.169 176.1C274.169 176.1 278.566 180.237 277.742 186.957" stroke="#053575" stroke-width="3" stroke-linecap="round" stroke-linejoin="round"/>
<path d="M328.39 117.672C320.815 124.897 314.347 134.71 312.009 138.058C311.557 138.708 311.83 139.607 312.566 139.897L321.308 143.327L321.662 148.573C321.662 148.573 326.952 147.923 334.127 144.198C334.127 152.496 323.326 154.759 323.326 154.759C323.448 154.631 322.433 162.28 324.562 165.205C324.562 165.205 327.236 170.833 331.215 174.466C335.194 178.099 350.855 181.006 358.396 177.524C365.937 174.043 372.979 168.245 372.979 168.245C372.979 168.245 382.178 153.732 376.378 146.188C370.577 138.644 349.115 113.691 349.115 113.691C349.115 113.691 338.408 108.892 328.39 117.678V117.672Z" fill="#EFF1F1" stroke="#053575" stroke-width="3" stroke-linecap="round" stroke-linejoin="round"/>
<path d="M333.018 114.301C331.539 113.447 341.707 105.921 353.506 108.178C370.721 111.474 375.571 128.872 380.785 156.837L342.879 158.734L347.937 142.045C347.937 142.045 352.525 143.165 350.489 137.6C349.724 135.511 351.412 136.921 350.188 136.671C347.67 136.149 345.17 135.952 345.17 135.952C345.17 135.952 358.401 145.846 345.188 136.532C332.212 133.375 330.553 119.866 333.018 114.306V114.301Z" fill="#053575" stroke="#053575" stroke-width="3" stroke-linecap="round" stroke-linejoin="round"/>
<path d="M324.558 165.205C322.429 162.28 323.444 154.631 323.322 154.759C323.322 154.759 334.123 152.49 334.123 144.198C326.948 147.923 321.658 148.573 321.658 148.573L321.304 143.327L312.562 139.897C311.826 139.607 311.553 138.708 312.006 138.058C314.343 134.71 320.811 124.891 328.386 117.672" stroke="#053575" stroke-width="3" stroke-linecap="round" stroke-linejoin="round"/>
<path d="M325.675 132.926C325.46 134.556 326.278 136.547 327.456 136.442C328.61 136.338 329.219 134.51 329.579 132.966C329.526 133.402 329.474 133.837 329.422 134.278" stroke="#053575" stroke-width="3" stroke-linecap="round" stroke-linejoin="round"/>
<path d="M342.844 137.301C342.844 137.301 347.42 132.653 350.988 135.16C354.555 137.661 352.71 141.799 351.295 143.441C349.88 145.083 345.645 146.012 345.645 146.012" fill="#EFF1F1"/>
<path d="M344.652 142.29C344.652 142.29 347.819 138.837 349.026 138.332" stroke="#053575" stroke-width="3" stroke-linecap="round" stroke-linejoin="round"/>
<path d="M350.013 141.398C350.013 141.398 348.197 140.133 347.426 140.272" stroke="#053575" stroke-width="3" stroke-linecap="round" stroke-linejoin="round"/>
<path d="M323.576 258.449L329.823 325.863C329.864 326.298 329.678 326.716 329.342 326.931C326.604 328.701 314.371 336.755 309.997 342.396C309.446 343.104 309.875 344.218 310.71 344.229L345.902 344.676C346.163 344.676 346.412 344.566 346.598 344.357L350.461 339.982C351.308 339.024 352.451 338.49 353.646 338.49H354.017C356.505 338.49 358.518 340.771 358.518 343.585C358.518 344.195 358.953 344.682 359.487 344.682H367.55C368.124 344.682 368.57 344.119 368.518 343.475L361.047 257.016" fill="#EFF1F1"/>
<path d="M323.576 258.449L329.823 325.863C329.864 326.298 329.678 326.716 329.342 326.931C326.604 328.701 314.371 336.755 309.997 342.396C309.446 343.104 309.875 344.218 310.71 344.229L345.902 344.676C346.163 344.676 346.412 344.566 346.598 344.357L350.461 339.982C351.308 339.024 352.451 338.49 353.646 338.49H354.017C356.505 338.49 358.518 340.771 358.518 343.585C358.518 344.195 358.953 344.682 359.487 344.682H367.55C368.124 344.682 368.57 344.119 368.518 343.475L361.047 257.016" stroke="#053575" stroke-width="3" stroke-linecap="round" stroke-linejoin="round"/>
<path d="M354.178 258.449L360.425 325.863C360.465 326.298 360.28 326.716 359.943 326.931C357.205 328.701 344.972 337.219 340.599 342.86C340.047 343.568 340.477 344.682 341.312 344.694L373.621 344.804C375.883 344.81 378.029 343.783 379.439 342.018L381.069 339.982C381.916 339.024 383.058 338.49 384.253 338.49H384.624C387.113 338.49 389.126 340.771 389.126 343.585C389.126 344.195 389.561 344.682 390.094 344.682H398.157C398.731 344.682 399.178 344.119 399.126 343.475L391.655 257.016" fill="#EFF1F1"/>
<path d="M354.178 258.449L360.425 325.863C360.465 326.298 360.28 326.716 359.943 326.931C357.205 328.701 344.972 337.219 340.599 342.86C340.047 343.568 340.477 344.682 341.312 344.694L373.621 344.804C375.883 344.81 378.029 343.783 379.439 342.018L381.069 339.982C381.916 339.024 383.058 338.49 384.253 338.49H384.624C387.113 338.49 389.126 340.771 389.126 343.585C389.126 344.195 389.561 344.682 390.094 344.682H398.157C398.731 344.682 399.178 344.119 399.126 343.475L391.655 257.016" stroke="#053575" stroke-width="3" stroke-linecap="round" stroke-linejoin="round"/>
<path d="M373.81 166.863C352.418 185.804 323.897 172.022 323.897 172.022C323.897 172.022 323.723 171.494 323.543 171.9C323.328 171.825 300.039 200.817 300.039 200.817L319.714 225.422L309.059 279.39C361.93 307.929 421.931 266.107 421.931 266.107L373.81 166.869V166.863Z" fill="#203AE9" stroke="#203AE9" stroke-width="3" stroke-linecap="round" stroke-linejoin="round"/>
<path d="M62.5742 125.296L64.1984 141.033C64.1984 141.033 98.5373 158.953 110.718 141.544C110.138 127.617 107.238 121.814 107.238 121.814L110.138 111.949L99.1174 98.6016L67.7947 106.146L62.5742 125.296Z" fill="#EFF1F1" stroke="#EFF1F1" stroke-width="3" stroke-linecap="round" stroke-linejoin="round"/>
<path d="M104.473 105.293C108.707 109.024 113.284 114.427 115.644 117.328C116.439 118.309 116.021 119.783 114.832 120.195L107.506 122.749C107.506 122.749 112.176 132.469 110.412 140.755" fill="#EFF1F1"/>
<path d="M104.473 105.293C108.707 109.024 113.284 114.427 115.644 117.328C116.439 118.309 116.021 119.783 114.832 120.195L107.506 122.749C107.506 122.749 112.176 132.469 110.412 140.755" stroke="#053575" stroke-width="3" stroke-linecap="round" stroke-linejoin="round"/>
<path d="M99.3215 116.834C99.072 115.592 99.8203 114.037 100.963 114.083C102.088 114.124 102.726 115.505 103.115 116.683C103.051 116.352 102.993 116.015 102.929 115.685" stroke="#053575" stroke-width="3" stroke-linecap="round" stroke-linejoin="round"/>
<path d="M66.0644 92.1719C56.337 99.269 53.8254 114.943 59.8695 125.98C60.9542 127.953 61.9577 129.781 63.518 131.499C64.6317 132.729 66.5516 132.776 67.7524 131.627L77.5204 122.249" fill="#053575"/>
<path d="M66.0644 92.1719C56.337 99.269 53.8254 114.943 59.8695 125.98C60.9542 127.953 61.9577 129.781 63.518 131.499C64.6317 132.729 66.5516 132.776 67.7524 131.627L77.5204 122.249" stroke="#053575" stroke-width="3" stroke-linecap="round" stroke-linejoin="round"/>
<path d="M74.7827 123.839C76.459 115.442 75.1713 109.117 82.7004 116.011L82.5554 103.505C83.5588 103.772 84.5855 103.981 85.618 104.12C86.2097 104.202 86.8245 104.254 87.393 104.086C87.9614 103.917 88.4777 103.47 88.5241 102.919C88.5763 102.281 88.0136 101.753 87.4974 101.329C86.8999 100.836 86.3025 100.337 85.705 99.8436C85.9196 99.7449 86.1169 99.6405 86.3083 99.5418C88.4255 100.72 90.6529 101.759 92.8222 102.733C94.4406 103.465 96.2039 104.126 97.9905 103.9C98.6691 103.813 99.4406 103.482 99.5276 102.855C99.6146 102.217 98.9534 101.73 98.3675 101.381C96.2735 100.145 94.1738 98.9093 92.0798 97.6732C95.9777 99.7565 96.5056 100.035 100.995 100.401C102.962 100.563 105.467 100.215 106.036 98.4682C106.569 96.8376 104.968 95.323 103.466 94.3481C94.197 88.3594 81.3024 86.0614 70.7803 89.8449C68.9242 90.5123 67.2246 91.406 65.6875 92.4795" fill="#053575"/>
<path d="M74.7827 123.839C76.459 115.442 75.1713 109.117 82.7004 116.011L82.5554 103.505C83.5588 103.772 84.5855 103.981 85.618 104.12C86.2097 104.202 86.8245 104.254 87.393 104.086C87.9614 103.917 88.4777 103.47 88.5241 102.919C88.5763 102.281 88.0136 101.753 87.4974 101.329C86.8999 100.836 86.3025 100.337 85.705 99.8436C85.9196 99.7449 86.1169 99.6405 86.3083 99.5418C88.4255 100.72 90.6529 101.759 92.8222 102.733C94.4406 103.465 96.2039 104.126 97.9905 103.9C98.6691 103.813 99.4406 103.482 99.5276 102.855C99.6146 102.217 98.9534 101.73 98.3675 101.381C96.2735 100.145 94.1738 98.9093 92.0798 97.6732C95.9777 99.7565 96.5056 100.035 100.995 100.401C102.962 100.563 105.467 100.215 106.036 98.4682C106.569 96.8376 104.968 95.323 103.466 94.3481C94.197 88.3594 81.3024 86.0614 70.7803 89.8449C68.9242 90.5123 67.2246 91.406 65.6875 92.4795" stroke="#053575" stroke-width="3" stroke-linecap="round" stroke-linejoin="round"/>
<path d="M83.2721 118.257C83.2721 118.257 80.0876 112.878 76.0679 114.125C72.0481 115.373 72.7674 119.545 73.7013 121.391C74.6352 123.236 78.4287 125.221 78.4287 125.221" fill="#EFF1F1"/>
<path d="M83.2721 118.257C83.2721 118.257 80.0876 112.878 76.0679 114.125C72.0481 115.373 72.7674 119.545 73.7013 121.391C74.6352 123.236 78.4287 125.221 78.4287 125.221" stroke="#EFF1F1" stroke-width="3" stroke-linecap="round" stroke-linejoin="round"/>
<path d="M80.5359 121.561C80.5359 121.561 78.2389 117.365 77.1484 116.535" stroke="#053575" stroke-width="3" stroke-linecap="round" stroke-linejoin="round"/>
<path d="M74.9805 120.534C74.9805 120.534 77.1905 118.816 78.1997 118.897" stroke="#053575" stroke-width="3" stroke-linecap="round" stroke-linejoin="round"/>
<path d="M107.959 130.281C107.959 130.281 100.563 129.567 96.5781 125.836L107.959 130.281Z" fill="#EFF1F1"/>
<path d="M107.959 130.281C107.959 130.281 100.563 129.567 96.5781 125.836" stroke="#053575" stroke-width="3" stroke-linecap="round" stroke-linejoin="round"/>
<path d="M121.064 258.574L114.816 325.988C114.776 326.423 114.961 326.841 115.298 327.056C118.036 328.826 130.269 336.88 134.643 342.521C135.194 343.229 134.764 344.343 133.929 344.354L98.7375 344.801C98.4765 344.801 98.227 344.691 98.0414 344.482L94.1783 340.107C93.3314 339.149 92.1887 338.615 90.9938 338.615H90.6226C88.1342 338.615 86.1214 340.896 86.1214 343.71C86.1214 344.32 85.6864 344.807 85.1527 344.807H77.09C76.5158 344.807 76.0691 344.244 76.1213 343.6L83.5924 257.141" fill="#EFF1F1"/>
<path d="M121.064 258.574L114.816 325.988C114.776 326.423 114.961 326.841 115.298 327.056C118.036 328.826 130.269 336.88 134.643 342.521C135.194 343.229 134.764 344.343 133.929 344.354L98.7375 344.801C98.4765 344.801 98.227 344.691 98.0414 344.482L94.1783 340.107C93.3314 339.149 92.1887 338.615 90.9938 338.615H90.6226C88.1342 338.615 86.1214 340.896 86.1214 343.71C86.1214 344.32 85.6864 344.807 85.1527 344.807H77.09C76.5158 344.807 76.0691 344.244 76.1213 343.6L83.5924 257.141" stroke="#053575" stroke-width="3" stroke-linecap="round" stroke-linejoin="round"/>
<path d="M90.4601 258.574L84.2129 325.988C84.1723 326.423 84.3579 326.841 84.6944 327.056C87.4322 328.826 99.6655 337.344 104.039 342.985C104.59 343.693 104.161 344.807 103.326 344.819L71.0168 344.929C68.7546 344.935 66.6084 343.908 65.1989 342.143L63.5689 340.107C62.7221 339.149 61.5794 338.615 60.3845 338.615H60.0132C57.5248 338.615 55.512 340.896 55.512 343.71C55.512 344.32 55.077 344.807 54.5433 344.807H46.4806C45.9064 344.807 45.4598 344.244 45.512 343.6L52.983 257.141" fill="#EFF1F1"/>
<path d="M90.4601 258.574L84.2129 325.988C84.1723 326.423 84.3579 326.841 84.6944 327.056C87.4322 328.826 99.6655 337.344 104.039 342.985C104.59 343.693 104.161 344.807 103.326 344.819L71.0168 344.929C68.7546 344.935 66.6084 343.908 65.1989 342.143L63.5689 340.107C62.7221 339.149 61.5794 338.615 60.3845 338.615H60.0132C57.5248 338.615 55.512 340.896 55.512 343.71C55.512 344.32 55.077 344.807 54.5433 344.807H46.4806C45.9064 344.807 45.4598 344.244 45.512 343.6L52.983 257.141" stroke="#053575" stroke-width="3" stroke-linecap="round" stroke-linejoin="round"/>
<path d="M110.83 143.308C110.83 143.308 90.7488 154.223 64.1245 139.379C46.2299 174.748 10 254.662 10 254.662L140.082 259.902L110.836 143.302L110.83 143.308Z" fill="#FF8CC5" stroke="#FF8CC5" stroke-width="3" stroke-linecap="round" stroke-linejoin="round"/>
<path d="M75.3281 167.656C75.3281 167.656 86.3491 190.869 87.5092 192.61C88.6693 194.35 100.798 209.316 117.359 206.763C133.913 204.216 142.405 196.631 148.31 187.944C154.215 179.257 156.993 168.962 157.341 164.534C157.689 160.107 156.239 158.209 160.155 157.124C164.07 156.039 168.995 154.524 167.115 152.383C165.236 150.242 161.176 147.92 157.695 149.661C154.215 151.402 150.677 155.348 150.677 155.348C150.677 155.348 146.094 152.563 144.354 152.563C142.614 152.563 140.166 152.679 140.166 152.679C140.166 152.679 136.233 150.242 133.913 150.822C131.593 151.402 128.693 155.464 126.373 158.946C124.052 162.428 121.721 171.283 118.246 171.498C114.772 171.713 108.391 160.107 108.391 160.107L75.3281 167.651V167.656Z" fill="#EFF1F1"/>
<path d="M108.559 161.114C108.559 161.114 114.284 175.058 119.394 171.228C124.504 167.392 127.062 155.891 129.614 153.332C132.167 150.773 137.283 149.496 141.111 153.332C144.939 157.168 142.387 168.669 142.387 168.669C142.387 168.669 142.387 170.097 139.829 169.946C135.577 169.696 135.995 160.998 135.995 160.998C135.995 160.998 135.995 164.833 133.437 164.833" stroke="#053575" stroke-width="3" stroke-linecap="round" stroke-linejoin="round"/>
<path d="M141.258 153.103C143.184 152.598 144.906 152.662 147.505 154.612C152.615 158.447 150.063 168.672 150.063 171.226C150.063 173.785 143.404 175.885 141.699 170.135" stroke="#053575" stroke-width="3" stroke-linecap="round" stroke-linejoin="round"/>
<path d="M146.492 153.535C146.492 153.535 156.44 157.162 156.44 159.721C156.44 162.28 155.164 164.834 151.33 163.557" stroke="#053575" stroke-width="3" stroke-linecap="round" stroke-linejoin="round"/>
<path d="M151.332 154.612C151.332 154.612 155.166 149.5 160.276 149.5C165.387 149.5 167.945 152.059 166.663 154.612C165.387 157.172 160.276 154.612 156.442 161.002" stroke="#053575" stroke-width="3" stroke-linecap="round" stroke-linejoin="round"/>
<path d="M157.292 160.152C157.292 160.152 157.797 171.724 151.759 182.291C145.72 192.858 130.633 209.461 111.016 206.443C91.3986 203.426 85.3661 188.326 85.3661 188.326L75.6328 168.532" stroke="#053575" stroke-width="3" stroke-linecap="round" stroke-linejoin="round"/>
</svg>
