<svg width="432" height="432" viewBox="0 0 432 432" fill="none" xmlns="http://www.w3.org/2000/svg">
<path d="M135.196 288.223L147.726 390.085C148.626 397.401 145.82 404.663 140.296 409.414L130.801 417.573C129.054 419.079 130.096 421.984 132.39 421.984H185.668L192.198 412.409C192.428 412.068 192.975 412.229 192.975 412.66V422.001H205.54V288.241H135.213L135.196 288.223Z" fill="#EFF1F1"/>
<path d="M275.883 288.223L263.353 390.085C262.453 397.401 265.259 404.663 270.783 409.414L280.277 417.573C282.025 419.079 280.983 421.984 278.689 421.984H225.41L218.881 412.409C218.651 412.068 218.104 412.229 218.104 412.66V422.001H205.539V288.241H275.866L275.883 288.223Z" fill="#EFF1F1"/>
<path d="M135.196 288.223L147.726 390.085C148.626 397.401 145.82 404.663 140.296 409.414L130.801 417.573C129.054 419.079 130.096 421.984 132.39 421.984H185.668L192.198 412.409C192.428 412.068 192.975 412.229 192.975 412.66V422.001H205.54V288.241H135.213L135.196 288.223Z" stroke="#053575" stroke-width="3" stroke-miterlimit="10" stroke-linejoin="round"/>
<path d="M275.883 288.223L263.353 390.085C262.453 397.401 265.259 404.663 270.783 409.414L280.277 417.573C282.025 419.079 280.983 421.984 278.689 421.984H225.41L218.881 412.409C218.651 412.068 218.104 412.229 218.104 412.66V422.001H205.539V288.241H275.866L275.883 288.223Z" stroke="#053575" stroke-width="3" stroke-miterlimit="10" stroke-linejoin="round"/>
<path d="M210.488 129.428C236.314 129.428 257.25 105.764 257.25 76.5724C257.25 47.381 236.314 23.7168 210.488 23.7168C184.662 23.7168 163.727 47.381 163.727 76.5724C163.727 105.764 184.662 129.428 210.488 129.428Z" fill="#EFF1F1"/>
<path d="M202.45 87.8935C202.215 87.0991 201.381 86.6455 200.586 86.8804C199.792 87.1154 199.338 87.9498 199.573 88.7442L202.45 87.8935ZM201.012 88.3189C199.573 88.7442 199.574 88.7451 199.574 88.7461C199.574 88.7464 199.574 88.7474 199.574 88.7481C199.575 88.7495 199.575 88.7511 199.576 88.7527C199.577 88.7561 199.578 88.7599 199.579 88.7641C199.582 88.7727 199.585 88.7832 199.589 88.7955C199.597 88.82 199.607 88.852 199.621 88.8908C199.647 88.9683 199.685 89.0734 199.735 89.2015C199.836 89.4576 199.989 89.8082 200.206 90.2177C200.639 91.0341 201.337 92.1032 202.404 93.1222C204.591 95.2102 208.178 96.94 213.73 96.1442L213.304 93.1746C208.657 93.8407 205.992 92.4003 204.476 90.9525C203.692 90.2036 203.175 89.4135 202.857 88.8126C202.698 88.5135 202.591 88.2659 202.526 88.101C202.494 88.0187 202.472 87.9575 202.46 87.9215C202.454 87.9035 202.45 87.8918 202.448 87.887C202.447 87.8845 202.447 87.8838 202.448 87.8849C202.448 87.8854 202.448 87.8864 202.448 87.8878C202.449 87.8886 202.449 87.8894 202.449 87.8903C202.449 87.8908 202.45 87.8916 202.45 87.8918C202.45 87.8927 202.45 87.8935 201.012 88.3189ZM213.73 96.1442C219.348 95.3388 222.308 92.3656 223.803 89.5154C224.535 88.1209 224.902 86.7858 225.088 85.8011C225.182 85.3067 225.231 84.8943 225.256 84.5985C225.269 84.4503 225.276 84.3308 225.28 84.2441C225.282 84.2007 225.283 84.1655 225.284 84.1389C225.284 84.1257 225.284 84.1146 225.285 84.1057C225.285 84.1013 225.285 84.0974 225.285 84.0941C225.285 84.0924 225.285 84.0909 225.285 84.0895C225.285 84.0888 225.285 84.0879 225.285 84.0875C225.285 84.0867 225.285 84.0858 223.785 84.0742C222.285 84.0626 222.285 84.0619 222.285 84.0611C222.285 84.0609 222.285 84.0602 222.285 84.0598C222.285 84.0589 222.285 84.0583 222.285 84.0577C222.285 84.0566 222.285 84.056 222.285 84.056C222.285 84.0559 222.285 84.0579 222.285 84.0619C222.285 84.07 222.284 84.0862 222.283 84.11C222.281 84.1576 222.277 84.2355 222.268 84.3397C222.249 84.5485 222.213 84.8603 222.141 85.2441C221.995 86.0156 221.707 87.0527 221.147 88.1218C220.057 90.1988 217.883 92.5182 213.304 93.1746L213.73 96.1442Z" fill="#053575"/>
<path d="M204.157 51.3748C204.366 50.5732 203.886 49.7539 203.084 49.5447C202.283 49.3355 201.463 49.8158 201.254 50.6174L204.157 51.3748ZM194.939 80.7615L196.386 81.1562C196.387 81.1509 196.389 81.1455 196.39 81.1402L194.939 80.7615ZM195.256 81.0609L195.687 82.4976C195.709 82.491 195.731 82.4838 195.753 82.4761L195.256 81.0609ZM201.254 50.6174L193.487 80.3827L196.39 81.1402L204.157 51.3748L201.254 50.6174ZM193.491 80.3668C193.298 81.0753 193.575 81.7308 194.01 82.1205C194.422 82.4896 195.047 82.6895 195.687 82.4976L194.825 79.6242C195.288 79.4851 195.729 79.6322 196.012 79.8868C196.319 80.162 196.526 80.6414 196.386 81.1562L193.491 80.3668ZM195.753 82.4761L211.692 76.8752L210.698 74.0449L194.758 79.6457L195.753 82.4761Z" fill="#053575"/>
<path d="M179.511 56.0333C179.159 55.2832 178.266 54.9602 177.516 55.3118C176.766 55.6634 176.443 56.5565 176.794 57.3066L179.511 56.0333ZM186.131 61.9186L186.239 63.4146L186.24 63.4145L186.131 61.9186ZM178.152 56.67C176.794 57.3066 176.794 57.3072 176.795 57.3078C176.795 57.308 176.795 57.3086 176.795 57.309C176.796 57.3099 176.796 57.3109 176.797 57.3119C176.798 57.3141 176.799 57.3165 176.8 57.3193C176.803 57.325 176.806 57.3319 176.81 57.3402C176.818 57.3568 176.829 57.3787 176.842 57.4056C176.869 57.4592 176.907 57.5327 176.956 57.6231C177.053 57.8037 177.195 58.0532 177.382 58.3476C177.753 58.9332 178.312 59.7139 179.067 60.4871C180.568 62.0259 182.968 63.6521 186.239 63.4146L186.022 60.4225C183.957 60.5725 182.368 59.5744 181.214 58.392C180.641 57.8047 180.206 57.2006 179.915 56.7415C179.771 56.5136 179.665 56.3258 179.597 56.1997C179.563 56.1367 179.539 56.0895 179.524 56.0608C179.517 56.0464 179.512 56.0367 179.51 56.032C179.509 56.0297 179.508 56.0286 179.508 56.0288C179.508 56.0289 179.509 56.0293 179.509 56.0301C179.509 56.0305 179.509 56.0309 179.51 56.0315C179.51 56.0317 179.51 56.0322 179.51 56.0323C179.51 56.0328 179.511 56.0333 178.152 56.67ZM186.24 63.4145C190.296 63.1175 192.658 60.9608 193.955 58.8849C194.591 57.8668 194.97 56.8756 195.191 56.1415C195.302 55.7723 195.375 55.4621 195.421 55.2379C195.444 55.1256 195.46 55.0343 195.472 54.9674C195.477 54.9339 195.481 54.9064 195.485 54.8854C195.486 54.8749 195.487 54.866 195.488 54.8587C195.489 54.8551 195.489 54.8519 195.49 54.8491C195.49 54.8477 195.49 54.8464 195.49 54.8452C195.49 54.8447 195.49 54.8438 195.49 54.8436C195.491 54.8428 195.491 54.842 194.004 54.6445C192.517 54.447 192.517 54.4463 192.517 54.4457C192.517 54.4455 192.517 54.4448 192.517 54.4444C192.517 54.4437 192.517 54.443 192.517 54.4424C192.518 54.4413 192.518 54.4405 192.518 54.4401C192.518 54.4394 192.518 54.4402 192.517 54.4425C192.517 54.4471 192.515 54.4577 192.512 54.4739C192.507 54.5062 192.497 54.5608 192.482 54.6344C192.452 54.782 192.4 55.0042 192.318 55.2771C192.153 55.827 191.871 56.5585 191.411 57.2952C190.515 58.7285 188.94 60.2088 186.021 60.4226L186.24 63.4145Z" fill="#053575"/>
<path d="M213.749 53.3908C213.397 52.6407 212.504 52.3176 211.754 52.6692C211.004 53.0208 210.681 53.914 211.032 54.6641L213.749 53.3908ZM220.369 59.276L220.478 60.772L220.479 60.772L220.369 59.276ZM212.391 54.0274C211.032 54.6641 211.033 54.6646 211.033 54.6652C211.033 54.6654 211.033 54.666 211.034 54.6665C211.034 54.6673 211.034 54.6683 211.035 54.6694C211.036 54.6715 211.037 54.674 211.038 54.6768C211.041 54.6824 211.044 54.6894 211.048 54.6977C211.057 54.7143 211.067 54.7362 211.081 54.763C211.108 54.8166 211.145 54.8901 211.194 54.9806C211.292 55.1611 211.433 55.4106 211.62 55.705C211.991 56.2906 212.551 57.0713 213.305 57.8445C214.806 59.3833 217.207 61.0095 220.478 60.772L220.261 57.7799C218.195 57.9299 216.606 56.9318 215.452 55.7494C214.879 55.1621 214.445 54.558 214.154 54.099C214.009 53.871 213.903 53.6832 213.835 53.5571C213.801 53.4942 213.777 53.4469 213.762 53.4182C213.755 53.4039 213.751 53.3942 213.748 53.3895C213.747 53.3871 213.747 53.386 213.747 53.3862C213.747 53.3863 213.747 53.3867 213.747 53.3875C213.747 53.3879 213.748 53.3883 213.748 53.3889C213.748 53.3891 213.748 53.3896 213.748 53.3898C213.749 53.3902 213.749 53.3908 212.391 54.0274ZM220.479 60.772C224.534 60.475 226.896 58.3183 228.193 56.2423C228.829 55.2243 229.208 54.2331 229.429 53.4989C229.54 53.1297 229.613 52.8196 229.659 52.5953C229.682 52.483 229.699 52.3917 229.71 52.3248C229.715 52.2913 229.72 52.2638 229.723 52.2428C229.724 52.2323 229.726 52.2234 229.727 52.2162C229.727 52.2125 229.728 52.2093 229.728 52.2065C229.728 52.2051 229.728 52.2039 229.729 52.2027C229.729 52.2021 229.729 52.2013 229.729 52.201C229.729 52.2002 229.729 52.1994 228.242 52.002C226.755 51.8045 226.755 51.8038 226.755 51.8031C226.755 51.8029 226.755 51.8022 226.755 51.8019C226.756 51.8011 226.756 51.8004 226.756 51.7998C226.756 51.7987 226.756 51.7979 226.756 51.7976C226.756 51.7968 226.756 51.7976 226.756 51.7999C226.755 51.8045 226.753 51.8151 226.751 51.8313C226.745 51.8637 226.736 51.9182 226.72 51.9918C226.69 52.1394 226.638 52.3616 226.556 52.6345C226.391 53.1844 226.109 53.9159 225.649 54.6526C224.753 56.0859 223.178 57.5662 220.26 57.78L220.479 60.772Z" fill="#053575"/>
<path d="M208.518 31.0605C205.471 36.9784 195.572 51.5969 172.024 52.002C171.443 52.002 170.95 52.4423 170.862 53.0059C168.783 66.6557 165.19 78.5442 173.38 101.353C173.662 102.128 173.099 102.991 172.271 102.973C156.719 102.638 143.545 89.1118 138.86 79.055C138.578 78.4562 138.86 77.7517 139.476 77.4699C150.431 72.644 161.492 67.7653 169.911 38.7044C178.611 8.63961 212.392 10.0486 212.392 10.0486C212.392 10.0486 240.009 7.35389 255.033 42.086C264.702 66.0393 267.837 67.871 284.005 81.6969C284.499 82.1196 284.587 82.8946 284.164 83.3877C277.506 91.1901 266.058 97.2665 251.352 99.4505C250.524 99.5738 249.819 98.8164 250.013 97.9886C252.884 86.4523 250.964 64.595 250.453 59.4169C250.4 58.8005 249.872 58.3249 249.256 58.3425C244.113 58.4658 222.009 57.4091 210.666 31.131C210.261 30.2151 208.976 30.1447 208.518 31.0429V31.0605Z" fill="#053575"/>
<path d="M166.408 99.3986C175.743 104.436 212.447 121.185 253.749 99.2753C255 98.606 256.55 98.9406 257.413 100.05C328.885 193.292 361.01 236.425 368.725 246.852C369.781 248.278 369.464 250.286 368.02 251.308C347.677 265.627 211.303 353.849 64.4131 256.451C62.9688 255.5 62.5637 253.545 63.5148 252.1C88.2606 214.444 152.159 116.483 162.674 100.35C163.484 99.0992 165.105 98.6941 166.426 99.3986H166.408Z" fill="#FF8CC5"/>
<path d="M258.224 109.543L228.441 158.348L246.512 184.097C246.512 184.097 219.864 156.551 211.815 145.649C203.766 134.747 175.726 110.705 159.276 115.901C152.83 118.226 155.666 125.553 160.632 126.504C171.2 128.529 175.779 132.158 179.178 135.028C175.216 135.434 171.218 136.631 168.981 139.573C165.088 144.68 169.967 151.215 169.967 151.215C165.353 156.745 169.632 162.504 171.059 164.16C170.372 165.217 169.949 166.538 169.914 168.246C169.597 180.469 190.433 180.892 190.433 180.892C190.433 180.892 214.527 242.113 262.486 220.608C334.311 188.395 258.206 109.543 258.206 109.543H258.224Z" fill="#EFF1F1"/>
<path d="M178.214 136.177C178.849 136.71 179.795 136.627 180.327 135.993C180.86 135.358 180.777 134.412 180.143 133.88L178.214 136.177ZM160.632 126.504L160.915 125.031L160.914 125.031L160.632 126.504ZM159.276 115.901L158.824 114.471C158.805 114.477 158.786 114.483 158.767 114.49L159.276 115.901ZM246.512 184.097L245.434 185.14C245.978 185.703 246.863 185.752 247.467 185.254C248.07 184.755 248.189 183.876 247.739 183.236L246.512 184.097ZM228.441 158.348L227.161 157.566C226.85 158.076 226.87 158.721 227.213 159.209L228.441 158.348ZM258.224 109.543L259.303 108.501C258.981 108.167 258.521 108.001 258.06 108.052C257.598 108.103 257.186 108.365 256.944 108.762L258.224 109.543ZM262.504 220.608L263.118 221.977L263.118 221.977L262.504 220.608ZM190.451 180.892L191.846 180.342C191.624 179.779 191.085 179.404 190.48 179.392L190.451 180.892ZM180.143 133.88C176.617 130.92 171.81 127.119 160.915 125.031L160.35 127.977C170.59 129.94 174.942 133.43 178.214 136.177L180.143 133.88ZM160.914 125.031C159.051 124.674 157.533 123.079 157.135 121.376C156.944 120.558 157.026 119.782 157.386 119.125C157.742 118.475 158.45 117.794 159.785 117.312L158.767 114.49C156.879 115.171 155.525 116.277 154.754 117.685C153.988 119.085 153.881 120.636 154.214 122.059C154.864 124.839 157.247 127.383 160.35 127.977L160.914 125.031ZM159.728 117.331C163.416 116.167 167.9 116.603 172.818 118.247C177.717 119.884 182.893 122.668 187.863 125.986C197.82 132.633 206.706 141.254 210.608 146.54L213.021 144.758C208.875 139.141 199.716 130.291 189.529 123.491C184.426 120.085 179.005 117.151 173.769 115.401C168.552 113.658 163.362 113.038 158.824 114.471L159.728 117.331ZM210.608 146.54C214.692 152.072 223.429 161.749 231.083 169.983C234.922 174.113 238.509 177.902 241.136 180.658C242.45 182.036 243.524 183.156 244.269 183.932C244.642 184.32 244.933 184.622 245.131 184.827C245.23 184.929 245.305 185.007 245.356 185.06C245.382 185.086 245.401 185.106 245.414 185.12C245.42 185.127 245.425 185.132 245.429 185.135C245.43 185.137 245.431 185.138 245.432 185.139C245.433 185.139 245.433 185.14 245.433 185.14C245.433 185.14 245.434 185.14 246.512 184.097C247.59 183.054 247.59 183.054 247.589 183.054C247.589 183.054 247.589 183.054 247.589 183.053C247.588 183.052 247.587 183.051 247.585 183.05C247.582 183.046 247.577 183.041 247.571 183.035C247.558 183.022 247.539 183.002 247.514 182.976C247.463 182.924 247.388 182.846 247.29 182.744C247.094 182.54 246.804 182.24 246.432 181.853C245.689 181.08 244.618 179.963 243.308 178.588C240.687 175.838 237.109 172.059 233.28 167.94C225.598 159.676 216.986 150.128 213.021 144.758L210.608 146.54ZM247.739 183.236L229.669 157.486L227.213 159.209L245.284 184.959L247.739 183.236ZM229.721 159.129L259.504 110.324L256.944 108.762L227.161 157.566L229.721 159.129ZM258.224 109.543C257.145 110.585 257.145 110.584 257.145 110.585C257.145 110.585 257.146 110.586 257.147 110.587C257.149 110.589 257.152 110.592 257.156 110.596C257.164 110.605 257.177 110.618 257.194 110.636C257.228 110.672 257.28 110.727 257.349 110.8C257.487 110.946 257.692 111.165 257.958 111.453C258.49 112.03 259.263 112.883 260.224 113.981C262.146 116.179 264.815 119.359 267.797 123.276C273.768 131.119 280.955 141.87 285.91 153.58C290.874 165.311 293.526 177.83 290.673 189.302C287.842 200.686 279.516 211.333 261.89 219.24L263.118 221.977C281.396 213.777 290.486 202.487 293.584 190.026C296.661 177.654 293.755 164.42 288.673 152.411C283.582 140.381 276.235 129.406 270.184 121.458C267.155 117.479 264.441 114.247 262.482 112.007C261.503 110.887 260.712 110.014 260.164 109.42C259.89 109.122 259.677 108.895 259.531 108.74C259.458 108.663 259.402 108.604 259.364 108.564C259.345 108.544 259.33 108.529 259.32 108.519C259.315 108.513 259.311 108.509 259.308 108.506C259.307 108.505 259.306 108.504 259.305 108.503C259.304 108.502 259.303 108.501 258.224 109.543ZM261.89 219.24C250.217 224.476 240.092 224.645 231.453 222.039C222.778 219.422 215.483 213.97 209.585 207.78C203.69 201.592 199.249 194.727 196.278 189.392C194.794 186.728 193.682 184.455 192.942 182.852C192.573 182.051 192.296 181.418 192.114 180.988C192.022 180.772 191.954 180.608 191.91 180.499C191.887 180.445 191.871 180.404 191.86 180.378C191.855 180.364 191.851 180.355 191.849 180.349C191.848 180.346 191.847 180.344 191.846 180.343C191.846 180.342 191.846 180.342 191.846 180.342C191.846 180.342 191.846 180.342 190.451 180.892C189.055 181.442 189.055 181.442 189.056 181.443C189.056 181.444 189.056 181.445 189.057 181.446C189.058 181.449 189.059 181.453 189.061 181.457C189.065 181.466 189.07 181.478 189.076 181.495C189.089 181.527 189.108 181.574 189.133 181.634C189.182 181.756 189.256 181.933 189.353 182.161C189.546 182.617 189.835 183.278 190.218 184.109C190.985 185.77 192.131 188.112 193.657 190.852C196.704 196.324 201.287 203.419 207.413 209.849C213.536 216.276 221.258 222.097 230.587 224.911C239.953 227.736 250.82 227.493 263.118 221.977L261.89 219.24ZM190.451 180.892C190.48 179.392 190.48 179.392 190.48 179.392C190.48 179.392 190.481 179.392 190.481 179.392C190.48 179.392 190.48 179.392 190.479 179.392C190.478 179.392 190.475 179.392 190.472 179.392C190.464 179.392 190.451 179.391 190.434 179.391C190.4 179.39 190.346 179.388 190.275 179.385C190.133 179.38 189.921 179.37 189.648 179.353C189.102 179.32 188.318 179.258 187.375 179.148C185.483 178.925 182.988 178.507 180.524 177.729C178.043 176.946 175.702 175.832 174.021 174.283C172.384 172.774 171.365 170.853 171.431 168.285L168.432 168.207C168.34 171.759 169.807 174.479 171.988 176.489C174.124 178.458 176.933 179.741 179.621 180.59C182.326 181.443 185.02 181.891 187.025 182.127C188.031 182.245 188.871 182.311 189.464 182.348C189.76 182.366 189.995 182.377 190.158 182.383C190.24 182.386 190.303 182.388 190.347 182.39C190.37 182.39 190.387 182.391 190.399 182.391C190.406 182.391 190.41 182.391 190.414 182.391C190.416 182.391 190.418 182.391 190.419 182.391C190.419 182.392 190.42 182.392 190.42 182.392C190.421 182.392 190.421 182.392 190.451 180.892ZM171.431 168.285C171.498 165.705 172.527 164.292 173.933 163.445C175.453 162.529 177.586 162.179 179.932 162.205C182.245 162.231 184.58 162.62 186.357 163.011C187.241 163.206 187.975 163.398 188.486 163.542C188.741 163.613 188.94 163.672 189.073 163.712C189.139 163.733 189.189 163.748 189.222 163.758C189.238 163.764 189.249 163.767 189.257 163.77C189.26 163.771 189.263 163.772 189.264 163.772C189.264 163.772 189.265 163.772 189.265 163.772C189.265 163.772 189.265 163.772 189.265 163.772C189.265 163.772 189.264 163.772 189.728 162.346C190.193 160.919 190.192 160.919 190.192 160.919C190.191 160.919 190.191 160.919 190.19 160.919C190.189 160.918 190.188 160.918 190.186 160.917C190.183 160.916 190.178 160.915 190.172 160.913C190.161 160.909 190.144 160.904 190.124 160.897C190.082 160.884 190.023 160.866 189.946 160.842C189.794 160.796 189.574 160.731 189.296 160.653C188.74 160.497 187.95 160.29 187.002 160.081C185.117 159.666 182.562 159.235 179.966 159.206C177.402 159.177 174.607 159.537 172.385 160.875C170.049 162.282 168.524 164.667 168.432 168.207L171.431 168.285Z" fill="#053575"/>
<path d="M169.967 151.214L168.818 150.251L168.817 150.251L169.967 151.214ZM170.446 165.703C171.035 166.285 171.985 166.279 172.567 165.689C173.149 165.1 173.143 164.15 172.553 163.568L170.446 165.703ZM191.578 149.418C192.184 148.046 192.184 148.046 192.183 148.045C192.183 148.045 192.182 148.045 192.182 148.045C192.181 148.044 192.179 148.044 192.178 148.043C192.175 148.042 192.171 148.04 192.166 148.038C192.157 148.034 192.144 148.028 192.128 148.021C192.095 148.007 192.048 147.987 191.988 147.962C191.869 147.913 191.696 147.842 191.477 147.757C191.039 147.587 190.411 147.356 189.637 147.107C188.095 146.61 185.952 146.032 183.567 145.724C178.88 145.119 172.794 145.507 168.818 150.251L171.117 152.178C174.08 148.644 178.799 148.133 183.183 148.7C185.333 148.977 187.291 149.503 188.717 149.962C189.427 150.191 190 150.402 190.391 150.554C190.586 150.63 190.736 150.691 190.835 150.732C190.884 150.752 190.921 150.768 190.944 150.778C190.955 150.783 190.964 150.786 190.968 150.788C190.971 150.789 190.972 150.79 190.973 150.79C190.973 150.79 190.973 150.79 190.973 150.79C190.973 150.79 190.973 150.79 190.973 150.79C190.972 150.79 190.972 150.79 191.578 149.418ZM168.817 150.251C165.617 154.071 166.096 158.071 167.303 160.949C167.899 162.37 168.678 163.547 169.299 164.363C169.611 164.774 169.889 165.1 170.093 165.327C170.194 165.44 170.278 165.53 170.338 165.593C170.368 165.624 170.393 165.649 170.411 165.668C170.42 165.677 170.428 165.685 170.433 165.69C170.436 165.693 170.439 165.696 170.441 165.698C170.442 165.699 170.443 165.7 170.444 165.7C170.444 165.701 170.444 165.701 170.445 165.702C170.445 165.702 170.446 165.703 171.5 164.635C172.553 163.568 172.554 163.568 172.554 163.569C172.554 163.569 172.555 163.569 172.555 163.569C172.555 163.57 172.556 163.57 172.556 163.57C172.556 163.571 172.556 163.571 172.556 163.57C172.555 163.569 172.552 163.567 172.548 163.563C172.54 163.554 172.526 163.54 172.506 163.519C172.467 163.478 172.406 163.413 172.327 163.325C172.169 163.149 171.944 162.885 171.686 162.546C171.167 161.864 170.539 160.908 170.069 159.788C169.145 157.585 168.858 154.874 171.117 152.178L168.817 150.251Z" fill="#053575"/>
<path d="M168.999 139.573L170.192 140.482L170.193 140.481L168.999 139.573ZM168.783 152.112C169.279 152.776 170.219 152.913 170.883 152.417C171.546 151.921 171.683 150.981 171.187 150.318L168.783 152.112ZM190.874 135.628C191.175 134.158 191.175 134.158 191.174 134.158C191.174 134.158 191.173 134.158 191.173 134.158C191.172 134.158 191.171 134.157 191.169 134.157C191.166 134.157 191.162 134.156 191.157 134.155C191.148 134.153 191.134 134.15 191.116 134.147C191.081 134.14 191.031 134.13 190.966 134.118C190.837 134.093 190.65 134.059 190.411 134.019C189.935 133.939 189.253 133.833 188.42 133.73C186.757 133.525 184.47 133.327 181.993 133.366C179.525 133.405 176.81 133.679 174.316 134.447C171.824 135.214 169.445 136.509 167.805 138.665L170.193 140.481C171.327 138.991 173.069 137.97 175.199 137.314C177.326 136.659 179.733 136.402 182.04 136.366C184.339 136.33 186.481 136.513 188.052 136.708C188.836 136.804 189.473 136.903 189.912 136.977C190.131 137.014 190.3 137.045 190.412 137.066C190.468 137.077 190.51 137.085 190.537 137.09C190.551 137.093 190.561 137.095 190.567 137.096C190.569 137.097 190.571 137.097 190.572 137.097C190.573 137.097 190.573 137.097 190.573 137.097C190.573 137.097 190.573 137.097 190.573 137.097C190.573 137.097 190.573 137.097 190.874 135.628ZM167.806 138.664C165.436 141.773 165.798 145.271 166.605 147.77C167.012 149.032 167.55 150.105 167.982 150.86C168.199 151.239 168.393 151.543 168.535 151.756C168.606 151.863 168.665 151.947 168.707 152.007C168.729 152.037 168.746 152.061 168.759 152.079C168.765 152.088 168.77 152.095 168.774 152.1C168.776 152.103 168.778 152.106 168.78 152.108C168.78 152.109 168.781 152.11 168.782 152.11C168.782 152.111 168.782 152.111 168.783 152.111C168.783 152.112 168.783 152.112 169.985 151.215C171.187 150.318 171.187 150.318 171.188 150.318C171.188 150.319 171.188 150.319 171.188 150.319C171.189 150.319 171.189 150.32 171.189 150.32C171.189 150.32 171.189 150.32 171.189 150.32C171.188 150.319 171.187 150.317 171.184 150.313C171.179 150.306 171.169 150.293 171.155 150.273C171.128 150.235 171.086 150.174 171.031 150.092C170.922 149.928 170.765 149.682 170.585 149.369C170.224 148.739 169.786 147.859 169.46 146.849C168.8 144.804 168.669 142.48 170.192 140.482L167.806 138.664Z" fill="#053575"/>
<path d="M114.314 48.7968C116.304 47.7224 118.664 47.6343 120.725 48.5502L143.199 58.4309C145.911 59.6286 148.148 61.6892 149.557 64.2959C150.526 66.0924 151.072 68.1002 151.142 70.1433L153.009 122.065C153.097 124.654 151.776 127.103 149.557 128.441C147.619 129.604 145.242 129.78 143.146 128.917L121.359 119.864C119.175 118.948 117.29 117.451 115.899 115.531C114.49 113.558 113.662 111.234 113.521 108.821L110.457 55.6833C110.298 52.8477 111.795 50.1529 114.296 48.8144L114.314 48.7968Z" fill="#00A6E8"/>
<path d="M126.87 122.345C126.589 122.345 126.307 122.345 126.025 122.345C126.324 135.555 136.205 141.666 136.205 141.666L110.244 180.678C110.244 180.678 75.1244 167.733 85.9034 104.574C90.377 84.9886 97.8976 74.5619 104.784 68.9963C111.9 63.237 121.868 62.4268 129.935 66.7419C133.845 68.8378 138.125 71.7439 140.996 75.4426C144.818 80.3741 140.133 87.155 134.144 85.3937C126.729 83.2098 120.794 78.6129 119.332 77.5385C119.138 77.3976 118.909 77.3447 118.663 77.38C117.553 77.5737 114.365 78.472 113.256 82.4172C120.019 83.3507 130.129 84.8125 135.87 86.063C144.871 88.018 158.978 91.2587 153.184 102.654L153.272 102.46C153.272 102.46 153.184 102.654 153.166 102.654C153.06 102.848 152.972 103.042 152.867 103.235C152.867 103.235 159.383 116.357 138.125 113.134C140.978 117.061 137.403 122.609 126.87 122.327" fill="#EFF1F1"/>
<path d="M109.695 182.065C110.469 182.359 111.335 181.969 111.629 181.195C111.923 180.42 111.533 179.554 110.758 179.26L109.695 182.065ZM85.2165 103.924L83.7542 103.59C83.7481 103.617 83.7426 103.644 83.738 103.672L85.2165 103.924ZM129.248 66.0924L129.957 64.7704L129.956 64.7698L129.248 66.0924ZM140.309 74.7931L141.495 73.8742L141.494 73.8733L140.309 74.7931ZM133.458 84.7442L133.034 86.1831L133.034 86.1833L133.458 84.7442ZM118.645 76.889L119.534 75.6803L119.528 75.6759L118.645 76.889ZM117.976 76.7305L117.764 75.2455C117.751 75.2474 117.738 75.2493 117.726 75.2515L117.976 76.7305ZM110.227 180.663C110.758 179.26 110.759 179.261 110.76 179.261C110.76 179.261 110.761 179.261 110.761 179.261C110.762 179.261 110.762 179.261 110.761 179.261C110.76 179.261 110.756 179.259 110.751 179.257C110.74 179.253 110.72 179.245 110.693 179.234C110.638 179.211 110.551 179.175 110.434 179.123C110.2 179.02 109.848 178.856 109.397 178.623C108.495 178.157 107.199 177.416 105.668 176.33C102.606 174.16 98.603 170.614 94.917 165.14C87.5679 154.226 81.3495 135.448 86.6951 104.177L83.738 103.672C78.287 135.559 84.5736 155.151 92.4286 166.816C96.3447 172.632 100.619 176.428 103.933 178.778C105.59 179.952 107.007 180.765 108.021 181.289C108.528 181.551 108.934 181.74 109.22 181.867C109.363 181.93 109.476 181.977 109.555 182.01C109.595 182.026 109.627 182.039 109.651 182.048C109.662 182.053 109.672 182.056 109.679 182.059C109.683 182.061 109.686 182.062 109.688 182.063C109.69 182.063 109.691 182.064 109.692 182.064C109.693 182.065 109.695 182.065 110.227 180.663ZM86.6789 104.258C91.0959 84.9211 98.4726 74.8213 105.04 69.5135L103.154 67.1802C95.9489 73.0036 88.2845 83.7572 83.7542 103.59L86.6789 104.258ZM105.04 69.5135C111.454 64.3303 121.001 63.3816 128.541 67.4151L129.956 64.7698C121.363 60.173 110.514 61.2322 103.154 67.1802L105.04 69.5135ZM128.54 67.4145C132.373 69.4695 136.441 72.2559 139.124 75.7128L141.494 73.8733C138.435 69.933 133.943 66.9072 129.957 64.7704L128.54 67.4145ZM139.123 75.7119C142.034 79.4683 138.503 84.6647 133.881 83.3052L133.034 86.1833C140.388 88.3463 146.227 79.981 141.495 73.8742L139.123 75.7119ZM133.881 83.3053C126.754 81.2061 121.017 76.7703 119.534 75.6803L117.757 78.0977C119.198 79.1564 125.331 83.9144 133.034 86.1831L133.881 83.3053ZM119.528 75.6759C118.997 75.29 118.37 75.159 117.764 75.2455L118.188 78.2154C118.142 78.2221 118.071 78.2236 117.987 78.2038C117.901 78.1837 117.825 78.1468 117.763 78.1021L119.528 75.6759ZM117.726 75.2515C116.341 75.4858 112.133 76.6443 110.947 81.8952L113.874 82.556C114.661 79.0711 117.321 78.3626 118.226 78.2094L117.726 75.2515Z" fill="#053575"/>
<path d="M105.907 79.383C105.085 79.2789 104.335 79.8608 104.231 80.6827C104.127 81.5045 104.708 82.2551 105.53 82.3592L105.907 79.383ZM152.199 102.605L150.887 101.877C150.648 102.309 150.636 102.83 150.855 103.272L152.199 102.605ZM137.457 112.503L137.682 111.02C137.083 110.93 136.489 111.208 136.175 111.725C135.86 112.243 135.888 112.898 136.245 113.387L137.457 112.503ZM125.339 121.68L125.422 120.182C125.004 120.159 124.596 120.311 124.296 120.602C123.996 120.893 123.83 121.296 123.84 121.714L125.339 121.68ZM105.719 80.8711C105.53 82.3592 105.53 82.3592 105.53 82.3592C105.531 82.3593 105.531 82.3593 105.531 82.3593C105.532 82.3594 105.533 82.3595 105.534 82.3597C105.536 82.36 105.54 82.3604 105.545 82.361C105.554 82.3622 105.569 82.3641 105.588 82.3665C105.626 82.3714 105.684 82.3787 105.759 82.3883C105.909 82.4076 106.131 82.4361 106.417 82.4731C106.988 82.5471 107.816 82.6551 108.837 82.7909C110.881 83.0626 113.7 83.4455 116.804 83.8904C123.031 84.7827 130.347 85.9164 134.866 86.8986L135.503 83.967C130.864 82.9589 123.447 81.8118 117.23 80.9208C114.113 80.474 111.283 80.0897 109.233 79.8171C108.207 79.6807 107.376 79.5723 106.802 79.4979C106.514 79.4607 106.291 79.432 106.139 79.4126C106.064 79.4029 106.006 79.3955 105.967 79.3905C105.947 79.3881 105.932 79.3862 105.922 79.3849C105.917 79.3843 105.914 79.3838 105.911 79.3835C105.91 79.3833 105.909 79.3832 105.908 79.3831C105.908 79.3831 105.908 79.383 105.907 79.383C105.907 79.383 105.907 79.383 105.719 80.8711ZM134.866 86.8986C139.517 87.9092 145.121 89.1897 148.778 91.5707C150.573 92.7397 151.728 94.0683 152.164 95.6033C152.594 97.1168 152.409 99.1347 150.887 101.877L153.51 103.333C155.282 100.14 155.762 97.2924 155.05 94.7842C154.344 92.2975 152.552 90.4481 150.415 89.0567C146.207 86.3168 140.011 84.9465 135.503 83.967L134.866 86.8986ZM152.199 102.605C150.855 103.272 150.855 103.272 150.854 103.271C150.854 103.271 150.854 103.27 150.854 103.27C150.854 103.269 150.853 103.269 150.853 103.268C150.853 103.268 150.853 103.268 150.853 103.269C150.854 103.271 150.857 103.276 150.86 103.283C150.868 103.299 150.88 103.326 150.897 103.363C150.93 103.438 150.98 103.554 151.038 103.705C151.156 104.008 151.305 104.441 151.425 104.95C151.673 105.999 151.762 107.209 151.387 108.258C151.045 109.216 150.247 110.243 148.263 110.891C146.203 111.564 142.891 111.81 137.682 111.02L137.232 113.986C142.652 114.808 146.497 114.623 149.194 113.742C151.967 112.837 153.526 111.188 154.212 109.268C154.865 107.44 154.654 105.57 154.344 104.26C154.186 103.589 153.991 103.022 153.836 102.62C153.757 102.419 153.688 102.256 153.636 102.14C153.61 102.082 153.589 102.036 153.573 102.002C153.565 101.985 153.558 101.971 153.553 101.96C153.55 101.955 153.548 101.95 153.546 101.947C153.545 101.945 153.545 101.943 153.544 101.942C153.543 101.941 153.543 101.94 153.543 101.94C153.542 101.939 153.542 101.938 152.199 102.605ZM136.245 113.387C136.783 114.125 136.967 114.872 136.891 115.56C136.814 116.252 136.459 117.014 135.683 117.74C134.105 119.217 130.818 120.478 125.422 120.182L125.257 123.177C131.079 123.497 135.322 122.187 137.733 119.93C138.952 118.789 139.706 117.394 139.873 115.891C140.04 114.384 139.602 112.899 138.669 111.62L136.245 113.387ZM123.84 121.714C123.999 128.734 126.886 134.03 129.706 137.549C131.115 139.308 132.515 140.632 133.568 141.521C134.095 141.965 134.537 142.303 134.852 142.532C135.01 142.647 135.137 142.735 135.226 142.796C135.271 142.826 135.307 142.85 135.333 142.867C135.346 142.876 135.356 142.883 135.364 142.888C135.368 142.891 135.372 142.893 135.374 142.894C135.376 142.895 135.377 142.896 135.378 142.897C135.378 142.897 135.379 142.898 135.379 142.898C135.38 142.898 135.381 142.898 136.189 141.635C136.997 140.371 136.997 140.371 136.998 140.372C136.998 140.372 136.998 140.372 136.998 140.372C136.999 140.372 136.999 140.372 136.999 140.373C136.999 140.373 136.999 140.372 136.998 140.372C136.996 140.37 136.991 140.367 136.984 140.363C136.97 140.353 136.946 140.338 136.914 140.316C136.849 140.271 136.748 140.202 136.617 140.106C136.354 139.915 135.97 139.622 135.503 139.228C134.568 138.439 133.312 137.251 132.047 135.673C129.517 132.516 126.979 127.835 126.839 121.646L123.84 121.714Z" fill="#053575"/>
<path d="M112.616 118.57C111.795 118.467 111.045 119.05 110.941 119.872C110.838 120.694 111.421 121.444 112.243 121.547L112.616 118.57ZM125.527 120.191L112.616 118.57L112.243 121.547L125.153 123.167L125.527 120.191Z" fill="#053575"/>
<path d="M107.168 104.606C106.357 104.436 105.562 104.955 105.391 105.766C105.221 106.576 105.74 107.372 106.551 107.542L107.168 104.606ZM106.551 107.542L137.144 113.971L137.761 111.035L107.168 104.606L106.551 107.542Z" fill="#053575"/>
<path d="M112.769 92.6364C111.962 92.4493 111.156 92.9518 110.968 93.7588C110.781 94.5658 111.284 95.3718 112.091 95.5589L112.769 92.6364ZM112.43 94.0977C112.091 95.5589 112.091 95.5589 112.091 95.559C112.092 95.5591 112.092 95.5592 112.093 95.5593C112.094 95.5596 112.096 95.56 112.098 95.5605C112.103 95.5616 112.109 95.5632 112.119 95.5653C112.137 95.5695 112.164 95.5758 112.2 95.5841C112.271 95.6007 112.378 95.6252 112.516 95.6572C112.793 95.7211 113.2 95.8147 113.718 95.9335C114.754 96.1711 116.237 96.5095 118.023 96.9131C121.596 97.7202 126.386 98.7881 131.254 99.831C136.118 100.873 141.071 101.893 144.966 102.602C146.91 102.957 148.61 103.237 149.91 103.403C150.558 103.486 151.131 103.544 151.597 103.566C151.829 103.577 152.056 103.581 152.265 103.57C152.449 103.561 152.722 103.537 152.994 103.445L152.039 100.601C152.159 100.561 152.212 100.569 152.113 100.574C152.037 100.578 151.916 100.578 151.74 100.57C151.388 100.553 150.904 100.506 150.291 100.428C149.069 100.271 147.43 100.002 145.503 99.651C141.655 98.9502 136.738 97.938 131.882 96.8976C127.03 95.8578 122.251 94.7925 118.684 93.9868C116.901 93.5841 115.422 93.2464 114.388 93.0094C113.872 92.8909 113.466 92.7976 113.191 92.7339C113.053 92.7021 112.947 92.6777 112.876 92.6613C112.84 92.6531 112.813 92.6468 112.795 92.6427C112.786 92.6406 112.78 92.639 112.775 92.638C112.773 92.6375 112.771 92.6371 112.77 92.6368C112.77 92.6367 112.769 92.6366 112.769 92.6365C112.769 92.6365 112.769 92.6364 112.43 94.0977Z" fill="#053575"/>
</svg>
