<svg width="432" height="432" viewBox="0 0 432 432" fill="none" xmlns="http://www.w3.org/2000/svg">
<path d="M26.5337 240.704L67.9237 266.798C68.4989 267.16 68.5006 267.998 67.927 268.363L11.8412 304.054C10.9896 304.596 11.4954 305.916 12.4911 305.75L62.0958 297.483C62.7816 297.369 63.3444 298.022 63.1295 298.683L40.1863 369.278C39.9329 370.057 40.7422 370.758 41.4775 370.395L107.155 338.006" stroke="#6BC4E8" stroke-width="3" stroke-linecap="round"/>
<path d="M210.338 127.192L282.999 154.661C284.083 155.071 284.529 156.363 283.93 157.354L262.406 192.951C261.573 194.328 261.788 196.096 262.926 197.234C263.984 198.292 265.598 198.559 266.941 197.9L316.039 173.782C316.881 173.368 317.901 173.649 318.411 174.437L358.457 236.247C359.417 237.729 361.339 238.253 362.919 237.463C364.503 236.671 365.236 234.812 364.619 233.152L339.806 166.415C339.343 165.17 340.302 163.857 341.628 163.918L416.364 167.354C418.152 167.436 419.744 166.228 420.146 164.484L421.409 159.013C421.865 157.037 420.648 155.061 418.678 154.579L337.646 134.752C336.41 134.45 335.84 133.02 336.528 131.95L367.427 83.8839C368.062 82.8959 368.016 81.6171 367.312 80.6775C366.411 79.4773 364.727 79.1956 363.486 80.0375L312.558 114.565C311.713 115.138 310.563 114.919 309.987 114.077L274.655 62.3702C273.745 61.0391 271.956 60.6475 270.573 61.477C269.315 62.2322 268.774 63.7778 269.287 65.153L290.635 122.367C291.087 123.578 290.192 124.868 288.899 124.868H210.762C210.308 124.868 209.892 125.125 209.689 125.532C209.37 126.168 209.672 126.94 210.338 127.192Z" fill="#FF8CC5" stroke="#FF8CC5" stroke-width="3" stroke-linecap="round"/>
<path d="M174.699 132.393C188.205 152.654 190.873 158.162 195.316 165.226C196.408 166.961 196.236 169.104 194.877 170.311C194.189 170.922 193.203 170.974 192.284 170.913V170.913C187.301 170.58 183.475 175.58 184.552 180.457C186.136 187.624 187.415 197.487 185.496 206.507" stroke="#FEFEFE" stroke-width="3" stroke-linecap="round" stroke-linejoin="round"/>
<path d="M163.104 158.289C162.603 155.783 164.107 152.655 166.419 152.739C168.691 152.822 169.97 155.61 170.758 157.975" stroke="#FEFEFE" stroke-width="3" stroke-linecap="round" stroke-linejoin="round"/>
<path d="M165.759 114.974C149.194 100.126 121.696 99.9802 100.473 107.608C97.0627 108.835 93.9163 110.44 91.039 112.355C91.0204 112.368 90.9952 112.36 90.9874 112.339C90.9793 112.317 90.9529 112.309 90.9345 112.323C71.3466 126.633 63.188 152.418 65.922 177.624C67.9 195.869 98.2263 230.725 112.616 219.334C114.211 218.071 115.473 216.7 116.308 215.213C120.049 208.549 115.946 183.35 114.519 175.367C114.227 173.733 113.771 172.146 113.18 170.595C111.414 165.961 109.911 160.553 112.341 156.23C112.454 156.029 112.574 155.843 112.7 155.674C118.036 148.523 129.933 159.935 137.769 155.67C139.947 154.485 142.149 153.022 144.166 151.227C158.695 138.296 166.657 120.529 162.428 118.039C170.693 122.304 172.332 120.863 165.759 114.974Z" fill="#FEFEFE" stroke="#FEFEFE" stroke-width="3" stroke-linecap="round" stroke-linejoin="round"/>
<path d="M130.744 161.152C130.744 161.152 124.322 150.314 116.215 152.825C108.107 155.336 109.553 163.758 111.438 167.48C113.322 171.202 120.971 175.202 120.971 175.202" fill="#053575"/>
<path d="M130.744 161.152C130.744 161.152 124.322 150.314 116.215 152.825C108.107 155.336 109.553 163.758 111.438 167.48C113.322 171.202 120.971 175.202 120.971 175.202" stroke="#FEFEFE" stroke-width="3" stroke-linecap="round" stroke-linejoin="round"/>
<path d="M125.219 167.811C125.219 167.811 121.823 161.608 120.207 160.382" stroke="#FEFEFE" stroke-width="3" stroke-linecap="round" stroke-linejoin="round"/>
<path d="M117 166.292C117 166.292 120.27 163.753 121.763 163.875" stroke="#FEFEFE" stroke-width="3" stroke-linecap="round" stroke-linejoin="round"/>
<path d="M180.521 185.393C180.521 185.393 165.605 183.958 157.57 176.429L180.521 185.393Z" fill="#F8FAFA"/>
<path d="M180.521 185.393C180.521 185.393 165.605 183.958 157.57 176.429" stroke="#FEFEFE" stroke-width="3" stroke-linecap="round" stroke-linejoin="round"/>
<path d="M224.824 338.541C224.824 338.541 253.366 342.467 273.962 341.579C294.558 340.692 317.728 325.478 324.896 312.275C332.064 299.072 340.439 279.77 338.883 243.726C337.327 207.682 311.964 207.635 311.964 207.635" stroke="#FEFEFE" stroke-width="3" stroke-linecap="round" stroke-linejoin="round"/>
<path d="M331.321 238.452C330.966 237.387 326.92 219.965 314.594 219.083" stroke="#FEFEFE" stroke-width="3" stroke-linecap="round" stroke-linejoin="round"/>
<path d="M327.97 257.144C327.97 257.144 329.766 239.013 319.137 231.735" stroke="#FEFEFE" stroke-width="3" stroke-linecap="round" stroke-linejoin="round"/>
<path d="M304.458 255.254C304.458 255.254 304.459 255.254 304.459 255.254C311.058 255.655 316.732 250.633 317.134 244.039L320.283 180.904C320.403 178.978 318.936 177.323 317.009 177.208L312.028 176.905C310.102 176.785 308.447 178.252 308.332 180.179L304.453 255.253C304.453 255.255 304.456 255.256 304.458 255.254Z" fill="#203AE9" stroke="#203AE9" stroke-width="3" stroke-miterlimit="10"/>
<path d="M147.418 239.64C147.418 239.64 158.972 267.754 169.277 260.027C179.583 252.295 184.736 229.104 189.894 223.951C195.047 218.798 205.353 216.219 213.085 223.951C219.069 229.935 217.336 245.177 216.246 251.764C215.902 253.844 215.66 256.398 213.676 257.114C212.933 257.381 211.913 257.535 210.511 257.453C206.682 257.227 204.73 253.607 203.743 249.669C203.665 249.355 197.95 247.147 197.626 247.147V247.147" stroke="#FEFEFE" stroke-width="3" stroke-linecap="round" stroke-linejoin="round"/>
<path d="M213.352 223.489C217.236 222.476 220.713 222.601 225.949 226.527C236.255 234.259 231.102 254.871 231.102 260.024C231.102 265.177 217.669 269.416 214.234 257.821" stroke="#FEFEFE" stroke-width="3" stroke-linecap="round" stroke-linejoin="round"/>
<path d="M223.926 224.368C223.926 224.368 243.995 231.682 243.995 236.835C243.995 241.988 241.415 247.141 233.689 244.567" stroke="#FEFEFE" stroke-width="3" stroke-linecap="round" stroke-linejoin="round"/>
<path d="M233.695 226.529C233.695 226.529 241.427 216.223 251.733 216.223C262.039 216.223 267.192 221.376 264.618 226.529C262.039 231.681 251.733 226.529 244.001 239.413" stroke="#FEFEFE" stroke-width="3" stroke-linecap="round" stroke-linejoin="round"/>
<path d="M245.711 237.691C245.711 237.691 246.724 261.023 234.554 282.329C222.379 303.63 191.947 337.11 152.384 331.023C117.124 325.598 103.618 300.835 101.097 295.513C100.776 294.835 100.48 294.166 100.148 293.493L81.0156 254.601" stroke="#FEFEFE" stroke-width="3" stroke-linecap="round" stroke-linejoin="round"/>
<path d="M243.055 277.681C251.679 280.396 266.877 291.302 276.081 288.499C290.235 284.192 289.958 255.174 289.744 243.892C289.974 238.818 289.494 222.466 299.178 224.675C302.227 225.369 304.19 227.927 303.997 231.07C303.684 236.213 302.582 254.219 302.582 254.219" stroke="#FEFEFE" stroke-width="3" stroke-linecap="round" stroke-linejoin="round"/>
</svg>
