<svg width="432" height="432" viewBox="0 0 432 432" fill="none" xmlns="http://www.w3.org/2000/svg">
<path d="M10 252.216C10 252.216 19.4155 225.288 45.0519 220.689C24.3253 213.775 15.6555 173.398 74.0754 175.301C27.3706 166.832 36.5375 106.442 74.0754 100.701C106.268 95.7533 132.837 119.161 110.06 155.319C119.693 147.96 130.848 149.768 137.778 155.16" stroke="#00A6E8" stroke-width="3" stroke-linecap="round" stroke-linejoin="round"/>
<path d="M270.469 133.723C270.469 133.723 317.329 112.219 335.259 148.884C348.807 176.574 327.739 198.11 327.739 198.11C327.739 198.11 354.867 191.196 360.149 205.405C365.432 219.615 343.183 245.02 343.183 245.02C343.183 245.02 388.769 207.625 421.18 231.889" stroke="#00A6E8" stroke-width="3" stroke-linecap="round" stroke-linejoin="round"/>
<path d="M182.125 137.465L180.789 170.61C180.789 170.959 181.131 171.181 181.442 170.99L196.326 161.761" stroke="#053575" stroke-width="3" stroke-linecap="round" stroke-linejoin="round"/>
<path d="M165.184 173.844C165.184 173.844 178.39 189.417 196.289 181.52C214.188 173.622 211.049 156.336 211.049 156.336" stroke="#053575" stroke-width="3" stroke-linecap="round" stroke-linejoin="round"/>
<path d="M158.41 150.342C158.41 150.342 161.797 156.876 167.919 154.561C174.041 152.245 172.456 145.553 172.456 145.553" stroke="#053575" stroke-width="3" stroke-linecap="round" stroke-linejoin="round"/>
<path d="M193.559 139.211C193.559 139.211 196.946 145.745 203.067 143.43C209.189 141.114 207.604 134.422 207.604 134.422" stroke="#053575" stroke-width="3" stroke-linecap="round" stroke-linejoin="round"/>
<path d="M183.674 112.028C183.674 112.028 180.659 134.769 146.913 145.553C146.913 155.449 148.622 179.364 156.794 199.79C148.653 201.979 130.878 198.141 118.324 189.926C122.954 185.454 137.342 167.343 141.319 139.21C144.986 113.328 157.105 94.9318 183.767 92.2992C206.109 90.5547 223.418 96.0419 235.661 119.291C243.492 132.929 247.376 142.096 273.821 154.402C265.43 175.907 238.8 179.84 238.8 179.84C238.8 179.84 242.466 158.082 233.641 137.497C216.24 143.206 188.708 128.743 183.674 112.059V112.028Z" fill="#053575"/>
<path d="M271.957 274.137C271.957 274.137 229.54 240.199 195.7 221.359C193.121 219.931 190.386 218.79 187.558 217.965C176.682 214.825 165.806 213.969 160.368 217.331C157.137 219.329 156.204 224.055 158.566 227.036C162.109 231.508 171.058 227.766 174.911 229.827C179.821 232.428 186.16 234.395 186.16 234.395C186.16 234.395 171.897 238.74 179.572 252.22C173.824 261.989 183.83 268.079 183.83 268.079C183.83 268.079 178.64 283.43 208.161 284.128C208.161 284.128 262.137 355.492 307.102 305.41C357.629 249.143 270.31 188.15 270.31 188.15" stroke="#053575" stroke-width="3" stroke-linecap="round" stroke-linejoin="round"/>
<path d="M186.156 234.395C186.156 234.395 193.055 231.953 199.176 231.857" stroke="#053575" stroke-width="3" stroke-linecap="round" stroke-linejoin="round"/>
<path d="M179.574 252.221C179.574 252.221 186.473 243.562 201.823 245.941" stroke="#053575" stroke-width="3" stroke-linecap="round" stroke-linejoin="round"/>
<path d="M183.828 268.108C183.828 268.108 187.277 259.608 202.628 261.067" stroke="#053575" stroke-width="3" stroke-linecap="round" stroke-linejoin="round"/>
<path d="M96.4476 191.162L107.821 246.287C108.38 248.92 109.592 251.362 111.363 253.36C113.383 255.612 116.024 257.23 118.945 257.928L145.918 264.366C147.72 264.81 149.616 264.525 151.232 263.573C153.997 261.956 155.396 258.72 154.743 255.549L143.183 199.504C142.531 196.364 140.977 193.509 138.709 191.289C136.596 189.227 133.985 187.8 131.127 187.197L105.708 181.678C102.383 180.949 98.9957 182.503 97.2866 185.485C96.3233 187.197 95.9815 189.227 96.3854 191.162H96.4476Z" fill="#FF8CC5"/>
<path d="M139.46 278.546C129.547 273.281 124.388 260.911 124.388 260.911C124.388 260.911 137.409 261.736 136.383 247.685H143.499C147.57 247.685 155.028 244.418 150.273 233.127C153.847 229.67 150.491 219.615 142.66 219.615H105.247L112.891 210.956C112.891 210.956 127.434 217.522 131.877 218.981C136.321 220.44 143.81 219.837 142.101 212.574C140.392 205.31 118.857 191.228 106.459 195.541C103.009 196.747 99.964 198.713 97.3537 200.933C90.766 206.547 86.4155 214.413 84.4579 222.977C79.3306 245.56 71.7795 301.954 112.829 323.236C175.226 355.557 202.572 296.562 202.572 296.562" stroke="#053575" stroke-width="3" stroke-linecap="round" stroke-linejoin="round"/>
<path d="M150.269 233.125H105.305" stroke="#053575" stroke-width="3" stroke-linecap="round" stroke-linejoin="round"/>
<path d="M136.383 247.684H101.922" stroke="#053575" stroke-width="3" stroke-linecap="round" stroke-linejoin="round"/>
<path d="M124.393 260.912H110.254" stroke="#053575" stroke-width="3" stroke-linecap="round" stroke-linejoin="round"/>
<path d="M105.278 219.613H101.922" stroke="#053575" stroke-width="3" stroke-linecap="round" stroke-linejoin="round"/>
</svg>
