<svg width="432" height="432" viewBox="0 0 432 432" fill="none" xmlns="http://www.w3.org/2000/svg">
<path d="M217.857 11.2832C217.857 11.2832 196.855 18.787 187.225 29.5495C177.594 40.312 159.902 64.9244 159.902 64.9244L177.731 72.6511L178.349 81.8871L200.311 74.1861C200.311 74.1861 199.574 87.5815 181.273 92.7869C177.585 104.15 185.449 125.58 185.449 125.58C185.449 125.58 236.732 158.674 270.229 114.106C272.965 58.0038 258.009 22.6032 252.023 19.533C246.037 16.4629 217.849 11.2832 217.849 11.2832H217.857Z" fill="#053575"/>
<path d="M198.345 21.5233C195.738 20.0225 213.653 6.76446 234.44 10.7436C264.781 16.5494 273.323 47.1905 282.507 96.4494L215.711 99.7853L224.621 70.3878C224.621 70.3878 232.699 72.3602 229.115 62.5582C227.768 58.8792 230.736 61.3661 228.583 60.9202C224.149 60.0026 219.741 59.651 219.741 59.651C219.741 59.651 243.059 77.0854 219.776 60.6714C196.913 55.1144 193.989 31.3168 198.328 21.5233H198.345Z" fill="#FEFEFE" stroke="#FEFEFE" stroke-width="3" stroke-linecap="round" stroke-linejoin="round"/>
<path d="M183.449 111.175C179.702 106.021 181.485 92.5573 181.28 92.7803C181.28 92.7803 200.318 88.784 200.318 74.1795C187.669 80.7399 178.355 81.8806 178.355 81.8806L177.738 72.6445L162.327 66.5986C161.032 66.0926 160.543 64.5061 161.35 63.3655C165.475 57.4654 176.863 40.1768 190.216 27.459" stroke="#FEFEFE" stroke-width="3" stroke-linecap="round" stroke-linejoin="round"/>
<path d="M185.42 54.332C185.042 57.2049 186.483 60.7124 188.558 60.5238C190.591 60.3437 191.663 57.1192 192.297 54.4007C192.203 55.1725 192.109 55.9357 192.023 56.7075" stroke="#FEFEFE" stroke-width="3" stroke-linecap="round" stroke-linejoin="round"/>
<path d="M215.664 62.0265C215.664 62.0265 223.725 53.8452 230.011 58.2531C236.297 62.6611 233.047 69.9419 230.552 72.8405C228.056 75.7305 220.595 77.3685 220.595 77.3685" fill="#053575"/>
<path d="M218.859 70.8336C218.859 70.8336 224.442 64.7534 226.569 63.8616" stroke="#FEFEFE" stroke-width="3" stroke-linecap="round" stroke-linejoin="round"/>
<path d="M228.296 69.2581C228.296 69.2581 225.097 67.0285 223.742 67.2772" stroke="#FEFEFE" stroke-width="3" stroke-linecap="round" stroke-linejoin="round"/>
<path d="M83.75 141.752C84.0587 140.817 87.5919 125.604 98.363 124.832L83.75 141.752Z" fill="#053575"/>
<path d="M86.6743 158.083C86.6743 158.083 85.105 142.244 94.3925 135.881L86.6743 158.083Z" fill="#053575"/>
<path d="M108.877 155.526C108.877 155.526 107.916 139.798 107.642 135.304C107.47 132.56 109.194 130.321 111.853 129.713C120.308 127.783 119.888 142.07 120.094 146.504C119.905 156.366 119.665 181.707 132.031 185.472C140.075 187.925 153.351 178.388 160.889 176.022L176.814 229.191C176.814 229.191 151.876 232.621 133.884 231.849C115.892 231.069 95.6445 217.785 89.3842 206.251C83.1239 194.717 75.8088 177.848 77.1638 146.367C78.5188 114.877 100.678 114.834 100.678 114.834" fill="#053575"/>
<path d="M83.75 141.752C84.0587 140.817 87.5919 125.604 98.363 124.832" stroke="#FEFEFE" stroke-width="3" stroke-linecap="round" stroke-linejoin="round"/>
<path d="M86.6743 158.083C86.6743 158.083 85.105 142.244 94.3925 135.881" stroke="#FEFEFE" stroke-width="3" stroke-linecap="round" stroke-linejoin="round"/>
<path d="M108.877 155.526C108.877 155.526 107.916 139.798 107.642 135.304C107.47 132.56 109.194 130.321 111.853 129.713C120.308 127.783 119.888 142.07 120.094 146.504C119.905 156.366 119.665 181.707 132.031 185.472C140.075 187.925 153.351 178.388 160.889 176.022L176.814 229.191C176.814 229.191 151.876 232.621 133.884 231.849C115.892 231.069 95.6445 217.785 89.3842 206.251C83.1239 194.717 75.8088 177.848 77.1638 146.367C78.5188 114.877 100.678 114.834 100.678 114.834" stroke="#FEFEFE" stroke-width="3" stroke-linecap="round" stroke-linejoin="round"/>
<path d="M107.22 156.427C101.458 156.778 96.5009 152.396 96.1493 146.625L93.3964 91.4656C93.2935 89.7848 94.5713 88.3354 96.2522 88.2325L100.6 87.9667C102.281 87.8638 103.73 89.1416 103.833 90.8224L107.22 156.418V156.427Z" fill="#FEFEFE"/>
<path d="M183.244 269.895L194.255 388.634C194.323 389.397 193.997 390.135 193.406 390.512C188.578 393.625 167.027 407.818 159.317 417.757C158.348 419.009 159.103 420.965 160.569 420.99L222.58 421.779C223.043 421.779 223.481 421.582 223.807 421.213L230.616 413.512C232.099 411.832 234.123 410.888 236.224 410.888H236.876C241.258 410.888 244.809 414.902 244.809 419.858C244.809 420.93 245.572 421.797 246.524 421.797H260.725C261.737 421.797 262.526 420.81 262.432 419.67L249.259 267.391" fill="#053575"/>
<path d="M183.244 269.895L194.255 388.634C194.323 389.397 193.997 390.135 193.406 390.512C188.578 393.625 167.027 407.818 159.317 417.757C158.348 419.009 159.103 420.965 160.569 420.99L222.58 421.779C223.043 421.779 223.481 421.582 223.807 421.213L230.616 413.512C232.099 411.832 234.123 410.888 236.224 410.888H236.876C241.258 410.888 244.809 414.902 244.809 419.858C244.809 420.93 245.572 421.797 246.524 421.797H260.725C261.737 421.797 262.526 420.81 262.432 419.67L249.259 267.391" stroke="#FEFEFE" stroke-width="3" stroke-linecap="round" stroke-linejoin="round"/>
<path d="M237.161 269.894L248.173 388.633C248.241 389.396 247.915 390.134 247.324 390.511C242.496 393.624 220.945 408.632 213.235 418.571C212.266 419.823 213.021 421.778 214.487 421.804L271.413 422.001C275.401 422.018 279.174 420.209 281.669 417.096L284.542 413.503C286.026 411.822 288.05 410.878 290.151 410.878H290.803C295.185 410.878 298.735 414.892 298.735 419.849C298.735 420.921 299.498 421.787 300.45 421.787H314.652C315.664 421.787 316.453 420.801 316.358 419.66L303.186 267.381" fill="#053575"/>
<path d="M237.161 269.894L248.173 388.633C248.241 389.396 247.915 390.134 247.324 390.511C242.496 393.624 220.945 408.632 213.235 418.571C212.266 419.823 213.021 421.778 214.487 421.804L271.413 422.001C275.401 422.018 279.174 420.209 281.669 417.096L284.542 413.503C286.026 411.822 288.05 410.878 290.151 410.878H290.803C295.185 410.878 298.735 414.892 298.735 419.849C298.735 420.921 299.498 421.787 300.45 421.787H314.652C315.664 421.787 316.453 420.801 316.358 419.66L303.186 267.381" stroke="#FEFEFE" stroke-width="3" stroke-linecap="round" stroke-linejoin="round"/>
<path d="M270.226 114.099C232.527 147.467 182.273 123.181 182.273 123.181C182.273 123.181 181.965 122.246 181.647 122.958C181.27 122.821 140.227 173.889 140.227 173.889L174.89 217.222L156.117 312.276C249.275 362.538 355.006 288.872 355.006 288.872L270.217 114.082L270.226 114.099Z" fill="#00A6E8"/>
<path d="M302.698 400.044H210.08C204.42 400.044 199.789 395.413 199.789 389.753V326.293C199.789 324.981 200.038 323.72 200.492 322.562C201.993 318.729 205.732 316.002 210.08 316.002H302.698C308.358 316.002 312.989 320.633 312.989 326.293V389.753C312.989 395.413 308.358 400.044 302.698 400.044Z" fill="#FF8CC5"/>
<path d="M200.216 329.296C200.216 329.296 199.984 326.509 201.073 321.578C205.687 300.756 222.804 257.26 254.243 257.26C293.125 257.26 312.558 318.147 312.558 324.15C312.558 330.153 200.216 329.296 200.216 329.296Z" fill="#FF8CC5"/>
<path d="M226.801 309.126C226.801 309.126 234.313 266.273 254.192 266.273C274.07 266.273 285.116 305.147 285.116 308.243" fill="#00A6E8"/>
<path d="M216.945 175.755L238.307 274.728C238.307 274.728 231.919 293.354 251.445 292.248C270.972 291.142 263.254 272.267 263.254 272.267L259.824 166.785" fill="#053575"/>
<path d="M216.945 175.755L238.307 274.728C238.307 274.728 231.919 293.354 251.445 292.248C270.972 291.142 263.254 272.267 263.254 272.267L259.824 166.785" stroke="#FEFEFE" stroke-width="3" stroke-linecap="round" stroke-linejoin="round"/>
</svg>
